<svg width="184" height="88" viewBox="0 0 184 88" fill="none" xmlns="http://www.w3.org/2000/svg">
<path d="M20.3203 71.4141C20.3203 74.7344 21.2643 77.1432 23.1523 78.6406C25.0729 80.138 27.8724 80.9193 31.5508 80.9844V87.8203C25.3659 87.7552 20.5807 86.3392 17.1953 83.5723C13.8099 80.8053 12.1172 76.9154 12.1172 71.9023V57.1074C12.1172 53.722 11.0918 51.3132 9.04102 49.8809C6.99023 48.416 4.01172 47.6836 0.105469 47.6836V40.7988C4.33724 40.7337 7.39714 39.9525 9.28516 38.4551C11.1732 36.9577 12.1172 34.6465 12.1172 31.5215V16.5801C12.1172 11.5345 13.875 7.61198 17.3906 4.8125C20.9062 2.01302 25.6263 0.613281 31.5508 0.613281V7.40039C24.0638 7.5957 20.3203 10.8346 20.3203 17.1172V31.5215C20.3203 38.5202 16.6908 42.6543 9.43164 43.9238V44.5098C16.6908 45.7793 20.3203 49.9134 20.3203 56.9121V71.4141ZM62.1176 72.9C57.9176 72.9 54.1509 72.2 50.8176 70.8C47.4842 69.3333 44.8509 67.3333 42.9176 64.8C40.9842 62.2 39.9176 59.2333 39.7176 55.9H49.1176C49.3842 58.6333 50.6509 60.8667 52.9176 62.6C55.2509 64.3333 58.2842 65.2 62.0176 65.2C65.4842 65.2 68.2176 64.4333 70.2176 62.9C72.2176 61.3667 73.2176 59.4333 73.2176 57.1C73.2176 54.7 72.1509 52.9333 70.0176 51.8C67.8842 50.6 64.5842 49.4333 60.1176 48.3C56.0509 47.2333 52.7176 46.1667 50.1176 45.1C47.5842 43.9667 45.3842 42.3333 43.5176 40.2C41.7176 38 40.8176 35.1333 40.8176 31.6C40.8176 28.8 41.6509 26.2333 43.3176 23.9C44.9842 21.5667 47.3509 19.7333 50.4176 18.4C53.4842 17 56.9842 16.3 60.9176 16.3C66.9842 16.3 71.8842 17.8333 75.6176 20.9C79.3509 23.9667 81.3509 28.1667 81.6176 33.5H72.5176C72.3176 30.6333 71.1509 28.3333 69.0176 26.6C66.9509 24.8667 64.1509 24 60.6176 24C57.3509 24 54.7509 24.7 52.8176 26.1C50.8842 27.5 49.9176 29.3333 49.9176 31.6C49.9176 33.4 50.4842 34.9 51.6176 36.1C52.8176 37.2333 54.2842 38.1667 56.0176 38.9C57.8176 39.5667 60.2842 40.3333 63.4176 41.2C67.3509 42.2667 70.5509 43.3333 73.0176 44.4C75.4842 45.4 77.5842 46.9333 79.3176 49C81.1176 51.0667 82.0509 53.7667 82.1176 57.1C82.1176 60.1 81.2842 62.8 79.6176 65.2C77.9509 67.6 75.5842 69.5 72.5176 70.9C69.5176 72.2333 66.0509 72.9 62.1176 72.9ZM145.264 43.1C145.264 45.1667 145.13 47.0333 144.864 48.7H102.764C103.097 53.1 104.73 56.6333 107.664 59.3C110.597 61.9667 114.197 63.3 118.464 63.3C124.597 63.3 128.93 60.7333 131.464 55.6H143.764C142.097 60.6667 139.064 64.8333 134.664 68.1C130.33 71.3 124.93 72.9 118.464 72.9C113.197 72.9 108.464 71.7333 104.264 69.4C100.13 67 96.8637 63.6667 94.4637 59.4C92.1303 55.0667 90.9637 50.0667 90.9637 44.4C90.9637 38.7333 92.097 33.7667 94.3637 29.5C96.697 25.1667 99.9303 21.8333 104.064 19.5C108.264 17.1667 113.064 16 118.464 16C123.664 16 128.297 17.1333 132.364 19.4C136.43 21.6667 139.597 24.8667 141.864 29C144.13 33.0667 145.264 37.7667 145.264 43.1ZM133.364 39.5C133.297 35.3 131.797 31.9333 128.864 29.4C125.93 26.8667 122.297 25.6 117.964 25.6C114.03 25.6 110.664 26.8667 107.864 29.4C105.064 31.8667 103.397 35.2333 102.864 39.5H133.364ZM174.471 43.9238C167.212 42.6543 163.582 38.5202 163.582 31.5215V17.1172C163.582 10.8346 159.887 7.5957 152.498 7.40039V0.613281C158.488 0.613281 163.191 2.0293 166.609 4.86133C170.06 7.69336 171.785 11.5996 171.785 16.5801V31.5215C171.785 34.679 172.745 37.0065 174.666 38.5039C176.587 39.9688 179.663 40.7337 183.895 40.7988V47.6836C179.923 47.6836 176.912 48.416 174.861 49.8809C172.811 51.3132 171.785 53.722 171.785 57.1074V71.9023C171.785 76.8828 170.109 80.7565 166.756 83.5234C163.436 86.3229 158.683 87.7552 152.498 87.8203V80.9844C156.111 80.9193 158.862 80.138 160.75 78.6406C162.638 77.1432 163.582 74.7344 163.582 71.4141V56.9121C163.582 53.2012 164.477 50.3691 166.268 48.416C168.058 46.4629 170.792 45.1608 174.471 44.5098V43.9238Z" fill="black"/>
</svg>
