<svg width="16" height="8" viewBox="0 0 16 8" fill="none" xmlns="http://www.w3.org/2000/svg">
<path d="M2.26562 5.95312C2.26562 6.21875 2.34115 6.41146 2.49219 6.53125C2.64583 6.65104 2.86979 6.71354 3.16406 6.71875V7.26562C2.66927 7.26042 2.28646 7.14714 2.01562 6.92578C1.74479 6.70443 1.60938 6.39323 1.60938 5.99219V4.80859C1.60938 4.53776 1.52734 4.34505 1.36328 4.23047C1.19922 4.11328 0.960938 4.05469 0.648438 4.05469V3.50391C0.986979 3.4987 1.23177 3.4362 1.38281 3.31641C1.53385 3.19661 1.60938 3.01172 1.60938 2.76172V1.56641C1.60938 1.16276 1.75 0.848958 2.03125 0.625C2.3125 0.401042 2.6901 0.289062 3.16406 0.289062V0.832031C2.5651 0.847656 2.26562 1.10677 2.26562 1.60938V2.76172C2.26562 3.32161 1.97526 3.65234 1.39453 3.75391V3.80078C1.97526 3.90234 2.26562 4.23307 2.26562 4.79297V5.95312ZM5.60941 6.072C5.27341 6.072 4.97207 6.016 4.70541 5.904C4.43874 5.78667 4.22807 5.62667 4.07341 5.424C3.91874 5.216 3.83341 4.97867 3.81741 4.712H4.56941C4.59074 4.93067 4.69207 5.10933 4.87341 5.248C5.06007 5.38667 5.30274 5.456 5.60141 5.456C5.87874 5.456 6.09741 5.39467 6.25741 5.272C6.41741 5.14933 6.49741 4.99467 6.49741 4.808C6.49741 4.616 6.41207 4.47467 6.24141 4.384C6.07074 4.288 5.80674 4.19467 5.44941 4.104C5.12407 4.01867 4.85741 3.93333 4.64941 3.848C4.44674 3.75733 4.27074 3.62667 4.12141 3.456C3.97741 3.28 3.90541 3.05067 3.90541 2.768C3.90541 2.544 3.97207 2.33867 4.10541 2.152C4.23874 1.96533 4.42807 1.81867 4.67341 1.712C4.91874 1.6 5.19874 1.544 5.51341 1.544C5.99874 1.544 6.39074 1.66667 6.68941 1.912C6.98807 2.15733 7.14807 2.49333 7.16941 2.92H6.44141C6.42541 2.69067 6.33207 2.50667 6.16141 2.368C5.99607 2.22933 5.77207 2.16 5.48941 2.16C5.22807 2.16 5.02007 2.216 4.86541 2.328C4.71074 2.44 4.63341 2.58667 4.63341 2.768C4.63341 2.912 4.67874 3.032 4.76941 3.128C4.86541 3.21867 4.98274 3.29333 5.12141 3.352C5.26541 3.40533 5.46274 3.46667 5.71341 3.536C6.02807 3.62133 6.28407 3.70667 6.48141 3.792C6.67874 3.872 6.84674 3.99467 6.98541 4.16C7.12941 4.32533 7.20407 4.54133 7.20941 4.808C7.20941 5.048 7.14274 5.264 7.00941 5.456C6.87607 5.648 6.68674 5.8 6.44141 5.912C6.20141 6.01867 5.92407 6.072 5.60941 6.072ZM12.2611 3.688C12.2611 3.85333 12.2504 4.00267 12.2291 4.136H8.86109C8.88776 4.488 9.01843 4.77067 9.25309 4.984C9.48776 5.19733 9.77576 5.304 10.1171 5.304C10.6078 5.304 10.9544 5.09867 11.1571 4.688H12.1411C12.0078 5.09333 11.7651 5.42667 11.4131 5.688C11.0664 5.944 10.6344 6.072 10.1171 6.072C9.69576 6.072 9.31709 5.97867 8.98109 5.792C8.65043 5.6 8.38909 5.33333 8.19709 4.992C8.01043 4.64533 7.91709 4.24533 7.91709 3.792C7.91709 3.33867 8.00776 2.94133 8.18909 2.6C8.37576 2.25333 8.63443 1.98667 8.96509 1.8C9.30109 1.61333 9.68509 1.52 10.1171 1.52C10.5331 1.52 10.9038 1.61067 11.2291 1.792C11.5544 1.97333 11.8078 2.22933 11.9891 2.56C12.1704 2.88533 12.2611 3.26133 12.2611 3.688ZM11.3091 3.4C11.3038 3.064 11.1838 2.79467 10.9491 2.592C10.7144 2.38933 10.4238 2.288 10.0771 2.288C9.76243 2.288 9.49309 2.38933 9.26909 2.592C9.04509 2.78933 8.91176 3.05867 8.86909 3.4H11.3091ZM14.5977 3.75391C14.0169 3.65234 13.7266 3.32161 13.7266 2.76172V1.60938C13.7266 1.10677 13.431 0.847656 12.8398 0.832031V0.289062C13.319 0.289062 13.6953 0.402344 13.9688 0.628906C14.2448 0.855469 14.3828 1.16797 14.3828 1.56641V2.76172C14.3828 3.01432 14.4596 3.20052 14.6133 3.32031C14.7669 3.4375 15.013 3.4987 15.3516 3.50391V4.05469C15.0339 4.05469 14.793 4.11328 14.6289 4.23047C14.4648 4.34505 14.3828 4.53776 14.3828 4.80859V5.99219C14.3828 6.39062 14.2487 6.70052 13.9805 6.92188C13.7148 7.14583 13.3346 7.26042 12.8398 7.26562V6.71875C13.1289 6.71354 13.349 6.65104 13.5 6.53125C13.651 6.41146 13.7266 6.21875 13.7266 5.95312V4.79297C13.7266 4.49609 13.7982 4.26953 13.9414 4.11328C14.0846 3.95703 14.3034 3.85286 14.5977 3.80078V3.75391Z" fill="black"/>
</svg>
