<svg width="497" height="236" viewBox="0 0 497 236" fill="none" xmlns="http://www.w3.org/2000/svg">
<path d="M54.9648 191.418C54.9648 200.383 57.5137 206.887 62.6113 210.93C67.7969 214.973 75.3555 217.082 85.2871 217.258V235.715C68.5879 235.539 55.668 231.716 46.5273 224.245C37.3867 216.774 32.8164 206.271 32.8164 192.736V152.79C32.8164 143.649 30.0479 137.146 24.5107 133.278C18.9736 129.323 10.9316 127.346 0.384766 127.346V108.757C11.8105 108.581 20.0723 106.472 25.1699 102.429C30.2676 98.3857 32.8164 92.1455 32.8164 83.708V43.3662C32.8164 29.7432 37.5625 19.1523 47.0547 11.5938C56.5469 4.03516 69.291 0.255859 85.2871 0.255859V18.5811C65.0723 19.1084 54.9648 27.8535 54.9648 44.8164V83.708C54.9648 102.604 45.165 113.767 25.5654 117.194V118.776C45.165 122.204 54.9648 133.366 54.9648 152.263V191.418ZM167.817 195.43C156.477 195.43 146.307 193.54 137.307 189.76C128.307 185.8 121.197 180.4 115.977 173.56C110.757 166.54 107.877 158.53 107.337 149.53H132.717C133.437 156.91 136.857 162.94 142.977 167.62C149.277 172.3 157.467 174.64 167.547 174.64C176.907 174.64 184.287 172.57 189.687 168.43C195.087 164.29 197.787 159.07 197.787 152.77C197.787 146.29 194.907 141.52 189.147 138.46C183.387 135.22 174.477 132.07 162.417 129.01C151.437 126.13 142.437 123.25 135.417 120.37C128.577 117.31 122.637 112.9 117.597 107.14C112.737 101.2 110.307 93.46 110.307 83.92C110.307 76.36 112.557 69.43 117.057 63.13C121.557 56.83 127.947 51.88 136.227 48.28C144.507 44.5 153.957 42.61 164.577 42.61C180.957 42.61 194.187 46.75 204.267 55.03C214.347 63.31 219.747 74.65 220.467 89.05H195.897C195.357 81.31 192.207 75.1 186.447 70.42C180.867 65.74 173.307 63.4 163.767 63.4C154.947 63.4 147.927 65.29 142.707 69.07C137.487 72.85 134.877 77.8 134.877 83.92C134.877 88.78 136.407 92.83 139.467 96.07C142.707 99.13 146.667 101.65 151.347 103.63C156.207 105.43 162.867 107.5 171.327 109.84C181.947 112.72 190.587 115.6 197.247 118.48C203.907 121.18 209.577 125.32 214.257 130.9C219.117 136.48 221.637 143.77 221.817 152.77C221.817 160.87 219.567 168.16 215.067 174.64C210.567 181.12 204.177 186.25 195.897 190.03C187.797 193.63 178.437 195.43 167.817 195.43ZM392.312 114.97C392.312 120.55 391.952 125.59 391.232 130.09H277.562C278.462 141.97 282.872 151.51 290.792 158.71C298.712 165.91 308.432 169.51 319.952 169.51C336.512 169.51 348.212 162.58 355.052 148.72H388.262C383.762 162.4 375.572 173.65 363.692 182.47C351.992 191.11 337.412 195.43 319.952 195.43C305.732 195.43 292.952 192.28 281.612 185.98C270.452 179.5 261.632 170.5 255.152 158.98C248.852 147.28 245.702 133.78 245.702 118.48C245.702 103.18 248.762 89.77 254.882 78.25C261.182 66.55 269.912 57.55 281.072 51.25C292.412 44.95 305.372 41.8 319.952 41.8C333.992 41.8 346.502 44.86 357.482 50.98C368.462 57.1 377.012 65.74 383.132 76.9C389.252 87.88 392.312 100.57 392.312 114.97ZM360.182 105.25C360.002 93.91 355.952 84.82 348.032 77.98C340.112 71.14 330.302 67.72 318.602 67.72C307.982 67.72 298.892 71.14 291.332 77.98C283.772 84.64 279.272 93.73 277.832 105.25H360.182ZM471.171 117.194C451.571 113.767 441.771 102.604 441.771 83.708V44.8164C441.771 27.8535 431.796 19.1084 411.845 18.5811V0.255859C428.017 0.255859 440.717 4.0791 449.945 11.7256C459.262 19.3721 463.92 29.9189 463.92 43.3662V83.708C463.92 92.2334 466.513 98.5176 471.698 102.561C476.884 106.516 485.189 108.581 496.615 108.757V127.346C485.893 127.346 477.763 129.323 472.226 133.278C466.688 137.146 463.92 143.649 463.92 152.79V192.736C463.92 206.184 459.394 216.643 450.341 224.113C441.376 231.672 428.544 235.539 411.845 235.715V217.258C421.601 217.082 429.027 214.973 434.125 210.93C439.223 206.887 441.771 200.383 441.771 191.418V152.263C441.771 142.243 444.188 134.597 449.022 129.323C453.856 124.05 461.239 120.534 471.171 118.776V117.194Z" fill="#2D2D2D"/>
</svg>
