<svg width="3840" height="2160" viewBox="0 0 3840 2160" fill="none" xmlns="http://www.w3.org/2000/svg">
<path d="M3840 0H0V2160H3840V0Z" fill="#F0FBFF"/>
<path d="M1784.62 2154V2157H1787.62H3834H3837V2154V1566.54V1565.3L3836.12 1564.42L2656.11 385.208L2653.91 383.015L2651.8 385.281L1785.43 1311.94L1784.62 1312.8V1313.98V2154Z" fill="#E3E3E3" stroke="black" stroke-width="6"/>
<path d="M2454 597L2655.62 378L3093 822L2818.46 627.546L2748.5 755.82L2631.89 585.568L2522.27 688.188L2454 597Z" fill="white" stroke="black" stroke-width="6" stroke-miterlimit="16"/>
<path d="M3153 2157H3160.25L3155.12 2151.88L1803.35 801.876L1801.22 799.752L1799.1 801.888L459.87 2151.89L454.798 2157H462H1134H3153Z" fill="#F0F0F0" stroke="black" stroke-width="6"/>
<path d="M1644.35 2049.89L501 1852.9L3 2076V2157H3837V1881L3124.66 2049.89L2448.8 1686L1644.35 2049.89Z" fill="#A8F2C5" stroke="black" stroke-width="6"/>
<path d="M3633 411.011C3633 536.924 3530.92 639 3405.01 639C3279.08 639 3177 536.924 3177 411.011C3177 285.076 3279.08 183 3405.01 183C3530.92 183 3633 285.076 3633 411.011Z" fill="#FFC107" stroke="black" stroke-width="6"/>
<path d="M3837 3H3V2157H3837V3Z" stroke="black" stroke-width="6"/>
</svg>
