<svg width="220" height="148" viewBox="0 0 220 148" fill="none" xmlns="http://www.w3.org/2000/svg">
<g clip-path="url(#clip0_353_4311)">
<g filter="url(#filter0_d_353_4311)">
<rect x="10" y="16" width="200" height="132" fill="white"/>
</g>
<rect x="156" y="26" width="14" height="3" fill="#CFD9E0"/>
<rect x="136" y="26" width="14" height="3" fill="#CFD9E0"/>
<rect x="116" y="26" width="14" height="3" fill="#0066FF"/>
<rect x="96" y="26" width="14" height="3" fill="#CFD9E0"/>
<rect x="116" y="32" width="14" height="1" fill="#0066FF"/>
<path d="M93.4897 51.3887H90.6646L90.1274 53H88.4141L91.3252 45.1797H92.8184L95.7456 53H94.0322L93.4897 51.3887ZM91.0996 50.0835H93.0547L92.0718 47.1562L91.0996 50.0835ZM101.611 50.1479C101.611 51.0789 101.412 51.8058 101.015 52.3286C100.617 52.8478 100.062 53.1074 99.3496 53.1074C98.7194 53.1074 98.2163 52.8657 97.8403 52.3823L97.7705 53H96.374V44.75H97.9263V47.7095C98.2843 47.2905 98.7552 47.0811 99.3389 47.0811C100.048 47.0811 100.603 47.3424 101.004 47.8652C101.409 48.3844 101.611 49.1167 101.611 50.062V50.1479ZM100.059 50.0352C100.059 49.4479 99.9655 49.02 99.7793 48.7515C99.5931 48.4793 99.3156 48.3433 98.9468 48.3433C98.4526 48.3433 98.1125 48.5456 97.9263 48.9502V51.2437C98.116 51.6519 98.4598 51.856 98.9575 51.856C99.4588 51.856 99.7882 51.6089 99.9458 51.1147C100.021 50.8784 100.059 50.5186 100.059 50.0352ZM102.331 50.0405C102.331 49.464 102.442 48.9502 102.664 48.499C102.886 48.0479 103.204 47.6987 103.62 47.4517C104.039 47.2046 104.524 47.0811 105.075 47.0811C105.859 47.0811 106.499 47.321 106.993 47.8008C107.49 48.2806 107.768 48.9323 107.825 49.7559L107.836 50.1533C107.836 51.0449 107.587 51.7611 107.089 52.3018C106.592 52.8389 105.924 53.1074 105.086 53.1074C104.248 53.1074 103.578 52.8389 103.077 52.3018C102.579 51.7646 102.331 51.0342 102.331 50.1104V50.0405ZM103.883 50.1533C103.883 50.7048 103.987 51.1273 104.194 51.4209C104.402 51.7109 104.699 51.856 105.086 51.856C105.462 51.856 105.756 51.7127 105.967 51.4263C106.178 51.1362 106.284 50.6743 106.284 50.0405C106.284 49.4998 106.178 49.0809 105.967 48.7837C105.756 48.4865 105.458 48.3379 105.075 48.3379C104.696 48.3379 104.402 48.4865 104.194 48.7837C103.987 49.0773 103.883 49.5339 103.883 50.1533ZM112.272 52.4092C111.889 52.8747 111.359 53.1074 110.683 53.1074C110.06 53.1074 109.583 52.9284 109.254 52.5703C108.928 52.2122 108.762 51.6877 108.754 50.9966V47.1885H110.307V50.9429C110.307 51.548 110.582 51.8506 111.134 51.8506C111.66 51.8506 112.022 51.668 112.219 51.3027V47.1885H113.776V53H112.315L112.272 52.4092ZM116.806 45.7598V47.1885H117.799V48.3271H116.806V51.2275C116.806 51.4424 116.847 51.5964 116.929 51.6895C117.012 51.7826 117.169 51.8291 117.402 51.8291C117.574 51.8291 117.726 51.8166 117.858 51.7915V52.9678C117.554 53.0609 117.241 53.1074 116.918 53.1074C115.83 53.1074 115.275 52.5578 115.253 51.4585V48.3271H114.405V47.1885H115.253V45.7598H116.806ZM124.884 52.4092C124.501 52.8747 123.971 53.1074 123.294 53.1074C122.671 53.1074 122.195 52.9284 121.865 52.5703C121.539 52.2122 121.373 51.6877 121.366 50.9966V47.1885H122.918V50.9429C122.918 51.548 123.194 51.8506 123.745 51.8506C124.271 51.8506 124.633 51.668 124.83 51.3027V47.1885H126.388V53H124.927L124.884 52.4092ZM130.706 51.394C130.706 51.2043 130.611 51.0557 130.421 50.9482C130.235 50.8372 129.934 50.7388 129.519 50.6528C128.137 50.3628 127.446 49.7756 127.446 48.8911C127.446 48.3755 127.659 47.9458 128.085 47.6021C128.515 47.2547 129.075 47.0811 129.766 47.0811C130.504 47.0811 131.093 47.2547 131.533 47.6021C131.977 47.9494 132.199 48.4006 132.199 48.9556H130.647C130.647 48.7336 130.575 48.5509 130.432 48.4077C130.289 48.2609 130.065 48.1875 129.761 48.1875C129.499 48.1875 129.297 48.2466 129.154 48.3647C129.011 48.4829 128.939 48.6333 128.939 48.8159C128.939 48.9878 129.02 49.1274 129.181 49.2349C129.345 49.3387 129.621 49.43 130.008 49.5088C130.395 49.584 130.72 49.6699 130.985 49.7666C131.805 50.0674 132.215 50.5884 132.215 51.3296C132.215 51.8595 131.988 52.2892 131.533 52.6187C131.078 52.9445 130.491 53.1074 129.771 53.1074C129.285 53.1074 128.851 53.0215 128.472 52.8496C128.096 52.6742 127.8 52.436 127.585 52.1353C127.371 51.8309 127.263 51.5033 127.263 51.1523H128.735C128.749 51.4281 128.851 51.6393 129.041 51.7861C129.231 51.9329 129.485 52.0063 129.804 52.0063C130.101 52.0063 130.325 51.9508 130.475 51.8398C130.629 51.7253 130.706 51.5767 130.706 51.394Z" fill="#0B2239"/>
<circle cx="51.5" cy="27.5" r="3.5" fill="#CFD9E0"/>
<rect x="10" y="135" width="200" height="0.999965" fill="#CFD9E0"/>
<rect x="48" y="83" width="27" height="3" fill="#CFD9E0"/>
<rect x="48" y="88" width="40" height="3" fill="#CFD9E0"/>
<rect x="79" y="83" width="26" height="3" fill="#CFD9E0"/>
<rect x="92" y="88" width="8" height="3" fill="#CFD9E0"/>
<rect x="48" y="106" width="27" height="3" fill="#CFD9E0"/>
<rect x="48" y="111" width="40" height="3" fill="#CFD9E0"/>
<rect x="79" y="106" width="26" height="3" fill="#CFD9E0"/>
<rect x="92" y="111" width="8" height="3" fill="#CFD9E0"/>
<rect x="48" y="76" width="25" height="3" fill="#0066FF"/>
<rect x="48" y="99" width="25" height="3" fill="#0066FF"/>
<g clip-path="url(#clip1_353_4311)">
<rect width="32" height="32" transform="translate(116 71)" fill="#F0FBFF"/>
<path d="M127 89.5H132H137C139 89.5 138.5 87.5 138.5 83.5C138.5 80.3 134.5 79.8333 132.5 80C133.667 79.6667 135.4 79 133 79C130 79 128 80 126.5 82C125 84 125.5 86.5 125.5 88C125.5 89.2 126.5 89.5 127 89.5Z" fill="#9C7206"/>
<path fill-rule="evenodd" clip-rule="evenodd" d="M132.375 79.5158C129.866 79.6458 128.191 80.5789 126.9 82.3C126.23 83.1933 125.996 84.2101 125.937 85.2169C125.907 85.7209 125.921 86.2153 125.945 86.6864C125.95 86.8041 125.957 86.922 125.963 87.0389C125.982 87.3783 126 87.7089 126 88C126 88.437 126.171 88.6619 126.355 88.7942C126.564 88.9449 126.83 89 127 89H137C137.417 89 137.606 88.8978 137.713 88.783C137.839 88.6494 137.946 88.4036 138.004 87.938C138.061 87.4789 138.063 86.8883 138.047 86.1354C138.043 85.9397 138.038 85.7337 138.032 85.518C138.017 84.9172 138 84.2409 138 83.5C138 82.8135 137.789 82.2977 137.458 81.8984C137.121 81.4908 136.639 81.1796 136.066 80.9523C134.911 80.4942 133.495 80.4188 132.542 80.4983C132.285 80.5196 132.054 80.343 132.008 80.0899C131.962 79.8368 132.115 79.5899 132.363 79.5192C132.367 79.5181 132.371 79.5169 132.375 79.5158ZM134.598 79.5612C135.212 79.6438 135.846 79.7894 136.434 80.0227C137.111 80.2913 137.754 80.6863 138.229 81.261C138.711 81.844 139 82.5865 139 83.5C139 84.2271 139.017 84.8843 139.032 85.482C139.037 85.7006 139.043 85.9113 139.047 86.1146C139.062 86.8617 139.064 87.5211 138.996 88.062C138.929 88.5964 138.786 89.1006 138.443 89.467C138.082 89.8522 137.583 90 137 90H127C126.67 90 126.186 89.9051 125.77 89.6058C125.329 89.2881 125 88.763 125 88C125 87.7385 124.984 87.4485 124.966 87.1191C124.959 86.9969 124.952 86.8692 124.946 86.7355C124.922 86.2535 124.905 85.7166 124.938 85.1581C125.004 84.0399 125.27 82.8067 126.1 81.7C127.705 79.5602 129.861 78.5 133 78.5C133.31 78.5 133.564 78.5107 133.768 78.532C133.961 78.5523 134.147 78.5857 134.297 78.6504C134.419 78.7031 134.744 78.887 134.701 79.2825C134.688 79.4008 134.642 79.4945 134.598 79.5612Z" fill="#0B2239"/>
<path d="M130.5 92C130.5 94.4 129.833 95.6667 129.5 96V97.5L133 98.5C133.833 98.1667 135.3 97.2 134.5 96C133.7 94.8 133.833 92.8334 134 92C132.833 91 130.5 89.6 130.5 92Z" fill="#FFDFBA"/>
<path fill-rule="evenodd" clip-rule="evenodd" d="M131.196 91.2364C131.134 91.2868 131 91.4599 131 92C131 93.2459 130.827 94.214 130.602 94.9258C130.424 95.4877 130.206 95.9116 130 96.1836V97.1228L132.966 97.9703C133.315 97.8098 133.723 97.5535 133.983 97.2499C134.128 97.0798 134.205 96.9212 134.225 96.7788C134.244 96.6486 134.223 96.4858 134.084 96.2773C133.613 95.5712 133.437 94.6772 133.388 93.8931C133.349 93.2561 133.393 92.6507 133.458 92.2011C132.914 91.7677 132.231 91.3396 131.696 91.2112C131.394 91.1387 131.256 91.1881 131.196 91.2364ZM131.929 90.2388C132.779 90.4426 133.729 91.1088 134.325 91.6203C134.463 91.738 134.526 91.9207 134.49 92.098C134.415 92.4757 134.344 93.1324 134.387 93.8318C134.43 94.5394 134.587 95.2287 134.916 95.7226C135.177 96.1141 135.273 96.5221 135.215 96.9211C135.16 97.3079 134.968 97.6368 134.742 97.9C134.299 98.4177 133.643 98.7812 133.186 98.9642C133.083 99.0053 132.969 99.0111 132.863 98.9807L129.363 97.9807C129.148 97.9194 129 97.7232 129 97.4999V96C129 95.8674 129.053 95.7402 129.146 95.6464C129.234 95.559 129.452 95.2436 129.648 94.6241C129.84 94.0193 130 93.154 130 92C130 91.34 130.158 90.7882 130.569 90.4573C130.983 90.1243 131.502 90.1362 131.929 90.2388Z" fill="#0B2239"/>
<path d="M139.965 100.556V102.586C139.965 102.815 139.78 103 139.551 103H124.449C124.221 103 124.036 102.815 124.036 102.586V100.556C124.036 98.4256 125.763 96.7 127.893 96.6992C128.646 96.699 129.309 96.3111 129.691 95.7238C131.023 96.8617 132.977 96.8624 134.309 95.7238C134.691 96.3111 135.354 96.699 136.107 96.6992C138.238 96.7 139.965 98.4256 139.965 100.556Z" fill="#65CECE"/>
<path fill-rule="evenodd" clip-rule="evenodd" d="M134.418 94.9733L134.729 95.4514C135.021 95.9022 135.53 96.199 136.108 96.1992C138.514 96.2001 140.465 98.1491 140.465 100.556V102.586C140.465 103.091 140.056 103.5 139.551 103.5H124.449C123.945 103.5 123.536 103.091 123.536 102.586V100.556C123.536 98.1491 125.487 96.2001 127.893 96.1992H127.893C128.471 96.199 128.979 95.9022 129.272 95.4514L129.582 94.9734L130.016 95.3437C131.161 96.3218 132.839 96.3224 133.985 95.3437L134.418 94.9733ZM129.776 96.4119C129.297 96.8977 128.63 97.199 127.893 97.1992C126.039 97.1999 124.536 98.702 124.536 100.556V102.5H139.465V100.556C139.465 98.702 137.962 97.1999 136.107 97.1992C135.371 97.199 134.704 96.8977 134.225 96.4119C132.875 97.2996 131.125 97.2991 129.776 96.4119Z" fill="#0B2239"/>
<path d="M127 85.79C127 85.1453 128 83.2901 130.5 84.29C136 87.2901 137 84.29 137 85.7901C137 86.372 137 87.7819 137 89.2896C137 92.051 134.761 94.29 132 94.29V94.29C129.239 94.29 127 92.0509 127 89.2894C127 87.5959 127 86.0601 127 85.79Z" fill="#FFDFBA"/>
<path fill-rule="evenodd" clip-rule="evenodd" d="M127.636 85.3784C127.529 85.5803 127.5 85.7356 127.5 85.7901V89.2895C127.5 91.7748 129.515 93.7901 132 93.7901C134.485 93.7901 136.5 91.775 136.5 89.2896V85.9382C136.345 85.9872 136.148 86.0453 135.911 86.0929C134.838 86.3074 133.101 86.2726 130.288 84.7437C129.191 84.3128 128.512 84.5258 128.111 84.8241C127.896 84.9845 127.739 85.186 127.636 85.3784ZM136.49 85.6142C136.49 85.6142 136.49 85.6148 136.49 85.6163ZM127.514 84.0225C128.235 83.4844 129.298 83.2709 130.686 83.8258L130.713 83.8369L130.739 83.8511C133.41 85.3078 134.916 85.272 135.714 85.1123C135.921 85.0709 136.092 85.019 136.241 84.9712C136.257 84.966 136.274 84.9604 136.292 84.9546C136.411 84.9157 136.565 84.8657 136.693 84.849C136.777 84.8381 136.905 84.8318 137.043 84.882C137.198 84.9385 137.311 85.0464 137.382 85.172C137.444 85.283 137.47 85.3987 137.482 85.4888C137.496 85.583 137.5 85.6854 137.5 85.7901V89.2896C137.5 92.3271 135.038 94.7901 132 94.7901C128.962 94.7901 126.5 92.3269 126.5 89.2895V85.7901C126.5 85.5222 126.596 85.2038 126.754 84.9077C126.917 84.6022 127.166 84.2816 127.514 84.0225Z" fill="#0B2239"/>
<path fill-rule="evenodd" clip-rule="evenodd" d="M147 72H117V102H147V72ZM116 71V103H148V71H116Z" fill="#0B2239"/>
</g>
<g clip-path="url(#clip2_353_4311)">
<rect width="32" height="32" transform="translate(138 85)" fill="#F0FBFF"/>
<path d="M161.966 114.556V116.586C161.966 116.815 161.781 117 161.552 117H146.449C146.22 117 146.035 116.815 146.035 116.586V114.556C146.035 112.994 146.963 111.649 148.298 111.042C147.753 110.608 146.923 110.026 146.319 108.773C145.478 107.03 145.622 104.974 146.694 103.364C147.276 102.49 147.586 101.464 147.586 100.414V98.1724C147.586 95.3157 149.902 93 152.759 93H155.242C158.098 93 160.414 95.3157 160.414 98.1724C160.414 100.546 160.356 101.011 160.642 101.954C161.046 103.289 161.579 103.454 161.99 104.812C162.636 106.947 161.921 109.275 160.161 110.677L159.702 111.042C161.037 111.649 161.966 112.994 161.966 114.556Z" fill="#FFDFBA"/>
<path fill-rule="evenodd" clip-rule="evenodd" d="M152.759 93.5C150.178 93.5 148.086 95.5918 148.086 98.1724V100.414C148.086 101.562 147.747 102.685 147.11 103.641M147.086 98.1724C147.086 95.0395 149.626 92.5 152.759 92.5H155.242C158.374 92.5 160.914 95.0395 160.914 98.1724C160.914 98.5636 160.913 98.901 160.911 99.1954C160.905 100.725 160.904 101.094 161.121 101.809C161.302 102.411 161.508 102.74 161.736 103.108L161.738 103.11C161.98 103.499 162.244 103.925 162.469 104.667C163.159 106.95 162.425 109.434 160.589 110.973C161.722 111.759 162.466 113.07 162.466 114.556V116.586C162.466 117.091 162.057 117.5 161.552 117.5H146.449C145.944 117.5 145.535 117.091 145.535 116.586V114.556C145.535 113.07 146.279 111.758 147.413 110.972C146.918 110.55 146.33 109.946 145.869 108.99C144.951 107.087 145.108 104.843 146.278 103.087C146.805 102.295 147.086 101.365 147.086 100.414V98.1724ZM152.759 93.5H155.242ZM155.242 93.5C157.822 93.5 159.914 95.5918 159.914 98.1724ZM159.914 98.1724C159.914 98.5467 159.912 98.8755 159.911 99.168ZM159.911 99.168C159.903 100.692 159.9 101.231 160.164 102.1ZM160.164 102.1C160.384 102.827 160.645 103.246 160.885 103.632L160.889 103.639C161.117 104.006 161.325 104.342 161.511 104.957C162.099 106.897 161.449 109.012 159.849 110.286C159.849 110.286 159.849 110.286 159.849 110.286L158.752 111.159L159.495 111.497C160.659 112.026 161.466 113.197 161.466 114.556V116.5H146.535V114.556C146.535 113.197 147.342 112.026 148.505 111.497L149.249 111.159L148.609 110.651C148.565 110.615 148.519 110.579 148.472 110.542C147.937 110.122 147.273 109.6 146.77 108.556C146.005 106.972 146.136 105.104 147.11 103.641" fill="#0B2239"/>
<path d="M161.965 114.555V116.586C161.965 116.815 161.78 117 161.551 117H146.448C146.219 117 146.034 116.815 146.034 116.586V114.555C146.034 112.426 147.76 110.698 149.891 110.698C150.208 110.698 150.509 110.63 150.78 110.507L150.793 110.534L153.746 112.821C153.896 112.937 154.104 112.937 154.253 112.821L157.207 110.534L157.22 110.507C157.49 110.63 157.791 110.698 158.108 110.698C160.231 110.698 161.965 112.418 161.965 114.555Z" fill="#FFAA64"/>
<path fill-rule="evenodd" clip-rule="evenodd" d="M151.195 110.214L151.025 109.846L150.573 110.051C150.366 110.146 150.135 110.198 149.891 110.198C147.484 110.198 145.534 112.15 145.534 114.556V116.586C145.534 117.091 145.943 117.5 146.448 117.5H161.551C162.056 117.5 162.465 117.091 162.465 116.586V114.556C162.465 112.141 160.506 110.198 158.108 110.198C157.864 110.198 157.633 110.146 157.427 110.051L156.974 109.846L156.804 110.214L154 112.385L151.195 110.214ZM150.679 111.079C150.43 111.157 150.165 111.198 149.891 111.198C148.036 111.198 146.534 112.702 146.534 114.556V116.5H161.465V114.556C161.465 112.696 159.956 111.198 158.108 111.198C157.834 111.198 157.569 111.157 157.32 111.079L154.559 113.216L154.559 113.217C154.23 113.471 153.77 113.471 153.44 113.216C153.44 113.216 153.44 113.216 153.44 113.216L150.679 111.079ZM153.761 112.803L153.746 112.821ZM154 112.494L153.763 112.799L154 112.494Z" fill="#0B2239"/>
<path d="M158.729 100.565C158.949 100.578 159.121 100.758 159.121 100.978V103.455C159.121 105.59 157.815 107.419 155.958 108.188C152.6 109.582 148.879 107.106 148.879 103.455V101.014C148.879 100.772 149.087 100.58 149.329 100.602C151.811 100.827 154.255 100.2 156.307 98.8174C156.541 98.6602 156.862 98.7767 156.936 99.0483C157.191 99.9894 157.888 100.517 158.729 100.565Z" fill="#FFEBD2"/>
<path fill-rule="evenodd" clip-rule="evenodd" d="M156.488 99.2978C156.817 100.342 157.632 100.972 158.621 101.059V103.455C158.621 105.38 157.443 107.032 155.767 107.726L155.766 107.726C152.738 108.983 149.379 106.749 149.379 103.455V101.108C151.903 101.316 154.387 100.682 156.488 99.2978ZM156.028 98.4027C156.54 98.0579 157.253 98.3085 157.419 98.9174L157.419 98.9174C157.619 99.6557 158.136 100.03 158.758 100.066C159.24 100.093 159.621 100.491 159.621 100.978V103.455C159.621 105.799 158.186 107.806 156.149 108.65C152.462 110.18 148.379 107.462 148.379 103.455V101.014C148.379 100.481 148.836 100.055 149.374 100.104L149.374 100.104C151.742 100.319 154.071 99.7209 156.028 98.4027L156.028 98.4027Z" fill="#0B2239"/>
<path d="M160.161 110.677L159.702 111.042C159.217 110.822 158.677 110.698 158.109 110.698C156.928 110.698 155.966 109.745 155.966 108.56V108.207L155.958 108.188C157.815 107.419 159.121 105.59 159.121 103.455V100.978C159.121 100.758 158.949 100.578 158.729 100.565C157.893 100.517 157.193 99.9954 156.936 99.0484C156.863 98.7767 156.541 98.6602 156.308 98.8175C154.257 100.199 151.813 100.827 149.329 100.602C149.087 100.58 148.88 100.772 148.88 101.014V103.455C148.88 105.59 150.186 107.419 152.043 108.188L152.035 108.207V108.56C152.035 109.745 151.073 110.699 149.892 110.699C149.323 110.699 148.784 110.822 148.298 111.042L147.84 110.677C145.615 108.905 145.12 105.728 146.694 103.364C147.276 102.49 147.587 101.464 147.587 100.414V98.1724C147.587 95.3158 149.902 93 152.759 93H155.242C158.098 93 160.414 95.3158 160.414 98.1724V100.414C160.414 101.462 160.725 102.49 161.307 103.364C162.887 105.736 162.377 108.913 160.161 110.677Z" fill="#ECE393"/>
<path fill-rule="evenodd" clip-rule="evenodd" d="M152.759 93.5C150.178 93.5 148.087 95.5919 148.087 98.1724V100.414C148.087 101.562 147.747 102.685 147.11 103.641C145.68 105.789 146.13 108.675 148.152 110.286L148.38 110.468C148.851 110.294 149.361 110.199 149.892 110.199C150.799 110.199 151.535 109.467 151.535 108.56V108.507C149.667 107.594 148.38 105.676 148.38 103.455V101.014C148.38 100.481 148.837 100.055 149.374 100.104C151.744 100.319 154.073 99.7201 156.028 98.4028C156.54 98.058 157.254 98.3086 157.419 98.9174C157.62 99.6601 158.14 100.031 158.758 100.066C159.24 100.093 159.621 100.491 159.621 100.978V103.455C159.621 105.676 158.334 107.594 156.466 108.507V108.56C156.466 109.467 157.202 110.198 158.109 110.198C158.64 110.198 159.149 110.294 159.621 110.468L159.849 110.286C159.849 110.286 159.849 110.286 159.849 110.286C161.863 108.683 162.326 105.796 160.891 103.641C160.254 102.685 159.914 101.561 159.914 100.414V98.1724C159.914 95.5919 157.822 93.5 155.242 93.5H152.759ZM160.472 111.068C162.891 109.143 163.447 105.676 161.723 103.087C161.195 102.295 160.914 101.364 160.914 100.414V98.1724C160.914 95.0397 158.374 92.5 155.242 92.5H152.759C149.626 92.5 147.087 95.0397 147.087 98.1724V100.414C147.087 101.365 146.805 102.295 146.278 103.087C144.56 105.666 145.101 109.134 147.528 111.068L148.226 111.624L148.505 111.497C148.927 111.306 149.396 111.199 149.892 111.199C151.347 111.199 152.535 110.023 152.535 108.56V108.304L152.692 107.916L152.234 107.726C150.557 107.032 149.38 105.381 149.38 103.455V101.108C151.905 101.316 154.389 100.681 156.488 99.2979C156.819 100.349 157.639 100.973 158.621 101.059V103.455C158.621 105.38 157.443 107.032 155.767 107.726L155.308 107.916L155.466 108.304V108.56C155.466 110.023 156.654 111.198 158.109 111.198C158.604 111.198 159.074 111.306 159.496 111.497L159.774 111.624L160.472 111.068Z" fill="#0B2239"/>
<path fill-rule="evenodd" clip-rule="evenodd" d="M169 86H139V116H169V86ZM138 85V117H170V85H138Z" fill="#0B2239"/>
</g>
</g>
<defs>
<filter id="filter0_d_353_4311" x="-2" y="8" width="224" height="156" filterUnits="userSpaceOnUse" color-interpolation-filters="sRGB">
<feFlood flood-opacity="0" result="BackgroundImageFix"/>
<feColorMatrix in="SourceAlpha" type="matrix" values="0 0 0 0 0 0 0 0 0 0 0 0 0 0 0 0 0 0 127 0" result="hardAlpha"/>
<feOffset dy="4"/>
<feGaussianBlur stdDeviation="6"/>
<feComposite in2="hardAlpha" operator="out"/>
<feColorMatrix type="matrix" values="0 0 0 0 0 0 0 0 0 0 0 0 0 0 0 0 0 0 0.08 0"/>
<feBlend mode="normal" in2="BackgroundImageFix" result="effect1_dropShadow_353_4311"/>
<feBlend mode="normal" in="SourceGraphic" in2="effect1_dropShadow_353_4311" result="shape"/>
</filter>
<clipPath id="clip0_353_4311">
<rect width="220" height="148" fill="white"/>
</clipPath>
<clipPath id="clip1_353_4311">
<rect width="32" height="32" fill="white" transform="translate(116 71)"/>
</clipPath>
<clipPath id="clip2_353_4311">
<rect width="32" height="32" fill="white" transform="translate(138 85)"/>
</clipPath>
</defs>
</svg>
