<svg width="220" height="148" viewBox="0 0 220 148" fill="none" xmlns="http://www.w3.org/2000/svg">
<g clip-path="url(#clip0_245_4850)">
<g filter="url(#filter0_d_245_4850)">
<rect x="10" width="200" height="148" fill="white"/>
</g>
<rect x="50" y="50" width="27" height="3" fill="#CFD9E0"/>
<rect x="50" y="60" width="42" height="3" fill="#CFD9E0"/>
<rect x="50" y="55" width="32" height="3" fill="#CFD9E0"/>
<rect x="50" y="65" width="32" height="3" fill="#CFD9E0"/>
<rect x="81" y="50" width="12" height="3" fill="#CFD9E0"/>
<rect x="96" y="60" width="9" height="3" fill="#CFD9E0"/>
<rect x="86" y="55" width="41" height="3" fill="#CFD9E0"/>
<rect x="86" y="65" width="41" height="3" fill="#CFD9E0"/>
<rect x="109" y="60" width="35" height="3" fill="#CFD9E0"/>
<rect x="131" y="55" width="8" height="3" fill="#CFD9E0"/>
<rect x="131" y="65" width="8" height="3" fill="#CFD9E0"/>
<rect x="143" y="55" width="22" height="3" fill="#CFD9E0"/>
<rect x="143" y="65" width="22" height="3" fill="#CFD9E0"/>
<rect x="49" y="33" width="76" height="5" fill="#0066FF"/>
<rect x="49" y="88" width="76" height="5" fill="#0066FF"/>
<rect x="49" y="110" width="76" height="5" fill="#0066FF"/>
<rect x="50" y="79" width="120" height="1" fill="#CFD9E0"/>
<rect x="50" y="101" width="120" height="1" fill="#CFD9E0"/>
<path d="M169.06 38L166 34.9096L162.94 38L162 37.0486L166 33L170 37.0486L169.06 38Z" fill="#0066FF"/>
<path d="M162.94 88L166 91.0904L169.06 88L170 88.9514L166 93L162 88.9514L162.94 88Z" fill="#0066FF"/>
<path d="M162.94 110L166 113.09L169.06 110L170 110.951L166 115L162 110.951L162.94 110Z" fill="#0066FF"/>
</g>
<defs>
<filter id="filter0_d_245_4850" x="-2" y="-8" width="224" height="172" filterUnits="userSpaceOnUse" color-interpolation-filters="sRGB">
<feFlood flood-opacity="0" result="BackgroundImageFix"/>
<feColorMatrix in="SourceAlpha" type="matrix" values="0 0 0 0 0 0 0 0 0 0 0 0 0 0 0 0 0 0 127 0" result="hardAlpha"/>
<feOffset dy="4"/>
<feGaussianBlur stdDeviation="6"/>
<feComposite in2="hardAlpha" operator="out"/>
<feColorMatrix type="matrix" values="0 0 0 0 0 0 0 0 0 0 0 0 0 0 0 0 0 0 0.08 0"/>
<feBlend mode="normal" in2="BackgroundImageFix" result="effect1_dropShadow_245_4850"/>
<feBlend mode="normal" in="SourceGraphic" in2="effect1_dropShadow_245_4850" result="shape"/>
</filter>
<clipPath id="clip0_245_4850">
<rect width="220" height="148" fill="white"/>
</clipPath>
</defs>
</svg>
