<svg width="381" height="191" viewBox="0 0 381 191" fill="none" xmlns="http://www.w3.org/2000/svg">
<rect width="381" height="191" fill="#F7F9FA"/>
<g clip-path="url(#clip0_646_6221)">
<g filter="url(#filter0_d_646_6221)">
<rect x="67.5967" width="245.806" height="191" fill="white"/>
</g>
<g clip-path="url(#clip1_646_6221)">
<rect x="116.759" y="38.7163" width="36.871" height="28.3919" fill="white" stroke="#E2E9EF"/>
<rect x="190.5" y="38.7163" width="36.871" height="28.3919" fill="white" stroke="#E2E9EF"/>
<rect x="116.759" y="-11.6147" width="73.742" height="27.1014" fill="white" stroke="#E2E9EF"/>
<rect x="190.5" y="-11.6147" width="73.7419" height="27.1014" fill="white" stroke="#E2E9EF"/>
<rect x="116.759" y="89.0474" width="147.484" height="103.243" fill="white" stroke="#E2E9EF"/>
<rect x="153.63" y="38.7163" width="36.871" height="28.3919" fill="white" stroke="#E2E9EF"/>
<rect x="227.371" y="38.7163" width="36.871" height="28.3919" fill="white" stroke="#E2E9EF"/>
<rect x="116.759" y="32.2634" width="19.6645" height="3.87162" fill="#CFD9E0"/>
<rect x="116.759" y="82.5945" width="19.6645" height="3.87162" fill="#CFD9E0"/>
<g clip-path="url(#clip2_646_6221)">
<rect x="123.403" y="96" width="134.194" height="78.8522" fill="#F0FBFF"/>
<path d="M216.704 109.474L216.329 109.081L215.968 109.487L185.466 143.744L185.34 143.886V144.076V176.208V176.708H185.84H279.609H280.777L279.971 175.863L216.704 109.474Z" fill="#E3E3E3" stroke="#0B2239"/>
<path d="M209.241 117.579L216.399 109.474L231.904 125.942L222.132 118.7L219.669 123.442L215.564 117.148L211.705 120.941L209.241 117.579Z" fill="white" stroke="#0B2239" stroke-miterlimit="16"/>
<path d="M186.681 124.878L186.317 124.495L185.955 124.88L137.96 175.897L137.167 176.739H138.324H162.916H234.861H236.027L235.223 175.895L186.681 124.878Z" fill="#F0F0F0" stroke="#0B2239"/>
<path d="M180.796 171.282L140.542 163.999L112.342 177.016L259.154 181.119L262.533 163.999L232.912 171.282L209.118 157.829L180.796 171.282Z" fill="#A8F2C5" stroke="#0B2239"/>
<path d="M150.921 114.687C150.921 119.15 147.481 122.726 143.288 122.726C139.095 122.726 135.655 119.15 135.655 114.687C135.655 110.223 139.095 106.647 143.288 106.647C147.481 106.647 150.921 110.223 150.921 114.687Z" fill="#FFC107" stroke="#0B2239"/>
</g>
<rect x="123.403" y="96" width="134.194" height="78.8522" stroke="#0B2239"/>
<path d="M253.722 43.8784H237.892C237.512 43.8784 237.204 44.2014 237.204 44.6011V61.2233C237.204 61.623 237.512 61.946 237.892 61.946H253.722C254.103 61.946 254.411 61.623 254.411 61.2233V44.6011C254.411 44.2014 254.103 43.8784 253.722 43.8784ZM253.034 60.5006H249.074V54.9493H251.311L251.647 52.2234H249.074V50.4821C249.074 49.6917 249.283 49.1541 250.361 49.1541H251.735V46.715C251.496 46.6811 250.681 46.6066 249.73 46.6066C247.747 46.6066 246.39 47.8781 246.39 50.2111V52.2211H244.149V54.9471H246.392V60.5006H238.581V45.3238H253.034V60.5006Z" fill="#0B2239"/>
<path d="M135.194 43.8784C130.469 43.8784 126.591 47.6475 126.591 52.3161C126.591 54.8033 127.716 57.0133 129.459 58.5526V61.946L132.64 60.3179C133.449 60.5673 134.295 60.7537 135.194 60.7537C139.919 60.7537 143.797 56.9847 143.797 52.3161C143.797 47.6475 139.919 43.8784 135.194 43.8784ZM135.194 45.3458C139.179 45.3458 142.363 48.4758 142.363 52.3161C142.363 56.1563 139.179 59.2863 135.194 59.2863C134.337 59.2863 133.519 59.1197 132.752 58.8505L132.461 58.7588L130.892 59.5614V57.9106L130.624 57.6809C129.033 56.3977 128.025 54.4746 128.025 52.3161C128.025 48.4758 131.209 45.3458 135.194 45.3458ZM134.387 50.0005L130.064 54.6779L133.939 52.4767L136.001 54.7468L140.28 49.9997L136.493 52.1789L134.387 50.0005Z" fill="#0B2239"/>
<path fill-rule="evenodd" clip-rule="evenodd" d="M162.848 52.9122C162.848 47.5665 166.974 43.2332 172.065 43.2332C177.156 43.2332 181.283 47.5665 181.283 52.9122C181.283 58.2579 177.156 62.5913 172.065 62.5913C166.974 62.5913 162.848 58.2579 162.848 52.9122ZM172.065 44.5237C167.653 44.5237 164.077 48.2792 164.077 52.9122C164.077 57.5452 167.653 61.3007 172.065 61.3007C176.478 61.3007 180.054 57.5452 180.054 52.9122C180.054 48.2792 176.478 44.5237 172.065 44.5237Z" fill="#0B2239"/>
<path d="M175.274 48.4583L166.194 52.1347C165.575 52.396 165.578 52.759 166.081 52.9209L168.412 53.6844L173.805 50.1112C174.06 49.9483 174.293 50.036 174.102 50.2145L169.732 54.3555H169.731L169.732 54.356L169.571 56.8791C169.807 56.8791 169.911 56.7656 170.043 56.6317L171.175 55.4756L173.53 57.3022C173.964 57.5534 174.276 57.4243 174.384 56.8801L175.93 49.2294C176.089 48.5631 175.688 48.2615 175.274 48.4583V48.4583Z" fill="black"/>
<g clip-path="url(#clip3_646_6221)">
<path fill-rule="evenodd" clip-rule="evenodd" d="M212.818 54.7054C212.605 54.5933 211.557 54.0527 211.362 53.9775C211.167 53.9029 211.025 53.8661 210.883 54.0904C210.741 54.3132 210.333 54.8176 210.209 54.9667C210.084 55.1165 209.96 55.1345 209.747 55.0231C209.534 54.9102 208.847 54.6746 208.034 53.9127C207.401 53.3195 206.973 52.587 206.849 52.3627C206.724 52.1391 206.835 52.0179 206.942 51.9065C207.038 51.8063 207.155 51.6452 207.261 51.515C207.368 51.384 207.403 51.2907 207.474 51.1409C207.546 50.9918 207.51 50.8616 207.456 50.7494C207.403 50.6372 206.978 49.5359 206.8 49.0879C206.627 48.6521 206.451 48.7115 206.321 48.704C206.196 48.698 206.054 48.6965 205.912 48.6965C205.77 48.6965 205.539 48.7522 205.344 48.9765C205.149 49.2001 204.599 49.7414 204.599 50.8427C204.599 51.9434 205.362 53.0071 205.468 53.1569C205.575 53.306 206.97 55.5659 209.108 56.5348C209.617 56.7651 210.013 56.9029 210.322 57.0053C210.833 57.1762 211.297 57.1521 211.664 57.0941C212.073 57.0301 212.925 56.5528 213.102 56.0304C213.279 55.5079 213.279 55.06 213.226 54.9667C213.173 54.8733 213.031 54.8176 212.818 54.7054H212.818ZM208.931 60.2785H208.928C207.659 60.2788 206.413 59.9205 205.321 59.2412L205.063 59.0801L202.38 59.8193L203.096 57.073L202.928 56.7915C202.218 55.6053 201.842 54.2325 201.844 52.8317C201.846 48.7288 205.025 45.3909 208.934 45.3909C210.827 45.3909 212.606 46.1663 213.944 47.5725C214.604 48.2625 215.127 49.0831 215.483 49.9867C215.839 50.8903 216.02 51.8591 216.017 52.837C216.016 56.9398 212.837 60.2785 208.931 60.2785V60.2785ZM214.962 46.5043C214.172 45.6693 213.232 45.0073 212.197 44.5566C211.162 44.1058 210.051 43.8753 208.93 43.8784C204.232 43.8784 200.406 47.8947 200.405 52.8309C200.404 54.4088 200.796 55.9491 201.542 57.3064L200.333 61.946L204.853 60.7009C206.103 61.4161 207.504 61.7909 208.928 61.7909H208.931C213.63 61.7909 217.456 57.7747 217.457 52.8377C217.46 51.6613 217.242 50.4958 216.814 49.4087C216.385 48.3215 215.756 47.3344 214.962 46.5043" fill="#0B2239"/>
</g>
</g>
</g>
<defs>
<filter id="filter0_d_646_6221" x="55.5967" y="-8" width="269.807" height="215" filterUnits="userSpaceOnUse" color-interpolation-filters="sRGB">
<feFlood flood-opacity="0" result="BackgroundImageFix"/>
<feColorMatrix in="SourceAlpha" type="matrix" values="0 0 0 0 0 0 0 0 0 0 0 0 0 0 0 0 0 0 127 0" result="hardAlpha"/>
<feOffset dy="4"/>
<feGaussianBlur stdDeviation="6"/>
<feComposite in2="hardAlpha" operator="out"/>
<feColorMatrix type="matrix" values="0 0 0 0 0 0 0 0 0 0 0 0 0 0 0 0 0 0 0.08 0"/>
<feBlend mode="normal" in2="BackgroundImageFix" result="effect1_dropShadow_646_6221"/>
<feBlend mode="normal" in="SourceGraphic" in2="effect1_dropShadow_646_6221" result="shape"/>
</filter>
<clipPath id="clip0_646_6221">
<rect width="270.387" height="191" fill="white" transform="translate(55.3066)"/>
</clipPath>
<clipPath id="clip1_646_6221">
<rect width="159.774" height="191" fill="white" transform="translate(110.613)"/>
</clipPath>
<clipPath id="clip2_646_6221">
</clipPath>
<clipPath id="clip3_646_6221">
<rect width="17.2065" height="18.0676" fill="white" transform="translate(200.333 43.8784)"/>
</clipPath>
</defs>
</svg>
