<svg width="381" height="191" viewBox="0 0 381 191" fill="none" xmlns="http://www.w3.org/2000/svg">
<rect width="381" height="191" fill="#F7F9FA"/>
<g clip-path="url(#clip0_646_6109)">
<g filter="url(#filter0_d_646_6109)">
<rect x="67.5967" width="245.806" height="191" fill="white"/>
</g>
<rect x="116.758" y="104.534" width="33.1839" height="3.87163" fill="#CFD9E0"/>
<rect x="116.758" y="117.439" width="51.6194" height="3.87161" fill="#CFD9E0"/>
<rect x="116.758" y="110.986" width="19.6645" height="3.87162" fill="#CFD9E0"/>
<rect x="154.857" y="104.534" width="14.7484" height="3.87163" fill="#CFD9E0"/>
<rect x="141.339" y="110.986" width="14.7484" height="3.87162" fill="#CFD9E0"/>
<rect x="174.522" y="104.534" width="25.8097" height="3.87163" fill="#CFD9E0"/>
<rect x="173.293" y="117.439" width="11.0613" height="3.87161" fill="#CFD9E0"/>
<rect x="161.003" y="110.986" width="50.3903" height="3.87162" fill="#CFD9E0"/>
<rect x="205.248" y="104.534" width="9.83224" height="3.87163" fill="#CFD9E0"/>
<rect x="189.271" y="117.439" width="43.0161" height="3.87161" fill="#CFD9E0"/>
<rect x="216.31" y="110.986" width="9.83224" height="3.87162" fill="#CFD9E0"/>
<rect x="219.996" y="104.534" width="36.871" height="3.87163" fill="#CFD9E0"/>
<rect x="237.203" y="117.439" width="27.0387" height="3.87161" fill="#CFD9E0"/>
<rect x="231.058" y="110.986" width="13.5194" height="3.87162" fill="#CFD9E0"/>
<rect x="116.758" y="165.189" width="33.1839" height="3.87161" fill="#CFD9E0"/>
<rect x="116.758" y="178.095" width="51.6194" height="3.87163" fill="#CFD9E0"/>
<rect x="116.758" y="171.642" width="19.6645" height="3.87161" fill="#CFD9E0"/>
<rect x="154.857" y="165.189" width="14.7484" height="3.87161" fill="#CFD9E0"/>
<rect x="141.339" y="171.642" width="14.7484" height="3.87161" fill="#CFD9E0"/>
<rect x="174.522" y="165.189" width="25.8097" height="3.87161" fill="#CFD9E0"/>
<rect x="173.293" y="178.095" width="11.0613" height="3.87163" fill="#CFD9E0"/>
<rect x="161.003" y="171.642" width="50.3903" height="3.87161" fill="#CFD9E0"/>
<rect x="205.248" y="165.189" width="9.83224" height="3.87161" fill="#CFD9E0"/>
<rect x="189.271" y="178.095" width="43.0161" height="3.87163" fill="#CFD9E0"/>
<rect x="216.31" y="171.642" width="9.83224" height="3.87161" fill="#CFD9E0"/>
<rect x="219.996" y="165.189" width="36.871" height="3.87161" fill="#CFD9E0"/>
<rect x="237.203" y="178.095" width="27.0387" height="3.87163" fill="#CFD9E0"/>
<rect x="231.058" y="171.642" width="13.5194" height="3.87161" fill="#CFD9E0"/>
<rect x="116.758" y="131.635" width="33.1839" height="3.87163" fill="#CFD9E0"/>
<rect x="116.758" y="144.541" width="51.6194" height="3.87161" fill="#CFD9E0"/>
<rect x="116.758" y="138.088" width="39.329" height="3.87161" fill="#CFD9E0"/>
<rect x="116.758" y="150.993" width="39.329" height="3.87163" fill="#CFD9E0"/>
<rect x="154.857" y="131.635" width="14.7484" height="3.87163" fill="#CFD9E0"/>
<rect x="173.293" y="144.541" width="11.0613" height="3.87161" fill="#CFD9E0"/>
<rect x="161.003" y="138.088" width="50.3903" height="3.87161" fill="#CFD9E0"/>
<rect x="161.003" y="150.993" width="50.3903" height="3.87163" fill="#CFD9E0"/>
<rect x="189.271" y="144.541" width="43.0161" height="3.87161" fill="#CFD9E0"/>
<rect x="216.31" y="138.088" width="9.83224" height="3.87161" fill="#CFD9E0"/>
<rect x="216.31" y="150.993" width="9.83224" height="3.87163" fill="#CFD9E0"/>
<rect x="231.058" y="138.088" width="27.0387" height="3.87161" fill="#CFD9E0"/>
<rect x="231.058" y="150.993" width="27.0387" height="3.87163" fill="#CFD9E0"/>
<path d="M160.593 30.1921H164.014V31.4866H158.981V23.6663H160.593V30.1921ZM164.6 28.5271C164.6 27.9506 164.711 27.4368 164.933 26.9856C165.155 26.5344 165.473 26.1853 165.889 25.9382C166.308 25.6912 166.793 25.5676 167.344 25.5676C168.128 25.5676 168.768 25.8075 169.262 26.2874C169.759 26.7672 170.037 27.4189 170.094 28.2424L170.105 28.6399C170.105 29.5315 169.856 30.2476 169.358 30.7883C168.861 31.3254 168.193 31.594 167.355 31.594C166.517 31.594 165.847 31.3254 165.346 30.7883C164.848 30.2512 164.6 29.5208 164.6 28.5969V28.5271ZM166.152 28.6399C166.152 29.1913 166.256 29.6139 166.463 29.9075C166.671 30.1975 166.968 30.3425 167.355 30.3425C167.731 30.3425 168.025 30.1993 168.236 29.9128C168.447 29.6228 168.553 29.1609 168.553 28.5271C168.553 27.9864 168.447 27.5675 168.236 27.2703C168.025 26.9731 167.727 26.8245 167.344 26.8245C166.965 26.8245 166.671 26.9731 166.463 27.2703C166.256 27.5639 166.152 28.0204 166.152 28.6399ZM174.327 27.1306C174.115 27.102 173.929 27.0876 173.768 27.0876C173.181 27.0876 172.796 27.2864 172.613 27.6838V31.4866H171.061V25.675H172.527L172.57 26.3679C172.882 25.8344 173.313 25.5676 173.865 25.5676C174.037 25.5676 174.198 25.5909 174.348 25.6375L174.327 27.1306ZM177.646 31.594C176.794 31.594 176.099 31.3326 175.562 30.8098C175.028 30.287 174.762 29.5906 174.762 28.7205V28.5701C174.762 27.9864 174.875 27.4654 175.1 27.0071C175.326 26.5452 175.644 26.1907 176.056 25.9436C176.472 25.693 176.944 25.5676 177.474 25.5676C178.269 25.5676 178.894 25.8183 179.349 26.3196C179.807 26.8209 180.036 27.5317 180.036 28.4519V29.0857H176.335C176.386 29.4653 176.536 29.7696 176.787 29.9988C177.041 30.2279 177.361 30.3425 177.748 30.3425C178.346 30.3425 178.813 30.1259 179.15 29.6926L179.913 30.5466C179.68 30.8761 179.365 31.1339 178.967 31.3201C178.57 31.5027 178.129 31.594 177.646 31.594ZM177.469 26.8245C177.161 26.8245 176.91 26.9283 176.717 27.136C176.527 27.3437 176.405 27.6409 176.352 28.0276H178.511V27.9041C178.504 27.5603 178.41 27.2953 178.231 27.1091C178.052 26.9194 177.798 26.8245 177.469 26.8245ZM182.378 25.675L182.426 26.325C182.838 25.8201 183.395 25.5676 184.097 25.5676C184.845 25.5676 185.359 25.863 185.638 26.4539C186.046 25.863 186.628 25.5676 187.384 25.5676C188.014 25.5676 188.483 25.752 188.791 26.1208C189.099 26.4861 189.253 27.0375 189.253 27.7751V31.4866H187.695V27.7805C187.695 27.4511 187.631 27.2112 187.502 27.0608C187.373 26.9068 187.146 26.8298 186.82 26.8298C186.354 26.8298 186.032 27.0518 185.853 27.4958L185.858 31.4866H184.306V27.7859C184.306 27.4493 184.24 27.2058 184.107 27.0554C183.975 26.905 183.749 26.8298 183.431 26.8298C182.99 26.8298 182.672 27.0125 182.475 27.3777V31.4866H180.922V25.675H182.378ZM194.828 31.4866H193.271V25.675H194.828V31.4866ZM193.179 24.1711C193.179 23.9384 193.256 23.7468 193.41 23.5964C193.568 23.446 193.781 23.3708 194.049 23.3708C194.314 23.3708 194.526 23.446 194.683 23.5964C194.841 23.7468 194.919 23.9384 194.919 24.1711C194.919 24.4075 194.839 24.6008 194.678 24.7512C194.52 24.9016 194.311 24.9768 194.049 24.9768C193.788 24.9768 193.577 24.9016 193.416 24.7512C193.258 24.6008 193.179 24.4075 193.179 24.1711ZM201.343 28.6345C201.343 29.5297 201.139 30.2476 200.731 30.7883C200.326 31.3254 199.778 31.594 199.087 31.594C198.5 31.594 198.026 31.3899 197.664 30.9817V33.7209H196.112V25.675H197.551L197.605 26.2444C197.981 25.7932 198.472 25.5676 199.077 25.5676C199.793 25.5676 200.35 25.8326 200.747 26.3625C201.145 26.8925 201.343 27.623 201.343 28.554V28.6345ZM199.791 28.5217C199.791 27.981 199.694 27.5639 199.501 27.2703C199.311 26.9766 199.034 26.8298 198.668 26.8298C198.181 26.8298 197.847 27.016 197.664 27.3884V29.7678C197.854 30.151 198.192 30.3425 198.679 30.3425C199.42 30.3425 199.791 29.7356 199.791 28.5217ZM205.458 29.8806C205.458 29.6908 205.363 29.5422 205.173 29.4348C204.987 29.3238 204.686 29.2253 204.271 29.1394C202.888 28.8494 202.197 28.2621 202.197 27.3777C202.197 26.8621 202.41 26.4324 202.836 26.0886C203.266 25.7413 203.826 25.5676 204.518 25.5676C205.255 25.5676 205.844 25.7413 206.285 26.0886C206.729 26.436 206.951 26.8871 206.951 27.4421H205.398C205.398 27.2201 205.327 27.0375 205.184 26.8943C205.04 26.7475 204.817 26.6741 204.512 26.6741C204.251 26.6741 204.049 26.7332 203.905 26.8513C203.762 26.9695 203.69 27.1199 203.69 27.3025C203.69 27.4744 203.771 27.614 203.932 27.7214C204.097 27.8253 204.373 27.9166 204.759 27.9954C205.146 28.0706 205.472 28.1565 205.737 28.2532C206.557 28.554 206.967 29.075 206.967 29.8162C206.967 30.3461 206.739 30.7758 206.285 31.1052C205.83 31.4311 205.243 31.594 204.523 31.594C204.036 31.594 203.603 31.5081 203.223 31.3362C202.847 31.1607 202.552 30.9226 202.337 30.6218C202.122 30.3175 202.015 29.9898 202.015 29.6389H203.486C203.501 29.9146 203.603 30.1259 203.792 30.2727C203.982 30.4195 204.236 30.4929 204.555 30.4929C204.852 30.4929 205.076 30.4374 205.227 30.3264C205.381 30.2118 205.458 30.0632 205.458 29.8806ZM211.452 30.8958C211.069 31.3612 210.539 31.594 209.862 31.594C209.239 31.594 208.763 31.415 208.433 31.0569C208.107 30.6988 207.941 30.1742 207.934 29.4832V25.675H209.486V29.4294C209.486 30.0346 209.762 30.3372 210.313 30.3372C210.839 30.3372 211.201 30.1545 211.398 29.7893V25.675H212.956V31.4866H211.495L211.452 30.8958ZM215.582 25.675L215.63 26.325C216.042 25.8201 216.599 25.5676 217.301 25.5676C218.049 25.5676 218.563 25.863 218.842 26.4539C219.25 25.863 219.832 25.5676 220.588 25.5676C221.218 25.5676 221.687 25.752 221.995 26.1208C222.303 26.4861 222.457 27.0375 222.457 27.7751V31.4866H220.899V27.7805C220.899 27.4511 220.835 27.2112 220.706 27.0608C220.577 26.9068 220.35 26.8298 220.024 26.8298C219.558 26.8298 219.236 27.0518 219.057 27.4958L219.062 31.4866H217.51V27.7859C217.51 27.4493 217.444 27.2058 217.312 27.0554C217.179 26.905 216.953 26.8298 216.635 26.8298C216.194 26.8298 215.876 27.0125 215.679 27.3777V31.4866H214.126V25.675H215.582Z" fill="#0B2239"/>
<path d="M117.933 52.8677H119.869V53.4595H117.191V49.1938H117.933V52.8677ZM120.235 51.8452C120.235 51.5347 120.297 51.2554 120.42 51.0073C120.543 50.7573 120.716 50.5659 120.938 50.4331C121.161 50.2983 121.417 50.231 121.706 50.231C122.134 50.231 122.48 50.3687 122.746 50.644C123.014 50.9194 123.158 51.2847 123.18 51.7397L123.183 51.9067C123.183 52.2192 123.122 52.4985 123.001 52.7446C122.882 52.9907 122.71 53.1812 122.485 53.3159C122.263 53.4507 122.005 53.5181 121.712 53.5181C121.265 53.5181 120.906 53.3696 120.637 53.0728C120.369 52.7739 120.235 52.3765 120.235 51.8804V51.8452ZM120.947 51.9067C120.947 52.2329 121.015 52.4888 121.149 52.6743C121.284 52.8579 121.472 52.9497 121.712 52.9497C121.952 52.9497 122.139 52.856 122.271 52.6685C122.406 52.481 122.474 52.2065 122.474 51.8452C122.474 51.5249 122.404 51.271 122.266 51.0835C122.129 50.896 121.942 50.8022 121.706 50.8022C121.474 50.8022 121.289 50.895 121.152 51.0806C121.016 51.2642 120.947 51.5396 120.947 51.9067ZM125.444 50.9399C125.351 50.9243 125.254 50.9165 125.154 50.9165C124.828 50.9165 124.608 51.0415 124.495 51.2915V53.4595H123.783V50.2896H124.463L124.48 50.644C124.652 50.3687 124.891 50.231 125.195 50.231C125.297 50.231 125.381 50.2446 125.447 50.272L125.444 50.9399ZM127.231 53.5181C126.78 53.5181 126.414 53.3765 126.133 53.0933C125.854 52.8081 125.714 52.4292 125.714 51.9565V51.8687C125.714 51.5522 125.774 51.27 125.896 51.022C126.019 50.772 126.19 50.5776 126.411 50.439C126.632 50.3003 126.878 50.231 127.149 50.231C127.581 50.231 127.914 50.3687 128.148 50.644C128.385 50.9194 128.503 51.3091 128.503 51.813V52.1001H126.432C126.453 52.3618 126.54 52.5688 126.692 52.7212C126.847 52.8735 127.04 52.9497 127.272 52.9497C127.599 52.9497 127.864 52.8179 128.069 52.5542L128.453 52.9204C128.326 53.1099 128.156 53.2573 127.943 53.3628C127.732 53.4663 127.495 53.5181 127.231 53.5181ZM127.146 50.8022C126.951 50.8022 126.793 50.8706 126.672 51.0073C126.553 51.144 126.477 51.3345 126.443 51.5786H127.8V51.5259C127.784 51.2876 127.721 51.1079 127.609 50.9868C127.498 50.8638 127.344 50.8022 127.146 50.8022ZM129.728 50.2896L129.748 50.6206C129.971 50.3608 130.275 50.231 130.662 50.231C131.086 50.231 131.376 50.3931 131.532 50.7173C131.763 50.3931 132.087 50.231 132.505 50.231C132.854 50.231 133.114 50.3276 133.284 50.521C133.456 50.7144 133.544 50.9995 133.548 51.3765V53.4595H132.836V51.397C132.836 51.1958 132.792 51.0483 132.704 50.9546C132.616 50.8608 132.471 50.814 132.268 50.814C132.105 50.814 131.973 50.8579 131.869 50.9458C131.768 51.0317 131.696 51.145 131.655 51.2856L131.658 53.4595H130.946V51.3735C130.937 51.0005 130.746 50.814 130.375 50.814C130.09 50.814 129.888 50.9302 129.769 51.1626V53.4595H129.057V50.2896H129.728ZM136.624 53.4595H135.886V49.1938H136.624V53.4595ZM140.242 51.9067C140.242 52.397 140.131 52.7886 139.908 53.0815C139.686 53.3726 139.387 53.5181 139.012 53.5181C138.664 53.5181 138.386 53.4038 138.177 53.1753V54.6782H137.465V50.2896H138.121L138.15 50.6118C138.359 50.3579 138.644 50.231 139.003 50.231C139.39 50.231 139.692 50.3755 139.911 50.6646C140.132 50.9517 140.242 51.3511 140.242 51.8628V51.9067ZM139.533 51.8452C139.533 51.5288 139.47 51.2778 139.343 51.0923C139.218 50.9067 139.038 50.814 138.804 50.814C138.513 50.814 138.304 50.9341 138.177 51.1743V52.5806C138.306 52.8267 138.517 52.9497 138.81 52.9497C139.036 52.9497 139.213 52.8589 139.34 52.6772C139.469 52.4937 139.533 52.2163 139.533 51.8452ZM142.624 52.5981C142.624 52.4712 142.571 52.3745 142.466 52.3081C142.362 52.2417 142.189 52.1831 141.947 52.1323C141.705 52.0815 141.503 52.0171 141.341 51.939C140.985 51.7671 140.808 51.5181 140.808 51.1919C140.808 50.9185 140.923 50.6899 141.153 50.5063C141.384 50.3228 141.677 50.231 142.032 50.231C142.411 50.231 142.717 50.3247 142.949 50.5122C143.184 50.6997 143.301 50.9429 143.301 51.2417H142.589C142.589 51.105 142.538 50.9917 142.437 50.9019C142.335 50.8101 142.2 50.7642 142.032 50.7642C141.876 50.7642 141.748 50.8003 141.648 50.8726C141.551 50.9448 141.502 51.0415 141.502 51.1626C141.502 51.272 141.548 51.3569 141.64 51.4175C141.731 51.478 141.917 51.5396 142.196 51.6021C142.476 51.6626 142.694 51.7358 142.853 51.8218C143.013 51.9058 143.131 52.0073 143.207 52.1265C143.285 52.2456 143.324 52.3901 143.324 52.5601C143.324 52.8452 143.206 53.0767 142.97 53.2544C142.733 53.4302 142.424 53.5181 142.041 53.5181C141.781 53.5181 141.55 53.4712 141.347 53.3774C141.144 53.2837 140.985 53.1548 140.872 52.9907C140.759 52.8267 140.702 52.6499 140.702 52.4604H141.394C141.403 52.6284 141.467 52.7583 141.584 52.8501C141.701 52.9399 141.856 52.9849 142.05 52.9849C142.237 52.9849 142.38 52.9497 142.478 52.8794C142.575 52.8071 142.624 52.7134 142.624 52.5981ZM145.867 53.1489C145.658 53.395 145.361 53.5181 144.977 53.5181C144.633 53.5181 144.372 53.4175 144.194 53.2163C144.019 53.0151 143.931 52.7241 143.931 52.3433V50.2896H144.643V52.3345C144.643 52.7368 144.81 52.938 145.144 52.938C145.489 52.938 145.723 52.814 145.844 52.5659V50.2896H146.556V53.4595H145.885L145.867 53.1489ZM147.95 50.2896L147.971 50.6206C148.193 50.3608 148.498 50.231 148.885 50.231C149.309 50.231 149.599 50.3931 149.755 50.7173C149.985 50.3931 150.31 50.231 150.728 50.231C151.077 50.231 151.337 50.3276 151.507 50.521C151.679 50.7144 151.767 50.9995 151.771 51.3765V53.4595H151.059V51.397C151.059 51.1958 151.015 51.0483 150.927 50.9546C150.839 50.8608 150.693 50.814 150.49 50.814C150.328 50.814 150.195 50.8579 150.092 50.9458C149.99 51.0317 149.919 51.145 149.878 51.2856L149.881 53.4595H149.169V51.3735C149.159 51.0005 148.969 50.814 148.598 50.814C148.312 50.814 148.11 50.9302 147.991 51.1626V53.4595H147.279V50.2896H147.95ZM154.753 53.4595H154.041V50.2896H154.753V53.4595ZM153.997 49.4663C153.997 49.3569 154.031 49.2661 154.1 49.1938C154.17 49.1216 154.27 49.0854 154.398 49.0854C154.527 49.0854 154.627 49.1216 154.697 49.1938C154.768 49.2661 154.803 49.3569 154.803 49.4663C154.803 49.5737 154.768 49.6636 154.697 49.7358C154.627 49.8062 154.527 49.8413 154.398 49.8413C154.27 49.8413 154.17 49.8062 154.1 49.7358C154.031 49.6636 153.997 49.5737 153.997 49.4663ZM157.308 52.5981C157.308 52.4712 157.255 52.3745 157.149 52.3081C157.046 52.2417 156.873 52.1831 156.631 52.1323C156.389 52.0815 156.187 52.0171 156.024 51.939C155.669 51.7671 155.491 51.5181 155.491 51.1919C155.491 50.9185 155.606 50.6899 155.837 50.5063C156.067 50.3228 156.36 50.231 156.716 50.231C157.095 50.231 157.4 50.3247 157.633 50.5122C157.867 50.6997 157.984 50.9429 157.984 51.2417H157.272C157.272 51.105 157.222 50.9917 157.12 50.9019C157.019 50.8101 156.884 50.7642 156.716 50.7642C156.56 50.7642 156.432 50.8003 156.332 50.8726C156.234 50.9448 156.186 51.0415 156.186 51.1626C156.186 51.272 156.231 51.3569 156.323 51.4175C156.415 51.478 156.601 51.5396 156.88 51.6021C157.159 51.6626 157.378 51.7358 157.536 51.8218C157.696 51.9058 157.814 52.0073 157.891 52.1265C157.969 52.2456 158.008 52.3901 158.008 52.5601C158.008 52.8452 157.89 53.0767 157.653 53.2544C157.417 53.4302 157.107 53.5181 156.725 53.5181C156.465 53.5181 156.233 53.4712 156.03 53.3774C155.827 53.2837 155.669 53.1548 155.556 52.9907C155.442 52.8267 155.386 52.6499 155.386 52.4604H156.077C156.087 52.6284 156.15 52.7583 156.268 52.8501C156.385 52.9399 156.54 52.9849 156.733 52.9849C156.921 52.9849 157.063 52.9497 157.161 52.8794C157.259 52.8071 157.308 52.7134 157.308 52.5981ZM161.901 52.5981C161.901 52.4712 161.849 52.3745 161.743 52.3081C161.64 52.2417 161.467 52.1831 161.225 52.1323C160.982 52.0815 160.78 52.0171 160.618 51.939C160.263 51.7671 160.085 51.5181 160.085 51.1919C160.085 50.9185 160.2 50.6899 160.431 50.5063C160.661 50.3228 160.954 50.231 161.31 50.231C161.688 50.231 161.994 50.3247 162.227 50.5122C162.461 50.6997 162.578 50.9429 162.578 51.2417H161.866C161.866 51.105 161.815 50.9917 161.714 50.9019C161.612 50.8101 161.478 50.7642 161.31 50.7642C161.153 50.7642 161.025 50.8003 160.926 50.8726C160.828 50.9448 160.779 51.0415 160.779 51.1626C160.779 51.272 160.825 51.3569 160.917 51.4175C161.009 51.478 161.194 51.5396 161.474 51.6021C161.753 51.6626 161.972 51.7358 162.13 51.8218C162.29 51.9058 162.408 52.0073 162.484 52.1265C162.562 52.2456 162.602 52.3901 162.602 52.5601C162.602 52.8452 162.483 53.0767 162.247 53.2544C162.011 53.4302 161.701 53.5181 161.318 53.5181C161.059 53.5181 160.827 53.4712 160.624 53.3774C160.421 53.2837 160.263 53.1548 160.149 52.9907C160.036 52.8267 159.979 52.6499 159.979 52.4604H160.671C160.681 52.6284 160.744 52.7583 160.861 52.8501C160.979 52.9399 161.134 52.9849 161.327 52.9849C161.515 52.9849 161.657 52.9497 161.755 52.8794C161.853 52.8071 161.901 52.7134 161.901 52.5981ZM163.981 53.4595H163.27V50.2896H163.981V53.4595ZM163.226 49.4663C163.226 49.3569 163.26 49.2661 163.328 49.1938C163.398 49.1216 163.498 49.0854 163.627 49.0854C163.756 49.0854 163.855 49.1216 163.926 49.1938C163.996 49.2661 164.031 49.3569 164.031 49.4663C164.031 49.5737 163.996 49.6636 163.926 49.7358C163.855 49.8062 163.756 49.8413 163.627 49.8413C163.498 49.8413 163.398 49.8062 163.328 49.7358C163.26 49.6636 163.226 49.5737 163.226 49.4663ZM165.429 50.2896L165.449 50.6206C165.672 50.3608 165.977 50.231 166.363 50.231C166.787 50.231 167.077 50.3931 167.233 50.7173C167.464 50.3931 167.788 50.231 168.206 50.231C168.556 50.231 168.815 50.3276 168.985 50.521C169.157 50.7144 169.245 50.9995 169.249 51.3765V53.4595H168.537V51.397C168.537 51.1958 168.493 51.0483 168.405 50.9546C168.317 50.8608 168.172 50.814 167.969 50.814C167.807 50.814 167.674 50.8579 167.57 50.9458C167.469 51.0317 167.397 51.145 167.356 51.2856L167.359 53.4595H166.647V51.3735C166.638 51.0005 166.447 50.814 166.076 50.814C165.791 50.814 165.589 50.9302 165.47 51.1626V53.4595H164.758V50.2896H165.429ZM172.756 51.9067C172.756 52.397 172.645 52.7886 172.422 53.0815C172.199 53.3726 171.9 53.5181 171.525 53.5181C171.178 53.5181 170.899 53.4038 170.69 53.1753V54.6782H169.979V50.2896H170.635L170.664 50.6118C170.873 50.3579 171.157 50.231 171.517 50.231C171.903 50.231 172.206 50.3755 172.425 50.6646C172.646 50.9517 172.756 51.3511 172.756 51.8628V51.9067ZM172.047 51.8452C172.047 51.5288 171.983 51.2778 171.856 51.0923C171.731 50.9067 171.552 50.814 171.317 50.814C171.026 50.814 170.817 50.9341 170.69 51.1743V52.5806C170.819 52.8267 171.03 52.9497 171.323 52.9497C171.55 52.9497 171.727 52.8589 171.854 52.6772C171.982 52.4937 172.047 52.2163 172.047 51.8452ZM174.118 53.4595H173.406V48.9595H174.118V53.4595ZM176.005 52.4399L176.649 50.2896H177.408L176.148 53.9399C175.955 54.4731 175.627 54.7397 175.164 54.7397C175.061 54.7397 174.946 54.7222 174.821 54.687V54.1362L174.956 54.145C175.136 54.145 175.271 54.1118 175.36 54.0454C175.452 53.981 175.524 53.8716 175.577 53.7173L175.68 53.4448L174.566 50.2896H175.334L176.005 52.4399ZM179.181 51.8511C179.181 51.3628 179.294 50.9712 179.521 50.6763C179.747 50.3794 180.051 50.231 180.432 50.231C180.768 50.231 181.039 50.3481 181.246 50.5825V48.9595H181.958V53.4595H181.313L181.278 53.1313C181.065 53.3892 180.781 53.5181 180.426 53.5181C180.055 53.5181 179.754 53.3687 179.523 53.0698C179.295 52.771 179.181 52.3647 179.181 51.8511ZM179.893 51.9126C179.893 52.2349 179.954 52.4868 180.077 52.6685C180.202 52.8481 180.379 52.938 180.607 52.938C180.898 52.938 181.111 52.8081 181.246 52.5483V51.1948C181.115 50.9409 180.904 50.814 180.613 50.814C180.383 50.814 180.205 50.9058 180.08 51.0894C179.955 51.271 179.893 51.5454 179.893 51.9126ZM184.621 53.1489C184.412 53.395 184.115 53.5181 183.73 53.5181C183.387 53.5181 183.126 53.4175 182.948 53.2163C182.772 53.0151 182.685 52.7241 182.685 52.3433V50.2896H183.396V52.3345C183.396 52.7368 183.563 52.938 183.897 52.938C184.243 52.938 184.477 52.814 184.598 52.5659V50.2896H185.31V53.4595H184.639L184.621 53.1489ZM186.704 50.2896L186.725 50.6206C186.947 50.3608 187.252 50.231 187.639 50.231C188.062 50.231 188.353 50.3931 188.509 50.7173C188.739 50.3931 189.063 50.231 189.481 50.231C189.831 50.231 190.091 50.3276 190.261 50.521C190.433 50.7144 190.521 50.9995 190.524 51.3765V53.4595H189.812V51.397C189.812 51.1958 189.769 51.0483 189.681 50.9546C189.593 50.8608 189.447 50.814 189.244 50.814C189.082 50.814 188.949 50.8579 188.846 50.9458C188.744 51.0317 188.673 51.145 188.632 51.2856L188.635 53.4595H187.923V51.3735C187.913 51.0005 187.723 50.814 187.352 50.814C187.066 50.814 186.864 50.9302 186.745 51.1626V53.4595H186.033V50.2896H186.704ZM191.925 50.2896L191.945 50.6206C192.168 50.3608 192.473 50.231 192.859 50.231C193.283 50.231 193.573 50.3931 193.729 50.7173C193.96 50.3931 194.284 50.231 194.702 50.231C195.052 50.231 195.312 50.3276 195.481 50.521C195.653 50.7144 195.741 50.9995 195.745 51.3765V53.4595H195.033V51.397C195.033 51.1958 194.989 51.0483 194.901 50.9546C194.813 50.8608 194.668 50.814 194.465 50.814C194.303 50.814 194.17 50.8579 194.066 50.9458C193.965 51.0317 193.894 51.145 193.853 51.2856L193.855 53.4595H193.144V51.3735C193.134 51.0005 192.943 50.814 192.572 50.814C192.287 50.814 192.085 50.9302 191.966 51.1626V53.4595H191.254V50.2896H191.925ZM197.585 52.4399L198.229 50.2896H198.988L197.729 53.9399C197.535 54.4731 197.207 54.7397 196.744 54.7397C196.641 54.7397 196.526 54.7222 196.401 54.687V54.1362L196.536 54.145C196.716 54.145 196.851 54.1118 196.94 54.0454C197.032 53.981 197.104 53.8716 197.157 53.7173L197.26 53.4448L196.146 50.2896H196.914L197.585 52.4399ZM201.786 49.519V50.2896H202.346V50.8169H201.786V52.5864C201.786 52.7075 201.81 52.7954 201.856 52.8501C201.905 52.9028 201.991 52.9292 202.114 52.9292C202.196 52.9292 202.279 52.9194 202.363 52.8999V53.4507C202.201 53.4956 202.045 53.5181 201.895 53.5181C201.348 53.5181 201.074 53.2163 201.074 52.6128V50.8169H200.553V50.2896H201.074V49.519H201.786ZM204.288 53.5181C203.837 53.5181 203.471 53.3765 203.189 53.0933C202.91 52.8081 202.771 52.4292 202.771 51.9565V51.8687C202.771 51.5522 202.831 51.27 202.952 51.022C203.075 50.772 203.247 50.5776 203.468 50.439C203.688 50.3003 203.935 50.231 204.206 50.231C204.638 50.231 204.971 50.3687 205.205 50.644C205.441 50.9194 205.56 51.3091 205.56 51.813V52.1001H203.488C203.51 52.3618 203.597 52.5688 203.749 52.7212C203.903 52.8735 204.097 52.9497 204.329 52.9497C204.655 52.9497 204.921 52.8179 205.126 52.5542L205.51 52.9204C205.383 53.1099 205.213 53.2573 205 53.3628C204.789 53.4663 204.552 53.5181 204.288 53.5181ZM204.203 50.8022C204.008 50.8022 203.85 50.8706 203.729 51.0073C203.609 51.144 203.533 51.3345 203.5 51.5786H204.856V51.5259C204.841 51.2876 204.777 51.1079 204.666 50.9868C204.555 50.8638 204.4 50.8022 204.203 50.8022ZM207.253 51.3325L207.856 50.2896H208.647L207.678 51.8511L208.68 53.4595H207.895L207.262 52.3755L206.632 53.4595H205.841L206.843 51.8511L205.876 50.2896H206.661L207.253 51.3325ZM210.024 49.519V50.2896H210.584V50.8169H210.024V52.5864C210.024 52.7075 210.048 52.7954 210.095 52.8501C210.144 52.9028 210.229 52.9292 210.353 52.9292C210.435 52.9292 210.518 52.9194 210.602 52.8999V53.4507C210.439 53.4956 210.283 53.5181 210.133 53.5181C209.586 53.5181 209.312 53.2163 209.312 52.6128V50.8169H208.791V50.2896H209.312V49.519H210.024ZM212.491 51.8452C212.491 51.5347 212.553 51.2554 212.676 51.0073C212.799 50.7573 212.972 50.5659 213.194 50.4331C213.417 50.2983 213.673 50.231 213.962 50.231C214.39 50.231 214.736 50.3687 215.002 50.644C215.27 50.9194 215.414 51.2847 215.436 51.7397L215.438 51.9067C215.438 52.2192 215.378 52.4985 215.257 52.7446C215.138 52.9907 214.966 53.1812 214.741 53.3159C214.519 53.4507 214.261 53.5181 213.968 53.5181C213.521 53.5181 213.162 53.3696 212.893 53.0728C212.625 52.7739 212.491 52.3765 212.491 51.8804V51.8452ZM213.203 51.9067C213.203 52.2329 213.271 52.4888 213.405 52.6743C213.54 52.8579 213.728 52.9497 213.968 52.9497C214.208 52.9497 214.395 52.856 214.527 52.6685C214.662 52.481 214.729 52.2065 214.729 51.8452C214.729 51.5249 214.66 51.271 214.521 51.0835C214.385 50.896 214.198 50.8022 213.962 50.8022C213.729 50.8022 213.545 50.895 213.408 51.0806C213.271 51.2642 213.203 51.5396 213.203 51.9067ZM216.291 53.4595V50.8169H215.808V50.2896H216.291V49.9995C216.291 49.6479 216.389 49.3765 216.584 49.1851C216.779 48.9937 217.053 48.8979 217.404 48.8979C217.529 48.8979 217.662 48.9155 217.803 48.9507L217.785 49.5073C217.707 49.4917 217.616 49.4839 217.513 49.4839C217.173 49.4839 217.003 49.6587 217.003 50.0083V50.2896H217.647V50.8169H217.003V53.4595H216.291ZM220.554 49.519V50.2896H221.113V50.8169H220.554V52.5864C220.554 52.7075 220.577 52.7954 220.624 52.8501C220.673 52.9028 220.759 52.9292 220.882 52.9292C220.964 52.9292 221.047 52.9194 221.131 52.8999V53.4507C220.969 53.4956 220.812 53.5181 220.662 53.5181C220.115 53.5181 219.842 53.2163 219.842 52.6128V50.8169H219.32V50.2896H219.842V49.519H220.554ZM222.361 50.6353C222.594 50.3657 222.888 50.231 223.243 50.231C223.919 50.231 224.262 50.6167 224.271 51.3882V53.4595H223.56V51.4146C223.56 51.1958 223.512 51.0415 223.416 50.9517C223.322 50.8599 223.184 50.814 223 50.814C222.715 50.814 222.502 50.9409 222.361 51.1948V53.4595H221.649V48.9595H222.361V50.6353ZM226.39 53.5181C225.938 53.5181 225.572 53.3765 225.291 53.0933C225.012 52.8081 224.872 52.4292 224.872 51.9565V51.8687C224.872 51.5522 224.933 51.27 225.054 51.022C225.177 50.772 225.349 50.5776 225.569 50.439C225.79 50.3003 226.036 50.231 226.308 50.231C226.739 50.231 227.072 50.3687 227.307 50.644C227.543 50.9194 227.661 51.3091 227.661 51.813V52.1001H225.59C225.611 52.3618 225.698 52.5688 225.851 52.7212C226.005 52.8735 226.198 52.9497 226.431 52.9497C226.757 52.9497 227.022 52.8179 227.228 52.5542L227.611 52.9204C227.484 53.1099 227.314 53.2573 227.102 53.3628C226.891 53.4663 226.653 53.5181 226.39 53.5181ZM226.305 50.8022C226.109 50.8022 225.951 50.8706 225.83 51.0073C225.711 51.144 225.635 51.3345 225.602 51.5786H226.958V51.5259C226.942 51.2876 226.879 51.1079 226.768 50.9868C226.656 50.8638 226.502 50.8022 226.305 50.8022ZM232.486 51.9067C232.486 52.397 232.375 52.7886 232.152 53.0815C231.93 53.3726 231.631 53.5181 231.256 53.5181C230.908 53.5181 230.63 53.4038 230.421 53.1753V54.6782H229.709V50.2896H230.365L230.395 50.6118C230.604 50.3579 230.888 50.231 231.247 50.231C231.634 50.231 231.937 50.3755 232.155 50.6646C232.376 50.9517 232.486 51.3511 232.486 51.8628V51.9067ZM231.777 51.8452C231.777 51.5288 231.714 51.2778 231.587 51.0923C231.462 50.9067 231.282 50.814 231.048 50.814C230.757 50.814 230.548 50.9341 230.421 51.1743V52.5806C230.55 52.8267 230.761 52.9497 231.054 52.9497C231.28 52.9497 231.457 52.8589 231.584 52.6772C231.713 52.4937 231.777 52.2163 231.777 51.8452ZM234.751 50.9399C234.657 50.9243 234.561 50.9165 234.461 50.9165C234.135 50.9165 233.915 51.0415 233.802 51.2915V53.4595H233.09V50.2896H233.77L233.787 50.644C233.959 50.3687 234.197 50.231 234.502 50.231C234.604 50.231 234.688 50.2446 234.754 50.272L234.751 50.9399ZM235.958 53.4595H235.246V50.2896H235.958V53.4595ZM235.202 49.4663C235.202 49.3569 235.236 49.2661 235.305 49.1938C235.375 49.1216 235.475 49.0854 235.604 49.0854C235.732 49.0854 235.832 49.1216 235.902 49.1938C235.973 49.2661 236.008 49.3569 236.008 49.4663C236.008 49.5737 235.973 49.6636 235.902 49.7358C235.832 49.8062 235.732 49.8413 235.604 49.8413C235.475 49.8413 235.375 49.8062 235.305 49.7358C235.236 49.6636 235.202 49.5737 235.202 49.4663ZM237.396 50.2896L237.417 50.6558C237.651 50.3726 237.959 50.231 238.34 50.231C239 50.231 239.336 50.6089 239.348 51.3647V53.4595H238.636V51.4058C238.636 51.2046 238.592 51.0562 238.504 50.9604C238.418 50.8628 238.276 50.814 238.079 50.814C237.792 50.814 237.578 50.9438 237.438 51.2036V53.4595H236.726V50.2896H237.396ZM240.968 49.519V50.2896H241.527V50.8169H240.968V52.5864C240.968 52.7075 240.991 52.7954 241.038 52.8501C241.087 52.9028 241.173 52.9292 241.296 52.9292C241.378 52.9292 241.461 52.9194 241.545 52.8999V53.4507C241.383 53.4956 241.227 53.5181 241.076 53.5181C240.529 53.5181 240.256 53.2163 240.256 52.6128V50.8169H239.734V50.2896H240.256V49.519H240.968ZM242.831 53.4595H242.119V50.2896H242.831V53.4595ZM242.075 49.4663C242.075 49.3569 242.109 49.2661 242.178 49.1938C242.248 49.1216 242.348 49.0854 242.477 49.0854C242.605 49.0854 242.705 49.1216 242.775 49.1938C242.846 49.2661 242.881 49.3569 242.881 49.4663C242.881 49.5737 242.846 49.6636 242.775 49.7358C242.705 49.8062 242.605 49.8413 242.477 49.8413C242.348 49.8413 242.248 49.8062 242.178 49.7358C242.109 49.6636 242.075 49.5737 242.075 49.4663ZM244.27 50.2896L244.29 50.6558C244.524 50.3726 244.832 50.231 245.213 50.231C245.873 50.231 246.209 50.6089 246.221 51.3647V53.4595H245.509V51.4058C245.509 51.2046 245.465 51.0562 245.377 50.9604C245.291 50.8628 245.149 50.814 244.952 50.814C244.665 50.814 244.451 50.9438 244.311 51.2036V53.4595H243.599V50.2896H244.27ZM246.824 51.8511C246.824 51.3589 246.939 50.9663 247.17 50.6733C247.402 50.3784 247.71 50.231 248.093 50.231C248.454 50.231 248.738 50.3569 248.945 50.6089L248.978 50.2896H249.619V53.3628C249.619 53.7788 249.489 54.1069 249.229 54.3472C248.972 54.5874 248.623 54.7075 248.184 54.7075C247.951 54.7075 247.724 54.6587 247.501 54.561C247.28 54.4653 247.112 54.3394 246.997 54.1831L247.334 53.7554C247.553 54.0151 247.822 54.145 248.143 54.145C248.379 54.145 248.565 54.0806 248.702 53.9517C248.839 53.8247 248.907 53.6372 248.907 53.3892V53.1753C248.702 53.4038 248.429 53.5181 248.087 53.5181C247.716 53.5181 247.412 53.3706 247.176 53.0757C246.941 52.7808 246.824 52.3726 246.824 51.8511ZM247.533 51.9126C247.533 52.231 247.598 52.4819 247.727 52.6655C247.857 52.8472 248.038 52.938 248.269 52.938C248.556 52.938 248.769 52.8149 248.907 52.5688V51.1743C248.772 50.9341 248.562 50.814 248.274 50.814C248.04 50.814 247.857 50.9067 247.727 51.0923C247.598 51.2778 247.533 51.5513 247.533 51.9126ZM253.741 53.4595C253.71 53.3989 253.683 53.3003 253.659 53.1636C253.433 53.3999 253.155 53.5181 252.827 53.5181C252.509 53.5181 252.249 53.4272 252.048 53.2456C251.847 53.064 251.746 52.8394 251.746 52.5718C251.746 52.2339 251.871 51.9751 252.121 51.7954C252.373 51.6138 252.732 51.5229 253.199 51.5229H253.636V51.3149C253.636 51.1509 253.59 51.02 253.498 50.9224C253.406 50.8228 253.267 50.7729 253.079 50.7729C252.917 50.7729 252.784 50.814 252.681 50.896C252.577 50.9761 252.525 51.0786 252.525 51.2036H251.813C251.813 51.0298 251.871 50.8677 251.986 50.7173C252.102 50.5649 252.258 50.4458 252.455 50.3599C252.654 50.2739 252.876 50.231 253.12 50.231C253.491 50.231 253.787 50.3247 254.008 50.5122C254.229 50.6978 254.342 50.9595 254.348 51.2974V52.7271C254.348 53.0122 254.388 53.2397 254.468 53.4097V53.4595H253.741ZM252.959 52.9468C253.1 52.9468 253.231 52.9126 253.354 52.8442C253.479 52.7759 253.573 52.6841 253.636 52.5688V51.9712H253.252C252.988 51.9712 252.79 52.0171 252.657 52.1089C252.524 52.2007 252.458 52.3306 252.458 52.4985C252.458 52.6353 252.503 52.7446 252.593 52.8267C252.685 52.9067 252.807 52.9468 252.959 52.9468ZM255.754 50.2896L255.774 50.6558C256.009 50.3726 256.316 50.231 256.697 50.231C257.357 50.231 257.693 50.6089 257.705 51.3647V53.4595H256.993V51.4058C256.993 51.2046 256.949 51.0562 256.861 50.9604C256.775 50.8628 256.634 50.814 256.437 50.814C256.149 50.814 255.936 50.9438 255.795 51.2036V53.4595H255.083V50.2896H255.754ZM258.3 51.8511C258.3 51.3628 258.413 50.9712 258.64 50.6763C258.866 50.3794 259.17 50.231 259.551 50.231C259.887 50.231 260.158 50.3481 260.365 50.5825V48.9595H261.077V53.4595H260.433L260.397 53.1313C260.185 53.3892 259.9 53.5181 259.545 53.5181C259.174 53.5181 258.873 53.3687 258.643 53.0698C258.414 52.771 258.3 52.3647 258.3 51.8511ZM259.012 51.9126C259.012 52.2349 259.073 52.4868 259.196 52.6685C259.321 52.8481 259.498 52.938 259.727 52.938C260.018 52.938 260.23 52.8081 260.365 52.5483V51.1948C260.234 50.9409 260.023 50.814 259.732 50.814C259.502 50.814 259.324 50.9058 259.199 51.0894C259.074 51.271 259.012 51.5454 259.012 51.9126ZM118.015 58.519V59.2896H118.574V59.8169H118.015V61.5864C118.015 61.7075 118.038 61.7954 118.085 61.8501C118.134 61.9028 118.22 61.9292 118.343 61.9292C118.425 61.9292 118.508 61.9194 118.592 61.8999V62.4507C118.43 62.4956 118.273 62.5181 118.123 62.5181C117.576 62.5181 117.303 62.2163 117.303 61.6128V59.8169H116.781V59.2896H117.303V58.519H118.015ZM120.229 61.4399L120.874 59.2896H121.633L120.373 62.9399C120.18 63.4731 119.852 63.7397 119.389 63.7397C119.285 63.7397 119.171 63.7222 119.046 63.687V63.1362L119.181 63.145C119.36 63.145 119.495 63.1118 119.585 63.0454C119.677 62.981 119.749 62.8716 119.802 62.7173L119.904 62.4448L118.791 59.2896H119.559L120.229 61.4399ZM124.82 60.9067C124.82 61.397 124.709 61.7886 124.486 62.0815C124.264 62.3726 123.965 62.5181 123.59 62.5181C123.242 62.5181 122.964 62.4038 122.755 62.1753V63.6782H122.043V59.2896H122.699L122.729 59.6118C122.938 59.3579 123.222 59.231 123.581 59.231C123.968 59.231 124.271 59.3755 124.489 59.6646C124.71 59.9517 124.82 60.3511 124.82 60.8628V60.9067ZM124.111 60.8452C124.111 60.5288 124.048 60.2778 123.921 60.0923C123.796 59.9067 123.616 59.814 123.382 59.814C123.091 59.814 122.882 59.9341 122.755 60.1743V61.5806C122.884 61.8267 123.095 61.9497 123.388 61.9497C123.614 61.9497 123.791 61.8589 123.918 61.6772C124.047 61.4937 124.111 61.2163 124.111 60.8452ZM126.821 62.5181C126.37 62.5181 126.004 62.3765 125.723 62.0933C125.443 61.8081 125.304 61.4292 125.304 60.9565V60.8687C125.304 60.5522 125.364 60.27 125.485 60.022C125.608 59.772 125.78 59.5776 126.001 59.439C126.222 59.3003 126.468 59.231 126.739 59.231C127.171 59.231 127.504 59.3687 127.738 59.644C127.975 59.9194 128.093 60.3091 128.093 60.813V61.1001H126.021C126.043 61.3618 126.13 61.5688 126.282 61.7212C126.437 61.8735 126.63 61.9497 126.862 61.9497C127.188 61.9497 127.454 61.8179 127.659 61.5542L128.043 61.9204C127.916 62.1099 127.746 62.2573 127.533 62.3628C127.322 62.4663 127.085 62.5181 126.821 62.5181ZM126.736 59.8022C126.541 59.8022 126.383 59.8706 126.262 60.0073C126.143 60.144 126.066 60.3345 126.033 60.5786H127.39V60.5259C127.374 60.2876 127.311 60.1079 127.199 59.9868C127.088 59.8638 126.934 59.8022 126.736 59.8022ZM130.425 61.5981C130.425 61.4712 130.372 61.3745 130.267 61.3081C130.163 61.2417 129.99 61.1831 129.748 61.1323C129.506 61.0815 129.304 61.0171 129.142 60.939C128.786 60.7671 128.608 60.5181 128.608 60.1919C128.608 59.9185 128.724 59.6899 128.954 59.5063C129.185 59.3228 129.478 59.231 129.833 59.231C130.212 59.231 130.518 59.3247 130.75 59.5122C130.984 59.6997 131.102 59.9429 131.102 60.2417H130.39C130.39 60.105 130.339 59.9917 130.237 59.9019C130.136 59.8101 130.001 59.7642 129.833 59.7642C129.677 59.7642 129.549 59.8003 129.449 59.8726C129.352 59.9448 129.303 60.0415 129.303 60.1626C129.303 60.272 129.349 60.3569 129.44 60.4175C129.532 60.478 129.718 60.5396 129.997 60.6021C130.276 60.6626 130.495 60.7358 130.653 60.8218C130.813 60.9058 130.932 61.0073 131.008 61.1265C131.086 61.2456 131.125 61.3901 131.125 61.5601C131.125 61.8452 131.007 62.0767 130.771 62.2544C130.534 62.4302 130.225 62.5181 129.842 62.5181C129.582 62.5181 129.351 62.4712 129.147 62.3774C128.944 62.2837 128.786 62.1548 128.673 61.9907C128.56 61.8267 128.503 61.6499 128.503 61.4604H129.194C129.204 61.6284 129.268 61.7583 129.385 61.8501C129.502 61.9399 129.657 61.9849 129.851 61.9849C130.038 61.9849 130.181 61.9497 130.278 61.8794C130.376 61.8071 130.425 61.7134 130.425 61.5981ZM133.144 62.5181C132.692 62.5181 132.326 62.3765 132.045 62.0933C131.766 61.8081 131.626 61.4292 131.626 60.9565V60.8687C131.626 60.5522 131.687 60.27 131.808 60.022C131.931 59.772 132.103 59.5776 132.323 59.439C132.544 59.3003 132.79 59.231 133.062 59.231C133.493 59.231 133.826 59.3687 134.061 59.644C134.297 59.9194 134.415 60.3091 134.415 60.813V61.1001H132.344C132.365 61.3618 132.452 61.5688 132.604 61.7212C132.759 61.8735 132.952 61.9497 133.185 61.9497C133.511 61.9497 133.776 61.8179 133.981 61.5542L134.365 61.9204C134.238 62.1099 134.068 62.2573 133.855 62.3628C133.645 62.4663 133.407 62.5181 133.144 62.5181ZM133.059 59.8022C132.863 59.8022 132.705 59.8706 132.584 60.0073C132.465 60.144 132.389 60.3345 132.355 60.5786H133.712V60.5259C133.696 60.2876 133.633 60.1079 133.521 59.9868C133.41 59.8638 133.256 59.8022 133.059 59.8022ZM135.862 58.519V59.2896H136.422V59.8169H135.862V61.5864C135.862 61.7075 135.886 61.7954 135.933 61.8501C135.981 61.9028 136.067 61.9292 136.19 61.9292C136.272 61.9292 136.355 61.9194 136.439 61.8999V62.4507C136.277 62.4956 136.121 62.5181 135.971 62.5181C135.424 62.5181 135.15 62.2163 135.15 61.6128V59.8169H134.629V59.2896H135.15V58.519H135.862ZM137.86 58.519V59.2896H138.42V59.8169H137.86V61.5864C137.86 61.7075 137.884 61.7954 137.931 61.8501C137.979 61.9028 138.065 61.9292 138.188 61.9292C138.271 61.9292 138.354 61.9194 138.438 61.8999V62.4507C138.275 62.4956 138.119 62.5181 137.969 62.5181C137.422 62.5181 137.148 62.2163 137.148 61.6128V59.8169H136.627V59.2896H137.148V58.519H137.86ZM139.724 62.4595H139.012V59.2896H139.724V62.4595ZM138.968 58.4663C138.968 58.3569 139.002 58.2661 139.07 58.1938C139.141 58.1216 139.24 58.0854 139.369 58.0854C139.498 58.0854 139.598 58.1216 139.668 58.1938C139.738 58.2661 139.773 58.3569 139.773 58.4663C139.773 58.5737 139.738 58.6636 139.668 58.7358C139.598 58.8062 139.498 58.8413 139.369 58.8413C139.24 58.8413 139.141 58.8062 139.07 58.7358C139.002 58.6636 138.968 58.5737 138.968 58.4663ZM141.162 59.2896L141.183 59.6558C141.417 59.3726 141.725 59.231 142.105 59.231C142.766 59.231 143.102 59.6089 143.113 60.3647V62.4595H142.401V60.4058C142.401 60.2046 142.357 60.0562 142.27 59.9604C142.184 59.8628 142.042 59.814 141.845 59.814C141.558 59.814 141.344 59.9438 141.203 60.2036V62.4595H140.491V59.2896H141.162ZM143.717 60.8511C143.717 60.3589 143.832 59.9663 144.062 59.6733C144.295 59.3784 144.603 59.231 144.985 59.231C145.347 59.231 145.631 59.3569 145.838 59.6089L145.87 59.2896H146.512V62.3628C146.512 62.7788 146.382 63.1069 146.122 63.3472C145.864 63.5874 145.516 63.7075 145.076 63.7075C144.844 63.7075 144.616 63.6587 144.394 63.561C144.173 63.4653 144.005 63.3394 143.89 63.1831L144.227 62.7554C144.445 63.0151 144.715 63.145 145.035 63.145C145.271 63.145 145.458 63.0806 145.595 62.9517C145.731 62.8247 145.8 62.6372 145.8 62.3892V62.1753C145.595 62.4038 145.321 62.5181 144.979 62.5181C144.608 62.5181 144.305 62.3706 144.068 62.0757C143.834 61.7808 143.717 61.3726 143.717 60.8511ZM144.426 60.9126C144.426 61.231 144.49 61.4819 144.619 61.6655C144.75 61.8472 144.931 61.938 145.161 61.938C145.448 61.938 145.661 61.8149 145.8 61.5688V60.1743C145.665 59.9341 145.454 59.814 145.167 59.814C144.933 59.814 144.75 59.9067 144.619 60.0923C144.49 60.2778 144.426 60.5513 144.426 60.9126ZM149.497 62.4595H148.785V59.2896H149.497V62.4595ZM148.741 58.4663C148.741 58.3569 148.775 58.2661 148.844 58.1938C148.914 58.1216 149.014 58.0854 149.143 58.0854C149.271 58.0854 149.371 58.1216 149.441 58.1938C149.512 58.2661 149.547 58.3569 149.547 58.4663C149.547 58.5737 149.512 58.6636 149.441 58.7358C149.371 58.8062 149.271 58.8413 149.143 58.8413C149.014 58.8413 148.914 58.8062 148.844 58.7358C148.775 58.6636 148.741 58.5737 148.741 58.4663ZM150.936 59.2896L150.956 59.6558C151.19 59.3726 151.498 59.231 151.879 59.231C152.539 59.231 152.875 59.6089 152.887 60.3647V62.4595H152.175V60.4058C152.175 60.2046 152.131 60.0562 152.043 59.9604C151.957 59.8628 151.815 59.814 151.618 59.814C151.331 59.814 151.117 59.9438 150.977 60.2036V62.4595H150.265V59.2896H150.936ZM153.481 60.8511C153.481 60.3628 153.595 59.9712 153.821 59.6763C154.048 59.3794 154.352 59.231 154.732 59.231C155.068 59.231 155.34 59.3481 155.547 59.5825V57.9595H156.259V62.4595H155.614L155.579 62.1313C155.366 62.3892 155.082 62.5181 154.727 62.5181C154.355 62.5181 154.055 62.3687 153.824 62.0698C153.596 61.771 153.481 61.3647 153.481 60.8511ZM154.193 60.9126C154.193 61.2349 154.255 61.4868 154.378 61.6685C154.503 61.8481 154.68 61.938 154.908 61.938C155.199 61.938 155.412 61.8081 155.547 61.5483V60.1948C155.416 59.9409 155.205 59.814 154.914 59.814C154.684 59.814 154.506 59.9058 154.381 60.0894C154.256 60.271 154.193 60.5454 154.193 60.9126ZM158.922 62.1489C158.713 62.395 158.416 62.5181 158.031 62.5181C157.688 62.5181 157.427 62.4175 157.249 62.2163C157.073 62.0151 156.985 61.7241 156.985 61.3433V59.2896H157.697V61.3345C157.697 61.7368 157.864 61.938 158.198 61.938C158.544 61.938 158.777 61.814 158.898 61.5659V59.2896H159.61V62.4595H158.939L158.922 62.1489ZM162.112 61.5981C162.112 61.4712 162.06 61.3745 161.954 61.3081C161.851 61.2417 161.678 61.1831 161.436 61.1323C161.193 61.0815 160.991 61.0171 160.829 60.939C160.474 60.7671 160.296 60.5181 160.296 60.1919C160.296 59.9185 160.411 59.6899 160.642 59.5063C160.872 59.3228 161.165 59.231 161.521 59.231C161.899 59.231 162.205 59.3247 162.438 59.5122C162.672 59.6997 162.789 59.9429 162.789 60.2417H162.077C162.077 60.105 162.026 59.9917 161.925 59.9019C161.823 59.8101 161.688 59.7642 161.521 59.7642C161.364 59.7642 161.236 59.8003 161.137 59.8726C161.039 59.9448 160.99 60.0415 160.99 60.1626C160.99 60.272 161.036 60.3569 161.128 60.4175C161.22 60.478 161.405 60.5396 161.685 60.6021C161.964 60.6626 162.183 60.7358 162.341 60.8218C162.501 60.9058 162.619 61.0073 162.695 61.1265C162.773 61.2456 162.812 61.3901 162.812 61.5601C162.812 61.8452 162.694 62.0767 162.458 62.2544C162.222 62.4302 161.912 62.5181 161.529 62.5181C161.27 62.5181 161.038 62.4712 160.835 62.3774C160.632 62.2837 160.474 62.1548 160.36 61.9907C160.247 61.8267 160.19 61.6499 160.19 61.4604H160.882C160.892 61.6284 160.955 61.7583 161.072 61.8501C161.189 61.9399 161.345 61.9849 161.538 61.9849C161.726 61.9849 161.868 61.9497 161.966 61.8794C162.063 61.8071 162.112 61.7134 162.112 61.5981ZM164.327 58.519V59.2896H164.887V59.8169H164.327V61.5864C164.327 61.7075 164.351 61.7954 164.397 61.8501C164.446 61.9028 164.532 61.9292 164.655 61.9292C164.737 61.9292 164.82 61.9194 164.904 61.8999V62.4507C164.742 62.4956 164.586 62.5181 164.436 62.5181C163.889 62.5181 163.615 62.2163 163.615 61.6128V59.8169H163.094V59.2896H163.615V58.519H164.327ZM167.093 59.9399C166.999 59.9243 166.902 59.9165 166.803 59.9165C166.477 59.9165 166.257 60.0415 166.144 60.2915V62.4595H165.432V59.2896H166.111L166.129 59.644C166.301 59.3687 166.539 59.231 166.844 59.231C166.945 59.231 167.029 59.2446 167.096 59.272L167.093 59.9399ZM168.704 61.4399L169.349 59.2896H170.107L168.848 62.9399C168.654 63.4731 168.326 63.7397 167.863 63.7397C167.76 63.7397 167.646 63.7222 167.521 63.687V63.1362L167.655 63.145C167.835 63.145 167.97 63.1118 168.06 63.0454C168.151 62.981 168.224 62.8716 168.276 62.7173L168.379 62.4448L167.266 59.2896H168.033L168.704 61.4399ZM170.471 61.7095C170.604 61.7095 170.706 61.7476 170.778 61.8237C170.851 61.8979 170.887 61.9917 170.887 62.105C170.887 62.2163 170.851 62.3091 170.778 62.3833C170.706 62.4556 170.604 62.4917 170.471 62.4917C170.344 62.4917 170.243 62.4556 170.169 62.3833C170.095 62.311 170.058 62.2183 170.058 62.105C170.058 61.9917 170.094 61.8979 170.166 61.8237C170.238 61.7476 170.34 61.7095 170.471 61.7095ZM174.007 61.8677H175.943V62.4595H173.266V58.1938H174.007V61.8677ZM176.31 60.8452C176.31 60.5347 176.371 60.2554 176.494 60.0073C176.617 59.7573 176.79 59.5659 177.013 59.4331C177.235 59.2983 177.491 59.231 177.78 59.231C178.208 59.231 178.555 59.3687 178.82 59.644C179.088 59.9194 179.232 60.2847 179.254 60.7397L179.257 60.9067C179.257 61.2192 179.196 61.4985 179.075 61.7446C178.956 61.9907 178.784 62.1812 178.56 62.3159C178.337 62.4507 178.079 62.5181 177.786 62.5181C177.339 62.5181 176.98 62.3696 176.711 62.0728C176.443 61.7739 176.31 61.3765 176.31 60.8804V60.8452ZM177.021 60.9067C177.021 61.2329 177.089 61.4888 177.224 61.6743C177.358 61.8579 177.546 61.9497 177.786 61.9497C178.026 61.9497 178.213 61.856 178.346 61.6685C178.48 61.481 178.548 61.2065 178.548 60.8452C178.548 60.5249 178.479 60.271 178.34 60.0835C178.203 59.896 178.017 59.8022 177.78 59.8022C177.548 59.8022 177.363 59.895 177.227 60.0806C177.09 60.2642 177.021 60.5396 177.021 60.9067ZM181.519 59.9399C181.425 59.9243 181.328 59.9165 181.229 59.9165C180.902 59.9165 180.683 60.0415 180.569 60.2915V62.4595H179.857V59.2896H180.537L180.555 59.644C180.727 59.3687 180.965 59.231 181.27 59.231C181.371 59.231 181.455 59.2446 181.521 59.272L181.519 59.9399ZM183.306 62.5181C182.854 62.5181 182.488 62.3765 182.207 62.0933C181.928 61.8081 181.788 61.4292 181.788 60.9565V60.8687C181.788 60.5522 181.849 60.27 181.97 60.022C182.093 59.772 182.265 59.5776 182.485 59.439C182.706 59.3003 182.952 59.231 183.224 59.231C183.655 59.231 183.988 59.3687 184.223 59.644C184.459 59.9194 184.577 60.3091 184.577 60.813V61.1001H182.506C182.527 61.3618 182.614 61.5688 182.767 61.7212C182.921 61.8735 183.114 61.9497 183.347 61.9497C183.673 61.9497 183.938 61.8179 184.144 61.5542L184.527 61.9204C184.4 62.1099 184.23 62.2573 184.018 62.3628C183.807 62.4663 183.569 62.5181 183.306 62.5181ZM183.221 59.8022C183.025 59.8022 182.867 59.8706 182.746 60.0073C182.627 60.144 182.551 60.3345 182.518 60.5786H183.874V60.5259C183.858 60.2876 183.795 60.1079 183.684 59.9868C183.572 59.8638 183.418 59.8022 183.221 59.8022ZM185.802 59.2896L185.822 59.6206C186.045 59.3608 186.35 59.231 186.736 59.231C187.16 59.231 187.45 59.3931 187.606 59.7173C187.837 59.3931 188.161 59.231 188.579 59.231C188.929 59.231 189.188 59.3276 189.358 59.521C189.53 59.7144 189.618 59.9995 189.622 60.3765V62.4595H188.91V60.397C188.91 60.1958 188.866 60.0483 188.778 59.9546C188.69 59.8608 188.545 59.814 188.342 59.814C188.18 59.814 188.047 59.8579 187.943 59.9458C187.842 60.0317 187.771 60.145 187.729 60.2856L187.732 62.4595H187.021V60.3735C187.011 60.0005 186.82 59.814 186.449 59.814C186.164 59.814 185.962 59.9302 185.843 60.1626V62.4595H185.131V59.2896H185.802ZM192.698 62.4595H191.96V58.1938H192.698V62.4595ZM196.316 60.9067C196.316 61.397 196.205 61.7886 195.982 62.0815C195.76 62.3726 195.461 62.5181 195.086 62.5181C194.738 62.5181 194.46 62.4038 194.251 62.1753V63.6782H193.539V59.2896H194.195L194.225 59.6118C194.434 59.3579 194.718 59.231 195.077 59.231C195.464 59.231 195.767 59.3755 195.985 59.6646C196.206 59.9517 196.316 60.3511 196.316 60.8628V60.9067ZM195.607 60.8452C195.607 60.5288 195.544 60.2778 195.417 60.0923C195.292 59.9067 195.112 59.814 194.878 59.814C194.587 59.814 194.378 59.9341 194.251 60.1743V61.5806C194.38 61.8267 194.591 61.9497 194.884 61.9497C195.11 61.9497 195.287 61.8589 195.414 61.6772C195.543 61.4937 195.607 61.2163 195.607 60.8452ZM198.698 61.5981C198.698 61.4712 198.646 61.3745 198.54 61.3081C198.437 61.2417 198.264 61.1831 198.021 61.1323C197.779 61.0815 197.577 61.0171 197.415 60.939C197.06 60.7671 196.882 60.5181 196.882 60.1919C196.882 59.9185 196.997 59.6899 197.228 59.5063C197.458 59.3228 197.751 59.231 198.106 59.231C198.485 59.231 198.791 59.3247 199.023 59.5122C199.258 59.6997 199.375 59.9429 199.375 60.2417H198.663C198.663 60.105 198.612 59.9917 198.511 59.9019C198.409 59.8101 198.274 59.7642 198.106 59.7642C197.95 59.7642 197.822 59.8003 197.723 59.8726C197.625 59.9448 197.576 60.0415 197.576 60.1626C197.576 60.272 197.622 60.3569 197.714 60.4175C197.806 60.478 197.991 60.5396 198.271 60.6021C198.55 60.6626 198.769 60.7358 198.927 60.8218C199.087 60.9058 199.205 61.0073 199.281 61.1265C199.359 61.2456 199.398 61.3901 199.398 61.5601C199.398 61.8452 199.28 62.0767 199.044 62.2544C198.808 62.4302 198.498 62.5181 198.115 62.5181C197.855 62.5181 197.624 62.4712 197.421 62.3774C197.218 62.2837 197.06 62.1548 196.946 61.9907C196.833 61.8267 196.776 61.6499 196.776 61.4604H197.468C197.478 61.6284 197.541 61.7583 197.658 61.8501C197.775 61.9399 197.931 61.9849 198.124 61.9849C198.312 61.9849 198.454 61.9497 198.552 61.8794C198.649 61.8071 198.698 61.7134 198.698 61.5981ZM201.941 62.1489C201.732 62.395 201.436 62.5181 201.051 62.5181C200.707 62.5181 200.446 62.4175 200.269 62.2163C200.093 62.0151 200.005 61.7241 200.005 61.3433V59.2896H200.717V61.3345C200.717 61.7368 200.884 61.938 201.218 61.938C201.563 61.938 201.797 61.814 201.918 61.5659V59.2896H202.63V62.4595H201.959L201.941 62.1489ZM204.024 59.2896L204.045 59.6206C204.268 59.3608 204.572 59.231 204.959 59.231C205.383 59.231 205.673 59.3931 205.829 59.7173C206.06 59.3931 206.384 59.231 206.802 59.231C207.151 59.231 207.411 59.3276 207.581 59.521C207.753 59.7144 207.841 59.9995 207.845 60.3765V62.4595H207.133V60.397C207.133 60.1958 207.089 60.0483 207.001 59.9546C206.913 59.8608 206.768 59.814 206.564 59.814C206.402 59.814 206.27 59.8579 206.166 59.9458C206.064 60.0317 205.993 60.145 205.952 60.2856L205.955 62.4595H205.243V60.3735C205.233 60.0005 205.043 59.814 204.672 59.814C204.387 59.814 204.185 59.9302 204.065 60.1626V62.4595H203.354V59.2896H204.024ZM210.771 59.6353C211.004 59.3657 211.298 59.231 211.653 59.231C212.329 59.231 212.672 59.6167 212.682 60.3882V62.4595H211.97V60.4146C211.97 60.1958 211.922 60.0415 211.826 59.9517C211.732 59.8599 211.594 59.814 211.41 59.814C211.125 59.814 210.912 59.9409 210.771 60.1948V62.4595H210.06V57.9595H210.771V59.6353ZM215.298 62.4595C215.267 62.3989 215.239 62.3003 215.216 62.1636C214.989 62.3999 214.712 62.5181 214.384 62.5181C214.065 62.5181 213.806 62.4272 213.604 62.2456C213.403 62.064 213.303 61.8394 213.303 61.5718C213.303 61.2339 213.428 60.9751 213.678 60.7954C213.93 60.6138 214.289 60.5229 214.756 60.5229H215.192V60.3149C215.192 60.1509 215.146 60.02 215.055 59.9224C214.963 59.8228 214.823 59.7729 214.636 59.7729C214.474 59.7729 214.341 59.814 214.237 59.896C214.134 59.9761 214.082 60.0786 214.082 60.2036H213.37C213.37 60.0298 213.428 59.8677 213.543 59.7173C213.658 59.5649 213.814 59.4458 214.012 59.3599C214.211 59.2739 214.433 59.231 214.677 59.231C215.048 59.231 215.344 59.3247 215.564 59.5122C215.785 59.6978 215.898 59.9595 215.904 60.2974V61.7271C215.904 62.0122 215.944 62.2397 216.024 62.4097V62.4595H215.298ZM214.516 61.9468C214.656 61.9468 214.788 61.9126 214.911 61.8442C215.036 61.7759 215.13 61.6841 215.192 61.5688V60.9712H214.809C214.545 60.9712 214.347 61.0171 214.214 61.1089C214.081 61.2007 214.015 61.3306 214.015 61.4985C214.015 61.6353 214.06 61.7446 214.149 61.8267C214.241 61.9067 214.363 61.9468 214.516 61.9468ZM218.427 61.5981C218.427 61.4712 218.374 61.3745 218.269 61.3081C218.165 61.2417 217.992 61.1831 217.75 61.1323C217.508 61.0815 217.306 61.0171 217.144 60.939C216.788 60.7671 216.61 60.5181 216.61 60.1919C216.61 59.9185 216.726 59.6899 216.956 59.5063C217.187 59.3228 217.479 59.231 217.835 59.231C218.214 59.231 218.52 59.3247 218.752 59.5122C218.986 59.6997 219.104 59.9429 219.104 60.2417H218.392C218.392 60.105 218.341 59.9917 218.239 59.9019C218.138 59.8101 218.003 59.7642 217.835 59.7642C217.679 59.7642 217.551 59.8003 217.451 59.8726C217.354 59.9448 217.305 60.0415 217.305 60.1626C217.305 60.272 217.351 60.3569 217.442 60.4175C217.534 60.478 217.72 60.5396 217.999 60.6021C218.278 60.6626 218.497 60.7358 218.655 60.8218C218.815 60.9058 218.934 61.0073 219.01 61.1265C219.088 61.2456 219.127 61.3901 219.127 61.5601C219.127 61.8452 219.009 62.0767 218.772 62.2544C218.536 62.4302 218.227 62.5181 217.844 62.5181C217.584 62.5181 217.353 62.4712 217.149 62.3774C216.946 62.2837 216.788 62.1548 216.675 61.9907C216.562 61.8267 216.505 61.6499 216.505 61.4604H217.196C217.206 61.6284 217.27 61.7583 217.387 61.8501C217.504 61.9399 217.659 61.9849 217.853 61.9849C218.04 61.9849 218.183 61.9497 218.28 61.8794C218.378 61.8071 218.427 61.7134 218.427 61.5981ZM224.025 60.9067C224.025 61.3989 223.915 61.7905 223.694 62.0815C223.476 62.3726 223.174 62.5181 222.789 62.5181C222.418 62.5181 222.129 62.3843 221.922 62.1167L221.887 62.4595H221.242V57.9595H221.954V59.5942C222.159 59.3521 222.436 59.231 222.783 59.231C223.17 59.231 223.474 59.3745 223.694 59.6616C223.915 59.9487 224.025 60.3501 224.025 60.8657V60.9067ZM223.313 60.8452C223.313 60.5015 223.253 60.2437 223.132 60.0718C223.011 59.8999 222.835 59.814 222.604 59.814C222.296 59.814 222.079 59.9487 221.954 60.2183V61.5249C222.081 61.8003 222.3 61.938 222.61 61.938C222.833 61.938 223.005 61.855 223.126 61.689C223.247 61.5229 223.31 61.272 223.313 60.936V60.8452ZM226.021 62.5181C225.569 62.5181 225.203 62.3765 224.922 62.0933C224.643 61.8081 224.503 61.4292 224.503 60.9565V60.8687C224.503 60.5522 224.563 60.27 224.685 60.022C224.808 59.772 224.979 59.5776 225.2 59.439C225.421 59.3003 225.667 59.231 225.938 59.231C226.37 59.231 226.703 59.3687 226.938 59.644C227.174 59.9194 227.292 60.3091 227.292 60.813V61.1001H225.221C225.242 61.3618 225.329 61.5688 225.481 61.7212C225.636 61.8735 225.829 61.9497 226.062 61.9497C226.388 61.9497 226.653 61.8179 226.858 61.5542L227.242 61.9204C227.115 62.1099 226.945 62.2573 226.732 62.3628C226.521 62.4663 226.284 62.5181 226.021 62.5181ZM225.936 59.8022C225.74 59.8022 225.582 59.8706 225.461 60.0073C225.342 60.144 225.266 60.3345 225.232 60.5786H226.589V60.5259C226.573 60.2876 226.51 60.1079 226.398 59.9868C226.287 59.8638 226.133 59.8022 225.936 59.8022ZM229.243 62.5181C228.792 62.5181 228.426 62.3765 228.145 62.0933C227.865 61.8081 227.726 61.4292 227.726 60.9565V60.8687C227.726 60.5522 227.786 60.27 227.907 60.022C228.03 59.772 228.202 59.5776 228.423 59.439C228.644 59.3003 228.89 59.231 229.161 59.231C229.593 59.231 229.926 59.3687 230.16 59.644C230.396 59.9194 230.515 60.3091 230.515 60.813V61.1001H228.443C228.465 61.3618 228.552 61.5688 228.704 61.7212C228.858 61.8735 229.052 61.9497 229.284 61.9497C229.61 61.9497 229.876 61.8179 230.081 61.5542L230.465 61.9204C230.338 62.1099 230.168 62.2573 229.955 62.3628C229.744 62.4663 229.507 62.5181 229.243 62.5181ZM229.158 59.8022C228.963 59.8022 228.805 59.8706 228.684 60.0073C228.564 60.144 228.488 60.3345 228.455 60.5786H229.812V60.5259C229.796 60.2876 229.732 60.1079 229.621 59.9868C229.51 59.8638 229.355 59.8022 229.158 59.8022ZM231.73 59.2896L231.751 59.6558C231.985 59.3726 232.293 59.231 232.674 59.231C233.334 59.231 233.67 59.6089 233.682 60.3647V62.4595H232.97V60.4058C232.97 60.2046 232.926 60.0562 232.838 59.9604C232.752 59.8628 232.61 59.814 232.413 59.814C232.126 59.814 231.912 59.9438 231.771 60.2036V62.4595H231.06V59.2896H231.73ZM236.796 58.519V59.2896H237.355V59.8169H236.796V61.5864C236.796 61.7075 236.819 61.7954 236.866 61.8501C236.915 61.9028 237.001 61.9292 237.124 61.9292C237.206 61.9292 237.289 61.9194 237.373 61.8999V62.4507C237.211 62.4956 237.055 62.5181 236.904 62.5181C236.357 62.5181 236.084 62.2163 236.084 61.6128V59.8169H235.562V59.2896H236.084V58.519H236.796ZM238.604 59.6353C238.836 59.3657 239.13 59.231 239.485 59.231C240.161 59.231 240.504 59.6167 240.514 60.3882V62.4595H239.802V60.4146C239.802 60.1958 239.754 60.0415 239.658 59.9517C239.564 59.8599 239.426 59.814 239.242 59.814C238.957 59.814 238.744 59.9409 238.604 60.1948V62.4595H237.892V57.9595H238.604V59.6353ZM242.632 62.5181C242.181 62.5181 241.814 62.3765 241.533 62.0933C241.254 61.8081 241.114 61.4292 241.114 60.9565V60.8687C241.114 60.5522 241.175 60.27 241.296 60.022C241.419 59.772 241.591 59.5776 241.812 59.439C242.032 59.3003 242.278 59.231 242.55 59.231C242.981 59.231 243.314 59.3687 243.549 59.644C243.785 59.9194 243.903 60.3091 243.903 60.813V61.1001H241.832C241.854 61.3618 241.94 61.5688 242.093 61.7212C242.247 61.8735 242.44 61.9497 242.673 61.9497C242.999 61.9497 243.265 61.8179 243.47 61.5542L243.854 61.9204C243.727 62.1099 243.557 62.2573 243.344 62.3628C243.133 62.4663 242.896 62.5181 242.632 62.5181ZM242.547 59.8022C242.352 59.8022 242.193 59.8706 242.072 60.0073C241.953 60.144 241.877 60.3345 241.844 60.5786H243.2V60.5259C243.185 60.2876 243.121 60.1079 243.01 59.9868C242.898 59.8638 242.744 59.8022 242.547 59.8022ZM117.88 71.4595H117.168V68.2896H117.88V71.4595ZM117.124 67.4663C117.124 67.3569 117.158 67.2661 117.227 67.1938C117.297 67.1216 117.396 67.0854 117.525 67.0854C117.654 67.0854 117.754 67.1216 117.824 67.1938C117.895 67.2661 117.93 67.3569 117.93 67.4663C117.93 67.5737 117.895 67.6636 117.824 67.7358C117.754 67.8062 117.654 67.8413 117.525 67.8413C117.396 67.8413 117.297 67.8062 117.227 67.7358C117.158 67.6636 117.124 67.5737 117.124 67.4663ZM119.318 68.2896L119.339 68.6558C119.573 68.3726 119.881 68.231 120.262 68.231C120.922 68.231 121.258 68.6089 121.27 69.3647V71.4595H120.558V69.4058C120.558 69.2046 120.514 69.0562 120.426 68.9604C120.34 68.8628 120.198 68.814 120.001 68.814C119.714 68.814 119.5 68.9438 119.359 69.2036V71.4595H118.647V68.2896H119.318ZM121.864 69.8511C121.864 69.3628 121.978 68.9712 122.204 68.6763C122.431 68.3794 122.734 68.231 123.115 68.231C123.451 68.231 123.723 68.3481 123.93 68.5825V66.9595H124.642V71.4595H123.997L123.962 71.1313C123.749 71.3892 123.465 71.5181 123.109 71.5181C122.738 71.5181 122.438 71.3687 122.207 71.0698C121.979 70.771 121.864 70.3647 121.864 69.8511ZM122.576 69.9126C122.576 70.2349 122.638 70.4868 122.761 70.6685C122.886 70.8481 123.062 70.938 123.291 70.938C123.582 70.938 123.795 70.8081 123.93 70.5483V69.1948C123.799 68.9409 123.588 68.814 123.297 68.814C123.066 68.814 122.889 68.9058 122.764 69.0894C122.639 69.271 122.576 69.5454 122.576 69.9126ZM127.305 71.1489C127.096 71.395 126.799 71.5181 126.414 71.5181C126.07 71.5181 125.81 71.4175 125.632 71.2163C125.456 71.0151 125.368 70.7241 125.368 70.3433V68.2896H126.08V70.3345C126.08 70.7368 126.247 70.938 126.581 70.938C126.927 70.938 127.16 70.814 127.281 70.5659V68.2896H127.993V71.4595H127.322L127.305 71.1489ZM130.495 70.5981C130.495 70.4712 130.442 70.3745 130.337 70.3081C130.233 70.2417 130.061 70.1831 129.818 70.1323C129.576 70.0815 129.374 70.0171 129.212 69.939C128.856 69.7671 128.679 69.5181 128.679 69.1919C128.679 68.9185 128.794 68.6899 129.024 68.5063C129.255 68.3228 129.548 68.231 129.903 68.231C130.282 68.231 130.588 68.3247 130.82 68.5122C131.055 68.6997 131.172 68.9429 131.172 69.2417H130.46C130.46 69.105 130.409 68.9917 130.308 68.9019C130.206 68.8101 130.071 68.7642 129.903 68.7642C129.747 68.7642 129.619 68.8003 129.52 68.8726C129.422 68.9448 129.373 69.0415 129.373 69.1626C129.373 69.272 129.419 69.3569 129.511 69.4175C129.603 69.478 129.788 69.5396 130.067 69.6021C130.347 69.6626 130.565 69.7358 130.724 69.8218C130.884 69.9058 131.002 70.0073 131.078 70.1265C131.156 70.2456 131.195 70.3901 131.195 70.5601C131.195 70.8452 131.077 71.0767 130.841 71.2544C130.604 71.4302 130.295 71.5181 129.912 71.5181C129.652 71.5181 129.421 71.4712 129.218 71.3774C129.015 71.2837 128.856 71.1548 128.743 70.9907C128.63 70.8267 128.573 70.6499 128.573 70.4604H129.265C129.274 70.6284 129.338 70.7583 129.455 70.8501C129.572 70.9399 129.728 70.9849 129.921 70.9849C130.108 70.9849 130.251 70.9497 130.349 70.8794C130.446 70.8071 130.495 70.7134 130.495 70.5981ZM132.71 67.519V68.2896H133.27V68.8169H132.71V70.5864C132.71 70.7075 132.733 70.7954 132.78 70.8501C132.829 70.9028 132.915 70.9292 133.038 70.9292C133.12 70.9292 133.203 70.9194 133.287 70.8999V71.4507C133.125 71.4956 132.969 71.5181 132.818 71.5181C132.271 71.5181 131.998 71.2163 131.998 70.6128V68.8169H131.477V68.2896H131.998V67.519H132.71ZM135.476 68.9399C135.382 68.9243 135.285 68.9165 135.186 68.9165C134.859 68.9165 134.64 69.0415 134.526 69.2915V71.4595H133.814V68.2896H134.494L134.512 68.644C134.684 68.3687 134.922 68.231 135.227 68.231C135.328 68.231 135.412 68.2446 135.479 68.272L135.476 68.9399ZM137.087 70.4399L137.731 68.2896H138.49L137.23 71.9399C137.037 72.4731 136.709 72.7397 136.246 72.7397C136.143 72.7397 136.028 72.7222 135.903 72.687V72.1362L136.038 72.145C136.218 72.145 136.353 72.1118 136.442 72.0454C136.534 71.981 136.606 71.8716 136.659 71.7173L136.762 71.4448L135.648 68.2896H136.416L137.087 70.4399ZM139.366 67.3257L139.29 68.4712H138.824V66.9595H139.366V67.3257ZM141.47 70.5981C141.47 70.4712 141.417 70.3745 141.312 70.3081C141.208 70.2417 141.035 70.1831 140.793 70.1323C140.551 70.0815 140.349 70.0171 140.187 69.939C139.831 69.7671 139.653 69.5181 139.653 69.1919C139.653 68.9185 139.769 68.6899 139.999 68.5063C140.229 68.3228 140.522 68.231 140.878 68.231C141.257 68.231 141.562 68.3247 141.795 68.5122C142.029 68.6997 142.146 68.9429 142.146 69.2417H141.435C141.435 69.105 141.384 68.9917 141.282 68.9019C141.181 68.8101 141.046 68.7642 140.878 68.7642C140.722 68.7642 140.594 68.8003 140.494 68.8726C140.396 68.9448 140.348 69.0415 140.348 69.1626C140.348 69.272 140.394 69.3569 140.485 69.4175C140.577 69.478 140.763 69.5396 141.042 69.6021C141.321 69.6626 141.54 69.7358 141.698 69.8218C141.858 69.9058 141.977 70.0073 142.053 70.1265C142.131 70.2456 142.17 70.3901 142.17 70.5601C142.17 70.8452 142.052 71.0767 141.815 71.2544C141.579 71.4302 141.27 71.5181 140.887 71.5181C140.627 71.5181 140.396 71.4712 140.192 71.3774C139.989 71.2837 139.831 71.1548 139.718 70.9907C139.604 70.8267 139.548 70.6499 139.548 70.4604H140.239C140.249 70.6284 140.312 70.7583 140.43 70.8501C140.547 70.9399 140.702 70.9849 140.896 70.9849C141.083 70.9849 141.226 70.9497 141.323 70.8794C141.421 70.8071 141.47 70.7134 141.47 70.5981ZM146.063 70.5981C146.063 70.4712 146.011 70.3745 145.905 70.3081C145.802 70.2417 145.629 70.1831 145.387 70.1323C145.145 70.0815 144.942 70.0171 144.78 69.939C144.425 69.7671 144.247 69.5181 144.247 69.1919C144.247 68.9185 144.362 68.6899 144.593 68.5063C144.823 68.3228 145.116 68.231 145.472 68.231C145.851 68.231 146.156 68.3247 146.389 68.5122C146.623 68.6997 146.74 68.9429 146.74 69.2417H146.028C146.028 69.105 145.978 68.9917 145.876 68.9019C145.774 68.8101 145.64 68.7642 145.472 68.7642C145.315 68.7642 145.188 68.8003 145.088 68.8726C144.99 68.9448 144.941 69.0415 144.941 69.1626C144.941 69.272 144.987 69.3569 145.079 69.4175C145.171 69.478 145.356 69.5396 145.636 69.6021C145.915 69.6626 146.134 69.7358 146.292 69.8218C146.452 69.9058 146.57 70.0073 146.646 70.1265C146.725 70.2456 146.764 70.3901 146.764 70.5601C146.764 70.8452 146.646 71.0767 146.409 71.2544C146.173 71.4302 145.863 71.5181 145.48 71.5181C145.221 71.5181 144.989 71.4712 144.786 71.3774C144.583 71.2837 144.425 71.1548 144.312 70.9907C144.198 70.8267 144.142 70.6499 144.142 70.4604H144.833C144.843 70.6284 144.906 70.7583 145.023 70.8501C145.141 70.9399 145.296 70.9849 145.489 70.9849C145.677 70.9849 145.819 70.9497 145.917 70.8794C146.015 70.8071 146.063 70.7134 146.063 70.5981ZM148.278 67.519V68.2896H148.838V68.8169H148.278V70.5864C148.278 70.7075 148.302 70.7954 148.349 70.8501C148.397 70.9028 148.483 70.9292 148.606 70.9292C148.688 70.9292 148.771 70.9194 148.855 70.8999V71.4507C148.693 71.4956 148.537 71.5181 148.387 71.5181C147.84 71.5181 147.566 71.2163 147.566 70.6128V68.8169H147.045V68.2896H147.566V67.519H148.278ZM151.278 71.4595C151.247 71.3989 151.22 71.3003 151.196 71.1636C150.97 71.3999 150.692 71.5181 150.364 71.5181C150.046 71.5181 149.786 71.4272 149.585 71.2456C149.384 71.064 149.283 70.8394 149.283 70.5718C149.283 70.2339 149.408 69.9751 149.658 69.7954C149.91 69.6138 150.27 69.5229 150.736 69.5229H151.173V69.3149C151.173 69.1509 151.127 69.02 151.035 68.9224C150.943 68.8228 150.804 68.7729 150.616 68.7729C150.454 68.7729 150.321 68.814 150.218 68.896C150.114 68.9761 150.062 69.0786 150.062 69.2036H149.351C149.351 69.0298 149.408 68.8677 149.523 68.7173C149.639 68.5649 149.795 68.4458 149.992 68.3599C150.191 68.2739 150.413 68.231 150.657 68.231C151.028 68.231 151.324 68.3247 151.545 68.5122C151.766 68.6978 151.879 68.9595 151.885 69.2974V70.7271C151.885 71.0122 151.925 71.2397 152.005 71.4097V71.4595H151.278ZM150.496 70.9468C150.637 70.9468 150.769 70.9126 150.892 70.8442C151.017 70.7759 151.11 70.6841 151.173 70.5688V69.9712H150.789C150.525 69.9712 150.327 70.0171 150.194 70.1089C150.062 70.2007 149.995 70.3306 149.995 70.4985C149.995 70.6353 150.04 70.7446 150.13 70.8267C150.222 70.9067 150.344 70.9468 150.496 70.9468ZM153.291 68.2896L153.312 68.6558C153.546 68.3726 153.854 68.231 154.234 68.231C154.895 68.231 155.23 68.6089 155.242 69.3647V71.4595H154.53V69.4058C154.53 69.2046 154.486 69.0562 154.398 68.9604C154.312 68.8628 154.171 68.814 153.974 68.814C153.687 68.814 153.473 68.9438 153.332 69.2036V71.4595H152.62V68.2896H153.291ZM155.837 69.8511C155.837 69.3628 155.95 68.9712 156.177 68.6763C156.403 68.3794 156.707 68.231 157.088 68.231C157.424 68.231 157.695 68.3481 157.902 68.5825V66.9595H158.614V71.4595H157.97L157.935 71.1313C157.722 71.3892 157.438 71.5181 157.082 71.5181C156.711 71.5181 156.41 71.3687 156.18 71.0698C155.951 70.771 155.837 70.3647 155.837 69.8511ZM156.549 69.9126C156.549 70.2349 156.61 70.4868 156.733 70.6685C156.858 70.8481 157.035 70.938 157.264 70.938C157.555 70.938 157.768 70.8081 157.902 70.5483V69.1948C157.771 68.9409 157.561 68.814 157.27 68.814C157.039 68.814 156.861 68.9058 156.736 69.0894C156.611 69.271 156.549 69.5454 156.549 69.9126ZM161.251 71.4595C161.22 71.3989 161.192 71.3003 161.169 71.1636C160.942 71.3999 160.665 71.5181 160.337 71.5181C160.019 71.5181 159.759 71.4272 159.558 71.2456C159.356 71.064 159.256 70.8394 159.256 70.5718C159.256 70.2339 159.381 69.9751 159.631 69.7954C159.883 69.6138 160.242 69.5229 160.709 69.5229H161.146V69.3149C161.146 69.1509 161.1 69.02 161.008 68.9224C160.916 68.8228 160.776 68.7729 160.589 68.7729C160.427 68.7729 160.294 68.814 160.19 68.896C160.087 68.9761 160.035 69.0786 160.035 69.2036H159.323C159.323 69.0298 159.381 68.8677 159.496 68.7173C159.611 68.5649 159.768 68.4458 159.965 68.3599C160.164 68.2739 160.386 68.231 160.63 68.231C161.001 68.231 161.297 68.3247 161.518 68.5122C161.738 68.6978 161.852 68.9595 161.857 69.2974V70.7271C161.857 71.0122 161.897 71.2397 161.978 71.4097V71.4595H161.251ZM160.469 70.9468C160.609 70.9468 160.741 70.9126 160.864 70.8442C160.989 70.7759 161.083 70.6841 161.146 70.5688V69.9712H160.762C160.498 69.9712 160.3 70.0171 160.167 70.1089C160.034 70.2007 159.968 70.3306 159.968 70.4985C159.968 70.6353 160.013 70.7446 160.103 70.8267C160.194 70.9067 160.316 70.9468 160.469 70.9468ZM164.263 68.9399C164.169 68.9243 164.072 68.9165 163.973 68.9165C163.646 68.9165 163.427 69.0415 163.313 69.2915V71.4595H162.602V68.2896H163.281L163.299 68.644C163.471 68.3687 163.709 68.231 164.014 68.231C164.115 68.231 164.199 68.2446 164.266 68.272L164.263 68.9399ZM164.521 69.8511C164.521 69.3628 164.634 68.9712 164.86 68.6763C165.087 68.3794 165.391 68.231 165.771 68.231C166.107 68.231 166.379 68.3481 166.586 68.5825V66.9595H167.298V71.4595H166.653L166.618 71.1313C166.405 71.3892 166.121 71.5181 165.766 71.5181C165.395 71.5181 165.094 71.3687 164.863 71.0698C164.635 70.771 164.521 70.3647 164.521 69.8511ZM165.232 69.9126C165.232 70.2349 165.294 70.4868 165.417 70.6685C165.542 70.8481 165.719 70.938 165.947 70.938C166.238 70.938 166.451 70.8081 166.586 70.5483V69.1948C166.455 68.9409 166.244 68.814 165.953 68.814C165.723 68.814 165.545 68.9058 165.42 69.0894C165.295 69.271 165.232 69.5454 165.232 69.9126ZM169.401 69.8511C169.401 69.3628 169.515 68.9712 169.741 68.6763C169.968 68.3794 170.271 68.231 170.652 68.231C170.988 68.231 171.26 68.3481 171.467 68.5825V66.9595H172.179V71.4595H171.534L171.499 71.1313C171.286 71.3892 171.002 71.5181 170.646 71.5181C170.275 71.5181 169.975 71.3687 169.744 71.0698C169.516 70.771 169.401 70.3647 169.401 69.8511ZM170.113 69.9126C170.113 70.2349 170.175 70.4868 170.298 70.6685C170.423 70.8481 170.6 70.938 170.828 70.938C171.119 70.938 171.332 70.8081 171.467 70.5483V69.1948C171.336 68.9409 171.125 68.814 170.834 68.814C170.604 68.814 170.426 68.9058 170.301 69.0894C170.176 69.271 170.113 69.5454 170.113 69.9126ZM174.842 71.1489C174.633 71.395 174.336 71.5181 173.951 71.5181C173.607 71.5181 173.347 71.4175 173.169 71.2163C172.993 71.0151 172.905 70.7241 172.905 70.3433V68.2896H173.617V70.3345C173.617 70.7368 173.784 70.938 174.118 70.938C174.464 70.938 174.697 70.814 174.818 70.5659V68.2896H175.53V71.4595H174.859L174.842 71.1489ZM176.925 68.2896L176.945 68.6206C177.168 68.3608 177.473 68.231 177.859 68.231C178.283 68.231 178.573 68.3931 178.729 68.7173C178.96 68.3931 179.284 68.231 179.702 68.231C180.052 68.231 180.312 68.3276 180.481 68.521C180.653 68.7144 180.741 68.9995 180.745 69.3765V71.4595H180.033V69.397C180.033 69.1958 179.989 69.0483 179.901 68.9546C179.813 68.8608 179.668 68.814 179.465 68.814C179.303 68.814 179.17 68.8579 179.066 68.9458C178.965 69.0317 178.894 69.145 178.853 69.2856L178.855 71.4595H178.144V69.3735C178.134 69.0005 177.943 68.814 177.572 68.814C177.287 68.814 177.085 68.9302 176.966 69.1626V71.4595H176.254V68.2896H176.925ZM182.146 68.2896L182.166 68.6206C182.389 68.3608 182.693 68.231 183.08 68.231C183.504 68.231 183.794 68.3931 183.95 68.7173C184.181 68.3931 184.505 68.231 184.923 68.231C185.272 68.231 185.532 68.3276 185.702 68.521C185.874 68.7144 185.962 68.9995 185.966 69.3765V71.4595H185.254V69.397C185.254 69.1958 185.21 69.0483 185.122 68.9546C185.034 68.8608 184.889 68.814 184.686 68.814C184.523 68.814 184.391 68.8579 184.287 68.9458C184.186 69.0317 184.114 69.145 184.073 69.2856L184.076 71.4595H183.364V69.3735C183.354 69.0005 183.164 68.814 182.793 68.814C182.508 68.814 182.306 68.9302 182.187 69.1626V71.4595H181.475V68.2896H182.146ZM187.806 70.4399L188.45 68.2896H189.209L187.949 71.9399C187.756 72.4731 187.428 72.7397 186.965 72.7397C186.861 72.7397 186.747 72.7222 186.622 72.687V72.1362L186.757 72.145C186.937 72.145 187.071 72.1118 187.161 72.0454C187.253 71.981 187.325 71.8716 187.378 71.7173L187.48 71.4448L186.367 68.2896H187.135L187.806 70.4399ZM192.007 67.519V68.2896H192.566V68.8169H192.007V70.5864C192.007 70.7075 192.03 70.7954 192.077 70.8501C192.126 70.9028 192.212 70.9292 192.335 70.9292C192.417 70.9292 192.5 70.9194 192.584 70.8999V71.4507C192.422 71.4956 192.266 71.5181 192.115 71.5181C191.568 71.5181 191.295 71.2163 191.295 70.6128V68.8169H190.773V68.2896H191.295V67.519H192.007ZM194.509 71.5181C194.058 71.5181 193.691 71.3765 193.41 71.0933C193.131 70.8081 192.991 70.4292 192.991 69.9565V69.8687C192.991 69.5522 193.052 69.27 193.173 69.022C193.296 68.772 193.468 68.5776 193.688 68.439C193.909 68.3003 194.155 68.231 194.427 68.231C194.858 68.231 195.191 68.3687 195.426 68.644C195.662 68.9194 195.78 69.3091 195.78 69.813V70.1001H193.709C193.73 70.3618 193.817 70.5688 193.97 70.7212C194.124 70.8735 194.317 70.9497 194.55 70.9497C194.876 70.9497 195.142 70.8179 195.347 70.5542L195.73 70.9204C195.604 71.1099 195.434 71.2573 195.221 71.3628C195.01 71.4663 194.772 71.5181 194.509 71.5181ZM194.424 68.8022C194.229 68.8022 194.07 68.8706 193.949 69.0073C193.83 69.144 193.754 69.3345 193.721 69.5786H195.077V69.5259C195.062 69.2876 194.998 69.1079 194.887 68.9868C194.775 68.8638 194.621 68.8022 194.424 68.8022ZM197.474 69.3325L198.077 68.2896H198.868L197.898 69.8511L198.9 71.4595H198.115L197.482 70.3755L196.853 71.4595H196.062L197.063 69.8511L196.097 68.2896H196.882L197.474 69.3325ZM200.245 67.519V68.2896H200.805V68.8169H200.245V70.5864C200.245 70.7075 200.269 70.7954 200.315 70.8501C200.364 70.9028 200.45 70.9292 200.573 70.9292C200.655 70.9292 200.738 70.9194 200.822 70.8999V71.4507C200.66 71.4956 200.504 71.5181 200.354 71.5181C199.807 71.5181 199.533 71.2163 199.533 70.6128V68.8169H199.012V68.2896H199.533V67.519H200.245ZM204.241 71.5181C203.79 71.5181 203.424 71.3765 203.143 71.0933C202.863 70.8081 202.724 70.4292 202.724 69.9565V69.8687C202.724 69.5522 202.784 69.27 202.905 69.022C203.028 68.772 203.2 68.5776 203.421 68.439C203.642 68.3003 203.888 68.231 204.159 68.231C204.591 68.231 204.924 68.3687 205.158 68.644C205.395 68.9194 205.513 69.3091 205.513 69.813V70.1001H203.441C203.463 70.3618 203.55 70.5688 203.702 70.7212C203.856 70.8735 204.05 70.9497 204.282 70.9497C204.608 70.9497 204.874 70.8179 205.079 70.5542L205.463 70.9204C205.336 71.1099 205.166 71.2573 204.953 71.3628C204.742 71.4663 204.505 71.5181 204.241 71.5181ZM204.156 68.8022C203.961 68.8022 203.803 68.8706 203.682 69.0073C203.562 69.144 203.486 69.3345 203.453 69.5786H204.81V69.5259C204.794 69.2876 204.73 69.1079 204.619 68.9868C204.508 68.8638 204.354 68.8022 204.156 68.8022ZM207.145 70.5571L207.815 68.2896H208.551L207.452 71.4595H206.834L205.727 68.2896H206.465L207.145 70.5571ZM210.353 71.5181C209.901 71.5181 209.535 71.3765 209.254 71.0933C208.975 70.8081 208.835 70.4292 208.835 69.9565V69.8687C208.835 69.5522 208.896 69.27 209.017 69.022C209.14 68.772 209.312 68.5776 209.532 68.439C209.753 68.3003 209.999 68.231 210.271 68.231C210.702 68.231 211.035 68.3687 211.27 68.644C211.506 68.9194 211.624 69.3091 211.624 69.813V70.1001H209.553C209.574 70.3618 209.661 70.5688 209.813 70.7212C209.968 70.8735 210.161 70.9497 210.394 70.9497C210.72 70.9497 210.985 70.8179 211.19 70.5542L211.574 70.9204C211.447 71.1099 211.277 71.2573 211.064 71.3628C210.854 71.4663 210.616 71.5181 210.353 71.5181ZM210.268 68.8022C210.072 68.8022 209.914 68.8706 209.793 69.0073C209.674 69.144 209.598 69.3345 209.564 69.5786H210.921V69.5259C210.905 69.2876 210.842 69.1079 210.73 68.9868C210.619 68.8638 210.465 68.8022 210.268 68.8022ZM213.839 68.9399C213.745 68.9243 213.648 68.9165 213.549 68.9165C213.223 68.9165 213.003 69.0415 212.89 69.2915V71.4595H212.178V68.2896H212.857L212.875 68.644C213.047 68.3687 213.285 68.231 213.59 68.231C213.691 68.231 213.775 68.2446 213.842 68.272L213.839 68.9399ZM217.56 70.5981C217.56 70.4712 217.507 70.3745 217.401 70.3081C217.298 70.2417 217.125 70.1831 216.883 70.1323C216.641 70.0815 216.438 70.0171 216.276 69.939C215.921 69.7671 215.743 69.5181 215.743 69.1919C215.743 68.9185 215.858 68.6899 216.089 68.5063C216.319 68.3228 216.612 68.231 216.968 68.231C217.347 68.231 217.652 68.3247 217.885 68.5122C218.119 68.6997 218.236 68.9429 218.236 69.2417H217.524C217.524 69.105 217.474 68.9917 217.372 68.9019C217.271 68.8101 217.136 68.7642 216.968 68.7642C216.812 68.7642 216.684 68.8003 216.584 68.8726C216.486 68.9448 216.438 69.0415 216.438 69.1626C216.438 69.272 216.483 69.3569 216.575 69.4175C216.667 69.478 216.853 69.5396 217.132 69.6021C217.411 69.6626 217.63 69.7358 217.788 69.8218C217.948 69.9058 218.066 70.0073 218.143 70.1265C218.221 70.2456 218.26 70.3901 218.26 70.5601C218.26 70.8452 218.142 71.0767 217.905 71.2544C217.669 71.4302 217.359 71.5181 216.977 71.5181C216.717 71.5181 216.485 71.4712 216.282 71.3774C216.079 71.2837 215.921 71.1548 215.808 70.9907C215.694 70.8267 215.638 70.6499 215.638 70.4604H216.329C216.339 70.6284 216.402 70.7583 216.52 70.8501C216.637 70.9399 216.792 70.9849 216.985 70.9849C217.173 70.9849 217.315 70.9497 217.413 70.8794C217.511 70.8071 217.56 70.7134 217.56 70.5981ZM219.64 71.4595H218.928V68.2896H219.64V71.4595ZM218.884 67.4663C218.884 67.3569 218.918 67.2661 218.986 67.1938C219.057 67.1216 219.156 67.0854 219.285 67.0854C219.414 67.0854 219.514 67.1216 219.584 67.1938C219.654 67.2661 219.689 67.3569 219.689 67.4663C219.689 67.5737 219.654 67.6636 219.584 67.7358C219.514 67.8062 219.414 67.8413 219.285 67.8413C219.156 67.8413 219.057 67.8062 218.986 67.7358C218.918 67.6636 218.884 67.5737 218.884 67.4663ZM221.078 68.2896L221.099 68.6558C221.333 68.3726 221.641 68.231 222.021 68.231C222.682 68.231 223.018 68.6089 223.029 69.3647V71.4595H222.317V69.4058C222.317 69.2046 222.273 69.0562 222.186 68.9604C222.1 68.8628 221.958 68.814 221.761 68.814C221.474 68.814 221.26 68.9438 221.119 69.2036V71.4595H220.407V68.2896H221.078ZM225.06 70.9497C225.237 70.9497 225.385 70.8979 225.502 70.7944C225.619 70.6909 225.682 70.563 225.689 70.4106H226.36C226.353 70.6079 226.291 70.7925 226.176 70.9644C226.061 71.1343 225.904 71.269 225.707 71.3687C225.51 71.4683 225.297 71.5181 225.068 71.5181C224.625 71.5181 224.273 71.3745 224.014 71.0874C223.754 70.8003 223.624 70.4038 223.624 69.8979V69.8247C223.624 69.3423 223.753 68.9565 224.011 68.6675C224.269 68.3765 224.62 68.231 225.065 68.231C225.442 68.231 225.749 68.3413 225.985 68.562C226.224 68.7808 226.349 69.0688 226.36 69.4263H225.689C225.682 69.2446 225.619 69.0952 225.502 68.978C225.387 68.8608 225.239 68.8022 225.06 68.8022C224.829 68.8022 224.651 68.8862 224.526 69.0542C224.401 69.2202 224.338 69.4731 224.336 69.813V69.9272C224.336 70.271 224.397 70.5278 224.521 70.6978C224.646 70.8657 224.825 70.9497 225.06 70.9497ZM228.294 71.5181C227.843 71.5181 227.477 71.3765 227.195 71.0933C226.916 70.8081 226.776 70.4292 226.776 69.9565V69.8687C226.776 69.5522 226.837 69.27 226.958 69.022C227.081 68.772 227.253 68.5776 227.474 68.439C227.694 68.3003 227.94 68.231 228.212 68.231C228.644 68.231 228.977 68.3687 229.211 68.644C229.447 68.9194 229.565 69.3091 229.565 69.813V70.1001H227.494C227.516 70.3618 227.603 70.5688 227.755 70.7212C227.909 70.8735 228.103 70.9497 228.335 70.9497C228.661 70.9497 228.927 70.8179 229.132 70.5542L229.516 70.9204C229.389 71.1099 229.219 71.2573 229.006 71.3628C228.795 71.4663 228.558 71.5181 228.294 71.5181ZM228.209 68.8022C228.014 68.8022 227.855 68.8706 227.734 69.0073C227.615 69.144 227.539 69.3345 227.506 69.5786H228.862V69.5259C228.847 69.2876 228.783 69.1079 228.672 68.9868C228.561 68.8638 228.406 68.8022 228.209 68.8022ZM232.507 67.519V68.2896H233.066V68.8169H232.507V70.5864C232.507 70.7075 232.53 70.7954 232.577 70.8501C232.626 70.9028 232.712 70.9292 232.835 70.9292C232.917 70.9292 233 70.9194 233.084 70.8999V71.4507C232.922 71.4956 232.766 71.5181 232.615 71.5181C232.068 71.5181 231.795 71.2163 231.795 70.6128V68.8169H231.273V68.2896H231.795V67.519H232.507ZM234.314 68.6353C234.547 68.3657 234.841 68.231 235.196 68.231C235.872 68.231 236.215 68.6167 236.225 69.3882V71.4595H235.513V69.4146C235.513 69.1958 235.465 69.0415 235.369 68.9517C235.275 68.8599 235.137 68.814 234.953 68.814C234.668 68.814 234.455 68.9409 234.314 69.1948V71.4595H233.603V66.9595H234.314V68.6353ZM238.343 71.5181C237.892 71.5181 237.525 71.3765 237.244 71.0933C236.965 70.8081 236.825 70.4292 236.825 69.9565V69.8687C236.825 69.5522 236.886 69.27 237.007 69.022C237.13 68.772 237.302 68.5776 237.522 68.439C237.743 68.3003 237.989 68.231 238.261 68.231C238.692 68.231 239.025 68.3687 239.26 68.644C239.496 68.9194 239.614 69.3091 239.614 69.813V70.1001H237.543C237.564 70.3618 237.651 70.5688 237.804 70.7212C237.958 70.8735 238.151 70.9497 238.384 70.9497C238.71 70.9497 238.976 70.8179 239.181 70.5542L239.564 70.9204C239.438 71.1099 239.268 71.2573 239.055 71.3628C238.844 71.4663 238.606 71.5181 238.343 71.5181ZM238.258 68.8022C238.062 68.8022 237.904 68.8706 237.783 69.0073C237.664 69.144 237.588 69.3345 237.555 69.5786H238.911V69.5259C238.896 69.2876 238.832 69.1079 238.721 68.9868C238.609 68.8638 238.455 68.8022 238.258 68.8022ZM243.546 71.4595H242.837V68.0347L241.791 68.3921V67.7915L243.455 67.1792H243.546V71.4595ZM245.219 69.3442L245.45 67.1938H247.741V67.8091H246.042L245.925 68.8286C246.122 68.7153 246.345 68.6587 246.593 68.6587C246.999 68.6587 247.314 68.7886 247.539 69.0483C247.766 69.3081 247.879 69.6577 247.879 70.0972C247.879 70.5308 247.754 70.8765 247.504 71.1343C247.254 71.3901 246.911 71.5181 246.476 71.5181C246.085 71.5181 245.761 71.4077 245.503 71.187C245.247 70.9644 245.108 70.6714 245.087 70.3081H245.775C245.803 70.5151 245.877 70.6743 245.998 70.7856C246.119 70.895 246.277 70.9497 246.473 70.9497C246.691 70.9497 246.861 70.8716 246.982 70.7153C247.105 70.5591 247.167 70.3462 247.167 70.0767C247.167 69.8169 247.1 69.6118 246.965 69.4614C246.83 69.3091 246.645 69.2329 246.408 69.2329C246.279 69.2329 246.17 69.2505 246.08 69.2856C245.99 69.3188 245.893 69.3853 245.787 69.4849L245.219 69.3442ZM251.219 69.6636C251.219 70.2769 251.104 70.7397 250.873 71.0522C250.645 71.3628 250.296 71.5181 249.827 71.5181C249.366 71.5181 249.019 71.3667 248.784 71.064C248.552 70.7593 248.433 70.3091 248.427 69.7134V68.9751C248.427 68.3618 248.541 67.9019 248.77 67.5952C249 67.2886 249.351 67.1353 249.821 67.1353C250.288 67.1353 250.636 67.2847 250.864 67.5835C251.095 67.8823 251.213 68.3296 251.219 68.9253V69.6636ZM250.507 68.8667C250.507 68.4663 250.452 68.1733 250.343 67.9878C250.233 67.8003 250.06 67.7065 249.821 67.7065C249.589 67.7065 249.418 67.7954 249.309 67.9731C249.199 68.1489 249.142 68.4243 249.136 68.7993V69.7661C249.136 70.1646 249.191 70.4614 249.303 70.6567C249.414 70.8521 249.589 70.9497 249.827 70.9497C250.056 70.9497 250.225 70.8599 250.334 70.6802C250.443 70.4985 250.501 70.2153 250.507 69.8306V68.8667ZM254.629 69.6636C254.629 70.2769 254.514 70.7397 254.283 71.0522C254.055 71.3628 253.706 71.5181 253.237 71.5181C252.776 71.5181 252.429 71.3667 252.194 71.064C251.962 70.7593 251.843 70.3091 251.837 69.7134V68.9751C251.837 68.3618 251.951 67.9019 252.18 67.5952C252.41 67.2886 252.761 67.1353 253.231 67.1353C253.698 67.1353 254.046 67.2847 254.274 67.5835C254.505 67.8823 254.623 68.3296 254.629 68.9253V69.6636ZM253.917 68.8667C253.917 68.4663 253.862 68.1733 253.753 67.9878C253.644 67.8003 253.47 67.7065 253.231 67.7065C252.999 67.7065 252.828 67.7954 252.719 67.9731C252.609 68.1489 252.552 68.4243 252.546 68.7993V69.7661C252.546 70.1646 252.602 70.4614 252.713 70.6567C252.824 70.8521 252.999 70.9497 253.237 70.9497C253.466 70.9497 253.635 70.8599 253.744 70.6802C253.854 70.4985 253.911 70.2153 253.917 69.8306V68.8667ZM257.081 70.5981C257.081 70.4712 257.028 70.3745 256.923 70.3081C256.819 70.2417 256.646 70.1831 256.404 70.1323C256.162 70.0815 255.96 70.0171 255.798 69.939C255.442 69.7671 255.265 69.5181 255.265 69.1919C255.265 68.9185 255.38 68.6899 255.61 68.5063C255.841 68.3228 256.134 68.231 256.489 68.231C256.868 68.231 257.174 68.3247 257.406 68.5122C257.641 68.6997 257.758 68.9429 257.758 69.2417H257.046C257.046 69.105 256.995 68.9917 256.894 68.9019C256.792 68.8101 256.657 68.7642 256.489 68.7642C256.333 68.7642 256.205 68.8003 256.105 68.8726C256.008 68.9448 255.959 69.0415 255.959 69.1626C255.959 69.272 256.005 69.3569 256.097 69.4175C256.188 69.478 256.374 69.5396 256.653 69.6021C256.933 69.6626 257.151 69.7358 257.31 69.8218C257.47 69.9058 257.588 70.0073 257.664 70.1265C257.742 70.2456 257.781 70.3901 257.781 70.5601C257.781 70.8452 257.663 71.0767 257.427 71.2544C257.19 71.4302 256.881 71.5181 256.498 71.5181C256.238 71.5181 256.007 71.4712 255.804 71.3774C255.601 71.2837 255.442 71.1548 255.329 70.9907C255.216 70.8267 255.159 70.6499 255.159 70.4604H255.851C255.86 70.6284 255.924 70.7583 256.041 70.8501C256.158 70.9399 256.313 70.9849 256.507 70.9849C256.694 70.9849 256.837 70.9497 256.935 70.8794C257.032 70.8071 257.081 70.7134 257.081 70.5981Z" fill="#98A9B5"/>
</g>
<defs>
<filter id="filter0_d_646_6109" x="55.5967" y="-8" width="269.807" height="215" filterUnits="userSpaceOnUse" color-interpolation-filters="sRGB">
<feFlood flood-opacity="0" result="BackgroundImageFix"/>
<feColorMatrix in="SourceAlpha" type="matrix" values="0 0 0 0 0 0 0 0 0 0 0 0 0 0 0 0 0 0 127 0" result="hardAlpha"/>
<feOffset dy="4"/>
<feGaussianBlur stdDeviation="6"/>
<feComposite in2="hardAlpha" operator="out"/>
<feColorMatrix type="matrix" values="0 0 0 0 0 0 0 0 0 0 0 0 0 0 0 0 0 0 0.08 0"/>
<feBlend mode="normal" in2="BackgroundImageFix" result="effect1_dropShadow_646_6109"/>
<feBlend mode="normal" in="SourceGraphic" in2="effect1_dropShadow_646_6109" result="shape"/>
</filter>
<clipPath id="clip0_646_6109">
<rect width="270.387" height="191" fill="white" transform="translate(55.3066)"/>
</clipPath>
</defs>
</svg>
