<svg width="220" height="148" viewBox="0 0 220 148" fill="none" xmlns="http://www.w3.org/2000/svg">
<g clip-path="url(#clip0_246_4980)">
<g filter="url(#filter0_d_246_4980)">
<rect x="10" y="49" width="200" height="99" fill="white"/>
</g>
<rect x="156" y="59" width="14" height="3" fill="#CFD9E0"/>
<rect x="136" y="59" width="14" height="3" fill="#CFD9E0"/>
<rect x="116" y="59" width="14" height="3" fill="#CFD9E0"/>
<rect x="96" y="59" width="14" height="3" fill="#CFD9E0"/>
<rect x="50" y="100" width="59" height="3" fill="#0B2239"/>
<circle cx="53.5" cy="60.5" r="3.5" fill="#CFD9E0"/>
<path d="M50 72H77L83 77L77 82H50V72Z" fill="#CFD9E0"/>
<path d="M81 72H108L114 77L108 82H81L86.5 77L81 72Z" fill="#CFD9E0"/>
<path d="M112 72H139L145 77L139 82H112L117.5 77L112 72Z" fill="#0066FF"/>
<rect x="122" y="76" width="14" height="2" fill="white"/>
<rect x="91" y="76" width="14" height="2" fill="#0B2239"/>
<rect x="58" y="76" width="14" height="2" fill="#0B2239"/>
<rect x="50" y="111" width="27" height="3" fill="#CFD9E0"/>
<rect x="50" y="121" width="42" height="3" fill="#CFD9E0"/>
<rect x="50" y="116" width="32" height="3" fill="#CFD9E0"/>
<rect x="50" y="126" width="32" height="3" fill="#CFD9E0"/>
<rect x="81" y="111" width="12" height="3" fill="#CFD9E0"/>
<rect x="96" y="121" width="9" height="3" fill="#CFD9E0"/>
<rect x="86" y="116" width="41" height="3" fill="#CFD9E0"/>
<rect x="86" y="126" width="41" height="3" fill="#CFD9E0"/>
<rect x="109" y="121" width="35" height="3" fill="#CFD9E0"/>
<rect x="131" y="116" width="8" height="3" fill="#CFD9E0"/>
<rect x="131" y="126" width="8" height="3" fill="#CFD9E0"/>
<rect x="143" y="116" width="22" height="3" fill="#CFD9E0"/>
<rect x="143" y="126" width="22" height="3" fill="#CFD9E0"/>
</g>
<defs>
<filter id="filter0_d_246_4980" x="-2" y="41" width="224" height="123" filterUnits="userSpaceOnUse" color-interpolation-filters="sRGB">
<feFlood flood-opacity="0" result="BackgroundImageFix"/>
<feColorMatrix in="SourceAlpha" type="matrix" values="0 0 0 0 0 0 0 0 0 0 0 0 0 0 0 0 0 0 127 0" result="hardAlpha"/>
<feOffset dy="4"/>
<feGaussianBlur stdDeviation="6"/>
<feComposite in2="hardAlpha" operator="out"/>
<feColorMatrix type="matrix" values="0 0 0 0 0 0 0 0 0 0 0 0 0 0 0 0 0 0 0.08 0"/>
<feBlend mode="normal" in2="BackgroundImageFix" result="effect1_dropShadow_246_4980"/>
<feBlend mode="normal" in="SourceGraphic" in2="effect1_dropShadow_246_4980" result="shape"/>
</filter>
<clipPath id="clip0_246_4980">
<rect width="220" height="148" fill="white"/>
</clipPath>
</defs>
</svg>
