<svg width="220" height="148" viewBox="0 0 220 148" fill="none" xmlns="http://www.w3.org/2000/svg">
<g filter="url(#filter0_d_287_4910)">
<rect x="88" y="43" width="44" height="62" fill="white"/>
</g>
<circle cx="110" cy="59.0001" r="7.00012" fill="#CFD9E0"/>
<rect x="92" y="85" width="19" height="3" fill="#CFD9E0"/>
<rect x="92" y="90" width="30" height="3" fill="#CFD9E0"/>
<rect x="92" y="95" width="24" height="3" fill="#CFD9E0"/>
<rect x="115" y="85" width="13" height="3" fill="#CFD9E0"/>
<rect x="97" y="75" width="25" height="3" fill="#0066FF"/>
<g filter="url(#filter1_d_287_4910)">
<rect x="137" y="43" width="44" height="62" fill="white"/>
</g>
<circle cx="159" cy="59.0001" r="7.00012" fill="#CFD9E0"/>
<rect x="141" y="85" width="19" height="3" fill="#CFD9E0"/>
<rect x="141" y="90" width="30" height="3" fill="#CFD9E0"/>
<rect x="141" y="95" width="24" height="3" fill="#CFD9E0"/>
<rect x="164" y="85" width="13" height="3" fill="#CFD9E0"/>
<rect x="146" y="75" width="25" height="3" fill="#0066FF"/>
<g filter="url(#filter2_d_287_4910)">
<rect x="39" y="43" width="44" height="62" fill="white"/>
</g>
<circle cx="61.0001" cy="59.0001" r="7.00012" fill="#CFD9E0"/>
<rect x="43" y="85" width="19" height="3" fill="#CFD9E0"/>
<rect x="43" y="90" width="30" height="3" fill="#CFD9E0"/>
<rect x="43" y="95" width="24" height="3" fill="#CFD9E0"/>
<rect x="66" y="85" width="13" height="3" fill="#CFD9E0"/>
<rect x="48" y="75" width="25" height="3" fill="#0066FF"/>
<defs>
<filter id="filter0_d_287_4910" x="76" y="35" width="68" height="86" filterUnits="userSpaceOnUse" color-interpolation-filters="sRGB">
<feFlood flood-opacity="0" result="BackgroundImageFix"/>
<feColorMatrix in="SourceAlpha" type="matrix" values="0 0 0 0 0 0 0 0 0 0 0 0 0 0 0 0 0 0 127 0" result="hardAlpha"/>
<feOffset dy="4"/>
<feGaussianBlur stdDeviation="6"/>
<feComposite in2="hardAlpha" operator="out"/>
<feColorMatrix type="matrix" values="0 0 0 0 0 0 0 0 0 0 0 0 0 0 0 0 0 0 0.08 0"/>
<feBlend mode="normal" in2="BackgroundImageFix" result="effect1_dropShadow_287_4910"/>
<feBlend mode="normal" in="SourceGraphic" in2="effect1_dropShadow_287_4910" result="shape"/>
</filter>
<filter id="filter1_d_287_4910" x="125" y="35" width="68" height="86" filterUnits="userSpaceOnUse" color-interpolation-filters="sRGB">
<feFlood flood-opacity="0" result="BackgroundImageFix"/>
<feColorMatrix in="SourceAlpha" type="matrix" values="0 0 0 0 0 0 0 0 0 0 0 0 0 0 0 0 0 0 127 0" result="hardAlpha"/>
<feOffset dy="4"/>
<feGaussianBlur stdDeviation="6"/>
<feComposite in2="hardAlpha" operator="out"/>
<feColorMatrix type="matrix" values="0 0 0 0 0 0 0 0 0 0 0 0 0 0 0 0 0 0 0.08 0"/>
<feBlend mode="normal" in2="BackgroundImageFix" result="effect1_dropShadow_287_4910"/>
<feBlend mode="normal" in="SourceGraphic" in2="effect1_dropShadow_287_4910" result="shape"/>
</filter>
<filter id="filter2_d_287_4910" x="27" y="35" width="68" height="86" filterUnits="userSpaceOnUse" color-interpolation-filters="sRGB">
<feFlood flood-opacity="0" result="BackgroundImageFix"/>
<feColorMatrix in="SourceAlpha" type="matrix" values="0 0 0 0 0 0 0 0 0 0 0 0 0 0 0 0 0 0 127 0" result="hardAlpha"/>
<feOffset dy="4"/>
<feGaussianBlur stdDeviation="6"/>
<feComposite in2="hardAlpha" operator="out"/>
<feColorMatrix type="matrix" values="0 0 0 0 0 0 0 0 0 0 0 0 0 0 0 0 0 0 0.08 0"/>
<feBlend mode="normal" in2="BackgroundImageFix" result="effect1_dropShadow_287_4910"/>
<feBlend mode="normal" in="SourceGraphic" in2="effect1_dropShadow_287_4910" result="shape"/>
</filter>
</defs>
</svg>
