<svg width="220" height="148" viewBox="0 0 220 148" fill="none" xmlns="http://www.w3.org/2000/svg">
<g filter="url(#filter0_d_250_4414)">
<rect x="41" y="30" width="138" height="88" fill="white"/>
</g>
<g clip-path="url(#clip0_250_4414)">
<rect x="70.5" y="49.5" width="79" height="44" fill="#F0FBFF"/>
<path d="M125.645 56.7157L125.279 56.3503L124.926 56.7279L106.877 76.0332L106.742 76.1773V76.3747V94.4822V94.9822H107.242H162.73H163.937L163.083 94.1285L125.645 56.7157Z" fill="#E3E3E3" stroke="#0B2239"/>
<path d="M121.09 61.4423L125.326 56.875L134.5 66.1553L128.718 62.0739L127.261 64.7463L124.831 61.1993L122.547 63.3372L121.09 61.4423Z" fill="white" stroke="#0B2239" stroke-miterlimit="16"/>
<path d="M107.879 65.3966L107.524 65.0406L107.17 65.3986L78.7693 94.1486L77.9283 95H79.125H93.6773H136.25H137.456L136.604 94.1466L107.879 65.3966Z" fill="#F0F0F0" stroke="#0B2239"/>
<path d="M104.257 91.706L80.4375 87.602L63.75 94.9375L150.625 97.25L152.625 87.602L135.097 91.706L121.017 84.125L104.257 91.706Z" fill="#A8F2C5" stroke="#0B2239"/>
<path d="M86.375 59.8127C86.375 62.1943 84.4443 64.125 82.0627 64.125C79.6807 64.125 77.75 62.1943 77.75 59.8127C77.75 57.4307 79.6807 55.5 82.0627 55.5C84.4443 55.5 86.375 57.4307 86.375 59.8127Z" fill="#FFC107" stroke="#0B2239"/>
</g>
<rect x="70.5" y="49.5" width="79" height="44" stroke="#0B2239"/>
<path d="M58 67.94L54.9096 71L58 74.06L57.0486 75L53 71L57.0486 67L58 67.94Z" fill="#0066FF"/>
<path d="M162 74.06L165.09 71L162 67.94L162.951 67L167 71L162.951 75L162 74.06Z" fill="#0066FF"/>
<rect x="96" y="101" width="4" height="4" fill="#CFD9E0"/>
<rect x="104" y="101" width="4" height="4" fill="#0066FF"/>
<rect x="112" y="101" width="4" height="4" fill="#CFD9E0"/>
<rect x="120" y="101" width="4" height="4" fill="#CFD9E0"/>
<defs>
<filter id="filter0_d_250_4414" x="29" y="22" width="162" height="112" filterUnits="userSpaceOnUse" color-interpolation-filters="sRGB">
<feFlood flood-opacity="0" result="BackgroundImageFix"/>
<feColorMatrix in="SourceAlpha" type="matrix" values="0 0 0 0 0 0 0 0 0 0 0 0 0 0 0 0 0 0 127 0" result="hardAlpha"/>
<feOffset dy="4"/>
<feGaussianBlur stdDeviation="6"/>
<feComposite in2="hardAlpha" operator="out"/>
<feColorMatrix type="matrix" values="0 0 0 0 0 0 0 0 0 0 0 0 0 0 0 0 0 0 0.08 0"/>
<feBlend mode="normal" in2="BackgroundImageFix" result="effect1_dropShadow_250_4414"/>
<feBlend mode="normal" in="SourceGraphic" in2="effect1_dropShadow_250_4414" result="shape"/>
</filter>
<clipPath id="clip0_250_4414">
</clipPath>
</defs>
</svg>
