<svg width="220" height="148" viewBox="0 0 220 148" fill="none" xmlns="http://www.w3.org/2000/svg">
<g clip-path="url(#clip0_141_1527)">
<g filter="url(#filter0_d_141_1527)">
<rect x="10" width="200" height="148" fill="white"/>
</g>
<g clip-path="url(#clip1_141_1527)">
<rect x="50" y="29" width="60" height="28" fill="white" stroke="#E2E9EF"/>
<rect x="55" y="34" width="50" height="18" fill="#0066FF"/>
<rect x="50" y="102" width="60" height="28" fill="white" stroke="#E2E9EF"/>
<rect x="50" y="57" width="60" height="28" fill="white" stroke="#E2E9EF"/>
<rect x="50" y="130" width="60" height="28" fill="white" stroke="#E2E9EF"/>
<rect x="110" y="130" width="60" height="28" fill="white" stroke="#E2E9EF"/>
<rect x="110" y="29" width="60" height="28" fill="white" stroke="#E2E9EF"/>
<rect x="110" y="102" width="60" height="28" fill="white" stroke="#E2E9EF"/>
<rect x="110" y="57" width="60" height="28" fill="white" stroke="#E2E9EF"/>
<rect x="50" y="-9" width="60" height="21" fill="white" stroke="#E2E9EF"/>
<rect x="110" y="-9" width="60" height="21" fill="white" stroke="#E2E9EF"/>
<rect x="50" y="24" width="16" height="3" fill="#CFD9E0"/>
<rect x="50" y="97" width="16" height="3" fill="#CFD9E0"/>
<rect opacity="0.6" x="115" y="34" width="50" height="18" fill="#0066FF"/>
<rect opacity="0.4" x="55" y="62" width="50" height="18" fill="#0066FF"/>
<rect x="55" y="107" width="50" height="18" fill="#0B2239"/>
<rect opacity="0.4" x="55" y="135" width="50" height="18" fill="#0B2239"/>
<rect opacity="0.2" x="115" y="135" width="50" height="18" fill="#0B2239"/>
<rect opacity="0.2" x="115" y="62" width="50" height="18" fill="#0066FF"/>
<rect opacity="0.6" x="115" y="107" width="50" height="18" fill="#0B2239"/>
</g>
</g>
<defs>
<filter id="filter0_d_141_1527" x="-2" y="-8" width="224" height="172" filterUnits="userSpaceOnUse" color-interpolation-filters="sRGB">
<feFlood flood-opacity="0" result="BackgroundImageFix"/>
<feColorMatrix in="SourceAlpha" type="matrix" values="0 0 0 0 0 0 0 0 0 0 0 0 0 0 0 0 0 0 127 0" result="hardAlpha"/>
<feOffset dy="4"/>
<feGaussianBlur stdDeviation="6"/>
<feComposite in2="hardAlpha" operator="out"/>
<feColorMatrix type="matrix" values="0 0 0 0 0 0 0 0 0 0 0 0 0 0 0 0 0 0 0.08 0"/>
<feBlend mode="normal" in2="BackgroundImageFix" result="effect1_dropShadow_141_1527"/>
<feBlend mode="normal" in="SourceGraphic" in2="effect1_dropShadow_141_1527" result="shape"/>
</filter>
<clipPath id="clip0_141_1527">
<rect width="220" height="148" fill="white"/>
</clipPath>
<clipPath id="clip1_141_1527">
<rect width="130" height="148" fill="white" transform="translate(45)"/>
</clipPath>
</defs>
</svg>
