<svg width="381" height="191" viewBox="0 0 381 191" fill="none" xmlns="http://www.w3.org/2000/svg">
<rect width="381" height="191" fill="#F7F9FA"/>
<g clip-path="url(#clip0_646_6050)">
<g filter="url(#filter0_d_646_6050)">
<rect x="67.5967" width="245.806" height="191" fill="white"/>
</g>
<g clip-path="url(#clip1_646_6050)">
<rect x="116.759" y="37.4258" width="73.742" height="36.1351" fill="white" stroke="#E2E9EF"/>
<rect x="122.903" y="43.8784" width="61.4516" height="23.2297" fill="#0066FF"/>
<rect x="116.759" y="131.635" width="73.742" height="36.1351" fill="white" stroke="#E2E9EF"/>
<rect x="116.759" y="73.5608" width="73.742" height="36.1351" fill="white" stroke="#E2E9EF"/>
<rect x="116.759" y="167.77" width="73.742" height="36.1351" fill="white" stroke="#E2E9EF"/>
<rect x="190.5" y="167.77" width="73.7419" height="36.1351" fill="white" stroke="#E2E9EF"/>
<rect x="190.5" y="37.4258" width="73.7419" height="36.1351" fill="white" stroke="#E2E9EF"/>
<rect x="190.5" y="131.635" width="73.7419" height="36.1351" fill="white" stroke="#E2E9EF"/>
<rect x="190.5" y="73.5608" width="73.7419" height="36.1351" fill="white" stroke="#E2E9EF"/>
<rect x="116.759" y="-11.6147" width="73.742" height="27.1014" fill="white" stroke="#E2E9EF"/>
<rect x="190.5" y="-11.6147" width="73.7419" height="27.1014" fill="white" stroke="#E2E9EF"/>
<rect x="116.759" y="30.9729" width="19.6645" height="3.87162" fill="#CFD9E0"/>
<rect x="116.759" y="125.182" width="19.6645" height="3.87163" fill="#CFD9E0"/>
<rect opacity="0.6" x="196.646" y="43.8784" width="61.4516" height="23.2297" fill="#0066FF"/>
<rect opacity="0.4" x="122.903" y="80.0134" width="61.4516" height="23.2297" fill="#0066FF"/>
<rect x="122.903" y="138.088" width="61.4516" height="23.2297" fill="#0B2239"/>
<rect opacity="0.4" x="122.903" y="174.223" width="61.4516" height="23.2297" fill="#0B2239"/>
<rect opacity="0.2" x="196.646" y="174.223" width="61.4516" height="23.2297" fill="#0B2239"/>
<rect opacity="0.2" x="196.646" y="80.0134" width="61.4516" height="23.2297" fill="#0066FF"/>
<rect opacity="0.6" x="196.646" y="138.088" width="61.4516" height="23.2297" fill="#0B2239"/>
</g>
</g>
<defs>
<filter id="filter0_d_646_6050" x="55.5967" y="-8" width="269.807" height="215" filterUnits="userSpaceOnUse" color-interpolation-filters="sRGB">
<feFlood flood-opacity="0" result="BackgroundImageFix"/>
<feColorMatrix in="SourceAlpha" type="matrix" values="0 0 0 0 0 0 0 0 0 0 0 0 0 0 0 0 0 0 127 0" result="hardAlpha"/>
<feOffset dy="4"/>
<feGaussianBlur stdDeviation="6"/>
<feComposite in2="hardAlpha" operator="out"/>
<feColorMatrix type="matrix" values="0 0 0 0 0 0 0 0 0 0 0 0 0 0 0 0 0 0 0.08 0"/>
<feBlend mode="normal" in2="BackgroundImageFix" result="effect1_dropShadow_646_6050"/>
<feBlend mode="normal" in="SourceGraphic" in2="effect1_dropShadow_646_6050" result="shape"/>
</filter>
<clipPath id="clip0_646_6050">
<rect width="270.387" height="191" fill="white" transform="translate(55.3066)"/>
</clipPath>
<clipPath id="clip1_646_6050">
<rect width="159.774" height="191" fill="white" transform="translate(110.613)"/>
</clipPath>
</defs>
</svg>
