<svg width="220" height="148" viewBox="0 0 220 148" fill="none" xmlns="http://www.w3.org/2000/svg">
<g clip-path="url(#clip0_137_63)">
<g filter="url(#filter0_d_137_63)">
<rect x="10" width="200" height="148" fill="white"/>
</g>
<rect x="57" y="36" width="106" height="3" fill="#CFD9E0"/>
<rect x="77" y="41" width="66" height="3" fill="#CFD9E0"/>
<rect x="50" y="57" width="56" height="8" stroke="#CFD9E0"/>
<rect x="50" y="75" width="120" height="8" stroke="#CFD9E0"/>
<rect x="50" y="89" width="16" height="3" fill="#CFD9E0"/>
<rect x="50" y="70" width="16" height="3" fill="#CFD9E0"/>
<rect x="50" y="52" width="16" height="3" fill="#CFD9E0"/>
<rect x="114" y="52" width="16" height="3" fill="#0066FF"/>
<rect x="50" y="94" width="120" height="18" stroke="#CFD9E0"/>
<rect x="118" y="60" width="48" height="2" fill="#0066FF"/>
<rect x="114" y="57" width="56" height="8" stroke="#0066FF"/>
<rect x="50" y="122" width="120" height="10" fill="#0066FF"/>
<rect x="97" y="126" width="30" height="2" fill="white"/>
<path d="M95.1816 25.395C95.1208 26.2365 94.8092 26.8989 94.2471 27.3823C93.6885 27.8657 92.9508 28.1074 92.0342 28.1074C91.0316 28.1074 90.242 27.7708 89.6655 27.0977C89.0926 26.4209 88.8062 25.4935 88.8062 24.3154V23.8374C88.8062 23.0854 88.9386 22.423 89.2036 21.8501C89.4686 21.2772 89.8464 20.8385 90.3369 20.5342C90.8311 20.2262 91.404 20.0723 92.0557 20.0723C92.958 20.0723 93.6849 20.314 94.2363 20.7974C94.7878 21.2808 95.1064 21.9593 95.1924 22.833H93.5811C93.5417 22.3281 93.4002 21.9629 93.1567 21.7373C92.9168 21.5081 92.5498 21.3936 92.0557 21.3936C91.5186 21.3936 91.1157 21.5869 90.8472 21.9736C90.5822 22.3568 90.4461 22.953 90.439 23.7622V24.353C90.439 25.1981 90.5661 25.8158 90.8203 26.2061C91.0781 26.5964 91.4827 26.7915 92.0342 26.7915C92.5319 26.7915 92.9025 26.6787 93.146 26.4531C93.3931 26.224 93.5345 25.8713 93.5703 25.395H95.1816ZM95.896 25.0405C95.896 24.464 96.007 23.9502 96.229 23.499C96.451 23.0479 96.7697 22.6987 97.1851 22.4517C97.604 22.2046 98.0892 22.0811 98.6406 22.0811C99.4248 22.0811 100.064 22.321 100.558 22.8008C101.056 23.2806 101.333 23.9323 101.391 24.7559L101.401 25.1533C101.401 26.0449 101.153 26.7611 100.655 27.3018C100.157 27.8389 99.4893 28.1074 98.6514 28.1074C97.8135 28.1074 97.1439 27.8389 96.6426 27.3018C96.1449 26.7646 95.896 26.0342 95.896 25.1104V25.0405ZM97.4482 25.1533C97.4482 25.7048 97.5521 26.1273 97.7598 26.4209C97.9674 26.7109 98.2646 26.856 98.6514 26.856C99.0273 26.856 99.321 26.7127 99.5322 26.4263C99.7435 26.1362 99.8491 25.6743 99.8491 25.0405C99.8491 24.4998 99.7435 24.0809 99.5322 23.7837C99.321 23.4865 99.0238 23.3379 98.6406 23.3379C98.2611 23.3379 97.9674 23.4865 97.7598 23.7837C97.5521 24.0773 97.4482 24.5339 97.4482 25.1533ZM103.786 22.1885L103.834 22.8599C104.25 22.3407 104.807 22.0811 105.505 22.0811C106.121 22.0811 106.579 22.2619 106.88 22.6235C107.181 22.9852 107.335 23.5259 107.342 24.2456V28H105.79V24.2832C105.79 23.9538 105.718 23.7157 105.575 23.5688C105.431 23.4185 105.193 23.3433 104.86 23.3433C104.424 23.3433 104.096 23.5295 103.877 23.9019V28H102.325V22.1885H103.786ZM110.382 20.7598V22.1885H111.375V23.3271H110.382V26.2275C110.382 26.4424 110.423 26.5964 110.505 26.6895C110.588 26.7826 110.745 26.8291 110.978 26.8291C111.15 26.8291 111.302 26.8166 111.435 26.7915V27.9678C111.13 28.0609 110.817 28.1074 110.495 28.1074C109.406 28.1074 108.851 27.5578 108.83 26.4585V23.3271H107.981V22.1885H108.83V20.7598H110.382ZM115.608 28C115.536 27.8604 115.484 27.6867 115.452 27.479C115.076 27.8979 114.587 28.1074 113.986 28.1074C113.417 28.1074 112.944 27.9427 112.568 27.6133C112.195 27.2839 112.009 26.8685 112.009 26.3672C112.009 25.7513 112.237 25.2786 112.691 24.9492C113.15 24.6198 113.81 24.4533 114.673 24.4497H115.388V24.1167C115.388 23.8481 115.318 23.6333 115.178 23.4722C115.042 23.311 114.826 23.2305 114.528 23.2305C114.267 23.2305 114.061 23.2931 113.911 23.4185C113.764 23.5438 113.69 23.7157 113.69 23.9341H112.138C112.138 23.5975 112.242 23.286 112.45 22.9995C112.657 22.7131 112.951 22.4893 113.331 22.3281C113.71 22.1634 114.136 22.0811 114.609 22.0811C115.325 22.0811 115.893 22.2619 116.312 22.6235C116.734 22.9816 116.945 23.4865 116.945 24.1382V26.6572C116.949 27.2087 117.026 27.6258 117.176 27.9087V28H115.608ZM114.324 26.9204C114.553 26.9204 114.765 26.8703 114.958 26.77C115.151 26.6662 115.295 26.5283 115.388 26.3564V25.3574H114.808C114.031 25.3574 113.617 25.626 113.567 26.1631L113.562 26.2544C113.562 26.4478 113.63 26.6071 113.766 26.7324C113.902 26.8577 114.088 26.9204 114.324 26.9204ZM120.555 26.856C120.841 26.856 121.074 26.7772 121.253 26.6196C121.432 26.4621 121.525 26.2526 121.532 25.9912H122.988C122.984 26.3851 122.877 26.7467 122.666 27.0762C122.454 27.402 122.164 27.6562 121.795 27.8389C121.43 28.0179 121.026 28.1074 120.582 28.1074C119.751 28.1074 119.096 27.8442 118.616 27.3179C118.136 26.7879 117.896 26.0575 117.896 25.1265V25.0244C117.896 24.1292 118.134 23.4149 118.61 22.8813C119.087 22.3478 119.74 22.0811 120.571 22.0811C121.298 22.0811 121.88 22.2887 122.316 22.7041C122.757 23.1159 122.981 23.6655 122.988 24.353H121.532C121.525 24.0522 121.432 23.8088 121.253 23.6226C121.074 23.4328 120.838 23.3379 120.544 23.3379C120.182 23.3379 119.908 23.4704 119.722 23.7354C119.54 23.9967 119.448 24.4229 119.448 25.0137V25.1748C119.448 25.7728 119.54 26.2025 119.722 26.4639C119.905 26.7253 120.182 26.856 120.555 26.856ZM125.732 20.7598V22.1885H126.726V23.3271H125.732V26.2275C125.732 26.4424 125.774 26.5964 125.856 26.6895C125.938 26.7826 126.096 26.8291 126.329 26.8291C126.5 26.8291 126.653 26.8166 126.785 26.7915V27.9678C126.481 28.0609 126.167 28.1074 125.845 28.1074C124.757 28.1074 124.202 27.5578 124.18 26.4585V23.3271H123.332V22.1885H124.18V20.7598H125.732ZM130.738 26.394C130.738 26.2043 130.643 26.0557 130.454 25.9482C130.267 25.8372 129.967 25.7388 129.551 25.6528C128.169 25.3628 127.478 24.7756 127.478 23.8911C127.478 23.3755 127.691 22.9458 128.117 22.6021C128.547 22.2547 129.107 22.0811 129.798 22.0811C130.536 22.0811 131.125 22.2547 131.565 22.6021C132.009 22.9494 132.231 23.4006 132.231 23.9556H130.679C130.679 23.7336 130.608 23.5509 130.464 23.4077C130.321 23.2609 130.097 23.1875 129.793 23.1875C129.532 23.1875 129.329 23.2466 129.186 23.3647C129.043 23.4829 128.971 23.6333 128.971 23.8159C128.971 23.9878 129.052 24.1274 129.213 24.2349C129.378 24.3387 129.653 24.43 130.04 24.5088C130.427 24.584 130.753 24.6699 131.018 24.7666C131.838 25.0674 132.248 25.5884 132.248 26.3296C132.248 26.8595 132.02 27.2892 131.565 27.6187C131.111 27.9445 130.523 28.1074 129.804 28.1074C129.317 28.1074 128.883 28.0215 128.504 27.8496C128.128 27.6742 127.833 27.436 127.618 27.1353C127.403 26.8309 127.295 26.5033 127.295 26.1523H128.767C128.781 26.4281 128.883 26.6393 129.073 26.7861C129.263 26.9329 129.517 27.0063 129.836 27.0063C130.133 27.0063 130.357 26.9508 130.507 26.8398C130.661 26.7253 130.738 26.5767 130.738 26.394Z" fill="#0B2239"/>
</g>
<defs>
<filter id="filter0_d_137_63" x="-2" y="-8" width="224" height="172" filterUnits="userSpaceOnUse" color-interpolation-filters="sRGB">
<feFlood flood-opacity="0" result="BackgroundImageFix"/>
<feColorMatrix in="SourceAlpha" type="matrix" values="0 0 0 0 0 0 0 0 0 0 0 0 0 0 0 0 0 0 127 0" result="hardAlpha"/>
<feOffset dy="4"/>
<feGaussianBlur stdDeviation="6"/>
<feComposite in2="hardAlpha" operator="out"/>
<feColorMatrix type="matrix" values="0 0 0 0 0 0 0 0 0 0 0 0 0 0 0 0 0 0 0.08 0"/>
<feBlend mode="normal" in2="BackgroundImageFix" result="effect1_dropShadow_137_63"/>
<feBlend mode="normal" in="SourceGraphic" in2="effect1_dropShadow_137_63" result="shape"/>
</filter>
<clipPath id="clip0_137_63">
<rect width="220" height="148" fill="white"/>
</clipPath>
</defs>
</svg>
