<svg width="220" height="148" viewBox="0 0 224 164" fill="none" xmlns="http://www.w3.org/2000/svg">
<g opacity="0.3" filter="url(#filter0_d_251_4753)">
<rect x="12" y="16" width="200" height="132" fill="white"/>
</g>
<g opacity="0.3">
<rect x="60" y="120" width="69" height="3" fill="#CFD9E0"/>
<rect x="137" y="120" width="27" height="3" fill="#CFD9E0"/>
</g>
<g opacity="0.3">
<rect x="77" y="127" width="27" height="3" fill="#CFD9E0"/>
<rect x="112" y="127" width="35" height="3" fill="#CFD9E0"/>
</g>
<rect opacity="0.3" x="95" y="134" width="35" height="3" fill="#CFD9E0"/>
<g opacity="0.3">
<rect x="158" y="26" width="14" height="3" fill="#CFD9E0"/>
<rect x="138" y="26" width="14" height="3" fill="#CFD9E0"/>
<rect x="118" y="26" width="14" height="3" fill="#CFD9E0"/>
<rect x="98" y="26" width="14" height="3" fill="#CFD9E0"/>
</g>
<path opacity="0.3" d="M97.0635 81.4849H94.668V88H93.0566V81.4849H90.6934V80.1797H97.0635V81.4849ZM99.5234 88H97.9658V82.1885H99.5234V88ZM97.8745 80.6846C97.8745 80.4518 97.9515 80.2603 98.1055 80.1099C98.263 79.9595 98.4761 79.8843 98.7446 79.8843C99.0096 79.8843 99.2209 79.9595 99.3784 80.1099C99.536 80.2603 99.6147 80.4518 99.6147 80.6846C99.6147 80.9209 99.5342 81.1143 99.373 81.2646C99.2155 81.415 99.006 81.4902 98.7446 81.4902C98.4832 81.4902 98.272 81.415 98.1108 81.2646C97.9533 81.1143 97.8745 80.9209 97.8745 80.6846ZM102.666 80.7598V82.1885H103.659V83.3271H102.666V86.2275C102.666 86.4424 102.707 86.5964 102.789 86.6895C102.871 86.7826 103.029 86.8291 103.262 86.8291C103.434 86.8291 103.586 86.8166 103.718 86.7915V87.9678C103.414 88.0609 103.101 88.1074 102.778 88.1074C101.69 88.1074 101.135 87.5578 101.113 86.4585V83.3271H100.265V82.1885H101.113V80.7598H102.666ZM106.162 88H104.604V79.75H106.162V88ZM110.121 88.1074C109.268 88.1074 108.574 87.846 108.037 87.3232C107.503 86.8005 107.236 86.104 107.236 85.2339V85.0835C107.236 84.4998 107.349 83.9788 107.575 83.5205C107.8 83.0586 108.119 82.7041 108.531 82.457C108.946 82.2064 109.419 82.0811 109.949 82.0811C110.744 82.0811 111.368 82.3317 111.823 82.833C112.282 83.3343 112.511 84.0451 112.511 84.9653V85.5991H108.81C108.86 85.9787 109.011 86.283 109.261 86.5122C109.515 86.7414 109.836 86.856 110.223 86.856C110.821 86.856 111.288 86.6393 111.625 86.2061L112.387 87.0601C112.154 87.3895 111.839 87.6473 111.442 87.8335C111.044 88.0161 110.604 88.1074 110.121 88.1074ZM109.943 83.3379C109.635 83.3379 109.385 83.4417 109.191 83.6494C109.002 83.8571 108.88 84.1543 108.826 84.541H110.985V84.4175C110.978 84.0737 110.885 83.8088 110.706 83.6226C110.527 83.4328 110.273 83.3379 109.943 83.3379ZM117.995 80.7598V82.1885H118.988V83.3271H117.995V86.2275C117.995 86.4424 118.036 86.5964 118.118 86.6895C118.201 86.7826 118.358 86.8291 118.591 86.8291C118.763 86.8291 118.915 86.8166 119.047 86.7915V87.9678C118.743 88.0609 118.43 88.1074 118.107 88.1074C117.019 88.1074 116.464 87.5578 116.442 86.4585V83.3271H115.594V82.1885H116.442V80.7598H117.995ZM122.528 88.1074C121.676 88.1074 120.981 87.846 120.444 87.3232C119.91 86.8005 119.644 86.104 119.644 85.2339V85.0835C119.644 84.4998 119.756 83.9788 119.982 83.5205C120.208 83.0586 120.526 82.7041 120.938 82.457C121.353 82.2064 121.826 82.0811 122.356 82.0811C123.151 82.0811 123.776 82.3317 124.23 82.833C124.689 83.3343 124.918 84.0451 124.918 84.9653V85.5991H121.217C121.267 85.9787 121.418 86.283 121.668 86.5122C121.923 86.7414 122.243 86.856 122.63 86.856C123.228 86.856 123.695 86.6393 124.032 86.2061L124.794 87.0601C124.562 87.3895 124.247 87.6473 123.849 87.8335C123.452 88.0161 123.011 88.1074 122.528 88.1074ZM122.351 83.3379C122.043 83.3379 121.792 83.4417 121.599 83.6494C121.409 83.8571 121.287 84.1543 121.233 84.541H123.393V84.4175C123.385 84.0737 123.292 83.8088 123.113 83.6226C122.934 83.4328 122.68 83.3379 122.351 83.3379ZM128.017 83.9233L128.995 82.1885H130.654L129 85.0352L130.724 88H129.059L128.022 86.1738L126.991 88H125.321L127.045 85.0352L125.396 82.1885H127.061L128.017 83.9233ZM133.259 80.7598V82.1885H134.253V83.3271H133.259V86.2275C133.259 86.4424 133.3 86.5964 133.383 86.6895C133.465 86.7826 133.623 86.8291 133.855 86.8291C134.027 86.8291 134.18 86.8166 134.312 86.7915V87.9678C134.008 88.0609 133.694 88.1074 133.372 88.1074C132.284 88.1074 131.729 87.5578 131.707 86.4585V83.3271H130.858V82.1885H131.707V80.7598H133.259Z" fill="#0B2239"/>
<g opacity="0.3">
<circle cx="53.5" cy="27.5" r="3.5" fill="#CFD9E0"/>
<circle cx="58.5" cy="27.5" r="3.5" fill="#CFD9E0"/>
</g>
<g filter="url(#filter1_d_251_4753)">
<rect x="56" y="44" width="112" height="60" fill="white"/>
</g>
<rect x="68" y="83" width="40" height="10" fill="#0066FF"/>
<rect x="77.4116" y="87" width="21.1765" height="2" fill="white"/>
<rect x="116.5" y="83.5" width="39" height="9" stroke="#0066FF"/>
<rect x="125.412" y="87" width="21.1765" height="2" fill="#0066FF"/>
<rect x="68" y="67" width="27" height="3" fill="#CFD9E0"/>
<rect x="68" y="72" width="40" height="3" fill="#CFD9E0"/>
<rect x="99" y="67" width="57" height="3" fill="#CFD9E0"/>
<rect x="112" y="72" width="27" height="3" fill="#CFD9E0"/>
<rect x="92" y="56" width="39" height="3" fill="#0B2239"/>
<path d="M162.333 50.1367L161.863 49.6667L160 51.53L158.137 49.6667L157.667 50.1367L159.53 52L157.667 53.8633L158.137 54.3333L160 52.47L161.863 54.3333L162.333 53.8633L160.47 52L162.333 50.1367Z" fill="#0B2239"/>
<defs>
<filter id="filter0_d_251_4753" x="0" y="8" width="224" height="156" filterUnits="userSpaceOnUse" color-interpolation-filters="sRGB">
<feFlood flood-opacity="0" result="BackgroundImageFix"/>
<feColorMatrix in="SourceAlpha" type="matrix" values="0 0 0 0 0 0 0 0 0 0 0 0 0 0 0 0 0 0 127 0" result="hardAlpha"/>
<feOffset dy="4"/>
<feGaussianBlur stdDeviation="6"/>
<feComposite in2="hardAlpha" operator="out"/>
<feColorMatrix type="matrix" values="0 0 0 0 0 0 0 0 0 0 0 0 0 0 0 0 0 0 0.08 0"/>
<feBlend mode="normal" in2="BackgroundImageFix" result="effect1_dropShadow_251_4753"/>
<feBlend mode="normal" in="SourceGraphic" in2="effect1_dropShadow_251_4753" result="shape"/>
</filter>
<filter id="filter1_d_251_4753" x="44" y="36" width="136" height="84" filterUnits="userSpaceOnUse" color-interpolation-filters="sRGB">
<feFlood flood-opacity="0" result="BackgroundImageFix"/>
<feColorMatrix in="SourceAlpha" type="matrix" values="0 0 0 0 0 0 0 0 0 0 0 0 0 0 0 0 0 0 127 0" result="hardAlpha"/>
<feOffset dy="4"/>
<feGaussianBlur stdDeviation="6"/>
<feComposite in2="hardAlpha" operator="out"/>
<feColorMatrix type="matrix" values="0 0 0 0 0 0 0 0 0 0 0 0 0 0 0 0 0 0 0.08 0"/>
<feBlend mode="normal" in2="BackgroundImageFix" result="effect1_dropShadow_251_4753"/>
<feBlend mode="normal" in="SourceGraphic" in2="effect1_dropShadow_251_4753" result="shape"/>
</filter>
</defs>
</svg>
