<svg width="220" height="148" viewBox="0 0 220 148" fill="none" xmlns="http://www.w3.org/2000/svg">
<g filter="url(#filter0_d_298_4127)">
<rect x="54" y="51" width="112" height="45" fill="white"/>
</g>
<rect x="62" y="70" width="27" height="3" fill="#CFD9E0"/>
<rect x="62" y="80" width="42" height="3" fill="#CFD9E0"/>
<rect x="62" y="75" width="32" height="3" fill="#CFD9E0"/>
<rect x="62" y="85" width="32" height="3" fill="#CFD9E0"/>
<rect x="93" y="70" width="12" height="3" fill="#CFD9E0"/>
<rect x="108" y="80" width="9" height="3" fill="#CFD9E0"/>
<rect x="98" y="75" width="41" height="3" fill="#CFD9E0"/>
<rect x="98" y="85" width="41" height="3" fill="#CFD9E0"/>
<rect x="121" y="80" width="35" height="3" fill="#CFD9E0"/>
<rect x="143" y="75" width="8" height="3" fill="#CFD9E0"/>
<rect x="143" y="85" width="8" height="3" fill="#CFD9E0"/>
<rect x="62" y="59" width="50" height="3" fill="#0B2239"/>
<rect x="116" y="59" width="21" height="3" fill="#0B2239"/>
<path d="M152.94 58L156 61.0904L159.06 58L160 58.9514L156 63L152 58.9514L152.94 58Z" fill="#0066FF"/>
<defs>
<filter id="filter0_d_298_4127" x="42" y="43" width="136" height="69" filterUnits="userSpaceOnUse" color-interpolation-filters="sRGB">
<feFlood flood-opacity="0" result="BackgroundImageFix"/>
<feColorMatrix in="SourceAlpha" type="matrix" values="0 0 0 0 0 0 0 0 0 0 0 0 0 0 0 0 0 0 127 0" result="hardAlpha"/>
<feOffset dy="4"/>
<feGaussianBlur stdDeviation="6"/>
<feComposite in2="hardAlpha" operator="out"/>
<feColorMatrix type="matrix" values="0 0 0 0 0 0 0 0 0 0 0 0 0 0 0 0 0 0 0.08 0"/>
<feBlend mode="normal" in2="BackgroundImageFix" result="effect1_dropShadow_298_4127"/>
<feBlend mode="normal" in="SourceGraphic" in2="effect1_dropShadow_298_4127" result="shape"/>
</filter>
</defs>
</svg>
