<svg width="220" height="148" viewBox="0 0 220 148" fill="none" xmlns="http://www.w3.org/2000/svg">
<g clip-path="url(#clip0_253_4014)">
<g filter="url(#filter0_d_253_4014)">
<rect x="10" width="200" height="148" fill="white"/>
</g>
<rect x="54" y="53" width="112" height="1" fill="#CFD9E0"/>
<rect x="50" y="94" width="120" height="1" fill="#CFD9E0"/>
<rect x="78" y="21" width="27" height="3" fill="#0B2239"/>
<rect x="78" y="33" width="42" height="3" fill="#CFD9E0"/>
<rect x="78" y="28" width="32" height="3" fill="#CFD9E0"/>
<rect x="109" y="21" width="21" height="3" fill="#0B2239"/>
<rect x="134" y="21" width="5" height="3" fill="#0B2239"/>
<rect x="124" y="33" width="9" height="3" fill="#CFD9E0"/>
<rect x="114" y="28" width="41" height="3" fill="#CFD9E0"/>
<rect x="137" y="33" width="25" height="3" fill="#CFD9E0"/>
<rect x="159" y="28" width="7" height="3" fill="#CFD9E0"/>
<rect x="78" y="40" width="16" height="3" fill="#0066FF"/>
<g clip-path="url(#clip1_253_4014)">
<rect x="54.25" y="21.25" width="15.5" height="15.5" rx="7.75" fill="#F0FBFF"/>
<path d="M65.9821 35.7779V36.7931C65.9821 36.9074 65.8896 37 65.7753 37H58.2244C58.1102 37 58.0176 36.9074 58.0176 36.7931V35.7779C58.0176 34.7128 58.881 33.8499 59.9464 33.8496C60.3229 33.8493 60.6544 33.6557 60.8453 33.3619C61.037 33.0673 61.0172 32.8111 61.0172 32.604L61.0211 32.5944C60.0928 32.2102 59.4398 31.2955 59.4398 30.2283V30.1474C59.0712 30.1474 58.7933 29.8561 58.7933 29.5128V28.4381C58.7851 28.0639 58.8021 26.7443 59.7553 25.8256C60.8636 24.7573 62.62 24.8447 63.8922 25.4162C63.9336 25.4348 63.9323 25.4941 63.8904 25.5114L63.5586 25.6479C63.509 25.6684 63.5196 25.7415 63.5729 25.7472L63.734 25.7645C64.6007 25.8571 65.322 26.3746 65.6817 26.9877C65.685 26.9936 65.684 27.0014 65.6791 27.0066C65.3926 27.2988 65.2322 27.6921 65.2322 28.1017V29.4753C65.2322 29.8459 64.932 30.1474 64.5599 30.1474V30.2283C64.5599 31.2955 63.907 32.2102 62.9786 32.5944L62.9825 32.604C62.9825 32.8052 62.9611 33.0648 63.1545 33.3619C63.3453 33.6557 63.6768 33.8493 64.0533 33.8496C65.1187 33.8499 65.9821 34.7128 65.9821 35.7779V35.7779Z" fill="#FFD6A6" stroke="black" stroke-width="0.5"/>
<path d="M65.6817 26.9876C65.6851 26.9935 65.6841 27.0014 65.6791 27.0065C65.3928 27.2988 65.2324 27.6922 65.2324 28.1017V29.4753C65.2324 29.8458 64.9322 30.1474 64.5601 30.1474C64.5601 29.3648 64.5605 28.9559 64.5603 28.7361C64.5602 28.5973 64.4262 28.4976 64.2935 28.5384C63.8766 28.6667 63.3903 28.7328 62.8792 28.6217C61.9799 28.4262 61.7252 28.0737 60.9915 27.8976C60.1718 27.7011 59.4284 28.329 59.4335 29.1321C59.4351 29.3962 59.4395 29.7261 59.44 30.1474C59.0714 30.1474 58.7935 29.8561 58.7935 29.5128V28.4381C58.7853 28.0639 58.8023 26.7443 59.7555 25.8256C60.8637 24.7573 62.6202 24.8448 63.8923 25.4163C63.9336 25.4349 63.9326 25.4941 63.8906 25.5114L63.5588 25.648C63.5092 25.6684 63.5196 25.7415 63.573 25.7472L63.7341 25.7645C64.601 25.8572 65.3221 26.3745 65.6817 26.9876V26.9876Z" fill="#DCDCDC" stroke="#0B2239" stroke-width="0.5"/>
<path d="M64.2936 28.5384C64.4263 28.4976 64.5603 28.5972 64.5604 28.736C64.5606 28.9634 64.5602 29.3931 64.5602 30.2283C64.5602 31.2955 63.9072 32.2101 62.9789 32.5944C61.3002 33.2912 59.4401 32.0533 59.4401 30.2283C59.4401 29.7564 59.4353 29.4211 59.4336 29.1322C59.4284 28.329 60.1719 27.7011 60.9916 27.8977C61.7252 28.0738 61.98 28.4262 62.8793 28.6217C63.3904 28.7327 63.8767 28.6667 64.2936 28.5384V28.5384Z" fill="#FFDFBA" stroke="#0B2239" stroke-width="0.5"/>
<path d="M65.9821 35.7779V36.7931C65.9821 36.9074 65.8895 37 65.7753 37H58.2244C58.1102 37 58.0176 36.9074 58.0176 36.7931V35.7779C58.0176 34.7128 58.8811 33.85 59.9463 33.8496C60.3229 33.8495 60.6545 33.6556 60.8453 33.3619C61.5112 33.9309 62.4881 33.9312 63.1545 33.3619C63.3452 33.6556 63.6768 33.8495 64.0534 33.8496C65.1186 33.85 65.9821 34.7128 65.9821 35.7779V35.7779Z" fill="#658FCE" stroke="#0B2239" stroke-width="0.5"/>
</g>
<rect x="54.25" y="21.25" width="15.5" height="15.5" rx="7.75" stroke="#0B2239" stroke-width="0.5"/>
<rect x="78" y="63" width="27" height="3" fill="#0B2239"/>
<rect x="78" y="75" width="42" height="3" fill="#CFD9E0"/>
<rect x="78" y="70" width="32" height="3" fill="#CFD9E0"/>
<rect x="109" y="63" width="21" height="3" fill="#0B2239"/>
<rect x="134" y="63" width="5" height="3" fill="#0B2239"/>
<rect x="124" y="75" width="9" height="3" fill="#CFD9E0"/>
<rect x="114" y="70" width="41" height="3" fill="#CFD9E0"/>
<rect x="137" y="75" width="25" height="3" fill="#CFD9E0"/>
<rect x="159" y="70" width="7" height="3" fill="#CFD9E0"/>
<rect x="78" y="82" width="16" height="3" fill="#0066FF"/>
<g clip-path="url(#clip2_253_4014)">
<rect x="54.25" y="63.25" width="15.5" height="15.5" rx="7.75" fill="#F0FBFF"/>
<path d="M65.9821 77.7779V78.7931C65.9821 78.9074 65.8896 79 65.7753 79H58.2244C58.1102 79 58.0176 78.9074 58.0176 78.7931V77.7779C58.0176 76.7128 58.881 75.8499 59.9464 75.8496C60.3229 75.8493 60.6544 75.6557 60.8453 75.3619C61.037 75.0673 61.0172 74.8111 61.0172 74.604L61.0211 74.5944C60.0928 74.2102 59.4398 73.2955 59.4398 72.2283V72.1474C59.0712 72.1474 58.7933 71.8561 58.7933 71.5128V70.4381C58.7851 70.0639 58.8021 68.7443 59.7553 67.8256C60.8636 66.7573 62.62 66.8447 63.8922 67.4162C63.9336 67.4348 63.9323 67.4941 63.8904 67.5114L63.5586 67.6479C63.509 67.6684 63.5196 67.7415 63.5729 67.7472L63.734 67.7645C64.6007 67.8571 65.322 68.3746 65.6817 68.9877C65.685 68.9936 65.684 69.0014 65.6791 69.0066C65.3926 69.2988 65.2322 69.6921 65.2322 70.1017V71.4753C65.2322 71.8459 64.932 72.1474 64.5599 72.1474V72.2283C64.5599 73.2955 63.907 74.2102 62.9786 74.5944L62.9825 74.604C62.9825 74.8052 62.9611 75.0648 63.1545 75.3619C63.3453 75.6557 63.6768 75.8493 64.0533 75.8496C65.1187 75.8499 65.9821 76.7128 65.9821 77.7779V77.7779Z" fill="#FFD6A6" stroke="black" stroke-width="0.5"/>
<path d="M65.6817 68.9876C65.6851 68.9935 65.6841 69.0014 65.6791 69.0065C65.3928 69.2988 65.2324 69.6922 65.2324 70.1017V71.4753C65.2324 71.8458 64.9322 72.1474 64.5601 72.1474C64.5601 71.3648 64.5605 70.9559 64.5603 70.7361C64.5602 70.5973 64.4262 70.4976 64.2935 70.5384C63.8766 70.6667 63.3903 70.7328 62.8792 70.6217C61.9799 70.4262 61.7252 70.0737 60.9915 69.8976C60.1718 69.7011 59.4284 70.329 59.4335 71.1321C59.4351 71.3962 59.4395 71.7261 59.44 72.1474C59.0714 72.1474 58.7935 71.8561 58.7935 71.5128V70.4381C58.7853 70.0639 58.8023 68.7443 59.7555 67.8256C60.8637 66.7573 62.6202 66.8448 63.8923 67.4163C63.9336 67.4349 63.9326 67.4941 63.8906 67.5114L63.5588 67.648C63.5092 67.6684 63.5196 67.7415 63.573 67.7472L63.7341 67.7645C64.601 67.8572 65.3221 68.3745 65.6817 68.9876V68.9876Z" fill="#6D3B3B" stroke="#0B2239" stroke-width="0.5"/>
<path d="M64.2936 70.5384C64.4263 70.4976 64.5603 70.5972 64.5604 70.736C64.5606 70.9634 64.5602 71.3931 64.5602 72.2283C64.5602 73.2955 63.9072 74.2101 62.9789 74.5944C61.3002 75.2912 59.4401 74.0533 59.4401 72.2283C59.4401 71.7564 59.4353 71.4211 59.4336 71.1322C59.4284 70.329 60.1719 69.7011 60.9916 69.8977C61.7252 70.0738 61.98 70.4262 62.8793 70.6217C63.3904 70.7327 63.8767 70.6667 64.2936 70.5384V70.5384Z" fill="#FFDFBA" stroke="#0B2239" stroke-width="0.5"/>
<path d="M65.9821 77.7779V78.7931C65.9821 78.9074 65.8895 79 65.7753 79H58.2244C58.1102 79 58.0176 78.9074 58.0176 78.7931V77.7779C58.0176 76.7128 58.8811 75.85 59.9463 75.8496C60.3229 75.8495 60.6545 75.6556 60.8453 75.3619C61.5112 75.9309 62.4881 75.9312 63.1545 75.3619C63.3452 75.6556 63.6768 75.8495 64.0534 75.8496C65.1186 75.85 65.9821 76.7128 65.9821 77.7779V77.7779Z" fill="#65CE8F" stroke="#0B2239" stroke-width="0.5"/>
</g>
<rect x="54.25" y="63.25" width="15.5" height="15.5" rx="7.75" stroke="#0B2239" stroke-width="0.5"/>
<rect x="78" y="104" width="27" height="3" fill="#0B2239"/>
<rect x="78" y="116" width="42" height="3" fill="#CFD9E0"/>
<rect x="78" y="111" width="32" height="3" fill="#CFD9E0"/>
<rect x="109" y="104" width="21" height="3" fill="#0B2239"/>
<rect x="134" y="104" width="5" height="3" fill="#0B2239"/>
<rect x="124" y="116" width="9" height="3" fill="#CFD9E0"/>
<rect x="114" y="111" width="41" height="3" fill="#CFD9E0"/>
<rect x="137" y="116" width="25" height="3" fill="#CFD9E0"/>
<rect x="159" y="111" width="7" height="3" fill="#CFD9E0"/>
<rect x="78" y="123" width="16" height="3" fill="#0066FF"/>
<g clip-path="url(#clip3_253_4014)">
<rect x="54.25" y="104.25" width="15.5" height="15.5" rx="7.75" fill="#F0FBFF"/>
<path d="M65.9821 118.778V119.793C65.9821 119.907 65.8896 120 65.7753 120H58.2244C58.1102 120 58.0176 119.907 58.0176 119.793V118.778C58.0176 117.713 58.881 116.85 59.9464 116.85C60.3229 116.849 60.6544 116.656 60.8453 116.362C61.037 116.067 61.0172 115.811 61.0172 115.604L61.0211 115.594C60.0928 115.21 59.4398 114.296 59.4398 113.228V113.147C59.0712 113.147 58.7933 112.856 58.7933 112.513V111.438C58.7851 111.064 58.8021 109.744 59.7553 108.826C60.8636 107.757 62.62 107.845 63.8922 108.416C63.9336 108.435 63.9323 108.494 63.8904 108.511L63.5586 108.648C63.509 108.668 63.5196 108.742 63.5729 108.747L63.734 108.765C64.6007 108.857 65.322 109.375 65.6817 109.988C65.685 109.994 65.684 110.001 65.6791 110.007C65.3926 110.299 65.2322 110.692 65.2322 111.102V112.475C65.2322 112.846 64.932 113.147 64.5599 113.147V113.228C64.5599 114.296 63.907 115.21 62.9786 115.594L62.9825 115.604C62.9825 115.805 62.9611 116.065 63.1545 116.362C63.3453 116.656 63.6768 116.849 64.0533 116.85C65.1187 116.85 65.9821 117.713 65.9821 118.778V118.778Z" fill="#FFD6A6" stroke="black" stroke-width="0.5"/>
<path d="M65.6817 109.988C65.6851 109.994 65.6841 110.001 65.6791 110.006C65.3928 110.299 65.2324 110.692 65.2324 111.102V112.475C65.2324 112.846 64.9322 113.147 64.5601 113.147C64.5601 112.365 64.5605 111.956 64.5603 111.736C64.5602 111.597 64.4262 111.498 64.2935 111.538C63.8766 111.667 63.3903 111.733 62.8792 111.622C61.9799 111.426 61.7252 111.074 60.9915 110.898C60.1718 110.701 59.4284 111.329 59.4335 112.132C59.4351 112.396 59.4395 112.726 59.44 113.147C59.0714 113.147 58.7935 112.856 58.7935 112.513V111.438C58.7853 111.064 58.8023 109.744 59.7555 108.826C60.8637 107.757 62.6202 107.845 63.8923 108.416C63.9336 108.435 63.9326 108.494 63.8906 108.511L63.5588 108.648C63.5092 108.668 63.5196 108.742 63.573 108.747L63.7341 108.765C64.601 108.857 65.3221 109.374 65.6817 109.988V109.988Z" fill="#AD6C6C" stroke="#0B2239" stroke-width="0.5"/>
<path d="M64.2936 111.538C64.4263 111.498 64.5603 111.597 64.5604 111.736C64.5606 111.963 64.5602 112.393 64.5602 113.228C64.5602 114.296 63.9072 115.21 62.9789 115.594C61.3002 116.291 59.4401 115.053 59.4401 113.228C59.4401 112.756 59.4353 112.421 59.4336 112.132C59.4284 111.329 60.1719 110.701 60.9916 110.898C61.7252 111.074 61.98 111.426 62.8793 111.622C63.3904 111.733 63.8767 111.667 64.2936 111.538V111.538Z" fill="#FFDFBA" stroke="#0B2239" stroke-width="0.5"/>
<path d="M65.9821 118.778V119.793C65.9821 119.907 65.8895 120 65.7753 120H58.2244C58.1102 120 58.0176 119.907 58.0176 119.793V118.778C58.0176 117.713 58.8811 116.85 59.9463 116.85C60.3229 116.849 60.6545 116.656 60.8453 116.362C61.5112 116.931 62.4881 116.931 63.1545 116.362C63.3452 116.656 63.6768 116.849 64.0534 116.85C65.1186 116.85 65.9821 117.713 65.9821 118.778V118.778Z" fill="#CEA465" stroke="#0B2239" stroke-width="0.5"/>
</g>
<rect x="54.25" y="104.25" width="15.5" height="15.5" rx="7.75" stroke="#0B2239" stroke-width="0.5"/>
</g>
<defs>
<filter id="filter0_d_253_4014" x="-2" y="-8" width="224" height="172" filterUnits="userSpaceOnUse" color-interpolation-filters="sRGB">
<feFlood flood-opacity="0" result="BackgroundImageFix"/>
<feColorMatrix in="SourceAlpha" type="matrix" values="0 0 0 0 0 0 0 0 0 0 0 0 0 0 0 0 0 0 127 0" result="hardAlpha"/>
<feOffset dy="4"/>
<feGaussianBlur stdDeviation="6"/>
<feComposite in2="hardAlpha" operator="out"/>
<feColorMatrix type="matrix" values="0 0 0 0 0 0 0 0 0 0 0 0 0 0 0 0 0 0 0.08 0"/>
<feBlend mode="normal" in2="BackgroundImageFix" result="effect1_dropShadow_253_4014"/>
<feBlend mode="normal" in="SourceGraphic" in2="effect1_dropShadow_253_4014" result="shape"/>
</filter>
<clipPath id="clip0_253_4014">
<rect width="220" height="148" fill="white"/>
</clipPath>
<clipPath id="clip1_253_4014">
</clipPath>
<clipPath id="clip2_253_4014">
</clipPath>
<clipPath id="clip3_253_4014">
</clipPath>
</defs>
</svg>
