<svg width="220" height="148" viewBox="0 0 220 148" fill="none" xmlns="http://www.w3.org/2000/svg">
<g clip-path="url(#clip0_347_4135)">
<g filter="url(#filter0_d_347_4135)">
<rect x="10" width="200" height="121" fill="white"/>
</g>
<rect opacity="0.15" x="10" y="34" width="200" height="87" fill="#CFD9E0"/>
<rect x="148" y="51" width="10" height="3" fill="#0B2239"/>
<rect x="116" y="51" width="10" height="3" fill="#0B2239"/>
<rect x="83" y="51" width="10" height="3" fill="#0B2239"/>
<rect x="83" y="61" width="18" height="3" fill="#CFD9E0"/>
<rect x="50" y="104" width="18" height="3" fill="#CFD9E0"/>
<rect x="50" y="61" width="23" height="3" fill="#0066FF"/>
<rect x="116" y="61" width="13" height="3" fill="#CFD9E0"/>
<rect x="148" y="61" width="22" height="3" fill="#CFD9E0"/>
<rect x="83" y="68" width="16" height="3" fill="#CFD9E0"/>
<rect x="72" y="104" width="16" height="3" fill="#CFD9E0"/>
<rect x="50" y="68" width="16" height="3" fill="#0066FF"/>
<rect x="116" y="68" width="22" height="3" fill="#CFD9E0"/>
<rect x="148" y="68" width="19" height="3" fill="#CFD9E0"/>
<rect x="83" y="75" width="22" height="3" fill="#CFD9E0"/>
<rect x="116" y="75" width="19" height="3" fill="#CFD9E0"/>
<rect x="148" y="75" width="10" height="3" fill="#CFD9E0"/>
<circle cx="53.5" cy="52.5" r="3.5" fill="#0066FF"/>
<circle cx="136.5" cy="105.5" r="3.5" fill="#CFD9E0"/>
<circle cx="151.5" cy="105.5" r="3.5" fill="#CFD9E0"/>
<circle cx="166.5" cy="105.5" r="3.5" fill="#CFD9E0"/>
<rect x="50" y="93" width="120" height="0.999979" fill="#CFD9E0"/>
</g>
<defs>
<filter id="filter0_d_347_4135" x="-2" y="-8" width="224" height="145" filterUnits="userSpaceOnUse" color-interpolation-filters="sRGB">
<feFlood flood-opacity="0" result="BackgroundImageFix"/>
<feColorMatrix in="SourceAlpha" type="matrix" values="0 0 0 0 0 0 0 0 0 0 0 0 0 0 0 0 0 0 127 0" result="hardAlpha"/>
<feOffset dy="4"/>
<feGaussianBlur stdDeviation="6"/>
<feComposite in2="hardAlpha" operator="out"/>
<feColorMatrix type="matrix" values="0 0 0 0 0 0 0 0 0 0 0 0 0 0 0 0 0 0 0.08 0"/>
<feBlend mode="normal" in2="BackgroundImageFix" result="effect1_dropShadow_347_4135"/>
<feBlend mode="normal" in="SourceGraphic" in2="effect1_dropShadow_347_4135" result="shape"/>
</filter>
<clipPath id="clip0_347_4135">
<rect width="220" height="148" fill="white"/>
</clipPath>
</defs>
</svg>
