<svg width="220" height="148" viewBox="0 0 220 148" fill="none" xmlns="http://www.w3.org/2000/svg">
<g clip-path="url(#clip0_419_5288)">
<g filter="url(#filter0_d_419_5288)">
<rect x="10" width="200" height="148" fill="white"/>
</g>
<rect x="66" y="110" width="27" height="1" fill="#CFD9E0"/>
<rect x="66" y="116" width="18" height="1" fill="#CFD9E0"/>
<rect x="66" y="113" width="38" height="1" fill="#CFD9E0"/>
<rect x="97" y="110" width="12" height="1" fill="#CFD9E0"/>
<rect x="66" y="125" width="27" height="1" fill="#CFD9E0"/>
<rect x="66" y="131" width="18" height="1" fill="#CFD9E0"/>
<rect x="66" y="128" width="38" height="1" fill="#CFD9E0"/>
<rect x="97" y="125" width="12" height="1" fill="#CFD9E0"/>
<rect x="50" y="101" width="120" height="1" fill="#CFD9E0"/>
<rect x="50" y="48" width="27" height="3" fill="#CFD9E0"/>
<rect x="50" y="58" width="42" height="3" fill="#CFD9E0"/>
<rect x="50" y="53" width="16" height="3" fill="#CFD9E0"/>
<rect x="81" y="48" width="12" height="3" fill="#CFD9E0"/>
<rect x="70" y="53" width="12" height="3" fill="#CFD9E0"/>
<rect x="97" y="48" width="21" height="3" fill="#CFD9E0"/>
<rect x="96" y="58" width="9" height="3" fill="#CFD9E0"/>
<rect x="86" y="53" width="41" height="3" fill="#CFD9E0"/>
<rect x="122" y="48" width="8" height="3" fill="#CFD9E0"/>
<rect x="109" y="58" width="35" height="3" fill="#CFD9E0"/>
<rect x="131" y="53" width="8" height="3" fill="#CFD9E0"/>
<rect x="134" y="48" width="30" height="3" fill="#CFD9E0"/>
<rect x="148" y="58" width="22" height="3" fill="#CFD9E0"/>
<rect x="143" y="53" width="11" height="3" fill="#CFD9E0"/>
<rect x="50" y="69" width="27" height="3" fill="#CFD9E0"/>
<rect x="50" y="79" width="42" height="3" fill="#CFD9E0"/>
<rect x="50" y="74" width="32" height="3" fill="#CFD9E0"/>
<rect x="50" y="84" width="32" height="3" fill="#CFD9E0"/>
<rect x="81" y="69" width="12" height="3" fill="#CFD9E0"/>
<rect x="96" y="79" width="9" height="3" fill="#CFD9E0"/>
<rect x="86" y="74" width="41" height="3" fill="#CFD9E0"/>
<rect x="86" y="84" width="41" height="3" fill="#CFD9E0"/>
<rect x="109" y="79" width="35" height="3" fill="#CFD9E0"/>
<rect x="131" y="74" width="8" height="3" fill="#CFD9E0"/>
<rect x="131" y="84" width="8" height="3" fill="#CFD9E0"/>
<rect x="143" y="74" width="22" height="3" fill="#CFD9E0"/>
<rect x="143" y="84" width="22" height="3" fill="#CFD9E0"/>
<rect x="50" y="22" width="27" height="3" fill="#CFD9E0"/>
<rect x="50" y="32" width="42" height="3" fill="#CFD9E0"/>
<rect x="50" y="27" width="32" height="3" fill="#CFD9E0"/>
<rect x="50" y="37" width="32" height="3" fill="#CFD9E0"/>
<rect x="81" y="22" width="12" height="3" fill="#CFD9E0"/>
<rect x="96" y="32" width="9" height="3" fill="#CFD9E0"/>
<rect x="86" y="27" width="41" height="3" fill="#CFD9E0"/>
<rect x="86" y="37" width="41" height="3" fill="#CFD9E0"/>
<rect x="109" y="32" width="35" height="3" fill="#CFD9E0"/>
<rect x="131" y="27" width="8" height="3" fill="#CFD9E0"/>
<rect x="131" y="37" width="8" height="3" fill="#CFD9E0"/>
<rect x="143" y="37" width="22" height="3" fill="#CFD9E0"/>
<rect x="146" y="30" width="4" height="4" fill="#0066FF"/>
<rect x="95" y="67" width="4" height="4" fill="#0066FF"/>
<rect x="50" y="110" width="4" height="4" fill="#0B2239"/>
<rect x="50" y="125" width="4" height="4" fill="#0B2239"/>
<path d="M63 113L60 110L57 113L63 113Z" fill="#0066FF"/>
<path d="M63 128L60 125L57 128L63 128Z" fill="#0066FF"/>
<path d="M148 13L148.5 13L148.5 12.5L148 12.5L148 13ZM33.0001 13L33.0001 12.5L32.5001 12.5L32.5001 13L33.0001 13ZM33 112.5L32.5 112.5L32.5 113L33 113V112.5ZM46.3536 112.854C46.5488 112.658 46.5488 112.342 46.3536 112.146L43.1716 108.964C42.9763 108.769 42.6597 108.769 42.4645 108.964C42.2692 109.16 42.2692 109.476 42.4645 109.672L45.2929 112.5L42.4645 115.328C42.2692 115.524 42.2692 115.84 42.4645 116.036C42.6597 116.231 42.9763 116.231 43.1716 116.036L46.3536 112.854ZM46 112L44.9167 112L44.9167 113L46 113L46 112ZM42.75 112L40.5833 112L40.5833 113L42.75 113L42.75 112ZM38.4167 112L36.25 112L36.25 113L38.4167 113L38.4167 112ZM34.0833 112L33 112L33 113L34.0833 113L34.0833 112ZM33.5 112.5L33.5 111.505L32.5 111.505L32.5 112.5L33.5 112.5ZM33.5 109.515L33.5 107.525L32.5 107.525L32.5 109.515L33.5 109.515ZM33.5 105.535L33.5 103.545L32.5 103.545L32.5 105.535L33.5 105.535ZM33.5 101.555L33.5 99.565L32.5 99.565L32.5 101.555L33.5 101.555ZM33.5 97.575L33.5 95.585L32.5 95.585L32.5 97.575L33.5 97.575ZM33.5 93.595L33.5 91.605L32.5 91.605L32.5 93.595L33.5 93.595ZM33.5 89.615L33.5 87.625L32.5 87.625L32.5 89.615L33.5 89.615ZM33.5 85.635L33.5 83.645L32.5 83.645L32.5 85.635L33.5 85.635ZM33.5 81.655L33.5 79.665L32.5 79.665L32.5 81.655L33.5 81.655ZM33.5 77.675L33.5 75.685L32.5 75.685L32.5 77.675L33.5 77.675ZM33.5 73.695L33.5 71.705L32.5 71.705L32.5 73.695L33.5 73.695ZM33.5 69.715L33.5 67.725L32.5 67.725L32.5 69.715L33.5 69.715ZM33.5 65.735L33.5 63.745L32.5 63.745L32.5 65.735L33.5 65.735ZM33.5 61.755L33.5 59.765L32.5 59.765L32.5 61.755L33.5 61.755ZM33.5 57.775L33.5 55.785L32.5 55.785L32.5 57.775L33.5 57.775ZM33.5 53.795L33.5 51.805L32.5 51.805L32.5 53.795L33.5 53.795ZM33.5 49.815L33.5 47.825L32.5 47.825L32.5 49.815L33.5 49.815ZM33.5 45.835L33.5 43.845L32.5 43.845L32.5 45.835L33.5 45.835ZM33.5 41.855L33.5 39.865L32.5 39.865L32.5 41.855L33.5 41.855ZM33.5 37.875L33.5 35.885L32.5 35.885L32.5 37.875L33.5 37.875ZM33.5 33.895L33.5 31.905L32.5 31.905L32.5 33.895L33.5 33.895ZM33.5 29.915L33.5 27.925L32.5 27.925L32.5 29.915L33.5 29.915ZM33.5 25.935L33.5 23.945L32.5 23.945L32.5 25.935L33.5 25.935ZM33.5 21.955L33.5 19.965L32.5 19.965L32.5 21.955L33.5 21.955ZM33.5001 17.975L33.5001 15.985L32.5001 15.985L32.5001 17.975L33.5001 17.975ZM33.5001 13.995L33.5001 13L32.5001 13L32.5001 13.995L33.5001 13.995ZM33.0001 13.5L33.9914 13.5L33.9914 12.5L33.0001 12.5L33.0001 13.5ZM35.9742 13.5L37.9569 13.5L37.9569 12.5L35.9742 12.5L35.9742 13.5ZM39.9397 13.5L41.9225 13.5L41.9225 12.5L39.9397 12.5L39.9397 13.5ZM43.9052 13.5L45.888 13.5L45.888 12.5L43.9052 12.5L43.9052 13.5ZM47.8707 13.5L49.8535 13.5L49.8535 12.5L47.8707 12.5L47.8707 13.5ZM51.8362 13.5L53.819 13.5L53.819 12.5L51.8362 12.5L51.8362 13.5ZM55.8018 13.5L57.7845 13.5L57.7845 12.5L55.8018 12.5L55.8018 13.5ZM59.7673 13.5L61.75 13.5L61.75 12.5L59.7673 12.5L59.7673 13.5ZM63.7328 13.5L65.7156 13.5L65.7156 12.5L63.7328 12.5L63.7328 13.5ZM67.6983 13.5L69.6811 13.5L69.6811 12.5L67.6983 12.5L67.6983 13.5ZM71.6638 13.5L73.6466 13.5L73.6466 12.5L71.6638 12.5L71.6638 13.5ZM75.6293 13.5L77.6121 13.5L77.6121 12.5L75.6293 12.5L75.6293 13.5ZM79.5949 13.5L81.5776 13.5L81.5776 12.5L79.5949 12.5L79.5949 13.5ZM83.5604 13.5L85.5431 13.5L85.5431 12.5L83.5604 12.5L83.5604 13.5ZM87.5259 13.5L89.5086 13.5L89.5086 12.5L87.5259 12.5L87.5259 13.5ZM91.4914 13.5L93.4742 13.5L93.4742 12.5L91.4914 12.5L91.4914 13.5ZM95.4569 13.5L97.4397 13.5L97.4397 12.5L95.4569 12.5L95.4569 13.5ZM99.4224 13.5L101.405 13.5L101.405 12.5L99.4224 12.5L99.4224 13.5ZM103.388 13.5L105.371 13.5L105.371 12.5L103.388 12.5L103.388 13.5ZM107.353 13.5L109.336 13.5L109.336 12.5L107.353 12.5L107.353 13.5ZM111.319 13.5L113.302 13.5L113.302 12.5L111.319 12.5L111.319 13.5ZM115.284 13.5L117.267 13.5L117.267 12.5L115.284 12.5L115.284 13.5ZM119.25 13.5L121.233 13.5L121.233 12.5L119.25 12.5L119.25 13.5ZM123.216 13.5L125.198 13.5L125.198 12.5L123.216 12.5L123.216 13.5ZM127.181 13.5L129.164 13.5L129.164 12.5L127.181 12.5L127.181 13.5ZM131.147 13.5L133.129 13.5L133.129 12.5L131.147 12.5L131.147 13.5ZM135.112 13.5L137.095 13.5L137.095 12.5L135.112 12.5L135.112 13.5ZM139.078 13.5L141.06 13.5L141.06 12.5L139.078 12.5L139.078 13.5ZM143.043 13.5L145.026 13.5L145.026 12.5L143.043 12.5L143.043 13.5ZM147.009 13.5L148 13.5L148 12.5L147.009 12.5L147.009 13.5ZM147.5 13L147.5 13.9375L148.5 13.9375L148.5 13L147.5 13ZM147.5 15.8125L147.5 17.6875L148.5 17.6875L148.5 15.8125L147.5 15.8125ZM147.5 19.5625L147.5 21.4375L148.5 21.4375L148.5 19.5625L147.5 19.5625ZM147.5 23.3125L147.5 25.1875L148.5 25.1875L148.5 23.3125L147.5 23.3125ZM147.5 27.0625L147.5 28L148.5 28L148.5 27.0625L147.5 27.0625Z" fill="#0066FF"/>
<path d="M60 95L60 94.5L59.5 94.5L59.5 95L60 95ZM181 95L181 95.5L181.5 95.5L181.5 95L181 95ZM181 32L181.5 32L181.5 31.5L181 31.5L181 32ZM152.777 31.6464C152.582 31.8417 152.582 32.1583 152.777 32.3536L155.959 35.5355C156.154 35.7308 156.471 35.7308 156.666 35.5355C156.861 35.3403 156.861 35.0237 156.666 34.8284L153.838 32L156.666 29.1716C156.861 28.9763 156.861 28.6597 156.666 28.4645C156.471 28.2692 156.154 28.2692 155.959 28.4645L152.777 31.6464ZM153.13 32.5L154.126 32.5L154.126 31.5L153.13 31.5L153.13 32.5ZM156.116 32.5L158.107 32.5L158.107 31.5L156.116 31.5L156.116 32.5ZM160.098 32.5L162.089 32.5L162.089 31.5L160.098 31.5L160.098 32.5ZM164.079 32.5L166.07 32.5L166.07 31.5L164.079 31.5L164.079 32.5ZM168.061 32.5L170.051 32.5L170.051 31.5L168.061 31.5L168.061 32.5ZM172.042 32.5L174.033 32.5L174.033 31.5L172.042 31.5L172.042 32.5ZM176.023 32.5L178.014 32.5L178.014 31.5L176.023 31.5L176.023 32.5ZM180.005 32.5L181 32.5L181 31.5L180.005 31.5L180.005 32.5ZM180.5 32L180.5 32.9844L181.5 32.9844L181.5 32L180.5 32ZM180.5 34.9531L180.5 36.9219L181.5 36.9219L181.5 34.9531L180.5 34.9531ZM180.5 38.8906L180.5 40.8594L181.5 40.8594L181.5 38.8906L180.5 38.8906ZM180.5 42.8281L180.5 44.7969L181.5 44.7969L181.5 42.8281L180.5 42.8281ZM180.5 46.7656L180.5 48.7344L181.5 48.7344L181.5 46.7656L180.5 46.7656ZM180.5 50.7031L180.5 52.6719L181.5 52.6719L181.5 50.7031L180.5 50.7031ZM180.5 54.6406L180.5 56.6094L181.5 56.6094L181.5 54.6406L180.5 54.6406ZM180.5 58.5781L180.5 60.5469L181.5 60.5469L181.5 58.5781L180.5 58.5781ZM180.5 62.5156L180.5 64.4844L181.5 64.4844L181.5 62.5156L180.5 62.5156ZM180.5 66.4531L180.5 68.4219L181.5 68.4219L181.5 66.4531L180.5 66.4531ZM180.5 70.3906L180.5 72.3594L181.5 72.3594L181.5 70.3906L180.5 70.3906ZM180.5 74.3281L180.5 76.2969L181.5 76.2969L181.5 74.3281L180.5 74.3281ZM180.5 78.2656L180.5 80.2344L181.5 80.2344L181.5 78.2656L180.5 78.2656ZM180.5 82.2031L180.5 84.1719L181.5 84.1719L181.5 82.2031L180.5 82.2031ZM180.5 86.1406L180.5 88.1094L181.5 88.1094L181.5 86.1406L180.5 86.1406ZM180.5 90.0781L180.5 92.0469L181.5 92.0469L181.5 90.0781L180.5 90.0781ZM180.5 94.0156L180.5 95L181.5 95L181.5 94.0156L180.5 94.0156ZM181 94.5L179.992 94.5L179.992 95.5L181 95.5L181 94.5ZM177.975 94.5L175.958 94.5L175.958 95.5L177.975 95.5L177.975 94.5ZM173.942 94.5L171.925 94.5L171.925 95.5L173.942 95.5L173.942 94.5ZM169.908 94.5L167.892 94.5L167.892 95.5L169.908 95.5L169.908 94.5ZM165.875 94.5L163.858 94.5L163.858 95.5L165.875 95.5L165.875 94.5ZM161.842 94.5L159.825 94.5L159.825 95.5L161.842 95.5L161.842 94.5ZM157.808 94.5L155.792 94.5L155.792 95.5L157.808 95.5L157.808 94.5ZM153.775 94.5L151.758 94.5L151.758 95.5L153.775 95.5L153.775 94.5ZM149.742 94.5L147.725 94.5L147.725 95.5L149.742 95.5L149.742 94.5ZM145.708 94.5L143.692 94.5L143.692 95.5L145.708 95.5L145.708 94.5ZM141.675 94.5L139.658 94.5L139.658 95.5L141.675 95.5L141.675 94.5ZM137.642 94.5L135.625 94.5L135.625 95.5L137.642 95.5L137.642 94.5ZM133.608 94.5L131.592 94.5L131.592 95.5L133.608 95.5L133.608 94.5ZM129.575 94.5L127.558 94.5L127.558 95.5L129.575 95.5L129.575 94.5ZM125.542 94.5L123.525 94.5L123.525 95.5L125.542 95.5L125.542 94.5ZM121.508 94.5L119.492 94.5L119.492 95.5L121.508 95.5L121.508 94.5ZM117.475 94.5L115.458 94.5L115.458 95.5L117.475 95.5L117.475 94.5ZM113.442 94.5L111.425 94.5L111.425 95.5L113.442 95.5L113.442 94.5ZM109.408 94.5L107.392 94.5L107.392 95.5L109.408 95.5L109.408 94.5ZM105.375 94.5L103.358 94.5L103.358 95.5L105.375 95.5L105.375 94.5ZM101.342 94.5L99.325 94.5L99.325 95.5L101.342 95.5L101.342 94.5ZM97.3083 94.5L95.2917 94.5L95.2917 95.5L97.3083 95.5L97.3083 94.5ZM93.275 94.5L91.2583 94.5L91.2583 95.5L93.275 95.5L93.275 94.5ZM89.2417 94.5L87.225 94.5L87.225 95.5L89.2417 95.5L89.2417 94.5ZM85.2084 94.5L83.1917 94.5L83.1917 95.5L85.2084 95.5L85.2084 94.5ZM81.175 94.5L79.1584 94.5L79.1584 95.5L81.175 95.5L81.175 94.5ZM77.1417 94.5L75.125 94.5L75.125 95.5L77.1417 95.5L77.1417 94.5ZM73.1084 94.5L71.0917 94.5L71.0917 95.5L73.1084 95.5L73.1084 94.5ZM69.0751 94.5L67.0584 94.5L67.0584 95.5L69.0751 95.5L69.0751 94.5ZM65.0417 94.5L63.0251 94.5L63.0251 95.5L65.0417 95.5L65.0417 94.5ZM61.0084 94.5L60 94.5L60 95.5L61.0084 95.5L61.0084 94.5ZM59.5 95L59.5 96.0833L60.5 96.0833L60.5 95L59.5 95ZM59.5 98.25L59.5 100.417L60.5 100.417L60.5 98.25L59.5 98.25ZM59.5 102.583L59.5 104.75L60.5 104.75L60.5 102.583L59.5 102.583ZM59.5 106.917L59.5 108L60.5 108L60.5 106.917L59.5 106.917Z" fill="#0066FF"/>
</g>
<defs>
<filter id="filter0_d_419_5288" x="-2" y="-8" width="224" height="172" filterUnits="userSpaceOnUse" color-interpolation-filters="sRGB">
<feFlood flood-opacity="0" result="BackgroundImageFix"/>
<feColorMatrix in="SourceAlpha" type="matrix" values="0 0 0 0 0 0 0 0 0 0 0 0 0 0 0 0 0 0 127 0" result="hardAlpha"/>
<feOffset dy="4"/>
<feGaussianBlur stdDeviation="6"/>
<feComposite in2="hardAlpha" operator="out"/>
<feColorMatrix type="matrix" values="0 0 0 0 0 0 0 0 0 0 0 0 0 0 0 0 0 0 0.08 0"/>
<feBlend mode="normal" in2="BackgroundImageFix" result="effect1_dropShadow_419_5288"/>
<feBlend mode="normal" in="SourceGraphic" in2="effect1_dropShadow_419_5288" result="shape"/>
</filter>
<clipPath id="clip0_419_5288">
<rect width="220" height="148" fill="white"/>
</clipPath>
</defs>
</svg>
