<svg width="220" height="148" viewBox="0 0 220 148" fill="none" xmlns="http://www.w3.org/2000/svg">
<g clip-path="url(#clip0_419_4923)">
<g filter="url(#filter0_d_419_4923)">
<rect x="10" width="200" height="148" fill="white"/>
</g>
<rect x="50" y="43" width="27" height="3" fill="#CFD9E0"/>
<rect x="50" y="53" width="42" height="3" fill="#CFD9E0"/>
<rect x="50" y="48" width="32" height="3" fill="#CFD9E0"/>
<rect x="50" y="58" width="32" height="3" fill="#CFD9E0"/>
<rect x="81" y="43" width="12" height="3" fill="#CFD9E0"/>
<rect x="96" y="53" width="9" height="3" fill="#CFD9E0"/>
<rect x="86" y="48" width="41" height="3" fill="#CFD9E0"/>
<rect x="86" y="58" width="41" height="3" fill="#CFD9E0"/>
<rect x="109" y="53" width="35" height="3" fill="#CFD9E0"/>
<rect x="131" y="48" width="8" height="3" fill="#CFD9E0"/>
<rect x="131" y="58" width="8" height="3" fill="#CFD9E0"/>
<rect x="143" y="48" width="22" height="3" fill="#CFD9E0"/>
<rect x="143" y="58" width="22" height="3" fill="#CFD9E0"/>
<rect x="50" y="103" width="27" height="3" fill="#CFD9E0"/>
<rect x="50" y="113" width="42" height="3" fill="#CFD9E0"/>
<rect x="50" y="108" width="32" height="3" fill="#CFD9E0"/>
<rect x="50" y="118" width="32" height="3" fill="#CFD9E0"/>
<rect x="81" y="103" width="12" height="3" fill="#CFD9E0"/>
<rect x="96" y="113" width="9" height="3" fill="#CFD9E0"/>
<rect x="86" y="108" width="41" height="3" fill="#CFD9E0"/>
<rect x="86" y="118" width="41" height="3" fill="#CFD9E0"/>
<rect x="109" y="113" width="35" height="3" fill="#CFD9E0"/>
<rect x="131" y="108" width="8" height="3" fill="#CFD9E0"/>
<rect x="131" y="118" width="8" height="3" fill="#CFD9E0"/>
<rect x="143" y="108" width="22" height="3" fill="#CFD9E0"/>
<rect x="143" y="118" width="22" height="3" fill="#CFD9E0"/>
<rect x="49" y="26" width="70" height="5" fill="#0B2239"/>
<rect x="49" y="86" width="56" height="5" fill="#0B2239"/>
<rect x="50" y="73" width="120" height="1" fill="#CFD9E0"/>
<path d="M156.6 29C156.6 27.86 157.527 26.9333 158.667 26.9333H161.333V25.6666H158.667C156.827 25.6666 155.333 27.16 155.333 29C155.333 30.84 156.827 32.3333 158.667 32.3333H161.333V31.0666H158.667C157.527 31.0666 156.6 30.14 156.6 29ZM159.333 29.6666H164.667V28.3333H159.333V29.6666ZM165.333 25.6666H162.667V26.9333H165.333C166.473 26.9333 167.4 27.86 167.4 29C167.4 30.14 166.473 31.0666 165.333 31.0666H162.667V32.3333H165.333C167.173 32.3333 168.667 30.84 168.667 29C168.667 27.16 167.173 25.6666 165.333 25.6666Z" fill="#0066FF"/>
<path d="M156.6 89C156.6 87.86 157.527 86.9333 158.667 86.9333H161.333V85.6666H158.667C156.827 85.6666 155.333 87.16 155.333 89C155.333 90.84 156.827 92.3333 158.667 92.3333H161.333V91.0666H158.667C157.527 91.0666 156.6 90.14 156.6 89ZM159.333 89.6666H164.667V88.3333H159.333V89.6666ZM165.333 85.6666H162.667V86.9333H165.333C166.473 86.9333 167.4 87.86 167.4 89C167.4 90.14 166.473 91.0666 165.333 91.0666H162.667V92.3333H165.333C167.173 92.3333 168.667 90.84 168.667 89C168.667 87.16 167.173 85.6666 165.333 85.6666Z" fill="#0066FF"/>
</g>
<defs>
<filter id="filter0_d_419_4923" x="-2" y="-8" width="224" height="172" filterUnits="userSpaceOnUse" color-interpolation-filters="sRGB">
<feFlood flood-opacity="0" result="BackgroundImageFix"/>
<feColorMatrix in="SourceAlpha" type="matrix" values="0 0 0 0 0 0 0 0 0 0 0 0 0 0 0 0 0 0 127 0" result="hardAlpha"/>
<feOffset dy="4"/>
<feGaussianBlur stdDeviation="6"/>
<feComposite in2="hardAlpha" operator="out"/>
<feColorMatrix type="matrix" values="0 0 0 0 0 0 0 0 0 0 0 0 0 0 0 0 0 0 0.08 0"/>
<feBlend mode="normal" in2="BackgroundImageFix" result="effect1_dropShadow_419_4923"/>
<feBlend mode="normal" in="SourceGraphic" in2="effect1_dropShadow_419_4923" result="shape"/>
</filter>
<clipPath id="clip0_419_4923">
<rect width="220" height="148" fill="white"/>
</clipPath>
</defs>
</svg>
