<svg width="220" height="148" viewBox="0 0 220 148" fill="none" xmlns="http://www.w3.org/2000/svg">
<g clip-path="url(#clip0_242_3736)">
<g filter="url(#filter0_d_242_3736)">
<rect x="10" y="16" width="200" height="132" fill="white"/>
</g>
<rect x="58" y="76" width="69" height="3" fill="#CFD9E0"/>
<rect x="135" y="76" width="27" height="3" fill="#0066FF"/>
<rect x="75" y="83" width="27" height="3" fill="#0066FF"/>
<rect x="110" y="83" width="35" height="3" fill="#CFD9E0"/>
<rect x="93" y="90" width="35" height="3" fill="#CFD9E0"/>
<rect x="156" y="26" width="14" height="3" fill="#CFD9E0"/>
<rect x="136" y="26" width="14" height="3" fill="#CFD9E0"/>
<rect x="116" y="26" width="14" height="3" fill="#CFD9E0"/>
<rect x="96" y="26" width="14" height="3" fill="#CFD9E0"/>
<rect x="68" y="106" width="44" height="10" fill="#0066FF"/>
<rect x="78.353" y="110" width="23.2941" height="2" fill="white"/>
<rect x="119.5" y="106.5" width="33" height="9" stroke="#0066FF"/>
<rect x="127" y="110" width="18" height="2" fill="#0066FF"/>
<path d="M85.0674 66H83.4561V62.6484H80.314V66H78.7026V58.1797H80.314V61.3486H83.4561V58.1797H85.0674V66ZM89.0527 66.1074C88.2005 66.1074 87.5059 65.846 86.9688 65.3232C86.4352 64.8005 86.1685 64.104 86.1685 63.2339V63.0835C86.1685 62.4998 86.2812 61.9788 86.5068 61.5205C86.7324 61.0586 87.0511 60.7041 87.4629 60.457C87.8783 60.2064 88.3509 60.0811 88.8809 60.0811C89.6758 60.0811 90.3006 60.3317 90.7554 60.833C91.2137 61.3343 91.4429 62.0451 91.4429 62.9653V63.5991H87.7422C87.7923 63.9787 87.9427 64.283 88.1934 64.5122C88.4476 64.7414 88.7681 64.856 89.1548 64.856C89.7528 64.856 90.2201 64.6393 90.5566 64.2061L91.3193 65.0601C91.0866 65.3895 90.7715 65.6473 90.374 65.8335C89.9766 66.0161 89.5361 66.1074 89.0527 66.1074ZM88.8755 61.3379C88.5675 61.3379 88.3169 61.4417 88.1235 61.6494C87.9338 61.8571 87.812 62.1543 87.7583 62.541H89.9175V62.4175C89.9103 62.0737 89.8172 61.8088 89.6382 61.6226C89.4591 61.4328 89.2049 61.3379 88.8755 61.3379ZM95.5947 61.644C95.3835 61.6154 95.1973 61.6011 95.0361 61.6011C94.4489 61.6011 94.064 61.7998 93.8813 62.1973V66H92.3291V60.1885H93.7954L93.8384 60.8813C94.1499 60.3478 94.5814 60.0811 95.1328 60.0811C95.3047 60.0811 95.4658 60.1043 95.6162 60.1509L95.5947 61.644ZM95.9116 63.0405C95.9116 62.464 96.0226 61.9502 96.2446 61.499C96.4666 61.0479 96.7853 60.6987 97.2007 60.4517C97.6196 60.2046 98.1048 60.0811 98.6562 60.0811C99.4404 60.0811 100.08 60.321 100.574 60.8008C101.071 61.2806 101.349 61.9323 101.406 62.7559L101.417 63.1533C101.417 64.0449 101.168 64.7611 100.67 65.3018C100.173 65.8389 99.5049 66.1074 98.667 66.1074C97.8291 66.1074 97.1595 65.8389 96.6582 65.3018C96.1605 64.7646 95.9116 64.0342 95.9116 63.1104V63.0405ZM97.4639 63.1533C97.4639 63.7048 97.5677 64.1273 97.7754 64.4209C97.9831 64.7109 98.2803 64.856 98.667 64.856C99.043 64.856 99.3366 64.7127 99.5479 64.4263C99.7591 64.1362 99.8647 63.6743 99.8647 63.0405C99.8647 62.4998 99.7591 62.0809 99.5479 61.7837C99.3366 61.4865 99.0394 61.3379 98.6562 61.3379C98.2767 61.3379 97.9831 61.4865 97.7754 61.7837C97.5677 62.0773 97.4639 62.5339 97.4639 63.1533ZM109.27 63.9482C109.27 63.6439 109.162 63.4111 108.947 63.25C108.732 63.0853 108.346 62.9134 107.787 62.7344C107.229 62.5518 106.786 62.3727 106.46 62.1973C105.572 61.7174 105.128 61.0711 105.128 60.2583C105.128 59.8358 105.247 59.4598 105.483 59.1304C105.723 58.7974 106.065 58.5378 106.509 58.3516C106.956 58.1654 107.458 58.0723 108.013 58.0723C108.571 58.0723 109.069 58.1743 109.506 58.3784C109.943 58.5789 110.281 58.8636 110.521 59.2324C110.764 59.6012 110.886 60.0202 110.886 60.4893H109.275C109.275 60.1312 109.162 59.8537 108.937 59.6567C108.711 59.4562 108.394 59.356 107.986 59.356C107.592 59.356 107.286 59.4401 107.067 59.6084C106.849 59.7731 106.74 59.9915 106.74 60.2637C106.74 60.5179 106.867 60.731 107.121 60.9028C107.379 61.0747 107.757 61.2358 108.254 61.3862C109.171 61.6619 109.839 62.0039 110.258 62.4121C110.677 62.8203 110.886 63.3288 110.886 63.9375C110.886 64.6143 110.63 65.146 110.118 65.5327C109.606 65.9159 108.917 66.1074 108.05 66.1074C107.449 66.1074 106.901 65.9982 106.407 65.7798C105.913 65.5578 105.535 65.2552 105.273 64.8721C105.016 64.4889 104.887 64.0449 104.887 63.54H106.503C106.503 64.403 107.019 64.8345 108.05 64.8345C108.433 64.8345 108.732 64.7575 108.947 64.6035C109.162 64.446 109.27 64.2275 109.27 63.9482ZM114.555 66.1074C113.702 66.1074 113.008 65.846 112.471 65.3232C111.937 64.8005 111.67 64.104 111.67 63.2339V63.0835C111.67 62.4998 111.783 61.9788 112.009 61.5205C112.234 61.0586 112.553 60.7041 112.965 60.457C113.38 60.2064 113.853 60.0811 114.383 60.0811C115.178 60.0811 115.803 60.3317 116.257 60.833C116.716 61.3343 116.945 62.0451 116.945 62.9653V63.5991H113.244C113.294 63.9787 113.445 64.283 113.695 64.5122C113.95 64.7414 114.27 64.856 114.657 64.856C115.255 64.856 115.722 64.6393 116.059 64.2061L116.821 65.0601C116.589 65.3895 116.273 65.6473 115.876 65.8335C115.479 66.0161 115.038 66.1074 114.555 66.1074ZM114.377 61.3379C114.069 61.3379 113.819 61.4417 113.625 61.6494C113.436 61.8571 113.314 62.1543 113.26 62.541H115.419V62.4175C115.412 62.0737 115.319 61.8088 115.14 61.6226C114.961 61.4328 114.707 61.3379 114.377 61.3379ZM120.248 64.856C120.535 64.856 120.767 64.7772 120.946 64.6196C121.125 64.4621 121.218 64.2526 121.226 63.9912H122.681C122.678 64.3851 122.57 64.7467 122.359 65.0762C122.148 65.402 121.858 65.6562 121.489 65.8389C121.124 66.0179 120.719 66.1074 120.275 66.1074C119.444 66.1074 118.789 65.8442 118.309 65.3179C117.829 64.7879 117.589 64.0575 117.589 63.1265V63.0244C117.589 62.1292 117.827 61.4149 118.304 60.8813C118.78 60.3478 119.433 60.0811 120.264 60.0811C120.991 60.0811 121.573 60.2887 122.01 60.7041C122.45 61.1159 122.674 61.6655 122.681 62.353H121.226C121.218 62.0522 121.125 61.8088 120.946 61.6226C120.767 61.4328 120.531 61.3379 120.237 61.3379C119.876 61.3379 119.602 61.4704 119.416 61.7354C119.233 61.9967 119.142 62.4229 119.142 63.0137V63.1748C119.142 63.7728 119.233 64.2025 119.416 64.4639C119.598 64.7253 119.876 64.856 120.248 64.856ZM125.426 58.7598V60.1885H126.419V61.3271H125.426V64.2275C125.426 64.4424 125.467 64.5964 125.549 64.6895C125.632 64.7826 125.789 64.8291 126.022 64.8291C126.194 64.8291 126.346 64.8166 126.479 64.7915V65.9678C126.174 66.0609 125.861 66.1074 125.539 66.1074C124.45 66.1074 123.895 65.5578 123.874 64.4585V61.3271H123.025V60.1885H123.874V58.7598H125.426ZM128.922 66H127.365V60.1885H128.922V66ZM127.273 58.6846C127.273 58.4518 127.35 58.2603 127.504 58.1099C127.662 57.9595 127.875 57.8843 128.144 57.8843C128.409 57.8843 128.62 57.9595 128.777 58.1099C128.935 58.2603 129.014 58.4518 129.014 58.6846C129.014 58.9209 128.933 59.1143 128.772 59.2646C128.614 59.415 128.405 59.4902 128.144 59.4902C127.882 59.4902 127.671 59.415 127.51 59.2646C127.352 59.1143 127.273 58.9209 127.273 58.6846ZM129.964 63.0405C129.964 62.464 130.075 61.9502 130.297 61.499C130.519 61.0479 130.838 60.6987 131.253 60.4517C131.672 60.2046 132.158 60.0811 132.709 60.0811C133.493 60.0811 134.132 60.321 134.626 60.8008C135.124 61.2806 135.402 61.9323 135.459 62.7559L135.47 63.1533C135.47 64.0449 135.221 64.7611 134.723 65.3018C134.225 65.8389 133.558 66.1074 132.72 66.1074C131.882 66.1074 131.212 65.8389 130.711 65.3018C130.213 64.7646 129.964 64.0342 129.964 63.1104V63.0405ZM131.517 63.1533C131.517 63.7048 131.62 64.1273 131.828 64.4209C132.036 64.7109 132.333 64.856 132.72 64.856C133.096 64.856 133.389 64.7127 133.601 64.4263C133.812 64.1362 133.917 63.6743 133.917 63.0405C133.917 62.4998 133.812 62.0809 133.601 61.7837C133.389 61.4865 133.092 61.3379 132.709 61.3379C132.329 61.3379 132.036 61.4865 131.828 61.7837C131.62 62.0773 131.517 62.5339 131.517 63.1533ZM137.854 60.1885L137.903 60.8599C138.318 60.3407 138.875 60.0811 139.573 60.0811C140.189 60.0811 140.647 60.2619 140.948 60.6235C141.249 60.9852 141.403 61.5259 141.41 62.2456V66H139.858V62.2832C139.858 61.9538 139.786 61.7157 139.643 61.5688C139.5 61.4185 139.262 61.3433 138.929 61.3433C138.492 61.3433 138.164 61.5295 137.946 61.9019V66H136.394V60.1885H137.854Z" fill="#0B2239"/>
<circle cx="53.5" cy="27.5" r="3.5" fill="#CFD9E0"/>
</g>
<defs>
<filter id="filter0_d_242_3736" x="-2" y="8" width="224" height="156" filterUnits="userSpaceOnUse" color-interpolation-filters="sRGB">
<feFlood flood-opacity="0" result="BackgroundImageFix"/>
<feColorMatrix in="SourceAlpha" type="matrix" values="0 0 0 0 0 0 0 0 0 0 0 0 0 0 0 0 0 0 127 0" result="hardAlpha"/>
<feOffset dy="4"/>
<feGaussianBlur stdDeviation="6"/>
<feComposite in2="hardAlpha" operator="out"/>
<feColorMatrix type="matrix" values="0 0 0 0 0 0 0 0 0 0 0 0 0 0 0 0 0 0 0.08 0"/>
<feBlend mode="normal" in2="BackgroundImageFix" result="effect1_dropShadow_242_3736"/>
<feBlend mode="normal" in="SourceGraphic" in2="effect1_dropShadow_242_3736" result="shape"/>
</filter>
<clipPath id="clip0_242_3736">
<rect width="220" height="148" fill="white"/>
</clipPath>
</defs>
</svg>
