<svg width="220" height="148" viewBox="0 0 220 148" fill="none" xmlns="http://www.w3.org/2000/svg">
<g filter="url(#filter0_d_143_4497)">
<rect x="41" y="34" width="138" height="80" fill="white"/>
</g>
<rect opacity="0.3" x="71" y="79" width="78" height="4" fill="#0066FF"/>
<rect x="71" y="79" width="56" height="4" fill="#0066FF"/>
<path d="M84.498 64H82.8867V56.1797H84.498V64ZM87.3232 58.1885L87.3716 58.8599C87.7869 58.3407 88.3438 58.0811 89.042 58.0811C89.6579 58.0811 90.1162 58.2619 90.417 58.6235C90.7178 58.9852 90.8717 59.5259 90.8789 60.2456V64H89.3267V60.2832C89.3267 59.9538 89.255 59.7157 89.1118 59.5688C88.9686 59.4185 88.7305 59.3433 88.3975 59.3433C87.9606 59.3433 87.633 59.5295 87.4146 59.9019V64H85.8623V58.1885H87.3232ZM100.031 61.1479C100.031 62.0431 99.8271 62.7611 99.4189 63.3018C99.0143 63.8389 98.4665 64.1074 97.7754 64.1074C97.1882 64.1074 96.7137 63.9033 96.3521 63.4951V66.2344H94.7998V58.1885H96.2393L96.293 58.7578C96.6689 58.3066 97.1595 58.0811 97.7646 58.0811C98.4808 58.0811 99.0376 58.346 99.4351 58.876C99.8325 59.4059 100.031 60.1364 100.031 61.0674V61.1479ZM98.479 61.0352C98.479 60.4945 98.3823 60.0773 98.189 59.7837C97.9992 59.4901 97.7217 59.3433 97.3564 59.3433C96.8695 59.3433 96.5347 59.5295 96.3521 59.9019V62.2812C96.5418 62.6644 96.8802 62.856 97.3672 62.856C98.1084 62.856 98.479 62.249 98.479 61.0352ZM104.264 59.644C104.052 59.6154 103.866 59.6011 103.705 59.6011C103.118 59.6011 102.733 59.7998 102.55 60.1973V64H100.998V58.1885H102.464L102.507 58.8813C102.819 58.3478 103.25 58.0811 103.802 58.0811C103.974 58.0811 104.135 58.1043 104.285 58.1509L104.264 59.644ZM104.581 61.0405C104.581 60.464 104.692 59.9502 104.914 59.499C105.136 59.0479 105.454 58.6987 105.87 58.4517C106.289 58.2046 106.774 58.0811 107.325 58.0811C108.109 58.0811 108.749 58.321 109.243 58.8008C109.74 59.2806 110.018 59.9323 110.075 60.7559L110.086 61.1533C110.086 62.0449 109.837 62.7611 109.339 63.3018C108.842 63.8389 108.174 64.1074 107.336 64.1074C106.498 64.1074 105.828 63.8389 105.327 63.3018C104.829 62.7646 104.581 62.0342 104.581 61.1104V61.0405ZM106.133 61.1533C106.133 61.7048 106.237 62.1273 106.444 62.4209C106.652 62.7109 106.949 62.856 107.336 62.856C107.712 62.856 108.006 62.7127 108.217 62.4263C108.428 62.1362 108.534 61.6743 108.534 61.0405C108.534 60.4998 108.428 60.0809 108.217 59.7837C108.006 59.4865 107.708 59.3379 107.325 59.3379C106.946 59.3379 106.652 59.4865 106.444 59.7837C106.237 60.0773 106.133 60.5339 106.133 61.1533ZM110.816 61.0513C110.816 60.1597 111.028 59.4417 111.45 58.8975C111.876 58.3532 112.449 58.0811 113.169 58.0811C113.806 58.0811 114.302 58.2995 114.657 58.7363L114.721 58.1885H116.128V63.8066C116.128 64.3151 116.012 64.7573 115.779 65.1333C115.55 65.5093 115.226 65.7957 114.807 65.9927C114.388 66.1896 113.898 66.2881 113.335 66.2881C112.909 66.2881 112.494 66.2021 112.089 66.0303C111.685 65.862 111.379 65.6436 111.171 65.375L111.858 64.4297C112.245 64.863 112.714 65.0796 113.266 65.0796C113.677 65.0796 113.998 64.9686 114.227 64.7466C114.456 64.5282 114.571 64.2166 114.571 63.812V63.5005C114.213 63.9051 113.742 64.1074 113.158 64.1074C112.46 64.1074 111.894 63.8353 111.461 63.291C111.031 62.7432 110.816 62.0181 110.816 61.1157V61.0513ZM112.369 61.1641C112.369 61.6904 112.474 62.104 112.686 62.4048C112.897 62.702 113.187 62.8506 113.556 62.8506C114.028 62.8506 114.367 62.6733 114.571 62.3188V59.875C114.363 59.5205 114.028 59.3433 113.566 59.3433C113.194 59.3433 112.9 59.4954 112.686 59.7998C112.474 60.1042 112.369 60.5589 112.369 61.1641ZM120.592 59.644C120.381 59.6154 120.194 59.6011 120.033 59.6011C119.446 59.6011 119.061 59.7998 118.878 60.1973V64H117.326V58.1885H118.792L118.835 58.8813C119.147 58.3478 119.578 58.0811 120.13 58.0811C120.302 58.0811 120.463 58.1043 120.613 58.1509L120.592 59.644ZM123.911 64.1074C123.059 64.1074 122.364 63.846 121.827 63.3232C121.294 62.8005 121.027 62.104 121.027 61.2339V61.0835C121.027 60.4998 121.14 59.9788 121.365 59.5205C121.591 59.0586 121.91 58.7041 122.321 58.457C122.737 58.2064 123.209 58.0811 123.739 58.0811C124.534 58.0811 125.159 58.3317 125.614 58.833C126.072 59.3343 126.301 60.0451 126.301 60.9653V61.5991H122.601C122.651 61.9787 122.801 62.283 123.052 62.5122C123.306 62.7414 123.626 62.856 124.013 62.856C124.611 62.856 125.078 62.6393 125.415 62.2061L126.178 63.0601C125.945 63.3895 125.63 63.6473 125.232 63.8335C124.835 64.0161 124.395 64.1074 123.911 64.1074ZM123.734 59.3379C123.426 59.3379 123.175 59.4417 122.982 59.6494C122.792 59.8571 122.67 60.1543 122.617 60.541H124.776V60.4175C124.769 60.0737 124.676 59.8088 124.497 59.6226C124.318 59.4328 124.063 59.3379 123.734 59.3379ZM130.335 62.394C130.335 62.2043 130.24 62.0557 130.05 61.9482C129.864 61.8372 129.563 61.7388 129.148 61.6528C127.766 61.3628 127.075 60.7756 127.075 59.8911C127.075 59.3755 127.288 58.9458 127.714 58.6021C128.144 58.2547 128.704 58.0811 129.395 58.0811C130.133 58.0811 130.722 58.2547 131.162 58.6021C131.606 58.9494 131.828 59.4006 131.828 59.9556H130.276C130.276 59.7336 130.204 59.5509 130.061 59.4077C129.918 59.2609 129.694 59.1875 129.39 59.1875C129.128 59.1875 128.926 59.2466 128.783 59.3647C128.639 59.4829 128.568 59.6333 128.568 59.8159C128.568 59.9878 128.648 60.1274 128.81 60.2349C128.974 60.3387 129.25 60.43 129.637 60.5088C130.023 60.584 130.349 60.6699 130.614 60.7666C131.434 61.0674 131.844 61.5884 131.844 62.3296C131.844 62.8595 131.617 63.2892 131.162 63.6187C130.707 63.9445 130.12 64.1074 129.4 64.1074C128.913 64.1074 128.48 64.0215 128.101 63.8496C127.725 63.6742 127.429 63.436 127.214 63.1353C127 62.8309 126.892 62.5033 126.892 62.1523H128.364C128.378 62.4281 128.48 62.6393 128.67 62.7861C128.86 62.9329 129.114 63.0063 129.433 63.0063C129.73 63.0063 129.954 62.9508 130.104 62.8398C130.258 62.7253 130.335 62.5767 130.335 62.394ZM135.996 62.394C135.996 62.2043 135.901 62.0557 135.711 61.9482C135.525 61.8372 135.224 61.7388 134.809 61.6528C133.427 61.3628 132.736 60.7756 132.736 59.8911C132.736 59.3755 132.949 58.9458 133.375 58.6021C133.805 58.2547 134.365 58.0811 135.056 58.0811C135.794 58.0811 136.383 58.2547 136.823 58.6021C137.267 58.9494 137.489 59.4006 137.489 59.9556H135.937C135.937 59.7336 135.865 59.5509 135.722 59.4077C135.579 59.2609 135.355 59.1875 135.051 59.1875C134.789 59.1875 134.587 59.2466 134.444 59.3647C134.301 59.4829 134.229 59.6333 134.229 59.8159C134.229 59.9878 134.31 60.1274 134.471 60.2349C134.635 60.3387 134.911 60.43 135.298 60.5088C135.685 60.584 136.01 60.6699 136.275 60.7666C137.095 61.0674 137.505 61.5884 137.505 62.3296C137.505 62.8595 137.278 63.2892 136.823 63.6187C136.368 63.9445 135.781 64.1074 135.062 64.1074C134.575 64.1074 134.141 64.0215 133.762 63.8496C133.386 63.6742 133.09 63.436 132.875 63.1353C132.661 62.8309 132.553 62.5033 132.553 62.1523H134.025C134.039 62.4281 134.141 62.6393 134.331 62.7861C134.521 62.9329 134.775 63.0063 135.094 63.0063C135.391 63.0063 135.615 62.9508 135.765 62.8398C135.919 62.7253 135.996 62.5767 135.996 62.394Z" fill="#0B2239"/>
<defs>
<filter id="filter0_d_143_4497" x="29" y="26" width="162" height="104" filterUnits="userSpaceOnUse" color-interpolation-filters="sRGB">
<feFlood flood-opacity="0" result="BackgroundImageFix"/>
<feColorMatrix in="SourceAlpha" type="matrix" values="0 0 0 0 0 0 0 0 0 0 0 0 0 0 0 0 0 0 127 0" result="hardAlpha"/>
<feOffset dy="4"/>
<feGaussianBlur stdDeviation="6"/>
<feComposite in2="hardAlpha" operator="out"/>
<feColorMatrix type="matrix" values="0 0 0 0 0 0 0 0 0 0 0 0 0 0 0 0 0 0 0.08 0"/>
<feBlend mode="normal" in2="BackgroundImageFix" result="effect1_dropShadow_143_4497"/>
<feBlend mode="normal" in="SourceGraphic" in2="effect1_dropShadow_143_4497" result="shape"/>
</filter>
</defs>
</svg>
