<svg width="220" height="148" viewBox="0 0 220 148" fill="none" xmlns="http://www.w3.org/2000/svg">
<g clip-path="url(#clip0_349_4118)">
<g filter="url(#filter0_d_349_4118)">
<rect x="10" y="16" width="200" height="132" fill="white"/>
</g>
<g clip-path="url(#clip1_349_4118)">
<rect width="56" height="31.5" transform="translate(112 120)" fill="#F0FBFF"/>
<path d="M138.07 151.413H167.913V142.845L150.704 125.649L138.07 139.162V151.413Z" fill="#E3E3E3"/>
<path fill-rule="evenodd" clip-rule="evenodd" d="M168.422 151.922H137.561V138.961L150.692 124.916L168.422 142.634V151.922ZM167.913 142.845V151.413H138.07V139.162L150.704 125.649L167.913 142.845Z" fill="black"/>
<path d="M147.788 128.794L150.728 125.512L157.063 132.031L153.103 129.152L152.082 131.022L150.382 128.539L148.783 130.036L147.788 128.794Z" fill="white"/>
<path fill-rule="evenodd" clip-rule="evenodd" d="M150.713 124.766L161.568 135.937L153.272 129.904L152.132 131.995L150.297 129.316L148.73 130.783L147.121 128.775L150.713 124.766ZM150.382 128.54L152.083 131.022L153.103 129.152L157.063 132.031L150.728 125.512L147.788 128.794L148.783 130.036L150.382 128.54Z" fill="black"/>
<path d="M157.981 151.412L138.268 131.725L118.737 151.412H128.537H157.981Z" fill="#F0F0F0"/>
<path fill-rule="evenodd" clip-rule="evenodd" d="M138.266 131.004L159.211 151.922H117.515L138.266 131.004ZM138.268 131.725L118.737 151.413H157.981L138.268 131.725Z" fill="black"/>
<path d="M135.98 149.894L119.306 147.021L112.044 150.275V151.456H167.956V147.431L157.568 149.894L147.712 144.588L135.98 149.894Z" fill="#A8F2C5"/>
<path fill-rule="evenodd" clip-rule="evenodd" d="M147.722 144.304L157.604 149.624L168.211 147.109V151.711H111.79V150.11L119.273 146.757L135.947 149.63L147.722 144.304ZM147.702 144.871L136.014 150.158L119.34 147.285L112.299 150.44V151.202H167.702V147.753L157.533 150.164L147.702 144.871Z" fill="black"/>
<path d="M123.813 127.569C123.813 129.429 122.305 130.938 120.444 130.938C118.583 130.938 117.075 129.429 117.075 127.569C117.075 125.708 118.583 124.2 120.444 124.2C122.305 124.2 123.813 125.708 123.813 127.569Z" fill="#FFC107"/>
<path fill-rule="evenodd" clip-rule="evenodd" d="M120.444 130.428C122.023 130.428 123.304 129.148 123.304 127.569C123.304 125.989 122.023 124.709 120.444 124.709C118.865 124.709 117.584 125.989 117.584 127.569C117.584 129.148 118.865 130.428 120.444 130.428ZM120.444 130.938C122.305 130.938 123.813 129.429 123.813 127.569C123.813 125.708 122.305 124.2 120.444 124.2C118.583 124.2 117.075 125.708 117.075 127.569C117.075 129.429 118.583 130.938 120.444 130.938Z" fill="black"/>
<path fill-rule="evenodd" clip-rule="evenodd" d="M167.491 120.509H112.509V150.991H167.491V120.509ZM112 120V151.5H168V120H112Z" fill="black"/>
</g>
<rect x="58" y="65" width="69" height="3" fill="#CFD9E0"/>
<rect x="135" y="65" width="27" height="3" fill="#CFD9E0"/>
<rect x="75" y="72" width="27" height="3" fill="#CFD9E0"/>
<rect x="110" y="72" width="35" height="3" fill="#CFD9E0"/>
<rect x="156" y="26" width="14" height="3" fill="#CFD9E0"/>
<rect x="136" y="26" width="14" height="3" fill="#CFD9E0"/>
<rect x="116" y="26" width="14" height="3" fill="#CFD9E0"/>
<rect x="96" y="26" width="14" height="3" fill="#0066FF"/>
<rect x="96" y="32" width="14" height="1" fill="#0066FF"/>
<rect x="88" y="83" width="44" height="10" fill="#0066FF"/>
<rect x="98.353" y="87" width="23.2941" height="2" fill="white"/>
<path d="M79.8257 50.4849H77.4302V57H75.8188V50.4849H73.4556V49.1797H79.8257V50.4849ZM82.2856 57H80.728V51.1885H82.2856V57ZM80.6367 49.6846C80.6367 49.4518 80.7137 49.2603 80.8677 49.1099C81.0252 48.9595 81.2383 48.8843 81.5068 48.8843C81.7718 48.8843 81.9831 48.9595 82.1406 49.1099C82.2982 49.2603 82.377 49.4518 82.377 49.6846C82.377 49.9209 82.2964 50.1143 82.1353 50.2646C81.9777 50.415 81.7682 50.4902 81.5068 50.4902C81.2454 50.4902 81.0342 50.415 80.873 50.2646C80.7155 50.1143 80.6367 49.9209 80.6367 49.6846ZM85.4277 49.7598V51.1885H86.4214V52.3271H85.4277V55.2275C85.4277 55.4424 85.4689 55.5964 85.5513 55.6895C85.6336 55.7826 85.7912 55.8291 86.0239 55.8291C86.1958 55.8291 86.348 55.8166 86.4805 55.7915V56.9678C86.1761 57.0609 85.8628 57.1074 85.5405 57.1074C84.452 57.1074 83.897 56.5578 83.8755 55.4585V52.3271H83.0269V51.1885H83.8755V49.7598H85.4277ZM88.9243 57H87.3667V48.75H88.9243V57ZM92.8828 57.1074C92.0306 57.1074 91.3359 56.846 90.7988 56.3232C90.2653 55.8005 89.9985 55.104 89.9985 54.2339V54.0835C89.9985 53.4998 90.1113 52.9788 90.3369 52.5205C90.5625 52.0586 90.8812 51.7041 91.293 51.457C91.7083 51.2064 92.181 51.0811 92.7109 51.0811C93.5059 51.0811 94.1307 51.3317 94.5854 51.833C95.0438 52.3343 95.2729 53.0451 95.2729 53.9653V54.5991H91.5723C91.6224 54.9787 91.7728 55.283 92.0234 55.5122C92.2777 55.7414 92.5981 55.856 92.9849 55.856C93.5828 55.856 94.0501 55.6393 94.3867 55.2061L95.1494 56.0601C94.9167 56.3895 94.6016 56.6473 94.2041 56.8335C93.8066 57.0161 93.3662 57.1074 92.8828 57.1074ZM92.7056 52.3379C92.3976 52.3379 92.147 52.4417 91.9536 52.6494C91.7638 52.8571 91.6421 53.1543 91.5884 53.541H93.7476V53.4175C93.7404 53.0737 93.6473 52.8088 93.4683 52.6226C93.2892 52.4328 93.035 52.3379 92.7056 52.3379ZM98.6567 54.0405C98.6567 53.464 98.7677 52.9502 98.9897 52.499C99.2118 52.0479 99.5304 51.6987 99.9458 51.4517C100.365 51.2046 100.85 51.0811 101.401 51.0811C102.186 51.0811 102.825 51.321 103.319 51.8008C103.817 52.2806 104.094 52.9323 104.151 53.7559L104.162 54.1533C104.162 55.0449 103.913 55.7611 103.416 56.3018C102.918 56.8389 102.25 57.1074 101.412 57.1074C100.574 57.1074 99.9046 56.8389 99.4033 56.3018C98.9056 55.7646 98.6567 55.0342 98.6567 54.1104V54.0405ZM100.209 54.1533C100.209 54.7048 100.313 55.1273 100.521 55.4209C100.728 55.7109 101.025 55.856 101.412 55.856C101.788 55.856 102.082 55.7127 102.293 55.4263C102.504 55.1362 102.61 54.6743 102.61 54.0405C102.61 53.4998 102.504 53.0809 102.293 52.7837C102.082 52.4865 101.785 52.3379 101.401 52.3379C101.022 52.3379 100.728 52.4865 100.521 52.7837C100.313 53.0773 100.209 53.5339 100.209 54.1533ZM105.542 57V52.3271H104.678V51.1885H105.542V50.6943C105.542 50.0426 105.729 49.5378 106.101 49.1797C106.477 48.818 107.002 48.6372 107.675 48.6372C107.89 48.6372 108.153 48.673 108.464 48.7446L108.448 49.9478C108.319 49.9155 108.162 49.8994 107.976 49.8994C107.392 49.8994 107.1 50.1733 107.1 50.7212V51.1885H108.255V52.3271H107.1V57H105.542ZM113.438 57H111.88V48.75H113.438V57ZM118.089 57C118.018 56.8604 117.966 56.6867 117.934 56.479C117.558 56.8979 117.069 57.1074 116.467 57.1074C115.898 57.1074 115.425 56.9427 115.049 56.6133C114.677 56.2839 114.491 55.8685 114.491 55.3672C114.491 54.7513 114.718 54.2786 115.173 53.9492C115.631 53.6198 116.292 53.4533 117.155 53.4497H117.869V53.1167C117.869 52.8481 117.799 52.6333 117.66 52.4722C117.524 52.311 117.307 52.2305 117.01 52.2305C116.748 52.2305 116.542 52.2931 116.392 52.4185C116.245 52.5438 116.172 52.7157 116.172 52.9341H114.62C114.62 52.5975 114.723 52.286 114.931 51.9995C115.139 51.7131 115.432 51.4893 115.812 51.3281C116.192 51.1634 116.618 51.0811 117.09 51.0811C117.806 51.0811 118.374 51.2619 118.793 51.6235C119.215 51.9816 119.427 52.4865 119.427 53.1382V55.6572C119.43 56.2087 119.507 56.6258 119.658 56.9087V57H118.089ZM116.806 55.9204C117.035 55.9204 117.246 55.8703 117.439 55.77C117.633 55.6662 117.776 55.5283 117.869 55.3564V54.3574H117.289C116.512 54.3574 116.098 54.626 116.048 55.1631L116.043 55.2544C116.043 55.4478 116.111 55.6071 116.247 55.7324C116.383 55.8577 116.569 55.9204 116.806 55.9204ZM122.048 51.1885L122.096 51.8599C122.512 51.3407 123.068 51.0811 123.767 51.0811C124.382 51.0811 124.841 51.2619 125.142 51.6235C125.442 51.9852 125.596 52.5259 125.604 53.2456V57H124.051V53.2832C124.051 52.9538 123.98 52.7157 123.836 52.5688C123.693 52.4185 123.455 52.3433 123.122 52.3433C122.685 52.3433 122.358 52.5295 122.139 52.9019V57H120.587V51.1885H122.048ZM126.543 54.0513C126.543 53.1453 126.746 52.4238 127.15 51.8867C127.559 51.3496 128.115 51.0811 128.821 51.0811C129.387 51.0811 129.854 51.2923 130.223 51.7148V48.75H131.78V57H130.378L130.303 56.3823C129.917 56.8657 129.419 57.1074 128.81 57.1074C128.126 57.1074 127.576 56.8389 127.161 56.3018C126.749 55.7611 126.543 55.0109 126.543 54.0513ZM128.096 54.1641C128.096 54.7083 128.191 55.1255 128.38 55.4155C128.57 55.7056 128.846 55.8506 129.208 55.8506C129.687 55.8506 130.026 55.6483 130.223 55.2437V52.9502C130.029 52.5456 129.694 52.3433 129.218 52.3433C128.47 52.3433 128.096 52.9502 128.096 54.1641ZM134.622 57H133.064V51.1885H134.622V57ZM132.973 49.6846C132.973 49.4518 133.05 49.2603 133.204 49.1099C133.361 48.9595 133.574 48.8843 133.843 48.8843C134.108 48.8843 134.319 48.9595 134.477 49.1099C134.634 49.2603 134.713 49.4518 134.713 49.6846C134.713 49.9209 134.632 50.1143 134.471 50.2646C134.314 50.415 134.104 50.4902 133.843 50.4902C133.581 50.4902 133.37 50.415 133.209 50.2646C133.051 50.1143 132.973 49.9209 132.973 49.6846ZM137.334 51.1885L137.382 51.8599C137.798 51.3407 138.354 51.0811 139.053 51.0811C139.669 51.0811 140.127 51.2619 140.428 51.6235C140.729 51.9852 140.882 52.5259 140.89 53.2456V57H139.337V53.2832C139.337 52.9538 139.266 52.7157 139.123 52.5688C138.979 52.4185 138.741 52.3433 138.408 52.3433C137.971 52.3433 137.644 52.5295 137.425 52.9019V57H135.873V51.1885H137.334ZM141.846 54.0513C141.846 53.1597 142.057 52.4417 142.479 51.8975C142.906 51.3532 143.479 51.0811 144.198 51.0811C144.836 51.0811 145.332 51.2995 145.686 51.7363L145.75 51.1885H147.158V56.8066C147.158 57.3151 147.041 57.7573 146.809 58.1333C146.579 58.5093 146.255 58.7957 145.836 58.9927C145.417 59.1896 144.927 59.2881 144.365 59.2881C143.939 59.2881 143.523 59.2021 143.119 59.0303C142.714 58.862 142.408 58.6436 142.2 58.375L142.888 57.4297C143.274 57.863 143.743 58.0796 144.295 58.0796C144.707 58.0796 145.027 57.9686 145.256 57.7466C145.486 57.5282 145.6 57.2166 145.6 56.812V56.5005C145.242 56.9051 144.771 57.1074 144.188 57.1074C143.489 57.1074 142.924 56.8353 142.49 56.291C142.061 55.7432 141.846 55.0181 141.846 54.1157V54.0513ZM143.398 54.1641C143.398 54.6904 143.504 55.104 143.715 55.4048C143.926 55.702 144.216 55.8506 144.585 55.8506C145.058 55.8506 145.396 55.6733 145.6 55.3188V52.875C145.392 52.5205 145.058 52.3433 144.596 52.3433C144.223 52.3433 143.93 52.4954 143.715 52.7998C143.504 53.1042 143.398 53.5589 143.398 54.1641Z" fill="#0B2239"/>
<circle cx="51.5" cy="27.5" r="3.5" fill="#CFD9E0"/>
<rect x="10" y="108" width="200" height="0.999965" fill="#CFD9E0"/>
<rect x="48" y="133" width="27" height="3" fill="#CFD9E0"/>
<rect x="48" y="143" width="31" height="3" fill="#CFD9E0"/>
<rect x="48" y="138" width="40" height="3" fill="#CFD9E0"/>
<rect x="79" y="133" width="26" height="3" fill="#CFD9E0"/>
<rect x="83" y="143" width="9" height="3" fill="#CFD9E0"/>
<rect x="92" y="138" width="8" height="3" fill="#CFD9E0"/>
<rect x="48" y="126" width="25" height="3" fill="#0B2239"/>
</g>
<defs>
<filter id="filter0_d_349_4118" x="-2" y="8" width="224" height="156" filterUnits="userSpaceOnUse" color-interpolation-filters="sRGB">
<feFlood flood-opacity="0" result="BackgroundImageFix"/>
<feColorMatrix in="SourceAlpha" type="matrix" values="0 0 0 0 0 0 0 0 0 0 0 0 0 0 0 0 0 0 127 0" result="hardAlpha"/>
<feOffset dy="4"/>
<feGaussianBlur stdDeviation="6"/>
<feComposite in2="hardAlpha" operator="out"/>
<feColorMatrix type="matrix" values="0 0 0 0 0 0 0 0 0 0 0 0 0 0 0 0 0 0 0.08 0"/>
<feBlend mode="normal" in2="BackgroundImageFix" result="effect1_dropShadow_349_4118"/>
<feBlend mode="normal" in="SourceGraphic" in2="effect1_dropShadow_349_4118" result="shape"/>
</filter>
<clipPath id="clip0_349_4118">
<rect width="220" height="148" fill="white"/>
</clipPath>
<clipPath id="clip1_349_4118">
<rect width="56" height="31.5" fill="white" transform="translate(112 120)"/>
</clipPath>
</defs>
</svg>
