<svg width="220" height="148" viewBox="0 0 220 148" fill="none" xmlns="http://www.w3.org/2000/svg">
<g clip-path="url(#clip0_419_5167)">
<g filter="url(#filter0_d_419_5167)">
<rect x="10" width="200" height="148" fill="white"/>
</g>
<rect opacity="0.15" x="46" y="69" width="128" height="26" fill="#0066FF"/>
<rect x="50" y="52" width="27" height="3" fill="#CFD9E0"/>
<rect x="50" y="62" width="42" height="3" fill="#CFD9E0"/>
<rect x="50" y="57" width="16" height="3" fill="#CFD9E0"/>
<rect x="81" y="52" width="12" height="3" fill="#CFD9E0"/>
<rect x="70" y="57" width="12" height="3" fill="#CFD9E0"/>
<rect x="97" y="52" width="21" height="3" fill="#CFD9E0"/>
<rect x="96" y="62" width="9" height="3" fill="#CFD9E0"/>
<rect x="86" y="57" width="41" height="3" fill="#CFD9E0"/>
<rect x="122" y="52" width="8" height="3" fill="#CFD9E0"/>
<rect x="109" y="62" width="35" height="3" fill="#CFD9E0"/>
<rect x="131" y="57" width="8" height="3" fill="#CFD9E0"/>
<rect x="134" y="52" width="30" height="3" fill="#CFD9E0"/>
<rect x="148" y="62" width="22" height="3" fill="#CFD9E0"/>
<rect x="143" y="57" width="11" height="3" fill="#CFD9E0"/>
<rect x="50" y="99" width="27" height="3" fill="#CFD9E0"/>
<rect x="50" y="109" width="42" height="3" fill="#CFD9E0"/>
<rect x="50" y="104" width="16" height="3" fill="#CFD9E0"/>
<rect x="81" y="99" width="12" height="3" fill="#CFD9E0"/>
<rect x="70" y="104" width="12" height="3" fill="#CFD9E0"/>
<rect x="97" y="99" width="21" height="3" fill="#CFD9E0"/>
<rect x="96" y="109" width="9" height="3" fill="#CFD9E0"/>
<rect x="86" y="104" width="41" height="3" fill="#CFD9E0"/>
<rect x="122" y="99" width="8" height="3" fill="#CFD9E0"/>
<rect x="109" y="109" width="35" height="3" fill="#CFD9E0"/>
<rect x="131" y="104" width="8" height="3" fill="#CFD9E0"/>
<rect x="134" y="99" width="30" height="3" fill="#CFD9E0"/>
<rect x="148" y="109" width="22" height="3" fill="#CFD9E0"/>
<rect x="143" y="104" width="11" height="3" fill="#CFD9E0"/>
<rect x="50" y="73" width="27" height="3" fill="#CFD9E0"/>
<rect x="50" y="83" width="42" height="3" fill="#CFD9E0"/>
<rect x="50" y="78" width="32" height="3" fill="#CFD9E0"/>
<rect x="50" y="88" width="32" height="3" fill="#CFD9E0"/>
<rect x="81" y="73" width="12" height="3" fill="#CFD9E0"/>
<rect x="96" y="83" width="9" height="3" fill="#CFD9E0"/>
<rect x="86" y="78" width="41" height="3" fill="#CFD9E0"/>
<rect x="86" y="88" width="41" height="3" fill="#CFD9E0"/>
<rect x="109" y="83" width="35" height="3" fill="#CFD9E0"/>
<rect x="131" y="78" width="8" height="3" fill="#CFD9E0"/>
<rect x="131" y="88" width="8" height="3" fill="#CFD9E0"/>
<rect x="143" y="78" width="22" height="3" fill="#CFD9E0"/>
<rect x="143" y="88" width="22" height="3" fill="#CFD9E0"/>
<rect x="50" y="35" width="76" height="5" fill="#0B2239"/>
</g>
<defs>
<filter id="filter0_d_419_5167" x="-2" y="-8" width="224" height="172" filterUnits="userSpaceOnUse" color-interpolation-filters="sRGB">
<feFlood flood-opacity="0" result="BackgroundImageFix"/>
<feColorMatrix in="SourceAlpha" type="matrix" values="0 0 0 0 0 0 0 0 0 0 0 0 0 0 0 0 0 0 127 0" result="hardAlpha"/>
<feOffset dy="4"/>
<feGaussianBlur stdDeviation="6"/>
<feComposite in2="hardAlpha" operator="out"/>
<feColorMatrix type="matrix" values="0 0 0 0 0 0 0 0 0 0 0 0 0 0 0 0 0 0 0.08 0"/>
<feBlend mode="normal" in2="BackgroundImageFix" result="effect1_dropShadow_419_5167"/>
<feBlend mode="normal" in="SourceGraphic" in2="effect1_dropShadow_419_5167" result="shape"/>
</filter>
<clipPath id="clip0_419_5167">
<rect width="220" height="148" fill="white"/>
</clipPath>
</defs>
</svg>
