<svg width="220" height="148" viewBox="0 0 220 148" fill="none" xmlns="http://www.w3.org/2000/svg">
<g clip-path="url(#clip0_353_4467)">
<g filter="url(#filter0_d_353_4467)">
<rect x="10" y="16" width="200" height="132" fill="white"/>
</g>
<rect x="156" y="26" width="14" height="3" fill="#CFD9E0"/>
<rect x="136" y="26" width="14" height="3" fill="#0066FF"/>
<rect x="116" y="26" width="14" height="3" fill="#CFD9E0"/>
<rect x="96" y="26" width="14" height="3" fill="#CFD9E0"/>
<rect x="136" y="32" width="14" height="1" fill="#0066FF"/>
<path d="M94.7354 50.2446V53H93.124V45.1797H96.1748C96.762 45.1797 97.2777 45.2871 97.7217 45.502C98.1693 45.7168 98.513 46.0229 98.7529 46.4204C98.9928 46.8143 99.1128 47.2637 99.1128 47.7686C99.1128 48.5348 98.8496 49.14 98.3232 49.584C97.8005 50.0244 97.0754 50.2446 96.1479 50.2446H94.7354ZM94.7354 48.9395H96.1748C96.6009 48.9395 96.925 48.8392 97.147 48.6387C97.3726 48.4382 97.4854 48.1517 97.4854 47.7793C97.4854 47.3962 97.3726 47.0864 97.147 46.8501C96.9214 46.6138 96.6099 46.492 96.2124 46.4849H94.7354V48.9395ZM103.388 48.644C103.177 48.6154 102.991 48.6011 102.83 48.6011C102.242 48.6011 101.857 48.7998 101.675 49.1973V53H100.123V47.1885H101.589L101.632 47.8813C101.943 47.3478 102.375 47.0811 102.926 47.0811C103.098 47.0811 103.259 47.1043 103.41 47.1509L103.388 48.644ZM105.778 53H104.221V47.1885H105.778V53ZM104.129 45.6846C104.129 45.4518 104.206 45.2603 104.36 45.1099C104.518 44.9595 104.731 44.8843 105 44.8843C105.264 44.8843 105.476 44.9595 105.633 45.1099C105.791 45.2603 105.87 45.4518 105.87 45.6846C105.87 45.9209 105.789 46.1143 105.628 46.2646C105.47 46.415 105.261 46.4902 105 46.4902C104.738 46.4902 104.527 46.415 104.366 46.2646C104.208 46.1143 104.129 45.9209 104.129 45.6846ZM109.479 51.856C109.765 51.856 109.998 51.7772 110.177 51.6196C110.356 51.4621 110.449 51.2526 110.457 50.9912H111.912C111.909 51.3851 111.801 51.7467 111.59 52.0762C111.379 52.402 111.089 52.6562 110.72 52.8389C110.354 53.0179 109.95 53.1074 109.506 53.1074C108.675 53.1074 108.02 52.8442 107.54 52.3179C107.06 51.7879 106.82 51.0575 106.82 50.1265V50.0244C106.82 49.1292 107.058 48.4149 107.535 47.8813C108.011 47.3478 108.664 47.0811 109.495 47.0811C110.222 47.0811 110.804 47.2887 111.241 47.7041C111.681 48.1159 111.905 48.6655 111.912 49.353H110.457C110.449 49.0522 110.356 48.8088 110.177 48.6226C109.998 48.4328 109.762 48.3379 109.468 48.3379C109.107 48.3379 108.833 48.4704 108.646 48.7354C108.464 48.9967 108.373 49.4229 108.373 50.0137V50.1748C108.373 50.7728 108.464 51.2025 108.646 51.4639C108.829 51.7253 109.107 51.856 109.479 51.856ZM114.437 53H112.879V47.1885H114.437V53ZM112.788 45.6846C112.788 45.4518 112.865 45.2603 113.019 45.1099C113.176 44.9595 113.389 44.8843 113.658 44.8843C113.923 44.8843 114.134 44.9595 114.292 45.1099C114.449 45.2603 114.528 45.4518 114.528 45.6846C114.528 45.9209 114.447 46.1143 114.286 46.2646C114.129 46.415 113.919 46.4902 113.658 46.4902C113.396 46.4902 113.185 46.415 113.024 46.2646C112.866 46.1143 112.788 45.9209 112.788 45.6846ZM117.149 47.1885L117.197 47.8599C117.613 47.3407 118.169 47.0811 118.868 47.0811C119.484 47.0811 119.942 47.2619 120.243 47.6235C120.543 47.9852 120.697 48.5259 120.705 49.2456V53H119.152V49.2832C119.152 48.9538 119.081 48.7157 118.938 48.5688C118.794 48.4185 118.556 48.3433 118.223 48.3433C117.786 48.3433 117.459 48.5295 117.24 48.9019V53H115.688V47.1885H117.149ZM121.661 50.0513C121.661 49.1597 121.872 48.4417 122.294 47.8975C122.721 47.3532 123.293 47.0811 124.013 47.0811C124.651 47.0811 125.146 47.2995 125.501 47.7363L125.565 47.1885H126.973V52.8066C126.973 53.3151 126.856 53.7573 126.624 54.1333C126.394 54.5093 126.07 54.7957 125.651 54.9927C125.232 55.1896 124.742 55.2881 124.18 55.2881C123.754 55.2881 123.338 55.2021 122.934 55.0303C122.529 54.862 122.223 54.6436 122.015 54.375L122.703 53.4297C123.089 53.863 123.558 54.0796 124.11 54.0796C124.522 54.0796 124.842 53.9686 125.071 53.7466C125.3 53.5282 125.415 53.2166 125.415 52.812V52.5005C125.057 52.9051 124.586 53.1074 124.002 53.1074C123.304 53.1074 122.738 52.8353 122.305 52.291C121.875 51.7432 121.661 51.0181 121.661 50.1157V50.0513ZM123.213 50.1641C123.213 50.6904 123.319 51.104 123.53 51.4048C123.741 51.702 124.031 51.8506 124.4 51.8506C124.873 51.8506 125.211 51.6733 125.415 51.3188V48.875C125.207 48.5205 124.873 48.3433 124.411 48.3433C124.038 48.3433 123.745 48.4954 123.53 48.7998C123.319 49.1042 123.213 49.5589 123.213 50.1641Z" fill="#0B2239"/>
<circle cx="53.5" cy="27.5" r="3.5" fill="#CFD9E0"/>
<rect x="50.5" y="71.5" width="43" height="61" fill="white" stroke="#CFD9E0"/>
<rect x="56" y="102" width="19" height="3" fill="#CFD9E0"/>
<rect x="56" y="123" width="12" height="3" fill="#CFD9E0"/>
<rect x="56" y="109" width="30" height="3" fill="#CFD9E0"/>
<rect x="56" y="116" width="24" height="3" fill="#CFD9E0"/>
<rect x="61" y="88" width="21" height="3" fill="#0B2239"/>
<rect x="65" y="79" width="13" height="3" fill="#CFD9E0"/>
<rect x="126.5" y="71.5" width="43" height="61" fill="white" stroke="#CFD9E0"/>
<rect x="132" y="102" width="19" height="3" fill="#CFD9E0"/>
<rect x="132" y="123" width="12" height="3" fill="#CFD9E0"/>
<rect x="132" y="109" width="30" height="3" fill="#CFD9E0"/>
<rect x="132" y="116" width="24" height="3" fill="#CFD9E0"/>
<rect x="137" y="88" width="21" height="3" fill="#0B2239"/>
<rect x="141" y="79" width="13" height="3" fill="#CFD9E0"/>
<rect x="84.5" y="67.5" width="51" height="69" fill="white" stroke="#0066FF"/>
<rect x="94" y="102" width="19" height="3" fill="#CFD9E0"/>
<rect x="94" y="123" width="12" height="3" fill="#CFD9E0"/>
<rect x="94" y="109" width="30" height="3" fill="#CFD9E0"/>
<rect x="94" y="116" width="24" height="3" fill="#CFD9E0"/>
<rect x="97" y="88" width="25" height="3" fill="#0066FF"/>
<rect x="103" y="79" width="13" height="3" fill="#0066FF"/>
</g>
<defs>
<filter id="filter0_d_353_4467" x="-2" y="8" width="224" height="156" filterUnits="userSpaceOnUse" color-interpolation-filters="sRGB">
<feFlood flood-opacity="0" result="BackgroundImageFix"/>
<feColorMatrix in="SourceAlpha" type="matrix" values="0 0 0 0 0 0 0 0 0 0 0 0 0 0 0 0 0 0 127 0" result="hardAlpha"/>
<feOffset dy="4"/>
<feGaussianBlur stdDeviation="6"/>
<feComposite in2="hardAlpha" operator="out"/>
<feColorMatrix type="matrix" values="0 0 0 0 0 0 0 0 0 0 0 0 0 0 0 0 0 0 0.08 0"/>
<feBlend mode="normal" in2="BackgroundImageFix" result="effect1_dropShadow_353_4467"/>
<feBlend mode="normal" in="SourceGraphic" in2="effect1_dropShadow_353_4467" result="shape"/>
</filter>
<clipPath id="clip0_353_4467">
<rect width="220" height="148" fill="white"/>
</clipPath>
</defs>
</svg>
