<svg width="220" height="148" viewBox="0 0 220 148" fill="none" xmlns="http://www.w3.org/2000/svg">
<g filter="url(#filter0_d_385_4553)">
<rect x="40" y="34" width="140" height="81" fill="white"/>
</g>
<rect x="113" y="93" width="30" height="10" fill="#0066FF"/>
<rect x="120.059" y="97" width="15.8824" height="2" fill="white"/>
<rect x="113" y="59" width="32" height="3" fill="#CFD9E0"/>
<rect x="113" y="73" width="47" height="3" fill="#CFD9E0"/>
<rect x="113" y="66" width="23" height="3" fill="#CFD9E0"/>
<rect x="113" y="80" width="28" height="3" fill="#CFD9E0"/>
<rect x="113" y="46" width="36" height="3" fill="#0B2239"/>
<rect x="56.5" y="46.5" width="40" height="43" fill="#F0FBFF" stroke="#0B2239"/>
<g clip-path="url(#clip0_385_4553)">
<mask id="path-10-inside-1_385_4553" fill="white">
<path d="M83.1 65.9C81.2 62.8 81.35 57.55 76.4 57.55C71.45 57.55 71.95 62.8 70.1 65.9C68.75 68.15 66 71.2 66 74.5C66 85.85 87.25 85.85 87.25 74.5C87.2 71.2 84.45 68.15 83.1 65.9"/>
</mask>
<path d="M83.1 65.9C81.2 62.8 81.35 57.55 76.4 57.55C71.45 57.55 71.95 62.8 70.1 65.9C68.75 68.15 66 71.2 66 74.5C66 85.85 87.25 85.85 87.25 74.5C87.2 71.2 84.45 68.15 83.1 65.9" fill="#CED74D"/>
<path d="M70.1 65.9L70.9575 66.4145L70.9587 66.4125L70.1 65.9ZM87.25 74.5H88.25V74.4925L88.2499 74.4849L87.25 74.5ZM83.9526 65.3775C83.5379 64.7009 83.2206 63.8813 82.8897 62.9521C82.571 62.057 82.2338 61.0404 81.7947 60.1286C81.3502 59.2056 80.7602 58.2965 79.8729 57.6225C78.9668 56.9343 77.829 56.55 76.4 56.55V58.55C77.446 58.55 78.1457 58.8221 78.6631 59.2151C79.1992 59.6223 79.6186 60.2195 79.9928 60.9965C80.3724 61.7847 80.6634 62.6618 81.0056 63.623C81.3357 64.55 81.7121 65.5492 82.2474 66.4226L83.9526 65.3775ZM76.4 56.55C74.9717 56.55 73.8454 56.9343 72.9641 57.6369C72.1031 58.3233 71.5618 59.2461 71.1677 60.1703C70.7795 61.0805 70.4917 62.1032 70.2144 62.9887C69.925 63.913 69.6381 64.7226 69.2413 65.3876L70.9587 66.4125C71.4869 65.5275 71.8312 64.5184 72.1231 63.5864C72.427 62.6156 72.6705 61.7446 73.0073 60.9548C73.3382 60.179 73.7156 59.5956 74.2109 59.2007C74.6859 58.822 75.3533 58.55 76.4 58.55V56.55ZM69.2425 65.3856C68.9244 65.9158 68.5209 66.4977 68.0647 67.1641C67.6168 67.8183 67.129 68.5387 66.6817 69.2994C65.7953 70.8069 65 72.582 65 74.5H67C67 73.1181 67.5797 71.7182 68.4058 70.3132C68.8147 69.6176 69.2676 68.9474 69.715 68.2939C70.1541 67.6524 70.6006 67.0093 70.9575 66.4145L69.2425 65.3856ZM65 74.5C65 77.6959 66.5144 80.1138 68.7402 81.699C70.9363 83.263 73.8077 84.0126 76.625 84.0126C79.4423 84.0126 82.3137 83.263 84.5098 81.699C86.7356 80.1138 88.25 77.6959 88.25 74.5H86.25C86.25 76.9792 85.1081 78.8175 83.3496 80.0699C81.5613 81.3434 79.1202 82.0126 76.625 82.0126C74.1298 82.0126 71.6887 81.3434 69.9004 80.0699C68.1419 78.8175 67 76.9792 67 74.5H65ZM88.2499 74.4849C88.2209 72.5727 87.4147 70.8023 86.5229 69.2967C86.0729 68.537 85.584 67.8172 85.1356 67.1634C84.6791 66.4977 84.2755 65.9155 83.9575 65.3856L82.2425 66.4145C82.5995 67.0096 83.0459 67.6524 83.4862 68.2945C83.9347 68.9485 84.3896 69.6194 84.8021 70.3159C85.6353 71.7228 86.2291 73.1274 86.2501 74.5152L88.2499 74.4849Z" fill="#0B2239" mask="url(#path-10-inside-1_385_4553)"/>
<path d="M81.101 53.7036C82.6116 53.5283 84.4966 53.9613 85.7848 54.8103C85.1523 55.5312 83.884 56.6698 81.4834 56.9742C79.5393 57.2035 77.877 56.8419 76.7077 55.8126C77.8559 54.5431 79.3975 53.8788 81.0945 53.7044L81.0945 53.7044L81.101 53.7036Z" fill="#8CC63E" stroke="#0B2239"/>
<rect x="76" y="52" width="1" height="6" fill="#0B2239"/>
</g>
<defs>
<filter id="filter0_d_385_4553" x="28" y="26" width="164" height="105" filterUnits="userSpaceOnUse" color-interpolation-filters="sRGB">
<feFlood flood-opacity="0" result="BackgroundImageFix"/>
<feColorMatrix in="SourceAlpha" type="matrix" values="0 0 0 0 0 0 0 0 0 0 0 0 0 0 0 0 0 0 127 0" result="hardAlpha"/>
<feOffset dy="4"/>
<feGaussianBlur stdDeviation="6"/>
<feComposite in2="hardAlpha" operator="out"/>
<feColorMatrix type="matrix" values="0 0 0 0 0 0 0 0 0 0 0 0 0 0 0 0 0 0 0.08 0"/>
<feBlend mode="normal" in2="BackgroundImageFix" result="effect1_dropShadow_385_4553"/>
<feBlend mode="normal" in="SourceGraphic" in2="effect1_dropShadow_385_4553" result="shape"/>
</filter>
<clipPath id="clip0_385_4553">
<rect width="32" height="32" fill="white" transform="translate(61 52)"/>
</clipPath>
</defs>
</svg>
