<svg width="381" height="191" viewBox="0 0 381 191" fill="none" xmlns="http://www.w3.org/2000/svg">
<rect width="381" height="191" fill="#F7F9FA"/>
<g opacity="0.3">
<g filter="url(#filter0_d_646_6159)">
<rect x="104.468" y="30.9729" width="172.065" height="130.345" fill="white"/>
</g>
<rect x="151.171" y="46.4595" width="52.8484" height="3.87162" fill="#0B2239"/>
<rect x="208.936" y="46.4595" width="29.4968" height="3.87162" fill="#0B2239"/>
<g clip-path="url(#clip0_646_6159)">
<rect width="116.758" height="68.3986" transform="translate(143.797 85.1755)" fill="#F0FBFF"/>
<path d="M198.151 153.384H260.373V134.782L224.494 97.4407L198.151 126.784V153.384Z" fill="#E3E3E3"/>
<path fill-rule="evenodd" clip-rule="evenodd" d="M261.434 154.49H197.09V126.348L224.468 95.8511L261.434 134.324V154.49ZM260.373 134.782V153.384H198.151V126.784L224.494 97.4408L260.373 134.782Z" fill="black"/>
<path d="M218.413 104.27L224.543 97.1453L237.751 111.3L229.495 105.047L227.368 109.109L223.822 103.718L220.489 106.968L218.413 104.27Z" fill="white"/>
<path fill-rule="evenodd" clip-rule="evenodd" d="M224.512 95.5254L247.144 119.78L229.848 106.682L227.471 111.222L223.645 105.405L220.378 108.59L217.022 104.23L224.512 95.5254ZM223.822 103.718L227.368 109.109L229.495 105.047L237.751 111.3L224.544 97.1453L218.413 104.27L220.489 106.968L223.822 103.718Z" fill="black"/>
<path d="M239.666 153.384L198.564 110.635L157.844 153.384H178.276H239.666Z" fill="#F0F0F0"/>
<path fill-rule="evenodd" clip-rule="evenodd" d="M198.561 109.069L242.231 154.49H155.296L198.561 109.069ZM198.564 110.635L157.844 153.384H239.666L198.564 110.635Z" fill="black"/>
<path d="M193.795 150.087L159.031 143.849L143.889 150.914V153.479H260.464V144.739L238.805 150.087L218.255 138.564L193.795 150.087Z" fill="#A8F2C5"/>
<path fill-rule="evenodd" clip-rule="evenodd" d="M218.275 137.948L238.878 149.501L260.995 144.04V154.032H143.357V150.556L158.961 143.276L193.724 149.514L218.275 137.948ZM218.234 139.181L193.865 150.661L159.1 144.423L144.419 151.272V152.927H259.933V145.438L238.731 150.674L218.234 139.181Z" fill="black"/>
<path d="M168.425 101.611C168.425 105.65 165.281 108.925 161.402 108.925C157.522 108.925 154.378 105.65 154.378 101.611C154.378 97.5703 157.522 94.2954 161.402 94.2954C165.281 94.2954 168.425 97.5703 168.425 101.611Z" fill="#FFC107"/>
<path fill-rule="evenodd" clip-rule="evenodd" d="M161.402 107.82C164.695 107.82 167.364 105.04 167.364 101.611C167.364 98.1807 164.695 95.4008 161.402 95.4008C158.109 95.4008 155.439 98.1808 155.439 101.611C155.439 105.04 158.109 107.82 161.402 107.82ZM161.402 108.925C165.281 108.925 168.425 105.65 168.425 101.611C168.425 97.5703 165.281 94.2954 161.402 94.2954C157.522 94.2954 154.378 97.5703 154.378 101.611C154.378 105.65 157.522 108.925 161.402 108.925Z" fill="black"/>
<path fill-rule="evenodd" clip-rule="evenodd" d="M259.494 86.281H144.858V152.469H259.494V86.281ZM143.797 85.1755V153.574H260.555V85.1755H143.797Z" fill="black"/>
</g>
<rect x="113.071" y="61.9458" width="33.1839" height="3.87162" fill="#CFD9E0"/>
<rect x="113.071" y="74.8513" width="51.6194" height="3.87162" fill="#CFD9E0"/>
<rect x="113.071" y="68.3984" width="19.6645" height="3.87162" fill="#CFD9E0"/>
<rect x="151.171" y="61.9458" width="14.7484" height="3.87162" fill="#CFD9E0"/>
<rect x="137.652" y="68.3984" width="14.7484" height="3.87162" fill="#CFD9E0"/>
<rect x="170.836" y="61.9458" width="25.8097" height="3.87162" fill="#CFD9E0"/>
<rect x="169.606" y="74.8513" width="11.0613" height="3.87162" fill="#CFD9E0"/>
<rect x="157.316" y="70.9795" width="50.3903" height="3.87162" fill="#CFD9E0"/>
<rect x="201.562" y="61.9458" width="9.83228" height="3.87162" fill="#CFD9E0"/>
<rect x="216.31" y="61.9458" width="36.871" height="3.87162" fill="#CFD9E0"/>
</g>
<g filter="url(#filter1_d_646_6159)">
<rect x="104.468" y="30.9729" width="84.8032" height="130.345" fill="white"/>
</g>
<rect x="109.384" y="68.3987" width="33.1839" height="3.87162" fill="#CFD9E0"/>
<rect x="109.384" y="86.4663" width="51.6194" height="3.87162" fill="#CFD9E0"/>
<rect x="109.384" y="77.4324" width="19.6645" height="3.87161" fill="#CFD9E0"/>
<rect x="147.483" y="68.3987" width="14.7484" height="3.87162" fill="#CFD9E0"/>
<rect x="133.965" y="77.4324" width="14.7484" height="3.87161" fill="#CFD9E0"/>
<rect x="165.919" y="86.4663" width="11.0613" height="3.87162" fill="#CFD9E0"/>
<rect x="153.629" y="77.4324" width="30.7258" height="3.87161" fill="#CFD9E0"/>
<rect x="109.384" y="46.4595" width="52.8484" height="3.87162" fill="#0B2239"/>
<rect x="109.384" y="55.4932" width="29.4968" height="3.87162" fill="#0B2239"/>
<g clip-path="url(#clip1_646_6159)">
<rect width="74.971" height="43.8784" transform="translate(109.384 103.243)" fill="#F0FBFF"/>
<path d="M144.285 147H184.238V135.066L161.2 111.112L144.285 129.936V147Z" fill="#E3E3E3"/>
<path fill-rule="evenodd" clip-rule="evenodd" d="M184.919 147.709H143.604V129.656L161.183 110.092L184.919 134.772V147.709ZM184.238 135.066V147H144.285V129.935L161.2 111.111L184.238 135.066Z" fill="black"/>
<path d="M157.295 115.493L161.231 110.922L169.712 120.002L164.411 115.991L163.045 118.597L160.768 115.138L158.628 117.223L157.295 115.493Z" fill="white"/>
<path fill-rule="evenodd" clip-rule="evenodd" d="M161.212 109.883L175.744 125.442L164.638 117.04L163.111 119.952L160.655 116.221L158.557 118.264L156.402 115.467L161.212 109.883ZM160.769 115.139L163.045 118.597L164.411 115.991L169.713 120.002L161.232 110.922L157.295 115.493L158.628 117.223L160.769 115.139Z" fill="black"/>
<path d="M170.942 147L144.55 119.576L118.403 147H131.523H170.942Z" fill="#F0F0F0"/>
<path fill-rule="evenodd" clip-rule="evenodd" d="M144.548 118.571L172.589 147.709H116.768L144.548 118.571ZM144.55 119.576L118.404 147H170.942L144.55 119.576Z" fill="black"/>
<path d="M141.488 144.885L119.165 140.883L109.442 145.415V147.061H184.296V141.454L170.389 144.885L157.194 137.493L141.488 144.885Z" fill="#A8F2C5"/>
<path fill-rule="evenodd" clip-rule="evenodd" d="M157.207 137.097L170.436 144.509L184.637 141.006V147.415H109.102V145.186L119.121 140.515L141.442 144.517L157.207 137.097ZM157.18 137.888L141.533 145.253L119.21 141.251L109.783 145.645V146.706H183.955V141.902L170.341 145.261L157.18 137.888Z" fill="black"/>
<path d="M125.198 113.786C125.198 116.378 123.179 118.479 120.688 118.479C118.197 118.479 116.178 116.378 116.178 113.786C116.178 111.194 118.197 109.094 120.688 109.094C123.179 109.094 125.198 111.194 125.198 113.786Z" fill="#FFC107"/>
<path fill-rule="evenodd" clip-rule="evenodd" d="M120.688 117.769C122.802 117.769 124.516 115.986 124.516 113.786C124.516 111.586 122.802 109.803 120.688 109.803C118.573 109.803 116.859 111.586 116.859 113.786C116.859 115.986 118.573 117.769 120.688 117.769ZM120.688 118.479C123.179 118.479 125.198 116.378 125.198 113.786C125.198 111.194 123.179 109.094 120.688 109.094C118.197 109.094 116.178 111.194 116.178 113.786C116.178 116.378 118.197 118.479 120.688 118.479Z" fill="black"/>
<path fill-rule="evenodd" clip-rule="evenodd" d="M183.673 103.952H110.065V146.412H183.673V103.952ZM109.384 103.243V147.122H184.355V103.243H109.384Z" fill="black"/>
</g>
<rect opacity="0.2" x="109.384" y="30.9729" width="15.9774" height="130.345" fill="#FFA8A8"/>
<rect opacity="0.2" x="129.049" y="30.9729" width="15.9774" height="130.345" fill="#FFA8A8"/>
<rect opacity="0.2" x="148.713" y="30.9729" width="15.9774" height="130.345" fill="#FFA8A8"/>
<rect opacity="0.2" x="168.378" y="30.9729" width="15.9774" height="130.345" fill="#FFA8A8"/>
<path fill-rule="evenodd" clip-rule="evenodd" d="M179.693 91.1983H198.849V85.1758L206.478 93.2058L198.849 101.236V95.2135L179.693 95.2135L179.693 101.236L172.064 93.2059L179.693 85.1759L179.693 91.1983Z" fill="#0066FF"/>
<defs>
<filter id="filter0_d_646_6159" x="92.4678" y="22.9729" width="196.064" height="154.344" filterUnits="userSpaceOnUse" color-interpolation-filters="sRGB">
<feFlood flood-opacity="0" result="BackgroundImageFix"/>
<feColorMatrix in="SourceAlpha" type="matrix" values="0 0 0 0 0 0 0 0 0 0 0 0 0 0 0 0 0 0 127 0" result="hardAlpha"/>
<feOffset dy="4"/>
<feGaussianBlur stdDeviation="6"/>
<feComposite in2="hardAlpha" operator="out"/>
<feColorMatrix type="matrix" values="0 0 0 0 0 0 0 0 0 0 0 0 0 0 0 0 0 0 0.08 0"/>
<feBlend mode="normal" in2="BackgroundImageFix" result="effect1_dropShadow_646_6159"/>
<feBlend mode="normal" in="SourceGraphic" in2="effect1_dropShadow_646_6159" result="shape"/>
</filter>
<filter id="filter1_d_646_6159" x="92.4678" y="22.9729" width="108.804" height="154.344" filterUnits="userSpaceOnUse" color-interpolation-filters="sRGB">
<feFlood flood-opacity="0" result="BackgroundImageFix"/>
<feColorMatrix in="SourceAlpha" type="matrix" values="0 0 0 0 0 0 0 0 0 0 0 0 0 0 0 0 0 0 127 0" result="hardAlpha"/>
<feOffset dy="4"/>
<feGaussianBlur stdDeviation="6"/>
<feComposite in2="hardAlpha" operator="out"/>
<feColorMatrix type="matrix" values="0 0 0 0 0 0 0 0 0 0 0 0 0 0 0 0 0 0 0.08 0"/>
<feBlend mode="normal" in2="BackgroundImageFix" result="effect1_dropShadow_646_6159"/>
<feBlend mode="normal" in="SourceGraphic" in2="effect1_dropShadow_646_6159" result="shape"/>
</filter>
<clipPath id="clip0_646_6159">
<rect width="116.758" height="68.3986" fill="white" transform="translate(143.797 85.1755)"/>
</clipPath>
<clipPath id="clip1_646_6159">
<rect width="74.971" height="43.8784" fill="white" transform="translate(109.384 103.243)"/>
</clipPath>
</defs>
</svg>
