<svg width="220" height="148" viewBox="0 0 220 148" fill="none" xmlns="http://www.w3.org/2000/svg">
<g clip-path="url(#clip0_419_5068)">
<g filter="url(#filter0_d_419_5068)">
<rect x="10" width="200" height="148" fill="white"/>
</g>
<rect x="50" y="73" width="27" height="3" fill="#CFD9E0"/>
<rect x="50" y="83" width="42" height="3" fill="#CFD9E0"/>
<rect x="50" y="78" width="32" height="3" fill="#CFD9E0"/>
<rect x="50" y="88" width="32" height="3" fill="#CFD9E0"/>
<rect x="81" y="73" width="12" height="3" fill="#CFD9E0"/>
<rect x="96" y="83" width="9" height="3" fill="#CFD9E0"/>
<rect x="86" y="78" width="41" height="3" fill="#CFD9E0"/>
<rect x="86" y="88" width="41" height="3" fill="#CFD9E0"/>
<rect x="109" y="83" width="35" height="3" fill="#CFD9E0"/>
<rect x="131" y="78" width="8" height="3" fill="#CFD9E0"/>
<rect x="131" y="88" width="8" height="3" fill="#CFD9E0"/>
<rect x="143" y="78" width="22" height="3" fill="#CFD9E0"/>
<rect x="143" y="88" width="22" height="3" fill="#CFD9E0"/>
<rect x="50" y="133" width="27" height="3" fill="#CFD9E0"/>
<rect x="50" y="143" width="42" height="3" fill="#CFD9E0"/>
<rect x="50" y="138" width="32" height="3" fill="#CFD9E0"/>
<rect x="81" y="133" width="12" height="3" fill="#CFD9E0"/>
<rect x="96" y="143" width="9" height="3" fill="#CFD9E0"/>
<rect x="86" y="138" width="41" height="3" fill="#CFD9E0"/>
<rect x="109" y="143" width="35" height="3" fill="#CFD9E0"/>
<rect x="131" y="138" width="8" height="3" fill="#CFD9E0"/>
<rect x="143" y="138" width="22" height="3" fill="#CFD9E0"/>
<rect x="50" y="56" width="46" height="5" fill="#0B2239"/>
<rect x="50" y="116" width="64" height="5" fill="#0B2239"/>
<rect x="50" y="103" width="120" height="1" fill="#CFD9E0"/>
<path d="M136.6 59C136.6 57.86 137.527 56.9333 138.667 56.9333H141.333V55.6666H138.667C136.827 55.6666 135.333 57.16 135.333 59C135.333 60.84 136.827 62.3333 138.667 62.3333H141.333V61.0666H138.667C137.527 61.0666 136.6 60.14 136.6 59ZM139.333 59.6666H144.667V58.3333H139.333V59.6666ZM145.333 55.6666H142.667V56.9333H145.333C146.473 56.9333 147.4 57.86 147.4 59C147.4 60.14 146.473 61.0666 145.333 61.0666H142.667V62.3333H145.333C147.173 62.3333 148.667 60.84 148.667 59C148.667 57.16 147.173 55.6666 145.333 55.6666Z" fill="#0066FF"/>
<path d="M136.6 119C136.6 117.86 137.527 116.933 138.667 116.933H141.333V115.667H138.667C136.827 115.667 135.333 117.16 135.333 119C135.333 120.84 136.827 122.333 138.667 122.333H141.333V121.067H138.667C137.527 121.067 136.6 120.14 136.6 119ZM139.333 119.667H144.667V118.333H139.333V119.667ZM145.333 115.667H142.667V116.933H145.333C146.473 116.933 147.4 117.86 147.4 119C147.4 120.14 146.473 121.067 145.333 121.067H142.667V122.333H145.333C147.173 122.333 148.667 120.84 148.667 119C148.667 117.16 147.173 115.667 145.333 115.667Z" fill="#0066FF"/>
<path d="M189 119V119.5H189.5V119H189ZM189 24H189.5V23.5H189V24ZM165.646 23.6464C165.451 23.8417 165.451 24.1583 165.646 24.3536L168.828 27.5355C169.024 27.7308 169.34 27.7308 169.536 27.5355C169.731 27.3403 169.731 27.0237 169.536 26.8284L166.707 24L169.536 21.1716C169.731 20.9763 169.731 20.6597 169.536 20.4645C169.34 20.2692 169.024 20.2692 168.828 20.4645L165.646 23.6464ZM166 24.5H166.958V23.5H166V24.5ZM168.875 24.5H170.792V23.5H168.875V24.5ZM172.708 24.5H174.625V23.5H172.708V24.5ZM176.542 24.5H178.458V23.5H176.542V24.5ZM180.375 24.5H182.292V23.5H180.375V24.5ZM184.208 24.5H186.125V23.5H184.208V24.5ZM188.042 24.5H189V23.5H188.042V24.5ZM188.5 24V24.9896H189.5V24H188.5ZM188.5 26.9688V28.9479H189.5V26.9688H188.5ZM188.5 30.9271V32.9062H189.5V30.9271H188.5ZM188.5 34.8854V36.8646H189.5V34.8854H188.5ZM188.5 38.8438V40.8229H189.5V38.8438H188.5ZM188.5 42.8021V44.7812H189.5V42.8021H188.5ZM188.5 46.7604V48.7396H189.5V46.7604H188.5ZM188.5 50.7187V52.6979H189.5V50.7187H188.5ZM188.5 54.6771V56.6562H189.5V54.6771H188.5ZM188.5 58.6354V60.6146H189.5V58.6354H188.5ZM188.5 62.5938V64.5729H189.5V62.5938H188.5ZM188.5 66.5521V68.5313H189.5V66.5521H188.5ZM188.5 70.5104V72.4896H189.5V70.5104H188.5ZM188.5 74.4688V76.4479H189.5V74.4688H188.5ZM188.5 78.4271V80.4063H189.5V78.4271H188.5ZM188.5 82.3854V84.3646H189.5V82.3854H188.5ZM188.5 86.3438V88.3229H189.5V86.3438H188.5ZM188.5 90.3021V92.2813H189.5V90.3021H188.5ZM188.5 94.2604V96.2396H189.5V94.2604H188.5ZM188.5 98.2188V100.198H189.5V98.2188H188.5ZM188.5 102.177V104.156H189.5V102.177H188.5ZM188.5 106.135V108.115H189.5V106.135H188.5ZM188.5 110.094V112.073H189.5V110.094H188.5ZM188.5 114.052V116.031H189.5V114.052H188.5ZM188.5 118.01V119H189.5V118.01H188.5ZM189 118.5H188.063V119.5H189V118.5ZM186.188 118.5H184.312V119.5H186.188V118.5ZM182.438 118.5H180.563V119.5H182.438V118.5ZM178.688 118.5H176.813V119.5H178.688V118.5ZM174.938 118.5H174V119.5H174.938V118.5Z" fill="#0066FF"/>
<rect x="50" y="13" width="40" height="3" fill="#0066FF"/>
<rect x="154" y="13" width="3" height="3" fill="#0066FF"/>
<circle cx="101" cy="15" r="1" fill="#0066FF"/>
<circle cx="95" cy="15" r="1" fill="#0066FF"/>
<circle cx="107" cy="15" r="1" fill="#0066FF"/>
<circle cx="113" cy="15" r="1" fill="#0066FF"/>
<circle cx="119" cy="15" r="1" fill="#0066FF"/>
<circle cx="125" cy="15" r="1" fill="#0066FF"/>
<circle cx="131" cy="15" r="1" fill="#0066FF"/>
<circle cx="137" cy="15" r="1" fill="#0066FF"/>
<circle cx="143" cy="15" r="1" fill="#0066FF"/>
<circle cx="149" cy="15" r="1" fill="#0066FF"/>
<rect x="50" y="20" width="27" height="3" fill="#0066FF"/>
<rect x="154" y="20" width="3" height="3" fill="#0066FF"/>
<circle cx="101" cy="22" r="1" fill="#0066FF"/>
<circle cx="95" cy="22" r="1" fill="#0066FF"/>
<circle cx="89" cy="22" r="1" fill="#0066FF"/>
<circle cx="83" cy="22" r="1" fill="#0066FF"/>
<circle cx="107" cy="22" r="1" fill="#0066FF"/>
<circle cx="113" cy="22" r="1" fill="#0066FF"/>
<circle cx="119" cy="22" r="1" fill="#0066FF"/>
<circle cx="125" cy="22" r="1" fill="#0066FF"/>
<circle cx="131" cy="22" r="1" fill="#0066FF"/>
<circle cx="137" cy="22" r="1" fill="#0066FF"/>
<circle cx="143" cy="22" r="1" fill="#0066FF"/>
<circle cx="149" cy="22" r="1" fill="#0066FF"/>
<rect x="50" y="27" width="34" height="3" fill="#0066FF"/>
<rect x="154" y="27" width="3" height="3" fill="#0066FF"/>
<circle cx="101" cy="29" r="1" fill="#0066FF"/>
<circle cx="95" cy="29" r="1" fill="#0066FF"/>
<circle cx="89" cy="29" r="1" fill="#0066FF"/>
<circle cx="107" cy="29" r="1" fill="#0066FF"/>
<circle cx="113" cy="29" r="1" fill="#0066FF"/>
<circle cx="119" cy="29" r="1" fill="#0066FF"/>
<circle cx="125" cy="29" r="1" fill="#0066FF"/>
<circle cx="131" cy="29" r="1" fill="#0066FF"/>
<circle cx="137" cy="29" r="1" fill="#0066FF"/>
<circle cx="143" cy="29" r="1" fill="#0066FF"/>
<circle cx="149" cy="29" r="1" fill="#0066FF"/>
<rect x="50" y="34" width="16" height="3" fill="#0066FF"/>
<rect x="154" y="34" width="3" height="3" fill="#0066FF"/>
<circle cx="101" cy="36" r="1" fill="#0066FF"/>
<circle cx="95" cy="36" r="1" fill="#0066FF"/>
<circle cx="89" cy="36" r="1" fill="#0066FF"/>
<circle cx="83" cy="36" r="1" fill="#0066FF"/>
<circle cx="77" cy="36" r="1" fill="#0066FF"/>
<circle cx="71" cy="36" r="1" fill="#0066FF"/>
<circle cx="107" cy="36" r="1" fill="#0066FF"/>
<circle cx="113" cy="36" r="1" fill="#0066FF"/>
<circle cx="119" cy="36" r="1" fill="#0066FF"/>
<circle cx="125" cy="36" r="1" fill="#0066FF"/>
<circle cx="131" cy="36" r="1" fill="#0066FF"/>
<circle cx="137" cy="36" r="1" fill="#0066FF"/>
<circle cx="143" cy="36" r="1" fill="#0066FF"/>
<circle cx="149" cy="36" r="1" fill="#0066FF"/>
<path d="M170 121L165 116L160 121L170 121Z" fill="#0066FF"/>
<path d="M170 61L165 56L160 61L170 61Z" fill="#0066FF"/>
</g>
<defs>
<filter id="filter0_d_419_5068" x="-2" y="-8" width="224" height="172" filterUnits="userSpaceOnUse" color-interpolation-filters="sRGB">
<feFlood flood-opacity="0" result="BackgroundImageFix"/>
<feColorMatrix in="SourceAlpha" type="matrix" values="0 0 0 0 0 0 0 0 0 0 0 0 0 0 0 0 0 0 127 0" result="hardAlpha"/>
<feOffset dy="4"/>
<feGaussianBlur stdDeviation="6"/>
<feComposite in2="hardAlpha" operator="out"/>
<feColorMatrix type="matrix" values="0 0 0 0 0 0 0 0 0 0 0 0 0 0 0 0 0 0 0.08 0"/>
<feBlend mode="normal" in2="BackgroundImageFix" result="effect1_dropShadow_419_5068"/>
<feBlend mode="normal" in="SourceGraphic" in2="effect1_dropShadow_419_5068" result="shape"/>
</filter>
<clipPath id="clip0_419_5068">
<rect width="220" height="148" fill="white"/>
</clipPath>
</defs>
</svg>
