<svg width="220" height="148" viewBox="0 0 224 172" fill="none" xmlns="http://www.w3.org/2000/svg">
<g filter="url(#filter0_d_258_4186)">
<rect x="12" y="8" width="200" height="148" fill="white"/>
</g>
<g opacity="0.1" clip-path="url(#clip0_258_4186)">
<rect width="113" height="63.5625" transform="translate(59 54)" fill="#F0FBFF"/>
<path d="M111.604 117.386H171.823V100.099L137.099 65.398L111.604 92.6667V117.386Z" fill="#E3E3E3"/>
<path fill-rule="evenodd" clip-rule="evenodd" d="M172.851 118.413H110.577V92.2612L137.074 63.9206L172.851 99.6729V118.413ZM171.823 100.099V117.386H111.604V92.6667L137.099 65.398L171.823 100.099Z" fill="black"/>
<path d="M131.214 71.7445L137.147 65.1234L149.93 78.2773L141.94 72.4669L139.881 76.2415L136.449 71.2315L133.223 74.2513L131.214 71.7445Z" fill="white"/>
<path fill-rule="evenodd" clip-rule="evenodd" d="M137.116 63.618L159.02 86.1578L142.281 73.9856L139.98 78.2046L136.277 72.7992L133.115 75.7594L129.868 71.7075L137.116 63.618ZM136.449 71.2315L139.88 76.2416L141.939 72.4669L149.929 78.2773L137.147 65.1234L131.214 71.7445L133.223 74.2513L136.449 71.2315Z" fill="black"/>
<path d="M151.783 117.386L112.005 77.6594L72.5952 117.386H92.3702H151.783Z" fill="#F0F0F0"/>
<path fill-rule="evenodd" clip-rule="evenodd" d="M112.001 76.2042L154.266 118.413H70.1289L112.001 76.2042ZM112.005 77.6594L72.595 117.386H151.783L112.005 77.6594Z" fill="black"/>
<path d="M107.389 114.322L73.7431 108.525L59.0884 115.091V117.474H171.912V109.352L150.95 114.322L131.061 103.614L107.389 114.322Z" fill="#A8F2C5"/>
<path fill-rule="evenodd" clip-rule="evenodd" d="M131.081 103.041L151.021 113.777L172.425 108.703V117.988H58.5747V114.758L73.6759 107.993L107.32 113.789L131.081 103.041ZM131.041 104.187L107.457 114.855L73.8101 109.058L59.602 115.423V116.961H171.398V110.002L150.878 114.867L131.041 104.187Z" fill="black"/>
<path d="M82.836 69.273C82.836 73.027 79.7927 76.0703 76.0387 76.0703C72.284 76.0703 69.2407 73.027 69.2407 69.273C69.2407 65.5183 72.284 62.475 76.0387 62.475C79.7927 62.475 82.836 65.5183 82.836 69.273Z" fill="#FFC107"/>
<path fill-rule="evenodd" clip-rule="evenodd" d="M76.0387 75.043C79.2254 75.043 81.8088 72.4597 81.8088 69.273C81.8088 66.0856 79.2253 63.5023 76.0387 63.5023C72.8514 63.5023 70.268 66.0857 70.268 69.273C70.268 72.4596 72.8513 75.043 76.0387 75.043ZM76.0387 76.0703C79.7927 76.0703 82.836 73.027 82.836 69.273C82.836 65.5183 79.7927 62.475 76.0387 62.475C72.284 62.475 69.2407 65.5183 69.2407 69.273C69.2407 73.027 72.284 76.0703 76.0387 76.0703Z" fill="black"/>
<path fill-rule="evenodd" clip-rule="evenodd" d="M170.973 55.0273H60.0273V116.535H170.973V55.0273ZM59 54V117.562H172V54H59Z" fill="black"/>
</g>
<g clip-path="url(#clip1_258_4186)">
<rect width="80" height="45" transform="translate(59 54)" fill="#F0FBFF"/>
<path d="M96.2417 98.875H138.875V86.6362L114.291 62.0694L96.2417 81.3746V98.875Z" fill="#E3E3E3"/>
<path fill-rule="evenodd" clip-rule="evenodd" d="M139.602 99.6023H95.5146V81.0876L114.273 61.0234L139.602 86.3348V99.6023ZM138.875 86.6362V98.875H96.2419V81.3746L114.291 62.0694L138.875 86.6362Z" fill="black"/>
<path d="M110.125 66.5625L114.325 61.875L123.375 71.1875L117.718 67.0739L116.26 69.7462L113.831 66.1993L111.547 68.3372L110.125 66.5625Z" fill="white"/>
<path fill-rule="evenodd" clip-rule="evenodd" d="M114.304 60.8092L129.811 76.7666L117.96 68.1491L116.331 71.136L113.71 67.3092L111.471 69.4049L109.172 66.5363L114.304 60.8092ZM113.831 66.1993L116.26 69.7462L117.718 67.0739L123.375 71.1875L114.325 61.875L110.125 66.5625L111.547 68.3372L113.831 66.1993Z" fill="black"/>
<path d="M124.688 98.875L96.5256 70.75L68.625 98.875H82.625H124.688Z" fill="#F0F0F0"/>
<path fill-rule="evenodd" clip-rule="evenodd" d="M96.523 69.7198L126.445 99.6023H66.8789L96.523 69.7198ZM96.5254 70.75L68.6248 98.875H124.687L96.5254 70.75Z" fill="black"/>
<path d="M93.2574 96.706L69.4375 92.602L59.0625 97.25V98.9375H138.938V93.1875L124.097 96.706L110.017 89.125L93.2574 96.706Z" fill="#A8F2C5"/>
<path fill-rule="evenodd" clip-rule="evenodd" d="M110.031 88.7196L124.148 96.3203L139.301 92.7276V99.3011H58.6987V97.0145L69.3899 92.2248L93.209 96.3287L110.031 88.7196ZM110.003 89.5304L93.3055 97.0833L69.4849 92.9792L59.426 97.4856V98.5739H138.574V93.6474L124.046 97.0917L110.003 89.5304Z" fill="black"/>
<path d="M75.875 64.8127C75.875 67.4704 73.7204 69.625 71.0627 69.625C68.4046 69.625 66.25 67.4704 66.25 64.8127C66.25 62.1546 68.4046 60 71.0627 60C73.7204 60 75.875 62.1546 75.875 64.8127Z" fill="#FFC107"/>
<path fill-rule="evenodd" clip-rule="evenodd" d="M71.0627 68.8977C73.3188 68.8977 75.1477 67.0688 75.1477 64.8127C75.1477 62.5562 73.3187 60.7273 71.0627 60.7273C68.8062 60.7273 66.9773 62.5562 66.9773 64.8127C66.9773 67.0687 68.8062 68.8977 71.0627 68.8977ZM71.0627 69.625C73.7204 69.625 75.875 67.4704 75.875 64.8127C75.875 62.1546 73.7204 60 71.0627 60C68.4046 60 66.25 62.1546 66.25 64.8127C66.25 67.4704 68.4046 69.625 71.0627 69.625Z" fill="black"/>
<path fill-rule="evenodd" clip-rule="evenodd" d="M138.273 54.7273H59.7273V98.2727H138.273V54.7273ZM59 54V99H139V54H59Z" fill="black"/>
</g>
<rect x="54" y="50" width="1" height="54" fill="#0066FF"/>
<rect x="143" y="50" width="1" height="54" fill="#0066FF"/>
<rect x="143" y="49" width="1" height="88" transform="rotate(90 143 49)" fill="#0066FF"/>
<rect x="143" y="103" width="1" height="88" transform="rotate(90 143 103)" fill="#0066FF"/>
<rect x="52" y="47" width="5" height="5" fill="#0066FF"/>
<rect x="52" y="74" width="5" height="5" fill="#0066FF"/>
<rect x="52" y="101" width="5" height="5" fill="#0066FF"/>
<rect x="96" y="47" width="5" height="5" fill="#0066FF"/>
<rect x="96" y="101" width="5" height="5" fill="#0066FF"/>
<rect x="141" y="47" width="5" height="5" fill="#0066FF"/>
<rect x="141" y="74" width="5" height="5" fill="#0066FF"/>
<rect x="141" y="101" width="5" height="5" fill="#0066FF"/>
<defs>
<filter id="filter0_d_258_4186" x="0" y="0" width="224" height="172" filterUnits="userSpaceOnUse" color-interpolation-filters="sRGB">
<feFlood flood-opacity="0" result="BackgroundImageFix"/>
<feColorMatrix in="SourceAlpha" type="matrix" values="0 0 0 0 0 0 0 0 0 0 0 0 0 0 0 0 0 0 127 0" result="hardAlpha"/>
<feOffset dy="4"/>
<feGaussianBlur stdDeviation="6"/>
<feComposite in2="hardAlpha" operator="out"/>
<feColorMatrix type="matrix" values="0 0 0 0 0 0 0 0 0 0 0 0 0 0 0 0 0 0 0.08 0"/>
<feBlend mode="normal" in2="BackgroundImageFix" result="effect1_dropShadow_258_4186"/>
<feBlend mode="normal" in="SourceGraphic" in2="effect1_dropShadow_258_4186" result="shape"/>
</filter>
<clipPath id="clip0_258_4186">
<rect width="113" height="63.5625" fill="white" transform="translate(59 54)"/>
</clipPath>
<clipPath id="clip1_258_4186">
<rect width="80" height="45" fill="white" transform="translate(59 54)"/>
</clipPath>
</defs>
</svg>
