<svg width="220" height="148" viewBox="0 0 220 148" fill="none" xmlns="http://www.w3.org/2000/svg">
<g clip-path="url(#clip0_399_4962)">
<g filter="url(#filter0_d_399_4962)">
<rect x="10" y="16" width="200" height="132" fill="white"/>
</g>
<rect x="156" y="26" width="14" height="3" fill="#CFD9E0"/>
<rect x="136" y="26" width="14" height="3" fill="#CFD9E0"/>
<rect x="116" y="26" width="14" height="3" fill="#CFD9E0"/>
<rect x="96" y="26" width="14" height="3" fill="#CFD9E0"/>
<circle cx="53.5" cy="27.5" r="3.5" fill="#CFD9E0"/>
<g opacity="0.3">
<rect x="50" y="45" width="27" height="3" fill="#CFD9E0"/>
<rect x="50" y="59" width="42" height="3" fill="#CFD9E0"/>
<rect x="50" y="52" width="16" height="3" fill="#CFD9E0"/>
<rect x="50" y="66" width="28" height="3" fill="#CFD9E0"/>
<rect x="81" y="45" width="12" height="3" fill="#CFD9E0"/>
<rect x="70" y="52" width="12" height="3" fill="#CFD9E0"/>
<rect x="82" y="66" width="23" height="3" fill="#CFD9E0"/>
<rect x="97" y="45" width="19" height="3" fill="#CFD9E0"/>
<rect x="96" y="59" width="16" height="3" fill="#CFD9E0"/>
<rect x="86" y="52" width="22" height="3" fill="#CFD9E0"/>
</g>
<g opacity="0.3">
<rect x="50" y="81" width="27" height="3" fill="#CFD9E0"/>
<rect x="50" y="95" width="42" height="3" fill="#CFD9E0"/>
<rect x="50" y="88" width="16" height="3" fill="#CFD9E0"/>
<rect x="50" y="102" width="28" height="3" fill="#CFD9E0"/>
<rect x="81" y="81" width="12" height="3" fill="#CFD9E0"/>
<rect x="70" y="88" width="12" height="3" fill="#CFD9E0"/>
<rect x="82" y="102" width="23" height="3" fill="#CFD9E0"/>
<rect x="97" y="81" width="19" height="3" fill="#CFD9E0"/>
<rect x="96" y="95" width="16" height="3" fill="#CFD9E0"/>
<rect x="86" y="88" width="22" height="3" fill="#CFD9E0"/>
</g>
<rect x="126.5" y="45.5" width="43" height="72" stroke="#CFD9E0"/>
<rect x="142" y="51" width="15" height="3" fill="#0066FF"/>
<rect x="142" y="58" width="9" height="2" fill="#CFD9E0"/>
<rect x="153" y="58" width="13" height="2" fill="#CFD9E0"/>
<rect x="142" y="62" width="15" height="2" fill="#CFD9E0"/>
<circle cx="134.5" cy="54.5" r="3.5" fill="#CFD9E0"/>
<rect x="142" y="75" width="9" height="3" fill="#0066FF"/>
<rect x="142" y="82" width="9" height="2" fill="#CFD9E0"/>
<rect x="153" y="82" width="8" height="2" fill="#CFD9E0"/>
<rect x="142" y="86" width="21" height="2" fill="#CFD9E0"/>
<circle cx="134.5" cy="78.5" r="3.5" fill="#CFD9E0"/>
<rect x="142" y="99" width="12" height="3" fill="#0066FF"/>
<rect x="142" y="106" width="9" height="2" fill="#CFD9E0"/>
<rect x="153" y="106" width="13" height="2" fill="#CFD9E0"/>
<rect x="142" y="110" width="15" height="2" fill="#CFD9E0"/>
<circle cx="134.5" cy="102.5" r="3.5" fill="#CFD9E0"/>
<rect x="127" y="69" width="42" height="1" fill="#CFD9E0"/>
<rect x="127" y="93" width="42" height="1" fill="#CFD9E0"/>
</g>
<defs>
<filter id="filter0_d_399_4962" x="-2" y="8" width="224" height="156" filterUnits="userSpaceOnUse" color-interpolation-filters="sRGB">
<feFlood flood-opacity="0" result="BackgroundImageFix"/>
<feColorMatrix in="SourceAlpha" type="matrix" values="0 0 0 0 0 0 0 0 0 0 0 0 0 0 0 0 0 0 127 0" result="hardAlpha"/>
<feOffset dy="4"/>
<feGaussianBlur stdDeviation="6"/>
<feComposite in2="hardAlpha" operator="out"/>
<feColorMatrix type="matrix" values="0 0 0 0 0 0 0 0 0 0 0 0 0 0 0 0 0 0 0.08 0"/>
<feBlend mode="normal" in2="BackgroundImageFix" result="effect1_dropShadow_399_4962"/>
<feBlend mode="normal" in="SourceGraphic" in2="effect1_dropShadow_399_4962" result="shape"/>
</filter>
<clipPath id="clip0_399_4962">
<rect width="220" height="148" fill="white"/>
</clipPath>
</defs>
</svg>
