<svg width="220" height="148" viewBox="0 0 220 148" fill="none" xmlns="http://www.w3.org/2000/svg">
<g clip-path="url(#clip0_419_4802)">
<g filter="url(#filter0_d_419_4802)">
<rect x="10" y="16" width="200" height="132" fill="white"/>
</g>
<rect x="156" y="26" width="14" height="3" fill="#CFD9E0"/>
<rect x="136" y="26" width="14" height="3" fill="#CFD9E0"/>
<rect x="116" y="26" width="14" height="3" fill="#CFD9E0"/>
<rect x="96" y="26" width="14" height="3" fill="#CFD9E0"/>
<rect x="58" y="105" width="69" height="3" fill="#CFD9E0"/>
<rect x="135" y="105" width="27" height="3" fill="#CFD9E0"/>
<rect x="76" y="89" width="69" height="5" fill="#0B2239"/>
<rect x="75" y="112" width="27" height="3" fill="#CFD9E0"/>
<rect x="110" y="112" width="35" height="3" fill="#CFD9E0"/>
<rect x="93" y="119" width="35" height="3" fill="#CFD9E0"/>
<rect x="88" y="130" width="44" height="10" fill="#0066FF"/>
<rect x="98.353" y="134" width="23.2941" height="2" fill="white"/>
<circle cx="53.5" cy="27.5" r="3.5" fill="#CFD9E0"/>
<rect x="10.5" y="16.5" width="93" height="17" fill="white" stroke="#0066FF"/>
<path d="M19.1851 26.3213C19.1851 26.0723 19.0972 25.8818 18.9214 25.75C18.7456 25.6152 18.4292 25.4746 17.9722 25.3281C17.5151 25.1787 17.1533 25.0322 16.8867 24.8887C16.1602 24.4961 15.7969 23.9673 15.7969 23.3022C15.7969 22.9565 15.8936 22.6489 16.0869 22.3794C16.2832 22.1069 16.563 21.8945 16.9263 21.7422C17.2925 21.5898 17.7026 21.5137 18.1567 21.5137C18.6138 21.5137 19.021 21.5972 19.3784 21.7642C19.7358 21.9282 20.0127 22.1611 20.209 22.4629C20.4082 22.7646 20.5078 23.1074 20.5078 23.4912H19.1895C19.1895 23.1982 19.0972 22.9712 18.9126 22.8101C18.728 22.646 18.4688 22.564 18.1348 22.564C17.8125 22.564 17.562 22.6328 17.3833 22.7705C17.2046 22.9053 17.1152 23.084 17.1152 23.3066C17.1152 23.5146 17.2192 23.689 17.4272 23.8296C17.6382 23.9702 17.9473 24.1021 18.3545 24.2251C19.1045 24.4507 19.6509 24.7305 19.9937 25.0645C20.3364 25.3984 20.5078 25.8145 20.5078 26.3125C20.5078 26.8662 20.2983 27.3013 19.8794 27.6177C19.4604 27.9312 18.8965 28.0879 18.1875 28.0879C17.6953 28.0879 17.2471 27.9985 16.8428 27.8198C16.4385 27.6382 16.1294 27.3906 15.9155 27.0771C15.7046 26.7637 15.5991 26.4004 15.5991 25.9873H16.9219C16.9219 26.6934 17.3438 27.0464 18.1875 27.0464C18.501 27.0464 18.7456 26.9834 18.9214 26.8574C19.0972 26.7285 19.1851 26.5498 19.1851 26.3213ZM23.0479 26.0928L22.5908 26.5498V28H21.3208V21.25H22.5908V24.9897L22.8369 24.6733L24.0542 23.2451H25.5791L23.8608 25.2271L25.7285 28H24.2695L23.0479 26.0928ZM27.4688 28H26.1943V23.2451H27.4688V28ZM26.1196 22.0146C26.1196 21.8242 26.1826 21.6675 26.3086 21.5444C26.4375 21.4214 26.6118 21.3599 26.8315 21.3599C27.0483 21.3599 27.2212 21.4214 27.3501 21.5444C27.479 21.6675 27.5435 21.8242 27.5435 22.0146C27.5435 22.208 27.4775 22.3662 27.3457 22.4893C27.2168 22.6123 27.0454 22.6738 26.8315 22.6738C26.6177 22.6738 26.4448 22.6123 26.313 22.4893C26.1841 22.3662 26.1196 22.208 26.1196 22.0146ZM32.7993 25.6665C32.7993 26.3989 32.6323 26.9863 32.2983 27.4287C31.9673 27.8682 31.519 28.0879 30.9536 28.0879C30.4731 28.0879 30.085 27.9209 29.7891 27.5869V29.8281H28.519V23.2451H29.6968L29.7407 23.7109C30.0483 23.3418 30.4497 23.1572 30.9448 23.1572C31.5308 23.1572 31.9863 23.374 32.3115 23.8076C32.6367 24.2412 32.7993 24.8389 32.7993 25.6006V25.6665ZM31.5293 25.5742C31.5293 25.1318 31.4502 24.7905 31.292 24.5503C31.1367 24.3101 30.9097 24.1899 30.6108 24.1899C30.2124 24.1899 29.9385 24.3423 29.7891 24.647V26.5938C29.9443 26.9072 30.2212 27.064 30.6196 27.064C31.2261 27.064 31.5293 26.5674 31.5293 25.5742ZM37.3521 22.0762V23.2451H38.165V24.1768H37.3521V26.5498C37.3521 26.7256 37.3857 26.8516 37.4531 26.9277C37.5205 27.0039 37.6494 27.042 37.8398 27.042C37.9805 27.042 38.105 27.0317 38.2134 27.0112V27.9736C37.9644 28.0498 37.708 28.0879 37.4443 28.0879C36.5537 28.0879 36.0996 27.6382 36.082 26.7388V24.1768H35.3877V23.2451H36.082V22.0762H37.3521ZM38.543 25.5786C38.543 25.1069 38.6338 24.6865 38.8154 24.3174C38.9971 23.9482 39.2578 23.6626 39.5977 23.4604C39.9404 23.2583 40.3374 23.1572 40.7886 23.1572C41.4302 23.1572 41.9531 23.3535 42.3574 23.7461C42.7646 24.1387 42.9917 24.6719 43.0386 25.3457L43.0474 25.6709C43.0474 26.4004 42.8438 26.9863 42.4365 27.4287C42.0293 27.8682 41.4829 28.0879 40.7974 28.0879C40.1118 28.0879 39.564 27.8682 39.1538 27.4287C38.7466 26.9893 38.543 26.3916 38.543 25.6357V25.5786ZM39.813 25.6709C39.813 26.1221 39.8979 26.4678 40.0679 26.708C40.2378 26.9453 40.481 27.064 40.7974 27.064C41.105 27.064 41.3452 26.9468 41.5181 26.7124C41.6909 26.4751 41.7773 26.0972 41.7773 25.5786C41.7773 25.1362 41.6909 24.7935 41.5181 24.5503C41.3452 24.3071 41.1021 24.1855 40.7886 24.1855C40.478 24.1855 40.2378 24.3071 40.0679 24.5503C39.8979 24.7905 39.813 25.1641 39.813 25.6709ZM47.2617 23.2451L47.3013 23.7769C47.6382 23.3638 48.0938 23.1572 48.668 23.1572C49.2803 23.1572 49.7007 23.3989 49.9292 23.8823C50.2632 23.3989 50.7393 23.1572 51.3574 23.1572C51.873 23.1572 52.2568 23.3081 52.5088 23.6099C52.7607 23.9087 52.8867 24.3599 52.8867 24.9634V28H51.6123V24.9678C51.6123 24.6982 51.5596 24.502 51.4541 24.3789C51.3486 24.2529 51.1626 24.1899 50.896 24.1899C50.5151 24.1899 50.2515 24.3716 50.105 24.7349L50.1094 28H48.8394V24.9722C48.8394 24.6968 48.7852 24.4976 48.6768 24.3745C48.5684 24.2515 48.3838 24.1899 48.123 24.1899C47.7627 24.1899 47.502 24.3394 47.3408 24.6382V28H46.0708V23.2451H47.2617ZM56.6221 28C56.5635 27.8857 56.521 27.7437 56.4946 27.5737C56.187 27.9165 55.7871 28.0879 55.2949 28.0879C54.8291 28.0879 54.4424 27.9531 54.1348 27.6836C53.8301 27.4141 53.6777 27.0742 53.6777 26.6641C53.6777 26.1602 53.8638 25.7734 54.2358 25.5039C54.6108 25.2344 55.1514 25.0981 55.8574 25.0952H56.4419V24.8228C56.4419 24.603 56.3848 24.4272 56.2705 24.2954C56.1592 24.1636 55.9819 24.0977 55.7388 24.0977C55.5249 24.0977 55.3564 24.1489 55.2334 24.2515C55.1133 24.354 55.0532 24.4946 55.0532 24.6733H53.7832C53.7832 24.3979 53.8682 24.1431 54.0381 23.9087C54.208 23.6743 54.4482 23.4912 54.7588 23.3594C55.0693 23.2246 55.418 23.1572 55.8047 23.1572C56.3906 23.1572 56.855 23.3052 57.1978 23.6011C57.5435 23.894 57.7163 24.3071 57.7163 24.8403V26.9014C57.7192 27.3525 57.7822 27.6938 57.9053 27.9253V28H56.6221ZM55.5718 27.1167C55.7593 27.1167 55.9321 27.0757 56.0903 26.9937C56.2485 26.9087 56.3657 26.7959 56.4419 26.6553V25.8379H55.9673C55.3315 25.8379 54.9932 26.0576 54.9521 26.4971L54.9478 26.5718C54.9478 26.73 55.0034 26.8604 55.1147 26.9629C55.2261 27.0654 55.3784 27.1167 55.5718 27.1167ZM60.0322 28H58.7578V23.2451H60.0322V28ZM58.6831 22.0146C58.6831 21.8242 58.7461 21.6675 58.8721 21.5444C59.001 21.4214 59.1753 21.3599 59.395 21.3599C59.6118 21.3599 59.7847 21.4214 59.9136 21.5444C60.0425 21.6675 60.1069 21.8242 60.1069 22.0146C60.1069 22.208 60.041 22.3662 59.9092 22.4893C59.7803 22.6123 59.6089 22.6738 59.395 22.6738C59.1812 22.6738 59.0083 22.6123 58.8765 22.4893C58.7476 22.3662 58.6831 22.208 58.6831 22.0146ZM62.2515 23.2451L62.291 23.7944C62.6309 23.3696 63.0864 23.1572 63.6577 23.1572C64.1616 23.1572 64.5366 23.3052 64.7827 23.6011C65.0288 23.897 65.1548 24.3394 65.1606 24.9282V28H63.8906V24.959C63.8906 24.6895 63.832 24.4946 63.7148 24.3745C63.5977 24.2515 63.4028 24.1899 63.1304 24.1899C62.7729 24.1899 62.5049 24.3423 62.3262 24.647V28H61.0562V23.2451H62.2515ZM70.3462 27.064C70.5806 27.064 70.771 26.9995 70.9175 26.8706C71.064 26.7417 71.1401 26.5703 71.146 26.3564H72.3369C72.334 26.6787 72.2461 26.9746 72.0732 27.2441C71.9004 27.5107 71.6631 27.7188 71.3613 27.8682C71.0625 28.0146 70.7314 28.0879 70.3682 28.0879C69.6885 28.0879 69.1523 27.8726 68.7598 27.4419C68.3672 27.0083 68.1709 26.4106 68.1709 25.6489V25.5654C68.1709 24.833 68.3657 24.2485 68.7554 23.812C69.145 23.3755 69.6797 23.1572 70.3594 23.1572C70.9541 23.1572 71.4302 23.3271 71.7876 23.667C72.1479 24.0039 72.3311 24.4536 72.3369 25.0161H71.146C71.1401 24.77 71.064 24.5708 70.9175 24.4185C70.771 24.2632 70.5776 24.1855 70.3374 24.1855C70.0415 24.1855 69.8174 24.2939 69.665 24.5107C69.5156 24.7246 69.4409 25.0732 69.4409 25.5566V25.6885C69.4409 26.1777 69.5156 26.5293 69.665 26.7432C69.8145 26.957 70.0415 27.064 70.3462 27.064ZM72.8643 25.5786C72.8643 25.1069 72.9551 24.6865 73.1367 24.3174C73.3184 23.9482 73.5791 23.6626 73.9189 23.4604C74.2617 23.2583 74.6587 23.1572 75.1099 23.1572C75.7515 23.1572 76.2744 23.3535 76.6787 23.7461C77.0859 24.1387 77.313 24.6719 77.3599 25.3457L77.3687 25.6709C77.3687 26.4004 77.165 26.9863 76.7578 27.4287C76.3506 27.8682 75.8042 28.0879 75.1187 28.0879C74.4331 28.0879 73.8853 27.8682 73.4751 27.4287C73.0679 26.9893 72.8643 26.3916 72.8643 25.6357V25.5786ZM74.1343 25.6709C74.1343 26.1221 74.2192 26.4678 74.3892 26.708C74.5591 26.9453 74.8022 27.064 75.1187 27.064C75.4263 27.064 75.6665 26.9468 75.8394 26.7124C76.0122 26.4751 76.0986 26.0972 76.0986 25.5786C76.0986 25.1362 76.0122 24.7935 75.8394 24.5503C75.6665 24.3071 75.4233 24.1855 75.1099 24.1855C74.7993 24.1855 74.5591 24.3071 74.3892 24.5503C74.2192 24.7905 74.1343 25.1641 74.1343 25.6709ZM79.3198 23.2451L79.3594 23.7944C79.6992 23.3696 80.1548 23.1572 80.7261 23.1572C81.23 23.1572 81.605 23.3052 81.8511 23.6011C82.0972 23.897 82.2231 24.3394 82.229 24.9282V28H80.959V24.959C80.959 24.6895 80.9004 24.4946 80.7832 24.3745C80.666 24.2515 80.4712 24.1899 80.1987 24.1899C79.8413 24.1899 79.5732 24.3423 79.3945 24.647V28H78.1245V23.2451H79.3198ZM84.7163 22.0762V23.2451H85.5293V24.1768H84.7163V26.5498C84.7163 26.7256 84.75 26.8516 84.8174 26.9277C84.8848 27.0039 85.0137 27.042 85.2041 27.042C85.3447 27.042 85.4692 27.0317 85.5776 27.0112V27.9736C85.3286 28.0498 85.0723 28.0879 84.8086 28.0879C83.918 28.0879 83.4639 27.6382 83.4463 26.7388V24.1768H82.752V23.2451H83.4463V22.0762H84.7163ZM88.4253 28.0879C87.728 28.0879 87.1597 27.874 86.7202 27.4463C86.2837 27.0186 86.0654 26.4487 86.0654 25.7368V25.6138C86.0654 25.1362 86.1577 24.71 86.3423 24.335C86.5269 23.957 86.7876 23.667 87.1245 23.4648C87.4644 23.2598 87.8511 23.1572 88.2847 23.1572C88.9351 23.1572 89.4463 23.3623 89.8184 23.7725C90.1934 24.1826 90.3809 24.7642 90.3809 25.5171V26.0356H87.353C87.394 26.3462 87.5171 26.5952 87.7222 26.7827C87.9302 26.9702 88.1924 27.064 88.5088 27.064C88.998 27.064 89.3804 26.8867 89.6558 26.5322L90.2798 27.231C90.0894 27.5005 89.8315 27.7114 89.5063 27.8638C89.1812 28.0132 88.8208 28.0879 88.4253 28.0879ZM88.2803 24.1855C88.0283 24.1855 87.8232 24.2705 87.665 24.4404C87.5098 24.6104 87.4102 24.8535 87.3662 25.1699H89.1328V25.0688C89.127 24.7876 89.0508 24.5708 88.9043 24.4185C88.7578 24.2632 88.5498 24.1855 88.2803 24.1855ZM92.2749 23.2451L92.3145 23.7944C92.6543 23.3696 93.1099 23.1572 93.6812 23.1572C94.1851 23.1572 94.5601 23.3052 94.8062 23.6011C95.0522 23.897 95.1782 24.3394 95.1841 24.9282V28H93.9141V24.959C93.9141 24.6895 93.8555 24.4946 93.7383 24.3745C93.6211 24.2515 93.4263 24.1899 93.1538 24.1899C92.7964 24.1899 92.5283 24.3423 92.3496 24.647V28H91.0796V23.2451H92.2749ZM97.6714 22.0762V23.2451H98.4844V24.1768H97.6714V26.5498C97.6714 26.7256 97.7051 26.8516 97.7725 26.9277C97.8398 27.0039 97.9688 27.042 98.1592 27.042C98.2998 27.042 98.4243 27.0317 98.5327 27.0112V27.9736C98.2837 28.0498 98.0273 28.0879 97.7637 28.0879C96.873 28.0879 96.4189 27.6382 96.4014 26.7388V24.1768H95.707V23.2451H96.4014V22.0762H97.6714Z" fill="#0066FF"/>
<path d="M15.2959 28.8789H98.7041V29.3184H15.2959V28.8789Z" fill="#0066FF"/>
<rect x="57" y="45" width="40" height="3" fill="#0066FF"/>
<rect x="161" y="45" width="3" height="3" fill="#0066FF"/>
<circle cx="108" cy="47" r="1" fill="#0066FF"/>
<circle cx="102" cy="47" r="1" fill="#0066FF"/>
<circle cx="114" cy="47" r="1" fill="#0066FF"/>
<circle cx="120" cy="47" r="1" fill="#0066FF"/>
<circle cx="126" cy="47" r="1" fill="#0066FF"/>
<circle cx="132" cy="47" r="1" fill="#0066FF"/>
<circle cx="138" cy="47" r="1" fill="#0066FF"/>
<circle cx="144" cy="47" r="1" fill="#0066FF"/>
<circle cx="150" cy="47" r="1" fill="#0066FF"/>
<circle cx="156" cy="47" r="1" fill="#0066FF"/>
<rect x="57" y="52" width="27" height="3" fill="#0066FF"/>
<rect x="161" y="52" width="3" height="3" fill="#0066FF"/>
<circle cx="108" cy="54" r="1" fill="#0066FF"/>
<circle cx="102" cy="54" r="1" fill="#0066FF"/>
<circle cx="96" cy="54" r="1" fill="#0066FF"/>
<circle cx="90" cy="54" r="1" fill="#0066FF"/>
<circle cx="114" cy="54" r="1" fill="#0066FF"/>
<circle cx="120" cy="54" r="1" fill="#0066FF"/>
<circle cx="126" cy="54" r="1" fill="#0066FF"/>
<circle cx="132" cy="54" r="1" fill="#0066FF"/>
<circle cx="138" cy="54" r="1" fill="#0066FF"/>
<circle cx="144" cy="54" r="1" fill="#0066FF"/>
<circle cx="150" cy="54" r="1" fill="#0066FF"/>
<circle cx="156" cy="54" r="1" fill="#0066FF"/>
<rect x="57" y="59" width="34" height="3" fill="#0066FF"/>
<rect x="161" y="59" width="3" height="3" fill="#0066FF"/>
<circle cx="108" cy="61" r="1" fill="#0066FF"/>
<circle cx="102" cy="61" r="1" fill="#0066FF"/>
<circle cx="96" cy="61" r="1" fill="#0066FF"/>
<circle cx="114" cy="61" r="1" fill="#0066FF"/>
<circle cx="120" cy="61" r="1" fill="#0066FF"/>
<circle cx="126" cy="61" r="1" fill="#0066FF"/>
<circle cx="132" cy="61" r="1" fill="#0066FF"/>
<circle cx="138" cy="61" r="1" fill="#0066FF"/>
<circle cx="144" cy="61" r="1" fill="#0066FF"/>
<circle cx="150" cy="61" r="1" fill="#0066FF"/>
<circle cx="156" cy="61" r="1" fill="#0066FF"/>
<rect x="57" y="66" width="16" height="3" fill="#0066FF"/>
<rect x="161" y="66" width="3" height="3" fill="#0066FF"/>
<circle cx="108" cy="68" r="1" fill="#0066FF"/>
<circle cx="102" cy="68" r="1" fill="#0066FF"/>
<circle cx="96" cy="68" r="1" fill="#0066FF"/>
<circle cx="90" cy="68" r="1" fill="#0066FF"/>
<circle cx="84" cy="68" r="1" fill="#0066FF"/>
<circle cx="78" cy="68" r="1" fill="#0066FF"/>
<circle cx="114" cy="68" r="1" fill="#0066FF"/>
<circle cx="120" cy="68" r="1" fill="#0066FF"/>
<circle cx="126" cy="68" r="1" fill="#0066FF"/>
<circle cx="132" cy="68" r="1" fill="#0066FF"/>
<circle cx="138" cy="68" r="1" fill="#0066FF"/>
<circle cx="144" cy="68" r="1" fill="#0066FF"/>
<circle cx="150" cy="68" r="1" fill="#0066FF"/>
<circle cx="156" cy="68" r="1" fill="#0066FF"/>
<path d="M25 109L24.5 109L24.5 109.5L25 109.5L25 109ZM47.3536 109.354C47.5488 109.158 47.5488 108.842 47.3536 108.646L44.1716 105.464C43.9763 105.269 43.6597 105.269 43.4645 105.464C43.2692 105.66 43.2692 105.976 43.4645 106.172L46.2929 109L43.4645 111.828C43.2692 112.024 43.2692 112.34 43.4645 112.536C43.6597 112.731 43.9763 112.731 44.1716 112.536L47.3536 109.354ZM47 108.5L45.9 108.5L45.9 109.5L47 109.5L47 108.5ZM43.7 108.5L41.5 108.5L41.5 109.5L43.7 109.5L43.7 108.5ZM39.3 108.5L37.1 108.5L37.1 109.5L39.3 109.5L39.3 108.5ZM34.9 108.5L32.7 108.5L32.7 109.5L34.9 109.5L34.9 108.5ZM30.5 108.5L28.3 108.5L28.3 109.5L30.5 109.5L30.5 108.5ZM26.1 108.5L25 108.5L25 109.5L26.1 109.5L26.1 108.5ZM25.5 109L25.5 108.014L24.5 108.014L24.5 109L25.5 109ZM25.5 106.042L25.5 104.069L24.5 104.069L24.5 106.042L25.5 106.042ZM25.5 102.097L25.5 100.125L24.5 100.125L24.5 102.097L25.5 102.097ZM25.5 98.1528L25.5 96.1806L24.5 96.1806L24.5 98.1528L25.5 98.1528ZM25.5 94.2083L25.5 92.2361L24.5 92.2361L24.5 94.2083L25.5 94.2083ZM25.5 90.2639L25.5 88.2917L24.5 88.2917L24.5 90.2639L25.5 90.2639ZM25.5 86.3194L25.5 84.3472L24.5 84.3472L24.5 86.3194L25.5 86.3194ZM25.5 82.375L25.5 80.4028L24.5 80.4028L24.5 82.375L25.5 82.375ZM25.5 78.4306L25.5 76.4583L24.5 76.4583L24.5 78.4306L25.5 78.4306ZM25.5 74.4861L25.5 72.5139L24.5 72.5139L24.5 74.4861L25.5 74.4861ZM25.5 70.5417L25.5 68.5695L24.5 68.5695L24.5 70.5417L25.5 70.5417ZM25.5 66.5972L25.5 64.625L24.5 64.625L24.5 66.5972L25.5 66.5972ZM25.5 62.6528L25.5 60.6806L24.5 60.6806L24.5 62.6528L25.5 62.6528ZM25.5 58.7083L25.5 56.7361L24.5 56.7361L24.5 58.7083L25.5 58.7083ZM25.5 54.7639L25.5 52.7917L24.5 52.7917L24.5 54.7639L25.5 54.7639ZM25.5 50.8195L25.5 48.8472L24.5 48.8472L24.5 50.8195L25.5 50.8195ZM25.5 46.875L25.5 44.9028L24.5 44.9028L24.5 46.875L25.5 46.875ZM25.5 42.9306L25.5 40.9584L24.5 40.9584L24.5 42.9306L25.5 42.9306ZM25.5 38.9861L25.5 38L24.5 38L24.5 38.9861L25.5 38.9861Z" fill="#0066FF"/>
</g>
<defs>
<filter id="filter0_d_419_4802" x="-2" y="8" width="224" height="156" filterUnits="userSpaceOnUse" color-interpolation-filters="sRGB">
<feFlood flood-opacity="0" result="BackgroundImageFix"/>
<feColorMatrix in="SourceAlpha" type="matrix" values="0 0 0 0 0 0 0 0 0 0 0 0 0 0 0 0 0 0 127 0" result="hardAlpha"/>
<feOffset dy="4"/>
<feGaussianBlur stdDeviation="6"/>
<feComposite in2="hardAlpha" operator="out"/>
<feColorMatrix type="matrix" values="0 0 0 0 0 0 0 0 0 0 0 0 0 0 0 0 0 0 0.08 0"/>
<feBlend mode="normal" in2="BackgroundImageFix" result="effect1_dropShadow_419_4802"/>
<feBlend mode="normal" in="SourceGraphic" in2="effect1_dropShadow_419_4802" result="shape"/>
</filter>
<clipPath id="clip0_419_4802">
<rect width="220" height="148" fill="white"/>
</clipPath>
</defs>
</svg>
