<svg width="220" height="148" viewBox="0 0 220 148" fill="none" xmlns="http://www.w3.org/2000/svg">
<g clip-path="url(#clip0_362_4341)">
<g filter="url(#filter0_d_362_4341)">
<rect x="10" y="16" width="200" height="132" fill="white"/>
</g>
<rect x="156" y="26" width="14" height="3" fill="#CFD9E0"/>
<rect x="136" y="26" width="14" height="3" fill="#CFD9E0"/>
<rect x="116" y="26" width="14" height="3" fill="#CFD9E0"/>
<rect x="96" y="26" width="14" height="3" fill="#CFD9E0"/>
<circle cx="53.5" cy="27.5" r="3.5" fill="#CFD9E0"/>
<rect x="50" y="45" width="43" height="3" fill="#0066FF"/>
<rect x="63" y="52" width="40" height="3" fill="#0066FF"/>
<rect x="167" y="52" width="3" height="3" fill="#0066FF"/>
<circle cx="114" cy="54" r="1" fill="#0066FF"/>
<circle cx="108" cy="54" r="1" fill="#0066FF"/>
<circle cx="120" cy="54" r="1" fill="#0066FF"/>
<circle cx="126" cy="54" r="1" fill="#0066FF"/>
<circle cx="132" cy="54" r="1" fill="#0066FF"/>
<circle cx="138" cy="54" r="1" fill="#0066FF"/>
<circle cx="144" cy="54" r="1" fill="#0066FF"/>
<circle cx="150" cy="54" r="1" fill="#0066FF"/>
<circle cx="156" cy="54" r="1" fill="#0066FF"/>
<circle cx="162" cy="54" r="1" fill="#0066FF"/>
<rect x="63" y="59" width="27" height="3" fill="#0066FF"/>
<rect x="167" y="59" width="3" height="3" fill="#0066FF"/>
<circle cx="114" cy="61" r="1" fill="#0066FF"/>
<circle cx="108" cy="61" r="1" fill="#0066FF"/>
<circle cx="102" cy="61" r="1" fill="#0066FF"/>
<circle cx="96" cy="61" r="1" fill="#0066FF"/>
<circle cx="120" cy="61" r="1" fill="#0066FF"/>
<circle cx="126" cy="61" r="1" fill="#0066FF"/>
<circle cx="132" cy="61" r="1" fill="#0066FF"/>
<circle cx="138" cy="61" r="1" fill="#0066FF"/>
<circle cx="144" cy="61" r="1" fill="#0066FF"/>
<circle cx="150" cy="61" r="1" fill="#0066FF"/>
<circle cx="156" cy="61" r="1" fill="#0066FF"/>
<circle cx="162" cy="61" r="1" fill="#0066FF"/>
<rect x="63" y="66" width="34" height="3" fill="#0066FF"/>
<rect x="167" y="66" width="3" height="3" fill="#0066FF"/>
<circle cx="114" cy="68" r="1" fill="#0066FF"/>
<circle cx="108" cy="68" r="1" fill="#0066FF"/>
<circle cx="102" cy="68" r="1" fill="#0066FF"/>
<circle cx="120" cy="68" r="1" fill="#0066FF"/>
<circle cx="126" cy="68" r="1" fill="#0066FF"/>
<circle cx="132" cy="68" r="1" fill="#0066FF"/>
<circle cx="138" cy="68" r="1" fill="#0066FF"/>
<circle cx="144" cy="68" r="1" fill="#0066FF"/>
<circle cx="150" cy="68" r="1" fill="#0066FF"/>
<circle cx="156" cy="68" r="1" fill="#0066FF"/>
<circle cx="162" cy="68" r="1" fill="#0066FF"/>
<rect x="63" y="73" width="16" height="3" fill="#0066FF"/>
<rect x="167" y="73" width="3" height="3" fill="#0066FF"/>
<circle cx="114" cy="75" r="1" fill="#0066FF"/>
<circle cx="108" cy="75" r="1" fill="#0066FF"/>
<circle cx="102" cy="75" r="1" fill="#0066FF"/>
<circle cx="96" cy="75" r="1" fill="#0066FF"/>
<circle cx="90" cy="75" r="1" fill="#0066FF"/>
<circle cx="84" cy="75" r="1" fill="#0066FF"/>
<circle cx="120" cy="75" r="1" fill="#0066FF"/>
<circle cx="126" cy="75" r="1" fill="#0066FF"/>
<circle cx="132" cy="75" r="1" fill="#0066FF"/>
<circle cx="138" cy="75" r="1" fill="#0066FF"/>
<circle cx="144" cy="75" r="1" fill="#0066FF"/>
<circle cx="150" cy="75" r="1" fill="#0066FF"/>
<circle cx="156" cy="75" r="1" fill="#0066FF"/>
<circle cx="162" cy="75" r="1" fill="#0066FF"/>
<rect x="50" y="84" width="43" height="3" fill="#0066FF"/>
<rect x="63" y="91" width="40" height="3" fill="#0066FF"/>
<rect x="167" y="91" width="3" height="3" fill="#0066FF"/>
<circle cx="114" cy="93" r="1" fill="#0066FF"/>
<circle cx="108" cy="93" r="1" fill="#0066FF"/>
<circle cx="120" cy="93" r="1" fill="#0066FF"/>
<circle cx="126" cy="93" r="1" fill="#0066FF"/>
<circle cx="132" cy="93" r="1" fill="#0066FF"/>
<circle cx="138" cy="93" r="1" fill="#0066FF"/>
<circle cx="144" cy="93" r="1" fill="#0066FF"/>
<circle cx="150" cy="93" r="1" fill="#0066FF"/>
<circle cx="156" cy="93" r="1" fill="#0066FF"/>
<circle cx="162" cy="93" r="1" fill="#0066FF"/>
<rect x="63" y="98" width="27" height="3" fill="#0066FF"/>
<rect x="167" y="98" width="3" height="3" fill="#0066FF"/>
<circle cx="114" cy="100" r="1" fill="#0066FF"/>
<circle cx="108" cy="100" r="1" fill="#0066FF"/>
<circle cx="102" cy="100" r="1" fill="#0066FF"/>
<circle cx="96" cy="100" r="1" fill="#0066FF"/>
<circle cx="120" cy="100" r="1" fill="#0066FF"/>
<circle cx="126" cy="100" r="1" fill="#0066FF"/>
<circle cx="132" cy="100" r="1" fill="#0066FF"/>
<circle cx="138" cy="100" r="1" fill="#0066FF"/>
<circle cx="144" cy="100" r="1" fill="#0066FF"/>
<circle cx="150" cy="100" r="1" fill="#0066FF"/>
<circle cx="156" cy="100" r="1" fill="#0066FF"/>
<circle cx="162" cy="100" r="1" fill="#0066FF"/>
<rect x="63" y="105" width="34" height="3" fill="#0066FF"/>
<rect x="167" y="105" width="3" height="3" fill="#0066FF"/>
<circle cx="114" cy="107" r="1" fill="#0066FF"/>
<circle cx="108" cy="107" r="1" fill="#0066FF"/>
<circle cx="102" cy="107" r="1" fill="#0066FF"/>
<circle cx="120" cy="107" r="1" fill="#0066FF"/>
<circle cx="126" cy="107" r="1" fill="#0066FF"/>
<circle cx="132" cy="107" r="1" fill="#0066FF"/>
<circle cx="138" cy="107" r="1" fill="#0066FF"/>
<circle cx="144" cy="107" r="1" fill="#0066FF"/>
<circle cx="150" cy="107" r="1" fill="#0066FF"/>
<circle cx="156" cy="107" r="1" fill="#0066FF"/>
<circle cx="162" cy="107" r="1" fill="#0066FF"/>
<rect x="63" y="112" width="16" height="3" fill="#0066FF"/>
<rect x="167" y="112" width="3" height="3" fill="#0066FF"/>
<circle cx="114" cy="114" r="1" fill="#0066FF"/>
<circle cx="108" cy="114" r="1" fill="#0066FF"/>
<circle cx="102" cy="114" r="1" fill="#0066FF"/>
<circle cx="96" cy="114" r="1" fill="#0066FF"/>
<circle cx="90" cy="114" r="1" fill="#0066FF"/>
<circle cx="84" cy="114" r="1" fill="#0066FF"/>
<circle cx="120" cy="114" r="1" fill="#0066FF"/>
<circle cx="126" cy="114" r="1" fill="#0066FF"/>
<circle cx="132" cy="114" r="1" fill="#0066FF"/>
<circle cx="138" cy="114" r="1" fill="#0066FF"/>
<circle cx="144" cy="114" r="1" fill="#0066FF"/>
<circle cx="150" cy="114" r="1" fill="#0066FF"/>
<circle cx="156" cy="114" r="1" fill="#0066FF"/>
<circle cx="162" cy="114" r="1" fill="#0066FF"/>
<rect x="50" y="123" width="43" height="3" fill="#0066FF"/>
<rect x="63" y="130" width="40" height="3" fill="#0066FF"/>
<rect x="167" y="130" width="3" height="3" fill="#0066FF"/>
<circle cx="114" cy="132" r="1" fill="#0066FF"/>
<circle cx="108" cy="132" r="1" fill="#0066FF"/>
<circle cx="120" cy="132" r="1" fill="#0066FF"/>
<circle cx="126" cy="132" r="1" fill="#0066FF"/>
<circle cx="132" cy="132" r="1" fill="#0066FF"/>
<circle cx="138" cy="132" r="1" fill="#0066FF"/>
<circle cx="144" cy="132" r="1" fill="#0066FF"/>
<circle cx="150" cy="132" r="1" fill="#0066FF"/>
<circle cx="156" cy="132" r="1" fill="#0066FF"/>
<circle cx="162" cy="132" r="1" fill="#0066FF"/>
<rect x="63" y="137" width="27" height="3" fill="#0066FF"/>
<rect x="167" y="137" width="3" height="3" fill="#0066FF"/>
<circle cx="114" cy="139" r="1" fill="#0066FF"/>
<circle cx="108" cy="139" r="1" fill="#0066FF"/>
<circle cx="102" cy="139" r="1" fill="#0066FF"/>
<circle cx="96" cy="139" r="1" fill="#0066FF"/>
<circle cx="120" cy="139" r="1" fill="#0066FF"/>
<circle cx="126" cy="139" r="1" fill="#0066FF"/>
<circle cx="132" cy="139" r="1" fill="#0066FF"/>
<circle cx="138" cy="139" r="1" fill="#0066FF"/>
<circle cx="144" cy="139" r="1" fill="#0066FF"/>
<circle cx="150" cy="139" r="1" fill="#0066FF"/>
<circle cx="156" cy="139" r="1" fill="#0066FF"/>
<circle cx="162" cy="139" r="1" fill="#0066FF"/>
<rect x="63" y="144" width="34" height="3" fill="#0066FF"/>
<rect x="167" y="144" width="3" height="3" fill="#0066FF"/>
<circle cx="114" cy="146" r="1" fill="#0066FF"/>
<circle cx="108" cy="146" r="1" fill="#0066FF"/>
<circle cx="102" cy="146" r="1" fill="#0066FF"/>
<circle cx="120" cy="146" r="1" fill="#0066FF"/>
<circle cx="126" cy="146" r="1" fill="#0066FF"/>
<circle cx="132" cy="146" r="1" fill="#0066FF"/>
<circle cx="138" cy="146" r="1" fill="#0066FF"/>
<circle cx="144" cy="146" r="1" fill="#0066FF"/>
<circle cx="150" cy="146" r="1" fill="#0066FF"/>
<circle cx="156" cy="146" r="1" fill="#0066FF"/>
<circle cx="162" cy="146" r="1" fill="#0066FF"/>
</g>
<defs>
<filter id="filter0_d_362_4341" x="-2" y="8" width="224" height="156" filterUnits="userSpaceOnUse" color-interpolation-filters="sRGB">
<feFlood flood-opacity="0" result="BackgroundImageFix"/>
<feColorMatrix in="SourceAlpha" type="matrix" values="0 0 0 0 0 0 0 0 0 0 0 0 0 0 0 0 0 0 127 0" result="hardAlpha"/>
<feOffset dy="4"/>
<feGaussianBlur stdDeviation="6"/>
<feComposite in2="hardAlpha" operator="out"/>
<feColorMatrix type="matrix" values="0 0 0 0 0 0 0 0 0 0 0 0 0 0 0 0 0 0 0.08 0"/>
<feBlend mode="normal" in2="BackgroundImageFix" result="effect1_dropShadow_362_4341"/>
<feBlend mode="normal" in="SourceGraphic" in2="effect1_dropShadow_362_4341" result="shape"/>
</filter>
<clipPath id="clip0_362_4341">
<rect width="220" height="148" fill="white"/>
</clipPath>
</defs>
</svg>
