<svg width="220" height="148" viewBox="0 0 220 148" fill="none" xmlns="http://www.w3.org/2000/svg">
<g filter="url(#filter0_d_262_4122)">
<rect x="40" y="24" width="140" height="101" fill="white"/>
</g>
<rect x="40" y="40" width="140" height="0.999976" fill="#CFD9E0"/>
<rect x="48" y="31" width="20" height="3" fill="#0066FF"/>
<rect x="83" y="31" width="20" height="3" fill="#CFD9E0"/>
<rect x="118" y="31" width="20" height="3" fill="#CFD9E0"/>
<rect x="153" y="31" width="20" height="3" fill="#CFD9E0"/>
<rect x="40" y="39" width="35" height="2" fill="#0066FF"/>
<rect x="50" y="52" width="27" height="3" fill="#CFD9E0"/>
<rect x="50" y="62" width="42" height="3" fill="#CFD9E0"/>
<rect x="50" y="57" width="16" height="3" fill="#CFD9E0"/>
<rect x="81" y="52" width="12" height="3" fill="#CFD9E0"/>
<rect x="70" y="57" width="12" height="3" fill="#CFD9E0"/>
<rect x="97" y="52" width="21" height="3" fill="#CFD9E0"/>
<rect x="96" y="62" width="9" height="3" fill="#CFD9E0"/>
<rect x="86" y="57" width="41" height="3" fill="#CFD9E0"/>
<rect x="122" y="52" width="8" height="3" fill="#CFD9E0"/>
<rect x="109" y="62" width="35" height="3" fill="#CFD9E0"/>
<rect x="131" y="57" width="8" height="3" fill="#CFD9E0"/>
<rect x="134" y="52" width="30" height="3" fill="#CFD9E0"/>
<rect x="148" y="62" width="22" height="3" fill="#CFD9E0"/>
<rect x="143" y="57" width="11" height="3" fill="#CFD9E0"/>
<rect x="50" y="99" width="27" height="3" fill="#CFD9E0"/>
<rect x="50" y="109" width="42" height="3" fill="#CFD9E0"/>
<rect x="50" y="104" width="16" height="3" fill="#CFD9E0"/>
<rect x="81" y="99" width="12" height="3" fill="#CFD9E0"/>
<rect x="70" y="104" width="12" height="3" fill="#CFD9E0"/>
<rect x="97" y="99" width="21" height="3" fill="#CFD9E0"/>
<rect x="96" y="109" width="9" height="3" fill="#CFD9E0"/>
<rect x="86" y="104" width="41" height="3" fill="#CFD9E0"/>
<rect x="122" y="99" width="8" height="3" fill="#CFD9E0"/>
<rect x="109" y="109" width="35" height="3" fill="#CFD9E0"/>
<rect x="131" y="104" width="8" height="3" fill="#CFD9E0"/>
<rect x="134" y="99" width="30" height="3" fill="#CFD9E0"/>
<rect x="148" y="109" width="22" height="3" fill="#CFD9E0"/>
<rect x="143" y="104" width="11" height="3" fill="#CFD9E0"/>
<rect x="50" y="73" width="27" height="3" fill="#CFD9E0"/>
<rect x="50" y="83" width="42" height="3" fill="#CFD9E0"/>
<rect x="50" y="78" width="32" height="3" fill="#CFD9E0"/>
<rect x="50" y="88" width="32" height="3" fill="#CFD9E0"/>
<rect x="81" y="73" width="12" height="3" fill="#CFD9E0"/>
<rect x="96" y="83" width="9" height="3" fill="#CFD9E0"/>
<rect x="86" y="78" width="41" height="3" fill="#CFD9E0"/>
<rect x="86" y="88" width="41" height="3" fill="#CFD9E0"/>
<rect x="109" y="83" width="35" height="3" fill="#CFD9E0"/>
<rect x="131" y="78" width="8" height="3" fill="#CFD9E0"/>
<rect x="131" y="88" width="8" height="3" fill="#CFD9E0"/>
<rect x="143" y="78" width="22" height="3" fill="#CFD9E0"/>
<rect x="143" y="88" width="22" height="3" fill="#CFD9E0"/>
<defs>
<filter id="filter0_d_262_4122" x="28" y="16" width="164" height="125" filterUnits="userSpaceOnUse" color-interpolation-filters="sRGB">
<feFlood flood-opacity="0" result="BackgroundImageFix"/>
<feColorMatrix in="SourceAlpha" type="matrix" values="0 0 0 0 0 0 0 0 0 0 0 0 0 0 0 0 0 0 127 0" result="hardAlpha"/>
<feOffset dy="4"/>
<feGaussianBlur stdDeviation="6"/>
<feComposite in2="hardAlpha" operator="out"/>
<feColorMatrix type="matrix" values="0 0 0 0 0 0 0 0 0 0 0 0 0 0 0 0 0 0 0.08 0"/>
<feBlend mode="normal" in2="BackgroundImageFix" result="effect1_dropShadow_262_4122"/>
<feBlend mode="normal" in="SourceGraphic" in2="effect1_dropShadow_262_4122" result="shape"/>
</filter>
</defs>
</svg>
