<svg width="220" height="148" viewBox="0 0 220 148" fill="none" xmlns="http://www.w3.org/2000/svg">
<g clip-path="url(#clip0_321_4500)">
<g filter="url(#filter0_d_321_4500)">
<rect x="10" width="200" height="148" fill="white"/>
</g>
<path d="M93.1777 24.2671C93.1777 25.0369 93.0417 25.7119 92.7695 26.292C92.4974 26.8721 92.1071 27.3197 91.5986 27.6348C91.0938 27.9499 90.5137 28.1074 89.8584 28.1074C89.2103 28.1074 88.632 27.9517 88.1235 27.6401C87.6151 27.3286 87.2212 26.8846 86.9419 26.3081C86.6626 25.728 86.5212 25.062 86.5176 24.3101V23.9233C86.5176 23.1535 86.6554 22.4767 86.9312 21.8931C87.2104 21.3058 87.6025 20.8564 88.1074 20.5449C88.6159 20.2298 89.196 20.0723 89.8477 20.0723C90.4993 20.0723 91.0776 20.2298 91.5825 20.5449C92.091 20.8564 92.4831 21.3058 92.7588 21.8931C93.0381 22.4767 93.1777 23.1517 93.1777 23.918V24.2671ZM91.5449 23.9126C91.5449 23.0926 91.3981 22.4696 91.1045 22.0435C90.8109 21.6174 90.3919 21.4043 89.8477 21.4043C89.307 21.4043 88.8898 21.6156 88.5962 22.0381C88.3026 22.457 88.154 23.0729 88.1504 23.8857V24.2671C88.1504 25.0656 88.2972 25.6851 88.5908 26.1255C88.8844 26.5659 89.307 26.7861 89.8584 26.7861C90.3991 26.7861 90.8145 26.5749 91.1045 26.1523C91.3945 25.7262 91.5413 25.1068 91.5449 24.2939V23.9126ZM97.7271 27.4092C97.3439 27.8747 96.814 28.1074 96.1372 28.1074C95.5142 28.1074 95.0379 27.9284 94.7085 27.5703C94.3826 27.2122 94.2161 26.6877 94.209 25.9966V22.1885H95.7612V25.9429C95.7612 26.548 96.0369 26.8506 96.5884 26.8506C97.1147 26.8506 97.4764 26.668 97.6733 26.3027V22.1885H99.231V28H97.77L97.7271 27.4092ZM103.667 23.644C103.456 23.6154 103.27 23.6011 103.109 23.6011C102.522 23.6011 102.137 23.7998 101.954 24.1973V28H100.402V22.1885H101.868L101.911 22.8813C102.223 22.3478 102.654 22.0811 103.206 22.0811C103.377 22.0811 103.539 22.1043 103.689 22.1509L103.667 23.644ZM112.825 21.4849H110.43V28H108.818V21.4849H106.455V20.1797H112.825V21.4849ZM115.838 28.1074C114.986 28.1074 114.292 27.846 113.754 27.3232C113.221 26.8005 112.954 26.104 112.954 25.2339V25.0835C112.954 24.4998 113.067 23.9788 113.292 23.5205C113.518 23.0586 113.837 22.7041 114.249 22.457C114.664 22.2064 115.137 22.0811 115.667 22.0811C116.461 22.0811 117.086 22.3317 117.541 22.833C117.999 23.3343 118.229 24.0451 118.229 24.9653V25.5991H114.528C114.578 25.9787 114.728 26.283 114.979 26.5122C115.233 26.7414 115.554 26.856 115.94 26.856C116.538 26.856 117.006 26.6393 117.342 26.2061L118.105 27.0601C117.872 27.3895 117.557 27.6473 117.16 27.8335C116.762 28.0161 116.322 28.1074 115.838 28.1074ZM115.661 23.3379C115.353 23.3379 115.103 23.4417 114.909 23.6494C114.719 23.8571 114.598 24.1543 114.544 24.541H116.703V24.4175C116.696 24.0737 116.603 23.8088 116.424 23.6226C116.245 23.4328 115.991 23.3379 115.661 23.3379ZM122.482 28C122.411 27.8604 122.359 27.6867 122.327 27.479C121.951 27.8979 121.462 28.1074 120.86 28.1074C120.291 28.1074 119.818 27.9427 119.442 27.6133C119.07 27.2839 118.884 26.8685 118.884 26.3672C118.884 25.7513 119.111 25.2786 119.566 24.9492C120.024 24.6198 120.685 24.4533 121.548 24.4497H122.262V24.1167C122.262 23.8481 122.192 23.6333 122.053 23.4722C121.917 23.311 121.7 23.2305 121.403 23.2305C121.141 23.2305 120.936 23.2931 120.785 23.4185C120.638 23.5438 120.565 23.7157 120.565 23.9341H119.013C119.013 23.5975 119.117 23.286 119.324 22.9995C119.532 22.7131 119.826 22.4893 120.205 22.3281C120.585 22.1634 121.011 22.0811 121.483 22.0811C122.2 22.0811 122.767 22.2619 123.186 22.6235C123.609 22.9816 123.82 23.4865 123.82 24.1382V26.6572C123.823 27.2087 123.9 27.6258 124.051 27.9087V28H122.482ZM121.199 26.9204C121.428 26.9204 121.639 26.8703 121.833 26.77C122.026 26.6662 122.169 26.5283 122.262 26.3564V25.3574H121.682C120.905 25.3574 120.492 25.626 120.441 26.1631L120.436 26.2544C120.436 26.4478 120.504 26.6071 120.64 26.7324C120.776 26.8577 120.962 26.9204 121.199 26.9204ZM126.468 22.1885L126.516 22.8384C126.928 22.3335 127.485 22.0811 128.187 22.0811C128.935 22.0811 129.449 22.3765 129.728 22.9673C130.136 22.3765 130.718 22.0811 131.474 22.0811C132.104 22.0811 132.573 22.2655 132.881 22.6343C133.189 22.9995 133.343 23.5509 133.343 24.2886V28H131.785V24.2939C131.785 23.9645 131.721 23.7246 131.592 23.5742C131.463 23.4202 131.236 23.3433 130.91 23.3433C130.444 23.3433 130.122 23.5653 129.943 24.0093L129.948 28H128.396V24.2993C128.396 23.9627 128.33 23.7192 128.197 23.5688C128.065 23.4185 127.839 23.3433 127.521 23.3433C127.08 23.3433 126.761 23.5259 126.564 23.8911V28H125.012V22.1885H126.468Z" fill="#0B2239"/>
<rect x="57" y="36" width="106" height="3" fill="#CFD9E0"/>
<rect x="77" y="41" width="66" height="3" fill="#CFD9E0"/>
<rect x="55" y="96" width="22" height="3" fill="#0066FF"/>
<rect x="55" y="108" width="22" height="1" fill="#CFD9E0"/>
<rect x="57" y="111" width="18" height="1" fill="#CFD9E0"/>
<rect x="61" y="101" width="9" height="3" fill="#0066FF"/>
<g clip-path="url(#clip1_321_4500)">
<rect x="50.5" y="58.5" width="31" height="31" fill="#F0FBFF"/>
<path d="M73.9648 87.5558V89.5863C73.9648 89.8149 73.7796 90 73.551 90H58.4494C58.2208 90 58.0356 89.8149 58.0356 89.5863V87.5558C58.0356 85.4256 59.7625 83.6997 61.8933 83.6992C62.6463 83.6987 63.3093 83.3113 63.691 82.7238C64.0744 82.1345 64.0349 81.6221 64.0349 81.208L64.0427 81.1888C62.186 80.4203 60.8801 78.591 60.8801 76.4566V76.2948C60.1429 76.2948 59.5872 75.7122 59.5872 75.0256V72.8762C59.5706 72.1279 59.6048 69.4887 61.5111 67.6512C63.7277 65.5147 67.2404 65.6895 69.7849 66.8325C69.8677 66.8697 69.8651 66.9881 69.7813 67.0228L69.1178 67.2958C69.0185 67.3367 69.0397 67.4831 69.1462 67.4944L69.4684 67.5291C71.202 67.7142 72.6444 68.7491 73.3638 69.9754C73.3705 69.9872 73.3685 70.0028 73.3586 70.0131C72.7856 70.5975 72.4649 71.3841 72.4649 72.2034V74.9506C72.4649 75.6917 71.8645 76.2948 71.1203 76.2948V76.4566C71.1203 78.591 69.8144 80.4203 67.9577 81.1888L67.9655 81.208C67.9655 81.6104 67.9228 82.1296 68.3094 82.7238C68.6911 83.3113 69.3541 83.6987 70.1071 83.6992C72.2379 83.6997 73.9648 85.4256 73.9648 87.5558V87.5558Z" fill="#FFD6A6" stroke="black"/>
<path d="M73.3634 69.9753C73.3703 69.987 73.3682 70.0027 73.3582 70.013C72.7855 70.5976 72.4648 71.3843 72.4648 72.2033V74.9506C72.4648 75.6916 71.8645 76.2947 71.1201 76.2947C71.1201 74.7297 71.121 73.9118 71.1207 73.4722C71.1205 73.1947 70.8523 72.9952 70.587 73.0768C69.7533 73.3333 68.7806 73.4655 67.7585 73.2434C65.9597 72.8524 65.4503 72.1475 63.9831 71.7953C62.3436 71.4022 60.8567 72.6579 60.8671 74.2643C60.8702 74.7923 60.879 75.4522 60.88 76.2947C60.1428 76.2947 59.5871 75.7121 59.5871 75.0256V72.8762C59.5705 72.1278 59.6047 69.4887 61.511 67.6511C63.7274 65.5146 67.2404 65.6895 69.7845 66.8326C69.8673 66.8698 69.8651 66.9883 69.7812 67.0228L69.1176 67.296C69.0184 67.3368 69.0393 67.483 69.1459 67.4945L69.4682 67.5291C71.202 67.7144 72.6443 68.7489 73.3634 69.9753V69.9753Z" fill="#DCDCDC" stroke="#0B2239"/>
<path d="M70.5873 73.0768C70.8525 72.9952 71.1207 73.1945 71.1209 73.472C71.1212 73.9269 71.1203 74.7861 71.1203 76.4566C71.1203 78.591 69.8144 80.4203 67.9578 81.1888C64.6004 82.5825 60.8802 80.1067 60.8802 76.4566C60.8802 75.5127 60.8707 74.8421 60.8672 74.2643C60.8569 72.658 62.3438 71.4022 63.9832 71.7953C65.4505 72.1475 65.9599 72.8524 67.7587 73.2434C68.7809 73.4655 69.7535 73.3333 70.5873 73.0768V73.0768Z" fill="#FFDFBA" stroke="#0B2239"/>
<path d="M73.9648 87.5558V89.5863C73.9648 89.8148 73.7795 90 73.551 90H58.4494C58.2209 90 58.0356 89.8148 58.0356 89.5863V87.5558C58.0356 85.4256 59.7628 83.7 61.893 83.6992C62.6462 83.699 63.3094 83.3111 63.691 82.7238C65.0229 83.8617 66.9767 83.8624 68.3094 82.7238C68.6909 83.3111 69.3542 83.699 70.1074 83.6992C72.2376 83.7 73.9648 85.4256 73.9648 87.5558V87.5558Z" fill="#658FCE" stroke="#0B2239"/>
</g>
<rect x="50.5" y="58.5" width="31" height="31" stroke="#0B2239"/>
<rect x="143" y="96" width="22" height="3" fill="#0066FF"/>
<rect x="143" y="108" width="22" height="1" fill="#CFD9E0"/>
<rect x="145" y="111" width="18" height="1" fill="#CFD9E0"/>
<rect x="149" y="101" width="9" height="3" fill="#0066FF"/>
<g clip-path="url(#clip2_321_4500)">
<rect x="138.5" y="58.5" width="31" height="31" fill="#F0FBFF"/>
<path d="M161.965 87.5558V89.5863C161.965 89.8149 161.78 90 161.551 90H146.449C146.221 90 146.036 89.8149 146.036 89.5863V87.5558C146.036 85.4256 147.763 83.6997 149.893 83.6992C150.646 83.6987 151.309 83.3113 151.691 82.7238C152.074 82.1345 152.035 81.6221 152.035 81.208L152.043 81.1888C150.186 80.4203 148.88 78.591 148.88 76.4566V76.2948C148.143 76.2948 147.587 75.7122 147.587 75.0256V72.8762C147.571 72.1279 147.605 69.4887 149.511 67.6512C151.728 65.5147 155.24 65.6895 157.785 66.8325C157.868 66.8697 157.865 66.9881 157.781 67.0228L157.118 67.2958C157.018 67.3367 157.04 67.4831 157.146 67.4944L157.468 67.5291C159.202 67.7142 160.644 68.7491 161.364 69.9754C161.371 69.9872 161.368 70.0028 161.359 70.0131C160.786 70.5975 160.465 71.3841 160.465 72.2034V74.9506C160.465 75.6917 159.864 76.2948 159.12 76.2948V76.4566C159.12 78.591 157.814 80.4203 155.958 81.1888L155.965 81.208C155.965 81.6104 155.923 82.1296 156.309 82.7238C156.691 83.3113 157.354 83.6987 158.107 83.6992C160.238 83.6997 161.965 85.4256 161.965 87.5558V87.5558Z" fill="#FFD6A6" stroke="black"/>
<path d="M161.363 69.9753C161.37 69.987 161.368 70.0027 161.358 70.013C160.786 70.5976 160.465 71.3843 160.465 72.2033V74.9506C160.465 75.6916 159.864 76.2947 159.12 76.2947C159.12 74.7297 159.121 73.9118 159.121 73.4722C159.12 73.1947 158.852 72.9952 158.587 73.0768C157.753 73.3333 156.781 73.4655 155.758 73.2434C153.96 72.8524 153.45 72.1475 151.983 71.7953C150.344 71.4022 148.857 72.6579 148.867 74.2643C148.87 74.7923 148.879 75.4522 148.88 76.2947C148.143 76.2947 147.587 75.7121 147.587 75.0256V72.8762C147.571 72.1278 147.605 69.4887 149.511 67.6511C151.727 65.5146 155.24 65.6895 157.785 66.8326C157.867 66.8698 157.865 66.9883 157.781 67.0228L157.118 67.296C157.018 67.3368 157.039 67.483 157.146 67.4945L157.468 67.5291C159.202 67.7144 160.644 68.7489 161.363 69.9753V69.9753Z" fill="#9C7206" stroke="#0B2239"/>
<path d="M158.587 73.0768C158.853 72.9952 159.121 73.1945 159.121 73.472C159.121 73.9269 159.12 74.7861 159.12 76.4566C159.12 78.591 157.814 80.4203 155.958 81.1888C152.6 82.5825 148.88 80.1067 148.88 76.4566C148.88 75.5127 148.871 74.8421 148.867 74.2643C148.857 72.658 150.344 71.4022 151.983 71.7953C153.45 72.1475 153.96 72.8524 155.759 73.2434C156.781 73.4655 157.753 73.3333 158.587 73.0768V73.0768Z" fill="#FFDFBA" stroke="#0B2239"/>
<path d="M161.965 87.5558V89.5863C161.965 89.8148 161.78 90 161.551 90H146.449C146.221 90 146.036 89.8148 146.036 89.5863V87.5558C146.036 85.4256 147.763 83.7 149.893 83.6992C150.646 83.699 151.309 83.3111 151.691 82.7238C153.023 83.8617 154.977 83.8624 156.309 82.7238C156.691 83.3111 157.354 83.699 158.107 83.6992C160.238 83.7 161.965 85.4256 161.965 87.5558V87.5558Z" fill="#65CECE" stroke="#0B2239"/>
</g>
<rect x="138.5" y="58.5" width="31" height="31" stroke="#0B2239"/>
<rect x="99" y="96" width="22" height="3" fill="#0066FF"/>
<rect x="99" y="108" width="22" height="1" fill="#CFD9E0"/>
<rect x="101" y="111" width="18" height="1" fill="#CFD9E0"/>
<rect x="105" y="101" width="9" height="3" fill="#0066FF"/>
<g clip-path="url(#clip3_321_4500)">
<rect x="94.5" y="58.5" width="31" height="31" fill="#F0FBFF"/>
<path d="M117.966 87.5555V89.5862C117.966 89.8148 117.781 90 117.552 90H102.449C102.22 90 102.035 89.8148 102.035 89.5862V87.5555C102.035 85.994 102.963 84.6486 104.298 84.0419C103.753 83.6085 102.923 83.026 102.319 81.7728C101.478 80.0298 101.622 77.9735 102.694 76.364C103.276 75.4898 103.586 74.4636 103.586 73.4136V71.1724C103.586 68.3157 105.902 66 108.759 66H111.242C114.098 66 116.414 68.3157 116.414 71.1724C116.414 73.5459 116.356 74.0107 116.642 74.9545C117.046 76.289 117.579 76.4541 117.99 77.8122C118.636 79.9471 117.921 82.2754 116.161 83.6772L115.702 84.0419C117.037 84.6486 117.966 85.994 117.966 87.5555Z" fill="#FFDFBA" stroke="#0B2239"/>
<path d="M117.965 87.5555V89.5862C117.965 89.8147 117.78 90 117.551 90H102.448C102.219 90 102.034 89.8147 102.034 89.5862V87.5555C102.034 85.4264 103.76 83.6984 105.891 83.6984C106.208 83.6984 106.509 83.6296 106.78 83.5065L106.793 83.5345L109.746 85.8211C109.896 85.9365 110.104 85.9365 110.253 85.8211L113.207 83.5345L113.22 83.5065C113.49 83.6296 113.791 83.6984 114.108 83.6984C116.231 83.6984 117.965 85.4182 117.965 87.5555V87.5555Z" fill="#FFAA64" stroke="#0B2239"/>
<path d="M114.729 73.5651C114.949 73.5776 115.121 73.7581 115.121 73.9782V76.455C115.121 78.5897 113.815 80.4192 111.958 81.1878C108.6 82.5816 104.879 80.1055 104.879 76.455V74.0142C104.879 73.7716 105.087 73.58 105.329 73.6019C107.811 73.8269 110.255 73.2001 112.307 71.8174C112.541 71.6602 112.862 71.7767 112.936 72.0483C113.191 72.9894 113.888 73.5171 114.729 73.5651Z" fill="#FFEBD2" stroke="#0B2239"/>
<path d="M116.161 83.6772L115.702 84.0419C115.217 83.8216 114.677 83.6985 114.109 83.6985C112.928 83.6985 111.966 82.7449 111.966 81.5602V81.2069L111.958 81.1878C113.815 80.4191 115.121 78.5897 115.121 76.455V73.9781C115.121 73.7581 114.949 73.5776 114.729 73.5651C113.893 73.5174 113.193 72.9954 112.936 72.0484C112.863 71.7767 112.541 71.6602 112.308 71.8175C110.257 73.1992 107.813 73.8271 105.329 73.6019C105.087 73.58 104.88 73.7717 104.88 74.0142V76.4551C104.88 78.5897 106.186 80.4192 108.043 81.1878L108.035 81.207V81.5602C108.035 82.7448 107.073 83.6985 105.892 83.6985C105.323 83.6985 104.784 83.8216 104.298 84.042L103.84 83.6773C101.615 81.9046 101.12 78.7276 102.694 76.364C103.276 75.4899 103.587 74.4637 103.587 73.4137V71.1724C103.587 68.3158 105.902 66 108.759 66H111.242C114.098 66 116.414 68.3158 116.414 71.1724V73.4136C116.414 74.4624 116.725 75.4898 117.307 76.364C118.887 78.7361 118.377 81.9128 116.161 83.6772V83.6772Z" fill="#ECE393" stroke="#0B2239"/>
</g>
<rect x="94.5" y="58.5" width="31" height="31" stroke="#0B2239"/>
</g>
<defs>
<filter id="filter0_d_321_4500" x="-2" y="-8" width="224" height="172" filterUnits="userSpaceOnUse" color-interpolation-filters="sRGB">
<feFlood flood-opacity="0" result="BackgroundImageFix"/>
<feColorMatrix in="SourceAlpha" type="matrix" values="0 0 0 0 0 0 0 0 0 0 0 0 0 0 0 0 0 0 127 0" result="hardAlpha"/>
<feOffset dy="4"/>
<feGaussianBlur stdDeviation="6"/>
<feComposite in2="hardAlpha" operator="out"/>
<feColorMatrix type="matrix" values="0 0 0 0 0 0 0 0 0 0 0 0 0 0 0 0 0 0 0.08 0"/>
<feBlend mode="normal" in2="BackgroundImageFix" result="effect1_dropShadow_321_4500"/>
<feBlend mode="normal" in="SourceGraphic" in2="effect1_dropShadow_321_4500" result="shape"/>
</filter>
<clipPath id="clip0_321_4500">
<rect width="220" height="148" fill="white"/>
</clipPath>
<clipPath id="clip1_321_4500">
</clipPath>
<clipPath id="clip2_321_4500">
</clipPath>
<clipPath id="clip3_321_4500">
</clipPath>
</defs>
</svg>
