<svg width="220" height="148" viewBox="0 0 220 148" fill="none" xmlns="http://www.w3.org/2000/svg">
<g clip-path="url(#clip0_321_4501)">
<g filter="url(#filter0_d_321_4501)">
<rect x="10" width="200" height="148" fill="white"/>
</g>
<rect x="50.5" y="36.5" width="50" height="56" fill="#F0FBFF" stroke="#0B2239"/>
<rect x="113" y="77" width="14" height="3" fill="#0B2239"/>
<rect x="131" y="77" width="8" height="3" fill="#0B2239"/>
<rect x="96" y="108" width="4" height="4" fill="#CFD9E0"/>
<rect x="104" y="108" width="4" height="4" fill="#0066FF"/>
<rect x="112" y="108" width="4" height="4" fill="#CFD9E0"/>
<rect x="120" y="108" width="4" height="4" fill="#CFD9E0"/>
<rect x="113" y="45" width="22" height="3" fill="#CFD9E0"/>
<rect x="113" y="59" width="42" height="3" fill="#CFD9E0"/>
<rect x="113" y="52" width="32" height="3" fill="#CFD9E0"/>
<rect x="113" y="66" width="16" height="3" fill="#CFD9E0"/>
<rect x="139" y="45" width="18" height="3" fill="#CFD9E0"/>
<rect x="149" y="52" width="21" height="3" fill="#CFD9E0"/>
<rect x="133" y="66" width="26" height="3" fill="#CFD9E0"/>
<path d="M91.8853 81.7093C91.8633 81.7313 89.6644 83.9339 89.6379 83.9501C90.2515 84.9979 90.6033 86.2174 90.6033 87.5184V91.2414C90.6033 91.6605 90.2638 92 89.8447 92H62.155C61.7359 92 61.3964 91.6605 61.3964 91.2414V87.5184C61.3964 86.2174 61.7482 84.9979 62.3617 83.9501C62.3362 83.9345 62.5161 84.1111 60.1143 81.7093C59.2229 80.8179 59.1404 79.4012 59.9209 78.4122C60.8727 77.1943 60.5962 75.7889 59.7397 74.9813C58.8 74.0947 58.6957 72.6362 59.4998 71.6253L60.5922 70.2522C61.0958 69.6188 61.2598 68.7786 61.0303 68.002L60.3248 65.6095C59.9635 64.3872 60.5866 63.089 61.7662 62.6063L62.6984 62.2241C63.6315 61.842 64.2412 60.9335 64.2412 59.9246V57.4828C64.2412 52.2454 68.4866 48 73.724 48H78.2757C83.5127 48 87.7584 52.2443 87.7584 57.4828V59.9246C87.7584 60.9335 88.3682 61.842 89.3013 62.2241L90.2335 62.6063C91.4131 63.089 92.0361 64.3872 91.6748 65.6095L90.9693 68.002C90.7398 68.7786 90.9039 69.6188 91.4074 70.2522L92.4998 71.6253C93.3046 72.6387 93.1993 74.0937 92.2599 74.9813C91.3221 75.8651 91.2159 77.3188 92.0143 78.3297C92.9214 79.4902 92.7286 80.866 91.8853 81.7093V81.7093Z" fill="#FFDFBA"/>
<path d="M60.1145 81.7093C60.1365 81.7313 62.3354 83.9339 62.3619 83.9501C61.7483 84.9979 61.3965 86.2174 61.3965 87.5184V91.2414C61.3965 91.6605 61.736 92 62.1551 92H89.8448C90.2639 92 90.6034 91.6605 90.6034 91.2414V87.5184C90.6034 86.2174 90.2516 84.9979 89.6381 83.9501C89.6636 83.9345 89.4837 84.1111 91.8855 81.7093C92.7769 80.8179 92.8594 79.4012 92.0789 78.4122C91.1271 77.1943 91.4036 75.7889 92.2601 74.9813C93.1998 74.0947 93.3041 72.6362 92.5 71.6253L91.4076 70.2522C90.904 69.6188 90.74 68.7786 90.9695 68.002L91.675 65.6095C92.0363 64.3872 91.4132 63.089 90.2336 62.6063L89.3014 62.2241C88.3683 61.842 87.7586 60.9335 87.7586 59.9246V57.4828C87.7586 52.2454 83.5132 48 78.2758 48H73.7241C68.4871 48 64.2414 52.2443 64.2414 57.4828V59.9246C64.2414 60.9335 63.6316 61.842 62.6985 62.2241L61.7664 62.6063C60.5867 63.089 59.9637 64.3872 60.325 65.6095L61.0305 68.002C61.26 68.7786 61.0959 69.6188 60.5924 70.2522L59.5 71.6253C58.6952 72.6387 58.8005 74.0937 59.7399 74.9813C60.6777 75.8651 60.7839 77.3188 59.9855 78.3297C59.0784 79.4902 59.2712 80.866 60.1145 81.7093V81.7093Z" fill="#FFDFBA"/>
<path d="M67.2845 64.9586C66.901 65.0024 66.6119 65.3261 66.6119 65.7121V67.1676C66.6119 71.0802 69.0063 74.4352 72.4106 75.8443L72.3964 75.8793V76.527C72.3964 78.6836 70.658 80.4219 68.5132 80.4472C65.8512 80.4472 63.5902 81.852 62.3617 83.9501C62.3353 83.9339 60.1363 81.7313 60.1143 81.7093C59.2229 80.8179 59.1404 79.4012 59.9209 78.4122C60.8727 77.1943 60.5962 75.7889 59.7397 74.9813C58.8 74.0947 58.6957 72.6362 59.4998 71.6253L60.5922 70.2522C61.0958 69.6188 61.2598 68.7786 61.0303 68.002L60.3248 65.6095C59.9635 64.3872 60.5866 63.089 61.7662 62.6063L62.6984 62.2241C63.6315 61.842 64.2412 60.9335 64.2412 59.9246V57.4828C64.2412 52.2456 68.4868 48 73.724 48H78.2757C83.5127 48 87.7585 52.2444 87.7585 57.4828V59.9246C87.7585 60.9335 88.3682 61.842 89.3013 62.2241L90.2335 62.6063C91.4131 63.089 92.0361 64.3872 91.6748 65.6095L90.9693 68.002C90.7398 68.7786 90.9039 69.6188 91.4074 70.2522L92.4998 71.6253C93.3045 72.6386 93.1995 74.0936 92.2599 74.9813C91.3841 75.8066 91.1427 77.2145 92.0788 78.4122C92.8592 79.4012 92.7767 80.8179 91.8853 81.7093C91.8633 81.7313 89.6644 83.9339 89.6379 83.9501C88.4196 81.8694 86.1679 80.4472 83.4865 80.4472C81.3425 80.4219 79.6033 78.6846 79.6033 76.527V75.8793L79.5891 75.8433C82.9934 74.4341 85.3878 71.081 85.3878 67.1675V62.4913C85.3878 62.1725 85.1892 61.8873 84.8893 61.7788C83.2393 61.1822 81.8462 60.0325 80.9506 58.4965C80.689 58.0478 80.0607 57.9954 79.7214 58.3886C76.5467 62.0684 72.1402 64.4041 67.2845 64.9586V64.9586Z" fill="#FCF8A4" stroke="#0B2239"/>
<path d="M84.8893 61.7789C85.1891 61.8873 85.3877 62.1724 85.3877 62.4913V67.1676C85.3877 71.0811 82.9933 74.4342 79.589 75.8433C73.4312 78.3993 66.6118 73.8585 66.6118 67.1675V65.712C66.6118 65.326 66.9009 65.0023 67.2844 64.9585C72.1318 64.4049 76.5412 62.0747 79.7214 58.3887C80.0606 57.9955 80.6889 58.0478 80.9505 58.4965C81.8453 60.0312 83.2375 61.1816 84.8893 61.7789V61.7789Z" fill="#FFEBD2" stroke="#0B2239"/>
<path d="M90.6034 87.5184V91.2414C90.6034 91.6605 90.2639 92 89.8448 92H62.1551C61.736 92 61.3965 91.6605 61.3965 91.2414V87.5184C61.3965 83.6162 64.5597 80.4471 68.4678 80.4471C69.0158 80.4471 69.5701 80.335 70.0969 80.0953L70.1206 80.1465L75.5353 84.3389C75.8093 84.5503 76.1905 84.5503 76.4646 84.3389L81.8792 80.1465L81.9029 80.0953C82.3866 80.3153 82.9223 80.4405 83.4866 80.4471C87.5469 80.4471 90.6034 83.704 90.6034 87.5184Z" fill="#EBBD3D" stroke="#0B2239"/>
</g>
<defs>
<filter id="filter0_d_321_4501" x="-2" y="-8" width="224" height="172" filterUnits="userSpaceOnUse" color-interpolation-filters="sRGB">
<feFlood flood-opacity="0" result="BackgroundImageFix"/>
<feColorMatrix in="SourceAlpha" type="matrix" values="0 0 0 0 0 0 0 0 0 0 0 0 0 0 0 0 0 0 127 0" result="hardAlpha"/>
<feOffset dy="4"/>
<feGaussianBlur stdDeviation="6"/>
<feComposite in2="hardAlpha" operator="out"/>
<feColorMatrix type="matrix" values="0 0 0 0 0 0 0 0 0 0 0 0 0 0 0 0 0 0 0.08 0"/>
<feBlend mode="normal" in2="BackgroundImageFix" result="effect1_dropShadow_321_4501"/>
<feBlend mode="normal" in="SourceGraphic" in2="effect1_dropShadow_321_4501" result="shape"/>
</filter>
<clipPath id="clip0_321_4501">
<rect width="220" height="148" fill="white"/>
</clipPath>
</defs>
</svg>
