<svg width="381" height="191" viewBox="0 0 381 191" fill="none" xmlns="http://www.w3.org/2000/svg">
<rect width="381" height="191" fill="#F7F9FA"/>
<g clip-path="url(#clip0_646_5982)">
<g filter="url(#filter0_d_646_5982)">
<rect x="67.5967" width="245.806" height="191" fill="white"/>
</g>
<g clip-path="url(#clip1_646_5982)">
<rect x="116.759" y="11.6147" width="19.6645" height="3.87162" fill="#CFD9E0"/>
<rect x="116.759" y="18.0676" width="147.484" height="89.0473" fill="white" stroke="#E2E9EF"/>
<rect x="121.675" y="47.75" width="25.8097" height="3.87162" fill="#CFD9E0"/>
<rect x="121.675" y="69.6892" width="14.7484" height="3.87163" fill="#CFD9E0"/>
<rect x="143.798" y="69.6892" width="4.91613" height="1.29054" fill="#CFD9E0"/>
<rect x="158.546" y="69.6892" width="4.91613" height="1.29054" fill="#CFD9E0"/>
<rect x="173.294" y="69.6892" width="4.91613" height="1.29054" fill="#CFD9E0"/>
<rect x="188.043" y="69.6892" width="4.91612" height="1.29054" fill="#CFD9E0"/>
<rect x="143.798" y="78.7231" width="4.91613" height="1.29054" fill="#CFD9E0"/>
<rect x="158.546" y="78.7231" width="4.91613" height="1.29054" fill="#CFD9E0"/>
<rect x="173.294" y="78.7231" width="4.91613" height="1.29054" fill="#CFD9E0"/>
<rect x="188.043" y="78.7231" width="4.91612" height="1.29054" fill="#CFD9E0"/>
<rect x="143.798" y="87.7568" width="4.91613" height="1.29054" fill="#CFD9E0"/>
<rect x="158.546" y="87.7568" width="4.91613" height="1.29054" fill="#CFD9E0"/>
<rect x="173.294" y="87.7568" width="4.91613" height="1.29054" fill="#CFD9E0"/>
<rect x="188.043" y="87.7568" width="4.91612" height="1.29054" fill="#CFD9E0"/>
<rect x="143.798" y="96.7905" width="4.91613" height="1.29053" fill="#CFD9E0"/>
<rect x="158.546" y="96.7905" width="4.91613" height="1.29053" fill="#CFD9E0"/>
<rect x="173.294" y="96.7905" width="4.91613" height="1.29053" fill="#CFD9E0"/>
<rect x="188.043" y="96.7905" width="4.91612" height="1.29053" fill="#CFD9E0"/>
<rect x="142.568" y="58.0745" width="7.37419" height="7.74324" fill="#0066FF"/>
<rect x="157.316" y="58.0745" width="7.3742" height="7.74324" fill="#CFD9E0"/>
<rect x="172.065" y="58.0745" width="7.37419" height="7.74324" fill="#CFD9E0"/>
<rect x="186.813" y="58.0745" width="7.3742" height="7.74324" fill="#CFD9E0"/>
<rect x="121.675" y="78.7231" width="14.7484" height="3.87163" fill="#CFD9E0"/>
<rect x="121.675" y="87.7568" width="14.7484" height="3.87163" fill="#CFD9E0"/>
<rect x="121.675" y="96.7905" width="14.7484" height="3.87162" fill="#CFD9E0"/>
<rect x="154.858" y="47.75" width="25.8097" height="3.87162" fill="#CFD9E0"/>
<rect x="188.043" y="47.75" width="25.8097" height="3.87162" fill="#CFD9E0"/>
<path d="M131.862 35.0676H129.894V30.0129H124.808V35.0676H122.831V23.6926H124.808V28.427H129.894V23.6926H131.862V35.0676ZM139.042 35.0676H137.151V25.9348L134.362 26.8879V25.2864L138.8 23.6536H139.042V35.0676Z" fill="#0B2239"/>
<path d="M215.854 63.8743H212.307V73.6555H210.346V63.8743H206.83V62.2805H215.854V63.8743ZM219.041 66.1243C219.661 65.4055 220.445 65.0461 221.393 65.0461C223.195 65.0461 224.109 66.0748 224.135 68.1321V73.6555H222.236V68.2024C222.236 67.6191 222.109 67.2076 221.854 66.968C221.604 66.7232 221.234 66.6008 220.744 66.6008C219.984 66.6008 219.416 66.9394 219.041 67.6165V73.6555H217.143V61.6555H219.041V66.1243ZM229.783 73.8118C228.58 73.8118 227.604 73.4342 226.854 72.679C226.109 71.9185 225.736 70.9081 225.736 69.6477V69.4133C225.736 68.5696 225.898 67.817 226.221 67.1555C226.549 66.4889 227.007 65.9706 227.596 65.6008C228.184 65.231 228.84 65.0461 229.564 65.0461C230.715 65.0461 231.604 65.4133 232.229 66.1477C232.859 66.8821 233.174 67.9211 233.174 69.2649V70.0305H227.65C227.708 70.7284 227.939 71.2805 228.346 71.6868C228.757 72.093 229.273 72.2961 229.893 72.2961C230.762 72.2961 231.471 71.9446 232.018 71.2415L233.041 72.218C232.702 72.7232 232.249 73.1165 231.682 73.3977C231.119 73.6737 230.486 73.8118 229.783 73.8118ZM229.557 66.5696C229.036 66.5696 228.614 66.7519 228.291 67.1165C227.973 67.481 227.77 67.9889 227.682 68.6399H231.299V68.4993C231.257 67.8639 231.088 67.3847 230.791 67.0618C230.494 66.7336 230.083 66.5696 229.557 66.5696ZM207.096 84.3586C207.096 83.0357 207.398 81.9862 208.002 81.2102C208.606 80.4342 209.424 80.0461 210.455 80.0461C211.398 80.0461 212.145 80.3769 212.697 81.0383L212.807 80.2024H214.494V91.9055H212.596V87.9368C212.044 88.5201 211.325 88.8118 210.439 88.8118C209.429 88.8118 208.619 88.4185 208.01 87.6321C207.4 86.8404 207.096 85.7493 207.096 84.3586ZM208.994 84.5227C208.994 85.3873 209.163 86.067 209.502 86.5618C209.846 87.0514 210.32 87.2961 210.924 87.2961C211.674 87.2961 212.231 86.9758 212.596 86.3352V82.4915C212.231 81.8769 211.679 81.5696 210.939 81.5696C210.335 81.5696 209.859 81.8118 209.51 82.2961C209.166 82.7805 208.994 83.5227 208.994 84.5227ZM221.666 87.8274C221.109 88.4836 220.317 88.8118 219.291 88.8118C218.374 88.8118 217.679 88.5435 217.205 88.0071C216.736 87.4706 216.502 86.6946 216.502 85.679V80.2024H218.4V85.6555C218.4 86.7284 218.846 87.2649 219.736 87.2649C220.658 87.2649 221.281 86.9342 221.604 86.2727V80.2024H223.502V88.6555H221.713L221.666 87.8274ZM227.455 88.6555H225.557V80.2024H227.455V88.6555ZM225.439 78.0071C225.439 77.7154 225.531 77.4732 225.713 77.2805C225.9 77.0878 226.166 76.9915 226.51 76.9915C226.854 76.9915 227.119 77.0878 227.307 77.2805C227.494 77.4732 227.588 77.7154 227.588 78.0071C227.588 78.2935 227.494 78.5331 227.307 78.7258C227.119 78.9133 226.854 79.0071 226.51 79.0071C226.166 79.0071 225.9 78.9133 225.713 78.7258C225.531 78.5331 225.439 78.2935 225.439 78.0071ZM233.002 87.2961C233.476 87.2961 233.869 87.1581 234.182 86.8821C234.494 86.606 234.661 86.2649 234.682 85.8586H236.471C236.45 86.3847 236.286 86.8769 235.979 87.3352C235.671 87.7883 235.255 88.1477 234.729 88.4133C234.202 88.679 233.635 88.8118 233.025 88.8118C231.843 88.8118 230.906 88.429 230.213 87.6633C229.52 86.8977 229.174 85.8404 229.174 84.4915V84.2961C229.174 83.0097 229.518 81.981 230.205 81.2102C230.893 80.4342 231.83 80.0461 233.018 80.0461C234.023 80.0461 234.84 80.3404 235.471 80.929C236.106 81.5123 236.439 82.2805 236.471 83.2336H234.682C234.661 82.7493 234.494 82.3508 234.182 82.0383C233.874 81.7258 233.481 81.5696 233.002 81.5696C232.387 81.5696 231.913 81.7935 231.58 82.2415C231.247 82.6842 231.077 83.3586 231.072 84.2649V84.5696C231.072 85.4862 231.236 86.1711 231.564 86.6243C231.898 87.0722 232.377 87.2961 233.002 87.2961ZM240.65 85.0305L239.807 85.8977V88.6555H237.908V76.6555H239.807V83.5774L240.4 82.8352L242.736 80.2024H245.018L241.877 83.7258L245.354 88.6555H243.158L240.65 85.0305Z" fill="#0B2239"/>
<rect x="116.759" y="107.115" width="147.484" height="89.0473" fill="white" stroke="#E2E9EF"/>
<rect x="121.675" y="136.797" width="25.8097" height="3.87161" fill="#CFD9E0"/>
<rect x="121.675" y="158.736" width="14.7484" height="3.8716" fill="#CFD9E0"/>
<rect x="143.798" y="158.736" width="4.91613" height="1.29053" fill="#CFD9E0"/>
<rect x="158.546" y="158.736" width="4.91613" height="1.29053" fill="#CFD9E0"/>
<rect x="173.294" y="158.736" width="4.91613" height="1.29053" fill="#CFD9E0"/>
<rect x="188.043" y="158.736" width="4.91612" height="1.29053" fill="#CFD9E0"/>
<rect x="143.798" y="167.77" width="4.91613" height="1.29053" fill="#CFD9E0"/>
<rect x="158.546" y="167.77" width="4.91613" height="1.29053" fill="#CFD9E0"/>
<rect x="173.294" y="167.77" width="4.91613" height="1.29053" fill="#CFD9E0"/>
<rect x="188.043" y="167.77" width="4.91612" height="1.29053" fill="#CFD9E0"/>
<rect x="143.798" y="176.804" width="4.91613" height="1.29053" fill="#CFD9E0"/>
<rect x="158.546" y="176.804" width="4.91613" height="1.29053" fill="#CFD9E0"/>
<rect x="173.294" y="176.804" width="4.91613" height="1.29053" fill="#CFD9E0"/>
<rect x="188.043" y="176.804" width="4.91612" height="1.29053" fill="#CFD9E0"/>
<rect x="143.798" y="185.838" width="4.91613" height="1.29053" fill="#CFD9E0"/>
<rect x="158.546" y="185.838" width="4.91613" height="1.29053" fill="#CFD9E0"/>
<rect x="173.294" y="185.838" width="4.91613" height="1.29053" fill="#CFD9E0"/>
<rect x="188.043" y="185.838" width="4.91612" height="1.29053" fill="#CFD9E0"/>
<rect x="142.568" y="147.122" width="7.37419" height="7.74324" fill="#0066FF"/>
<rect x="157.316" y="147.122" width="7.3742" height="7.74324" fill="#CFD9E0"/>
<rect x="172.065" y="147.122" width="7.37419" height="7.74324" fill="#CFD9E0"/>
<rect x="186.813" y="147.122" width="7.3742" height="7.74324" fill="#CFD9E0"/>
<rect x="121.675" y="167.77" width="14.7484" height="3.87161" fill="#CFD9E0"/>
<rect x="121.675" y="176.804" width="14.7484" height="3.87161" fill="#CFD9E0"/>
<rect x="121.675" y="185.838" width="14.7484" height="3.87161" fill="#CFD9E0"/>
<rect x="154.858" y="136.797" width="25.8097" height="3.87161" fill="#CFD9E0"/>
<rect x="188.043" y="136.797" width="25.8097" height="3.87161" fill="#CFD9E0"/>
<path d="M129.315 123.115H127.839V119.324H124.024V123.115H122.542V114.583H124.024V118.134H127.839V114.583H129.315V123.115ZM136.581 123.115H130.845V122.136L133.687 119.037C134.097 118.58 134.388 118.199 134.56 117.894C134.735 117.585 134.823 117.277 134.823 116.968C134.823 116.562 134.708 116.234 134.478 115.984C134.251 115.734 133.944 115.609 133.558 115.609C133.097 115.609 132.739 115.75 132.485 116.031C132.231 116.312 132.104 116.697 132.104 117.185H130.681C130.681 116.666 130.798 116.199 131.032 115.785C131.271 115.367 131.608 115.042 132.046 114.812C132.487 114.582 132.995 114.466 133.569 114.466C134.397 114.466 135.05 114.675 135.526 115.093C136.007 115.507 136.247 116.082 136.247 116.816C136.247 117.242 136.126 117.689 135.884 118.158C135.646 118.623 135.253 119.152 134.706 119.746L132.62 121.978H136.581V123.115Z" fill="#0B2239"/>
<path d="M213.51 154.657H210.85V161.993H209.379V154.657H206.742V153.462H213.51V154.657ZM215.9 156.345C216.365 155.806 216.953 155.536 217.664 155.536C219.016 155.536 219.701 156.308 219.721 157.851V161.993H218.297V157.903C218.297 157.466 218.201 157.157 218.01 156.978C217.822 156.794 217.545 156.702 217.178 156.702C216.607 156.702 216.182 156.956 215.9 157.464V161.993H214.477V152.993H215.9V156.345ZM223.957 162.11C223.055 162.11 222.322 161.827 221.76 161.261C221.201 160.69 220.922 159.933 220.922 158.987V158.812C220.922 158.179 221.043 157.614 221.285 157.118C221.531 156.618 221.875 156.229 222.316 155.952C222.758 155.675 223.25 155.536 223.793 155.536C224.656 155.536 225.322 155.812 225.791 156.362C226.264 156.913 226.5 157.692 226.5 158.7V159.274H222.357C222.4 159.798 222.574 160.212 222.879 160.517C223.188 160.821 223.574 160.974 224.039 160.974C224.691 160.974 225.223 160.71 225.633 160.183L226.4 160.915C226.146 161.294 225.807 161.589 225.381 161.8C224.959 162.007 224.484 162.11 223.957 162.11ZM223.787 156.679C223.396 156.679 223.08 156.815 222.838 157.089C222.6 157.362 222.447 157.743 222.381 158.231H225.094V158.126C225.062 157.649 224.936 157.29 224.713 157.048C224.49 156.802 224.182 156.679 223.787 156.679ZM206.941 171.771C206.941 170.778 207.168 169.991 207.621 169.409C208.074 168.827 208.688 168.536 209.461 168.536C210.168 168.536 210.729 168.784 211.143 169.28L211.225 168.653H212.49V177.431H211.066V174.454C210.652 174.892 210.113 175.11 209.449 175.11C208.691 175.11 208.084 174.815 207.627 174.226C207.17 173.632 206.941 172.813 206.941 171.771ZM208.365 171.894C208.365 172.542 208.492 173.052 208.746 173.423C209.004 173.79 209.359 173.974 209.812 173.974C210.375 173.974 210.793 173.733 211.066 173.253V170.37C210.793 169.909 210.379 169.679 209.824 169.679C209.371 169.679 209.014 169.86 208.752 170.224C208.494 170.587 208.365 171.144 208.365 171.894ZM217.869 174.372C217.451 174.864 216.857 175.11 216.088 175.11C215.4 175.11 214.879 174.909 214.523 174.507C214.172 174.104 213.996 173.522 213.996 172.761V168.653H215.42V172.743C215.42 173.548 215.754 173.95 216.422 173.95C217.113 173.95 217.58 173.702 217.822 173.206V168.653H219.246V174.993H217.904L217.869 174.372ZM222.211 174.993H220.787V168.653H222.211V174.993ZM220.699 167.007C220.699 166.788 220.768 166.606 220.904 166.462C221.045 166.317 221.244 166.245 221.502 166.245C221.76 166.245 221.959 166.317 222.1 166.462C222.24 166.606 222.311 166.788 222.311 167.007C222.311 167.222 222.24 167.401 222.1 167.546C221.959 167.687 221.76 167.757 221.502 167.757C221.244 167.757 221.045 167.687 220.904 167.546C220.768 167.401 220.699 167.222 220.699 167.007ZM226.371 173.974C226.727 173.974 227.021 173.87 227.256 173.663C227.49 173.456 227.615 173.2 227.631 172.896H228.973C228.957 173.29 228.834 173.659 228.604 174.003C228.373 174.343 228.061 174.612 227.666 174.812C227.271 175.011 226.846 175.11 226.389 175.11C225.502 175.11 224.799 174.823 224.279 174.249C223.76 173.675 223.5 172.882 223.5 171.87V171.724C223.5 170.759 223.758 169.987 224.273 169.409C224.789 168.827 225.492 168.536 226.383 168.536C227.137 168.536 227.75 168.757 228.223 169.198C228.699 169.636 228.949 170.212 228.973 170.927H227.631C227.615 170.563 227.49 170.265 227.256 170.03C227.025 169.796 226.73 169.679 226.371 169.679C225.91 169.679 225.555 169.847 225.305 170.183C225.055 170.515 224.928 171.021 224.924 171.7V171.929C224.924 172.616 225.047 173.13 225.293 173.47C225.543 173.806 225.902 173.974 226.371 173.974ZM232.107 172.274L231.475 172.925V174.993H230.051V165.993H231.475V171.185L231.92 170.628L233.672 168.653H235.383L233.027 171.296L235.635 174.993H233.988L232.107 172.274Z" fill="#0B2239"/>
</g>
</g>
<defs>
<filter id="filter0_d_646_5982" x="55.5967" y="-8" width="269.807" height="215" filterUnits="userSpaceOnUse" color-interpolation-filters="sRGB">
<feFlood flood-opacity="0" result="BackgroundImageFix"/>
<feColorMatrix in="SourceAlpha" type="matrix" values="0 0 0 0 0 0 0 0 0 0 0 0 0 0 0 0 0 0 127 0" result="hardAlpha"/>
<feOffset dy="4"/>
<feGaussianBlur stdDeviation="6"/>
<feComposite in2="hardAlpha" operator="out"/>
<feColorMatrix type="matrix" values="0 0 0 0 0 0 0 0 0 0 0 0 0 0 0 0 0 0 0.08 0"/>
<feBlend mode="normal" in2="BackgroundImageFix" result="effect1_dropShadow_646_5982"/>
<feBlend mode="normal" in="SourceGraphic" in2="effect1_dropShadow_646_5982" result="shape"/>
</filter>
<clipPath id="clip0_646_5982">
<rect width="270.387" height="191" fill="white" transform="translate(55.3066)"/>
</clipPath>
<clipPath id="clip1_646_5982">
<rect width="159.774" height="191" fill="white" transform="translate(110.613)"/>
</clipPath>
</defs>
</svg>
