<svg width="381" height="191" viewBox="0 0 381 191" fill="none" xmlns="http://www.w3.org/2000/svg">
<rect width="381" height="191" fill="#F7F9FA"/>
<g clip-path="url(#clip0_646_6075)">
<g filter="url(#filter0_d_646_6075)">
<rect x="67.5967" width="245.806" height="191" fill="white"/>
</g>
<rect x="116.759" y="21.9392" width="73.742" height="36.1351" fill="white" stroke="#E2E9EF"/>
<rect x="136.423" y="33.554" width="34.4129" height="12.9054" fill="#0066FF"/>
<rect x="116.759" y="116.149" width="73.742" height="36.1351" fill="white" stroke="#E2E9EF"/>
<rect x="122.903" y="131.635" width="61.4516" height="10.3243" stroke="#CFD9E0"/>
<rect x="122.903" y="125.182" width="19.6645" height="3.87163" fill="#CFD9E0"/>
<rect x="116.759" y="58.0742" width="73.742" height="36.1351" fill="white" stroke="#E2E9EF"/>
<rect x="116.759" y="152.284" width="73.742" height="36.1351" fill="white" stroke="#E2E9EF"/>
<rect x="190.5" y="152.284" width="73.7419" height="36.1351" fill="white" stroke="#E2E9EF"/>
<rect x="190.5" y="21.9392" width="73.7419" height="36.1351" fill="white" stroke="#E2E9EF"/>
<rect x="190.5" y="116.149" width="73.7419" height="36.1351" fill="white" stroke="#E2E9EF"/>
<rect x="190.5" y="58.0742" width="73.7419" height="36.1351" fill="white" stroke="#E2E9EF"/>
<rect x="116.759" y="15.4866" width="19.6645" height="3.87162" fill="#CFD9E0"/>
<rect x="116.759" y="109.696" width="19.6645" height="3.87162" fill="#CFD9E0"/>
<rect x="196.646" y="131.635" width="61.4516" height="10.3243" stroke="#0066FF"/>
<rect x="196.646" y="125.182" width="19.6645" height="3.87163" fill="#0066FF"/>
<rect x="200.333" y="135.507" width="34.4129" height="2.58109" fill="#0066FF"/>
<rect x="122.903" y="167.77" width="61.4516" height="10.3243" stroke="#CFD9E0"/>
<rect x="196.646" y="167.77" width="61.4516" height="10.3243" stroke="#CB202A"/>
<rect x="122.903" y="161.318" width="19.6645" height="3.87163" fill="#CFD9E0"/>
<rect x="196.646" y="161.318" width="19.6645" height="3.87163" fill="#CB202A"/>
<rect x="126.591" y="171.642" width="36.871" height="2.58109" fill="#0B2239"/>
<rect x="145.026" y="38.7163" width="17.2065" height="2.58108" fill="white"/>
<rect x="210.165" y="33.554" width="34.4129" height="12.9054" fill="#004FC4"/>
<rect x="136.423" y="69.6892" width="34.4129" height="12.9054" fill="#0066FF"/>
<rect x="135.194" y="68.3987" width="36.871" height="15.4865" stroke="#0066FF"/>
<rect opacity="0.3" x="210.165" y="69.6892" width="34.4129" height="12.9054" fill="#0066FF"/>
<rect x="218.769" y="38.7163" width="17.2065" height="2.58108" fill="white"/>
<rect x="145.026" y="74.8513" width="17.2065" height="2.58109" fill="white"/>
<rect opacity="0.3" x="218.769" y="74.8513" width="17.2065" height="2.58109" fill="white"/>
</g>
<defs>
<filter id="filter0_d_646_6075" x="55.5967" y="-8" width="269.807" height="215" filterUnits="userSpaceOnUse" color-interpolation-filters="sRGB">
<feFlood flood-opacity="0" result="BackgroundImageFix"/>
<feColorMatrix in="SourceAlpha" type="matrix" values="0 0 0 0 0 0 0 0 0 0 0 0 0 0 0 0 0 0 127 0" result="hardAlpha"/>
<feOffset dy="4"/>
<feGaussianBlur stdDeviation="6"/>
<feComposite in2="hardAlpha" operator="out"/>
<feColorMatrix type="matrix" values="0 0 0 0 0 0 0 0 0 0 0 0 0 0 0 0 0 0 0.08 0"/>
<feBlend mode="normal" in2="BackgroundImageFix" result="effect1_dropShadow_646_6075"/>
<feBlend mode="normal" in="SourceGraphic" in2="effect1_dropShadow_646_6075" result="shape"/>
</filter>
<clipPath id="clip0_646_6075">
<rect width="270.387" height="191" fill="white" transform="translate(55.3066)"/>
</clipPath>
</defs>
</svg>
